<?xml version="1.0" encoding="UTF-8"?>
<svg id="Layer_1" data-name="Layer 1" xmlns="http://www.w3.org/2000/svg" xmlns:xlink="http://www.w3.org/1999/xlink" viewBox="0 0 1080 1080">
  <defs>
    <style>
      .cls-1 {
        fill: url(#linear-gradient-132);
      }

      .cls-2 {
        fill: url(#linear-gradient-118);
      }

      .cls-3 {
        fill: url(#linear-gradient-162);
      }

      .cls-4 {
        fill: url(#linear-gradient-61);
      }

      .cls-5 {
        fill: url(#linear-gradient-136);
      }

      .cls-6 {
        fill: url(#linear-gradient-15);
      }

      .cls-7 {
        fill: url(#linear-gradient-13);
      }

      .cls-8 {
        fill: url(#linear-gradient-107);
      }

      .cls-9 {
        fill: url(#linear-gradient-28);
      }

      .cls-10 {
        fill: url(#linear-gradient-158);
      }

      .cls-11 {
        fill: url(#linear-gradient-65);
      }

      .cls-12 {
        fill: url(#linear-gradient-145);
      }

      .cls-13 {
        fill: url(#linear-gradient-69);
      }

      .cls-14 {
        fill: url(#linear-gradient-53);
      }

      .cls-15 {
        fill: url(#linear-gradient-42);
      }

      .cls-16 {
        fill: url(#linear-gradient-46);
      }

      .cls-17 {
        fill: url(#linear-gradient-155);
      }

      .cls-18 {
        fill: url(#linear-gradient-142);
      }

      .cls-19 {
        fill: url(#linear-gradient-70);
      }

      .cls-20 {
        fill: url(#linear-gradient-60);
      }

      .cls-21 {
        fill: url(#linear-gradient-93);
      }

      .cls-22 {
        fill: url(#linear-gradient-95);
      }

      .cls-23 {
        fill: url(#linear-gradient-2);
      }

      .cls-24 {
        fill: url(#linear-gradient-100);
      }

      .cls-25 {
        fill: url(#linear-gradient-150);
      }

      .cls-26 {
        fill: url(#linear-gradient-87);
      }

      .cls-27 {
        fill: url(#linear-gradient-163);
      }

      .cls-28 {
        fill: url(#linear-gradient-64);
      }

      .cls-29 {
        fill: url(#linear-gradient-56);
      }

      .cls-30 {
        fill: url(#linear-gradient-43);
      }

      .cls-31 {
        fill: url(#linear-gradient-25);
      }

      .cls-32 {
        fill: url(#linear-gradient-82);
      }

      .cls-33 {
        fill: url(#linear-gradient-138);
      }

      .cls-34 {
        fill: url(#linear-gradient-10);
      }

      .cls-35 {
        fill: url(#linear-gradient-12);
      }

      .cls-36 {
        fill: url(#linear-gradient-40);
      }

      .cls-37 {
        fill: url(#linear-gradient-27);
      }

      .cls-38 {
        fill: url(#linear-gradient-68);
      }

      .cls-39 {
        fill: url(#linear-gradient-37);
      }

      .cls-40 {
        fill: url(#linear-gradient-159);
      }

      .cls-41 {
        fill: url(#linear-gradient-75);
      }

      .cls-42 {
        fill: url(#linear-gradient-55);
      }

      .cls-43 {
        fill: url(#linear-gradient-116);
      }

      .cls-44 {
        fill: url(#linear-gradient-39);
      }

      .cls-45 {
        fill: url(#linear-gradient-160);
      }

      .cls-46 {
        fill: url(#linear-gradient-89);
      }

      .cls-47 {
        fill: url(#linear-gradient-52);
      }

      .cls-48 {
        fill: url(#linear-gradient-113);
      }

      .cls-49 {
        fill: url(#linear-gradient-122);
      }

      .cls-50 {
        fill: url(#linear-gradient-166);
      }

      .cls-51 {
        fill: url(#linear-gradient-58);
      }

      .cls-52 {
        fill: url(#linear-gradient-152);
      }

      .cls-53 {
        fill: url(#linear-gradient-47);
      }

      .cls-54 {
        fill: url(#linear-gradient-26);
      }

      .cls-55 {
        fill: url(#linear-gradient-74);
      }

      .cls-56 {
        fill: url(#linear-gradient-146);
      }

      .cls-57 {
        fill: url(#linear-gradient-97);
      }

      .cls-58 {
        fill: url(#linear-gradient-72);
      }

      .cls-59 {
        fill: url(#linear-gradient-157);
      }

      .cls-60 {
        fill: url(#linear-gradient-4);
      }

      .cls-61 {
        fill: url(#linear-gradient-35);
      }

      .cls-62 {
        fill: url(#linear-gradient-30);
      }

      .cls-63 {
        fill: url(#linear-gradient-125);
      }

      .cls-64 {
        fill: url(#linear-gradient-161);
      }

      .cls-65 {
        fill: url(#linear-gradient-76);
      }

      .cls-66 {
        fill: url(#linear-gradient-143);
      }

      .cls-67 {
        fill: url(#linear-gradient-109);
      }

      .cls-68 {
        fill: url(#linear-gradient-73);
      }

      .cls-69 {
        fill: url(#linear-gradient-71);
      }

      .cls-70 {
        fill: url(#linear-gradient-44);
      }

      .cls-71 {
        fill: url(#linear-gradient-144);
      }

      .cls-72 {
        fill: url(#linear-gradient-96);
      }

      .cls-73 {
        fill: url(#linear-gradient-49);
      }

      .cls-74 {
        fill: url(#linear-gradient-3);
      }

      .cls-75 {
        fill: url(#linear-gradient-34);
      }

      .cls-76 {
        fill: url(#linear-gradient-5);
      }

      .cls-77 {
        fill: url(#linear-gradient-38);
      }

      .cls-78 {
        fill: url(#linear-gradient-91);
      }

      .cls-79 {
        fill: url(#linear-gradient-149);
      }

      .cls-80 {
        fill: url(#linear-gradient-22);
      }

      .cls-81 {
        fill: url(#linear-gradient-24);
      }

      .cls-82 {
        fill: url(#linear-gradient-133);
      }

      .cls-83 {
        fill: url(#linear-gradient-94);
      }

      .cls-84 {
        fill: url(#linear-gradient-54);
      }

      .cls-85 {
        fill: url(#linear-gradient-147);
      }

      .cls-86 {
        fill: url(#linear-gradient-92);
      }

      .cls-87 {
        fill: url(#linear-gradient-90);
      }

      .cls-88 {
        fill: url(#linear-gradient-33);
      }

      .cls-89 {
        fill: url(#linear-gradient-79);
      }

      .cls-90 {
        fill: url(#linear-gradient-78);
      }

      .cls-91 {
        fill: url(#linear-gradient-51);
      }

      .cls-92 {
        fill: url(#linear-gradient-8);
      }

      .cls-93 {
        fill: #666;
      }

      .cls-94 {
        fill: url(#linear-gradient-66);
      }

      .cls-95 {
        fill: url(#linear-gradient-57);
      }

      .cls-96 {
        fill: url(#linear-gradient-77);
      }

      .cls-97 {
        fill: url(#linear-gradient-131);
      }

      .cls-98 {
        fill: url(#linear-gradient-129);
      }

      .cls-99 {
        fill: url(#linear-gradient-103);
      }

      .cls-100 {
        fill: url(#linear-gradient-135);
      }

      .cls-101 {
        fill: url(#linear-gradient-121);
      }

      .cls-102 {
        fill: url(#linear-gradient-110);
      }

      .cls-103 {
        fill: url(#linear-gradient-88);
      }

      .cls-104 {
        fill: url(#linear-gradient-124);
      }

      .cls-105 {
        fill: url(#linear-gradient-165);
      }

      .cls-106 {
        fill: url(#linear-gradient-128);
      }

      .cls-107 {
        fill: url(#linear-gradient-164);
      }

      .cls-108 {
        fill: url(#linear-gradient-14);
      }

      .cls-109 {
        fill: url(#linear-gradient-62);
      }

      .cls-110 {
        fill: url(#linear-gradient-156);
      }

      .cls-111 {
        fill: url(#linear-gradient-29);
      }

      .cls-112 {
        fill: url(#linear-gradient-20);
      }

      .cls-113 {
        fill: url(#linear-gradient-106);
      }

      .cls-114 {
        fill: url(#linear-gradient-67);
      }

      .cls-115 {
        fill: url(#linear-gradient-139);
      }

      .cls-116 {
        fill: url(#linear-gradient-148);
      }

      .cls-117 {
        fill: url(#linear-gradient-17);
      }

      .cls-118 {
        fill: url(#linear-gradient-141);
      }

      .cls-119 {
        fill: url(#linear-gradient-50);
      }

      .cls-120 {
        fill: url(#linear-gradient-7);
      }

      .cls-121 {
        fill: url(#linear-gradient-134);
      }

      .cls-122 {
        fill: url(#linear-gradient-9);
      }

      .cls-123 {
        fill: url(#linear-gradient-104);
      }

      .cls-124 {
        fill: url(#linear-gradient-59);
      }

      .cls-125 {
        fill: url(#linear-gradient-11);
      }

      .cls-126 {
        fill: url(#linear-gradient-120);
      }

      .cls-127 {
        fill: url(#linear-gradient-108);
      }

      .cls-128 {
        fill: url(#linear-gradient-19);
      }

      .cls-129 {
        fill: url(#linear-gradient-101);
      }

      .cls-130 {
        fill: url(#linear-gradient-80);
      }

      .cls-131 {
        fill: url(#linear-gradient-6);
      }

      .cls-132 {
        fill: url(#linear-gradient-83);
      }

      .cls-133 {
        fill: url(#linear-gradient-112);
      }

      .cls-134 {
        fill: url(#linear-gradient-154);
      }

      .cls-135 {
        fill: url(#linear-gradient-105);
      }

      .cls-136 {
        fill: url(#linear-gradient-137);
      }

      .cls-137 {
        fill: url(#linear-gradient-36);
      }

      .cls-138 {
        fill: url(#linear-gradient-21);
      }

      .cls-139 {
        fill: url(#linear-gradient-119);
      }

      .cls-140 {
        fill: url(#linear-gradient-45);
      }

      .cls-141 {
        fill: url(#linear-gradient-127);
      }

      .cls-142 {
        fill: url(#linear-gradient-85);
      }

      .cls-143 {
        fill: url(#linear-gradient-98);
      }

      .cls-144 {
        fill: url(#linear-gradient-81);
      }

      .cls-145 {
        fill: url(#linear-gradient-151);
      }

      .cls-146 {
        fill: url(#linear-gradient-84);
      }

      .cls-147 {
        fill: url(#linear-gradient-114);
      }

      .cls-148 {
        fill: url(#linear-gradient-140);
      }

      .cls-149 {
        fill: url(#linear-gradient-153);
      }

      .cls-150 {
        fill: url(#linear-gradient-117);
      }

      .cls-151 {
        fill: url(#linear-gradient-48);
      }

      .cls-152 {
        fill: url(#linear-gradient-102);
      }

      .cls-153 {
        fill: url(#linear-gradient-32);
      }

      .cls-154 {
        fill: url(#linear-gradient-86);
      }

      .cls-155 {
        fill: url(#linear-gradient-41);
      }

      .cls-156 {
        fill: url(#linear-gradient-130);
      }

      .cls-157 {
        fill: url(#linear-gradient-16);
      }

      .cls-158 {
        fill: url(#linear-gradient-111);
      }

      .cls-159 {
        fill: url(#linear-gradient);
      }

      .cls-160 {
        fill: url(#linear-gradient-23);
      }

      .cls-161 {
        fill: url(#linear-gradient-31);
      }

      .cls-162 {
        clip-path: url(#clippath);
      }

      .cls-163 {
        fill: url(#linear-gradient-63);
      }

      .cls-164 {
        fill: url(#linear-gradient-115);
      }

      .cls-165 {
        fill: url(#linear-gradient-126);
      }

      .cls-166 {
        fill: url(#linear-gradient-99);
      }

      .cls-167 {
        fill: url(#linear-gradient-18);
      }

      .cls-168 {
        fill: url(#linear-gradient-123);
      }
    </style>
    <clipPath id="clippath">
      <polygon class="cls-93" points="993.32 604.31 954.43 656.16 850.74 682.09 876.66 746.89 824.81 837.63 785.93 811.7 254.49 811.7 253.07 811.83 241.53 708.01 189.68 643.2 215.61 604.31 150.8 565.43 163.76 500.62 137.84 448.77 189.68 409.89 137.84 358.04 163.76 319.15 170.24 319.15 824.81 319.15 863.7 371 863.7 474.7 915.54 474.7 954.43 565.43 993.32 604.31"/>
    </clipPath>
    <linearGradient id="linear-gradient" x1="194.2" y1="5965.72" x2="361.73" y2="5896.72" gradientTransform="translate(0 6084.36) scale(1 -1)" gradientUnits="userSpaceOnUse">
      <stop offset="0" stop-color="#f5c133"/>
      <stop offset="1" stop-color="#e08524"/>
    </linearGradient>
    <linearGradient id="linear-gradient-2" x1="429.68" y1="5962.35" x2="349.68" y2="5897.1" xlink:href="#linear-gradient"/>
    <linearGradient id="linear-gradient-3" x1="820.56" y1="5916.78" x2="939.95" y2="5907.47" xlink:href="#linear-gradient"/>
    <linearGradient id="linear-gradient-4" x1="983.22" y1="5894.85" x2="997.07" y2="5982.82" xlink:href="#linear-gradient"/>
    <linearGradient id="linear-gradient-5" x1="1057.64" y1="5942.24" x2="1061.48" y2="6021.57" xlink:href="#linear-gradient"/>
    <linearGradient id="linear-gradient-6" x1="99.48" y1="5810.13" x2="113.6" y2="5961.14" xlink:href="#linear-gradient"/>
    <linearGradient id="linear-gradient-7" x1="44.03" y1="5967.71" x2="67.01" y2="5917.46" xlink:href="#linear-gradient"/>
    <linearGradient id="linear-gradient-8" x1="175.66" y1="5780.3" x2="149.26" y2="5950.34" xlink:href="#linear-gradient"/>
    <linearGradient id="linear-gradient-9" x1="215.58" y1="5876.8" x2="91.79" y2="5837.76" xlink:href="#linear-gradient"/>
    <linearGradient id="linear-gradient-10" x1="246.35" y1="5791.39" x2="219.97" y2="5961.32" xlink:href="#linear-gradient"/>
    <linearGradient id="linear-gradient-11" x1="246.5" y1="5875.04" x2="334.1" y2="5927.06" xlink:href="#linear-gradient"/>
    <linearGradient id="linear-gradient-12" x1="279.59" y1="5887.76" x2="483.39" y2="5851.34" xlink:href="#linear-gradient"/>
    <linearGradient id="linear-gradient-13" x1="433.13" y1="5958.08" x2="353.17" y2="5892.86" xlink:href="#linear-gradient"/>
    <linearGradient id="linear-gradient-14" x1="407.32" y1="5920.43" x2="513.88" y2="5820.49" xlink:href="#linear-gradient"/>
    <linearGradient id="linear-gradient-15" x1="428.24" y1="5937.35" x2="479.73" y2="5906.55" xlink:href="#linear-gradient"/>
    <linearGradient id="linear-gradient-16" x1="602.13" y1="5792.9" x2="577.97" y2="5952.16" xlink:href="#linear-gradient"/>
    <linearGradient id="linear-gradient-17" x1="597.18" y1="5982.32" x2="513.94" y2="5875.36" xlink:href="#linear-gradient"/>
    <linearGradient id="linear-gradient-18" x1="719.92" y1="5810.77" x2="695.75" y2="5970.1" xlink:href="#linear-gradient"/>
    <linearGradient id="linear-gradient-19" x1="737.07" y1="5863.7" x2="755.88" y2="5973.3" xlink:href="#linear-gradient"/>
    <linearGradient id="linear-gradient-20" x1="794.27" y1="5885.84" x2="883.56" y2="5856.41" xlink:href="#linear-gradient"/>
    <linearGradient id="linear-gradient-21" x1="810.65" y1="5917.31" x2="774.59" y2="5861.92" xlink:href="#linear-gradient"/>
    <linearGradient id="linear-gradient-22" x1="1014.19" y1="5870.95" x2="872.89" y2="5868.9" xlink:href="#linear-gradient"/>
    <linearGradient id="linear-gradient-23" x1="988.58" y1="5800.93" x2="913.06" y2="5874.18" xlink:href="#linear-gradient"/>
    <linearGradient id="linear-gradient-24" x1="1029.77" y1="5766.4" x2="1018.15" y2="5888.53" xlink:href="#linear-gradient"/>
    <linearGradient id="linear-gradient-25" x1="1022.86" y1="5858.48" x2="935.18" y2="5870.71" xlink:href="#linear-gradient"/>
    <linearGradient id="linear-gradient-26" x1="1110.61" y1="5774.1" x2="1098.98" y2="5896.23" xlink:href="#linear-gradient"/>
    <linearGradient id="linear-gradient-27" x1="1044.46" y1="5847.5" x2="1161.25" y2="5895.7" xlink:href="#linear-gradient"/>
    <linearGradient id="linear-gradient-28" x1="22.02" y1="5766.12" x2="100.82" y2="5717.92" xlink:href="#linear-gradient"/>
    <linearGradient id="linear-gradient-29" x1="124.3" y1="5793.59" x2="-29.73" y2="5724.93" xlink:href="#linear-gradient"/>
    <linearGradient id="linear-gradient-30" x1="113.43" y1="5707.62" x2="237.69" y2="5662.82" xlink:href="#linear-gradient"/>
    <linearGradient id="linear-gradient-31" x1="228.22" y1="5702.06" x2="185.03" y2="5764.7" xlink:href="#linear-gradient"/>
    <linearGradient id="linear-gradient-32" x1="287.09" y1="5763.36" x2="353.41" y2="5716.9" xlink:href="#linear-gradient"/>
    <linearGradient id="linear-gradient-33" x1="295.3" y1="5806.08" x2="241.36" y2="5758.34" xlink:href="#linear-gradient"/>
    <linearGradient id="linear-gradient-34" x1="484.04" y1="5728.69" x2="336.03" y2="5750.19" xlink:href="#linear-gradient"/>
    <linearGradient id="linear-gradient-35" x1="371.47" y1="5655.75" x2="371.9" y2="5798.12" xlink:href="#linear-gradient"/>
    <linearGradient id="linear-gradient-36" x1="516.47" y1="5727.34" x2="484.36" y2="5834.46" xlink:href="#linear-gradient"/>
    <linearGradient id="linear-gradient-37" x1="578.13" y1="5807.56" x2="507.83" y2="5753.3" xlink:href="#linear-gradient"/>
    <linearGradient id="linear-gradient-38" x1="689.18" y1="5756.29" x2="589.46" y2="5788.82" xlink:href="#linear-gradient"/>
    <linearGradient id="linear-gradient-39" x1="632.52" y1="5700.51" x2="607.78" y2="5788.06" xlink:href="#linear-gradient"/>
    <linearGradient id="linear-gradient-40" x1="665.9" y1="5774.86" x2="765.28" y2="5789.18" xlink:href="#linear-gradient"/>
    <linearGradient id="linear-gradient-41" x1="744.28" y1="5732.09" x2="719.41" y2="5820.07" xlink:href="#linear-gradient"/>
    <linearGradient id="linear-gradient-42" x1="897.63" y1="5748.81" x2="794.73" y2="5785.54" xlink:href="#linear-gradient"/>
    <linearGradient id="linear-gradient-43" x1="811.49" y1="5870.89" x2="904.49" y2="5705.66" xlink:href="#linear-gradient"/>
    <linearGradient id="linear-gradient-44" x1="941.43" y1="5674.22" x2="949.45" y2="5831.31" xlink:href="#linear-gradient"/>
    <linearGradient id="linear-gradient-45" x1="980.73" y1="5862.44" x2="841.87" y2="5725.11" xlink:href="#linear-gradient"/>
    <linearGradient id="linear-gradient-46" x1="1003.28" y1="5826.85" x2="1014.89" y2="5707.98" xlink:href="#linear-gradient"/>
    <linearGradient id="linear-gradient-47" x1="1008.6" y1="5712.92" x2="1021.1" y2="5771.07" xlink:href="#linear-gradient"/>
    <linearGradient id="linear-gradient-48" x1="1025.9" y1="5755.45" x2="1178.63" y2="5756.78" xlink:href="#linear-gradient"/>
    <linearGradient id="linear-gradient-49" x1="1088.01" y1="5695.85" x2="1100.48" y2="5753.86" xlink:href="#linear-gradient"/>
    <linearGradient id="linear-gradient-50" x1="102.23" y1="5573.25" x2="104.62" y2="5697.43" xlink:href="#linear-gradient"/>
    <linearGradient id="linear-gradient-51" x1="139.12" y1="5628.44" x2="61.92" y2="5655.02" xlink:href="#linear-gradient"/>
    <linearGradient id="linear-gradient-52" x1="281.24" y1="5697.03" x2="158.76" y2="5598.04" xlink:href="#linear-gradient"/>
    <linearGradient id="linear-gradient-53" x1="159.25" y1="5687.52" x2="82.26" y2="5714.02" xlink:href="#linear-gradient"/>
    <linearGradient id="linear-gradient-54" x1="370.34" y1="5654.67" x2="239.37" y2="5669.56" xlink:href="#linear-gradient"/>
    <linearGradient id="linear-gradient-55" x1="347.15" y1="5590.54" x2="308.43" y2="5668.54" xlink:href="#linear-gradient"/>
    <linearGradient id="linear-gradient-56" x1="387.45" y1="5643.4" x2="481.08" y2="5594.05" xlink:href="#linear-gradient"/>
    <linearGradient id="linear-gradient-57" x1="453.77" y1="5693.79" x2="344.15" y2="5637.69" xlink:href="#linear-gradient"/>
    <linearGradient id="linear-gradient-58" x1="450.02" y1="5610.27" x2="526.38" y2="5570.77" xlink:href="#linear-gradient"/>
    <linearGradient id="linear-gradient-59" x1="509.12" y1="5623.78" x2="535.2" y2="5753.33" xlink:href="#linear-gradient"/>
    <linearGradient id="linear-gradient-60" x1="589.32" y1="5581.89" x2="629.63" y2="5725.21" xlink:href="#linear-gradient"/>
    <linearGradient id="linear-gradient-61" x1="648.83" y1="5746.52" x2="523.08" y2="5650.26" xlink:href="#linear-gradient"/>
    <linearGradient id="linear-gradient-62" x1="684.25" y1="5555.19" x2="724.56" y2="5698.51" xlink:href="#linear-gradient"/>
    <linearGradient id="linear-gradient-63" x1="702.53" y1="5740.77" x2="786.84" y2="5658.37" xlink:href="#linear-gradient"/>
    <linearGradient id="linear-gradient-64" x1="761.81" y1="5664.6" x2="861.97" y2="5655.96" xlink:href="#linear-gradient"/>
    <linearGradient id="linear-gradient-65" x1="811.5" y1="5621.28" x2="826.97" y2="5718.51" xlink:href="#linear-gradient"/>
    <linearGradient id="linear-gradient-66" x1="893.72" y1="5611.89" x2="911.53" y2="5680.97" xlink:href="#linear-gradient"/>
    <linearGradient id="linear-gradient-67" x1="870.06" y1="5593.2" x2="963.55" y2="5705.63" xlink:href="#linear-gradient"/>
    <linearGradient id="linear-gradient-68" x1="1044.62" y1="5695.41" x2="936.12" y2="5550.35" xlink:href="#linear-gradient"/>
    <linearGradient id="linear-gradient-69" x1="914.57" y1="5566.8" x2="1003.5" y2="5673.74" xlink:href="#linear-gradient"/>
    <linearGradient id="linear-gradient-70" x1="1009.86" y1="5678.39" x2="1201.85" y2="5575.63" xlink:href="#linear-gradient"/>
    <linearGradient id="linear-gradient-71" x1="1026.66" y1="5668.09" x2="1179.38" y2="5669.42" xlink:href="#linear-gradient"/>
    <linearGradient id="linear-gradient-72" x1="110.9" y1="5517.14" x2="128.4" y2="5459.77" xlink:href="#linear-gradient"/>
    <linearGradient id="linear-gradient-73" x1="118.93" y1="5559.11" x2="53.11" y2="5638.06" xlink:href="#linear-gradient"/>
    <linearGradient id="linear-gradient-74" x1="249.36" y1="5562.28" x2="45.03" y2="5520.68" xlink:href="#linear-gradient"/>
    <linearGradient id="linear-gradient-75" x1="130.86" y1="5560.31" x2="226.37" y2="5550.16" xlink:href="#linear-gradient"/>
    <linearGradient id="linear-gradient-76" x1="254.67" y1="5524.56" x2="311.45" y2="5539.25" xlink:href="#linear-gradient"/>
    <linearGradient id="linear-gradient-77" x1="356.79" y1="5535.46" x2="225.83" y2="5550.34" xlink:href="#linear-gradient"/>
    <linearGradient id="linear-gradient-78" x1="367.51" y1="5477.8" x2="409.38" y2="5580.39" xlink:href="#linear-gradient"/>
    <linearGradient id="linear-gradient-79" x1="353.52" y1="5579.02" x2="447.15" y2="5529.68" xlink:href="#linear-gradient"/>
    <linearGradient id="linear-gradient-80" x1="474.8" y1="5467.31" x2="502.78" y2="5623.99" xlink:href="#linear-gradient"/>
    <linearGradient id="linear-gradient-81" x1="452.28" y1="5499.86" x2="475.78" y2="5537.73" xlink:href="#linear-gradient"/>
    <linearGradient id="linear-gradient-82" x1="685.51" y1="5561.83" x2="509.72" y2="5533" xlink:href="#linear-gradient"/>
    <linearGradient id="linear-gradient-83" x1="555.78" y1="5622.88" x2="704.42" y2="5495.97" xlink:href="#linear-gradient"/>
    <linearGradient id="linear-gradient-84" x1="720.38" y1="5432.06" x2="732.77" y2="5631.29" xlink:href="#linear-gradient"/>
    <linearGradient id="linear-gradient-85" x1="780.78" y1="5584.31" x2="656.69" y2="5524.18" xlink:href="#linear-gradient"/>
    <linearGradient id="linear-gradient-86" x1="820.18" y1="5546.13" x2="724.41" y2="5523.33" xlink:href="#linear-gradient"/>
    <linearGradient id="linear-gradient-87" x1="797.55" y1="5648.2" x2="881.66" y2="5472.29" xlink:href="#linear-gradient"/>
    <linearGradient id="linear-gradient-88" x1="940.47" y1="5548.17" x2="863.73" y2="5438.42" xlink:href="#linear-gradient"/>
    <linearGradient id="linear-gradient-89" x1="874.39" y1="5450.19" x2="891.31" y2="5617.68" xlink:href="#linear-gradient"/>
    <linearGradient id="linear-gradient-90" x1="994.66" y1="5545.13" x2="962.75" y2="5593.04" xlink:href="#linear-gradient"/>
    <linearGradient id="linear-gradient-91" x1="1048.4" y1="5449.63" x2="969.23" y2="5601.89" xlink:href="#linear-gradient"/>
    <linearGradient id="linear-gradient-92" x1="1159.04" y1="5659.17" x2="1043.93" y2="5532.22" xlink:href="#linear-gradient"/>
    <linearGradient id="linear-gradient-93" x1="18.69" y1="5463.43" x2="127.93" y2="5379.33" xlink:href="#linear-gradient"/>
    <linearGradient id="linear-gradient-94" x1="85.45" y1="5509.23" x2="102.87" y2="5452.11" xlink:href="#linear-gradient"/>
    <linearGradient id="linear-gradient-95" x1="148.23" y1="5429.21" x2="162.03" y2="5433.16" xlink:href="#linear-gradient"/>
    <linearGradient id="linear-gradient-96" x1="270.36" y1="5459.12" x2="66.03" y2="5417.52" xlink:href="#linear-gradient"/>
    <linearGradient id="linear-gradient-97" x1="208.56" y1="5352.38" x2="307.22" y2="5416.92" xlink:href="#linear-gradient"/>
    <linearGradient id="linear-gradient-98" x1="287.85" y1="5497.04" x2="376.69" y2="5372.1" xlink:href="#linear-gradient"/>
    <linearGradient id="linear-gradient-99" x1="451.84" y1="5501.91" x2="371.25" y2="5347.1" xlink:href="#linear-gradient"/>
    <linearGradient id="linear-gradient-100" x1="408.9" y1="5368.52" x2="377" y2="5508.59" xlink:href="#linear-gradient"/>
    <linearGradient id="linear-gradient-101" x1="585.95" y1="5383.51" x2="441.75" y2="5447.33" xlink:href="#linear-gradient"/>
    <linearGradient id="linear-gradient-102" x1="532.34" y1="5322.52" x2="490.29" y2="5448.21" xlink:href="#linear-gradient"/>
    <linearGradient id="linear-gradient-103" x1="551.76" y1="5347.87" x2="599.82" y2="5386.04" xlink:href="#linear-gradient"/>
    <linearGradient id="linear-gradient-104" x1="655.33" y1="5524.92" x2="520.56" y2="5370.55" xlink:href="#linear-gradient"/>
    <linearGradient id="linear-gradient-105" x1="652.36" y1="5340.8" x2="739.1" y2="5457.05" xlink:href="#linear-gradient"/>
    <linearGradient id="linear-gradient-106" x1="686.32" y1="5351.23" x2="716.06" y2="5440.7" xlink:href="#linear-gradient"/>
    <linearGradient id="linear-gradient-107" x1="710.02" y1="5386.39" x2="902.25" y2="5416.29" xlink:href="#linear-gradient"/>
    <linearGradient id="linear-gradient-108" x1="827.08" y1="5470.48" x2="701.38" y2="5358.65" xlink:href="#linear-gradient"/>
    <linearGradient id="linear-gradient-109" x1="844.66" y1="5455.18" x2="917.4" y2="5353.74" xlink:href="#linear-gradient"/>
    <linearGradient id="linear-gradient-110" x1="892.34" y1="5489.37" x2="965.08" y2="5387.93" xlink:href="#linear-gradient"/>
    <linearGradient id="linear-gradient-111" x1="904.96" y1="5380.73" x2="1089.48" y2="5441.45" xlink:href="#linear-gradient"/>
    <linearGradient id="linear-gradient-112" x1="1083.98" y1="5397.15" x2="930.72" y2="5433.92" xlink:href="#linear-gradient"/>
    <linearGradient id="linear-gradient-113" x1="74.94" y1="5260.33" x2="123.14" y2="5421.06" xlink:href="#linear-gradient"/>
    <linearGradient id="linear-gradient-114" x1="48.84" y1="5248.16" x2="71.65" y2="5300.67" xlink:href="#linear-gradient"/>
    <linearGradient id="linear-gradient-115" x1="218.28" y1="5327.11" x2="109.4" y2="5332.56" xlink:href="#linear-gradient"/>
    <linearGradient id="linear-gradient-116" x1="207.73" y1="5243.8" x2="160.01" y2="5414.11" xlink:href="#linear-gradient"/>
    <linearGradient id="linear-gradient-117" x1="212.33" y1="5298.26" x2="370.01" y2="5303.89" xlink:href="#linear-gradient"/>
    <linearGradient id="linear-gradient-118" x1="293.4" y1="5267.81" x2="245.68" y2="5438.12" xlink:href="#linear-gradient"/>
    <linearGradient id="linear-gradient-119" x1="395.22" y1="5332.61" x2="341.88" y2="5284.71" xlink:href="#linear-gradient"/>
    <linearGradient id="linear-gradient-120" x1="376.62" y1="5384.54" x2="447.79" y2="5328.29" xlink:href="#linear-gradient"/>
    <linearGradient id="linear-gradient-121" x1="462.02" y1="5343.21" x2="537.48" y2="5279.36" xlink:href="#linear-gradient"/>
    <linearGradient id="linear-gradient-122" x1="494.98" y1="5303.12" x2="489.85" y2="5400.85" xlink:href="#linear-gradient"/>
    <linearGradient id="linear-gradient-123" x1="637.28" y1="5271.44" x2="506.34" y2="5287.08" xlink:href="#linear-gradient"/>
    <linearGradient id="linear-gradient-124" x1="603.82" y1="5281.55" x2="652.21" y2="5319.99" xlink:href="#linear-gradient"/>
    <linearGradient id="linear-gradient-125" x1="714.55" y1="5226.42" x2="660.42" y2="5298.38" xlink:href="#linear-gradient"/>
    <linearGradient id="linear-gradient-126" x1="681.16" y1="5225.99" x2="661.32" y2="5377.86" xlink:href="#linear-gradient"/>
    <linearGradient id="linear-gradient-127" x1="818.84" y1="5336.66" x2="754" y2="5309.15" xlink:href="#linear-gradient"/>
    <linearGradient id="linear-gradient-128" x1="721.83" y1="5310.46" x2="914.06" y2="5340.37" xlink:href="#linear-gradient"/>
    <linearGradient id="linear-gradient-129" x1="841.72" y1="5329.94" x2="987.1" y2="5304.25" xlink:href="#linear-gradient"/>
    <linearGradient id="linear-gradient-130" x1="841.67" y1="5290.82" x2="915.46" y2="5365.02" xlink:href="#linear-gradient"/>
    <linearGradient id="linear-gradient-131" x1="1024.46" y1="5313.4" x2="979.99" y2="5312.12" xlink:href="#linear-gradient"/>
    <linearGradient id="linear-gradient-132" x1="965.67" y1="5303.41" x2="1039.3" y2="5444" xlink:href="#linear-gradient"/>
    <linearGradient id="linear-gradient-133" x1="1108.64" y1="5201.08" x2="1067.23" y2="5391.17" xlink:href="#linear-gradient"/>
    <linearGradient id="linear-gradient-134" x1="1114.5" y1="5330.4" x2="1081.63" y2="5337.97" xlink:href="#linear-gradient"/>
    <linearGradient id="linear-gradient-135" x1="95.46" y1="5121.25" x2="84.22" y2="5249.23" xlink:href="#linear-gradient"/>
    <linearGradient id="linear-gradient-136" x1="196.58" y1="5131.8" x2="182.25" y2="5241.44" xlink:href="#linear-gradient"/>
    <linearGradient id="linear-gradient-137" x1="180.01" y1="5273.16" x2="81.83" y2="5151.27" xlink:href="#linear-gradient"/>
    <linearGradient id="linear-gradient-138" x1="338.58" y1="5243.31" x2="206.89" y2="5184.54" xlink:href="#linear-gradient"/>
    <linearGradient id="linear-gradient-139" x1="285.15" y1="5211.28" x2="297.14" y2="5267.29" xlink:href="#linear-gradient"/>
    <linearGradient id="linear-gradient-140" x1="389.38" y1="5248.97" x2="468.72" y2="5205.58" xlink:href="#linear-gradient"/>
    <linearGradient id="linear-gradient-141" x1="436.39" y1="5286.76" x2="382.98" y2="5238.8" xlink:href="#linear-gradient"/>
    <linearGradient id="linear-gradient-142" x1="601.06" y1="5187.33" x2="461.69" y2="5228.45" xlink:href="#linear-gradient"/>
    <linearGradient id="linear-gradient-143" x1="566.38" y1="5102.66" x2="487.77" y2="5227.37" xlink:href="#linear-gradient"/>
    <linearGradient id="linear-gradient-144" x1="562.2" y1="5130.08" x2="655.6" y2="5207.06" xlink:href="#linear-gradient"/>
    <linearGradient id="linear-gradient-145" x1="575.15" y1="5246.71" x2="522.1" y2="5137.89" xlink:href="#linear-gradient"/>
    <linearGradient id="linear-gradient-146" x1="677.56" y1="5195.54" x2="636.97" y2="5227.05" xlink:href="#linear-gradient"/>
    <linearGradient id="linear-gradient-147" x1="691.34" y1="5164.84" x2="705.03" y2="5276.84" xlink:href="#linear-gradient"/>
    <linearGradient id="linear-gradient-148" x1="743.86" y1="5214.46" x2="895.09" y2="5249.77" xlink:href="#linear-gradient"/>
    <linearGradient id="linear-gradient-149" x1="852.41" y1="5257.55" x2="787.19" y2="5229.88" xlink:href="#linear-gradient"/>
    <linearGradient id="linear-gradient-150" x1="825.52" y1="5284.65" x2="960.56" y2="5168.41" xlink:href="#linear-gradient"/>
    <linearGradient id="linear-gradient-151" x1="897.09" y1="5188.57" x2="908.07" y2="5279.67" xlink:href="#linear-gradient"/>
    <linearGradient id="linear-gradient-152" x1="1019.02" y1="5182.17" x2="985.16" y2="5252.5" xlink:href="#linear-gradient"/>
    <linearGradient id="linear-gradient-153" x1="1026.96" y1="5226.7" x2="982.46" y2="5225.42" xlink:href="#linear-gradient"/>
    <linearGradient id="linear-gradient-154" x1="1016.36" y1="5262.62" x2="1175.59" y2="5104.84" xlink:href="#linear-gradient"/>
    <linearGradient id="linear-gradient-155" x1="1114.78" y1="5105.69" x2="1103.31" y2="5207.14" xlink:href="#linear-gradient"/>
    <linearGradient id="linear-gradient-156" x1="362.13" y1="5193.78" x2="232.14" y2="5007.7" xlink:href="#linear-gradient"/>
    <linearGradient id="linear-gradient-157" x1="362.54" y1="5189.59" x2="230.72" y2="5130.77" xlink:href="#linear-gradient"/>
    <linearGradient id="linear-gradient-158" x1="438.23" y1="5162.18" x2="341.46" y2="5189.63" xlink:href="#linear-gradient"/>
    <linearGradient id="linear-gradient-159" x1="375.94" y1="5197.69" x2="406.83" y2="4995.62" xlink:href="#linear-gradient"/>
    <linearGradient id="linear-gradient-160" x1="580.8" y1="5107.02" x2="674.45" y2="5184.2" xlink:href="#linear-gradient"/>
    <linearGradient id="linear-gradient-161" x1="755.45" y1="5151.55" x2="669.6" y2="5182.28" xlink:href="#linear-gradient"/>
    <linearGradient id="linear-gradient-162" x1="758.98" y1="5149.54" x2="910.25" y2="5184.87" xlink:href="#linear-gradient"/>
    <linearGradient id="linear-gradient-163" x1="950.84" y1="5198.14" x2="862.95" y2="5105.14" xlink:href="#linear-gradient"/>
    <linearGradient id="linear-gradient-164" x1="921.6" y1="4991.76" x2="972.65" y2="5179.1" xlink:href="#linear-gradient"/>
    <linearGradient id="linear-gradient-165" x1="1022.45" y1="5073.23" x2="1014.26" y2="5198.59" xlink:href="#linear-gradient"/>
    <linearGradient id="linear-gradient-166" x1="1084.89" y1="5077.41" x2="1076.7" y2="5202.68" xlink:href="#linear-gradient"/>
  </defs>
  <polygon class="cls-93" points="993.32 604.31 954.43 656.16 850.74 682.09 876.66 746.89 824.81 837.63 785.93 811.7 254.49 811.7 253.07 811.83 241.53 708.01 189.68 643.2 215.61 604.31 150.8 565.43 163.76 500.62 137.84 448.77 189.68 409.89 137.84 358.04 163.76 319.15 170.24 319.15 824.81 319.15 863.7 371 863.7 474.7 915.54 474.7 954.43 565.43 993.32 604.31"/>
  <g class="cls-162">
    <g>
      <polygon class="cls-159" points="295.34 171.23 357.79 197.2 349.03 171.23 295.34 171.23"/>
      <polygon class="cls-23" points="349.03 171.23 357.79 197.2 389.33 171.23 349.03 171.23"/>
      <polygon class="cls-74" points="823.49 171.23 820.12 173.23 939.51 182.63 941.28 171.23 823.49 171.23"/>
      <polygon class="cls-60" points="941.28 171.23 939.51 182.63 1027.17 194.97 1009.75 171.23 941.28 171.23"/>
      <polygon class="cls-76" points="1049.52 171.23 1027.17 194.97 1084.13 171.23 1049.52 171.23"/>
      <polygon class="cls-131" points="69.41 172.17 69.41 285.52 135.24 315.32 69.41 172.17"/>
      <polygon class="cls-120" points="69.41 172.17 69.41 172.89 135.24 315.32 69.41 172.17"/>
      <polygon class="cls-92" points="177.66 171.23 135.24 315.32 216.62 297.58 197.2 171.23 177.66 171.23"/>
      <polygon class="cls-122" points="69.41 171.23 69.41 172.89 135.24 315.32 177.66 171.23 69.41 171.23"/>
      <polygon class="cls-34" points="197.2 171.23 216.62 297.58 270.09 249.8 218.9 171.23 197.2 171.23"/>
      <polygon class="cls-125" points="218.9 171.23 270.09 249.8 357.79 197.2 295.34 171.23 218.9 171.23"/>
      <polygon class="cls-35" points="381.33 171.23 270.09 249.8 473.82 286.56 446.78 171.23 381.33 171.23"/>
      <polygon class="cls-7" points="381.33 171.23 270.09 249.8 357.79 197.2 389.33 171.23 381.33 171.23"/>
      <polygon class="cls-108" points="446.78 171.23 473.82 286.56 543.65 232.13 479.35 171.23 446.78 171.23"/>
      <polygon class="cls-6" points="479.35 171.23 543.65 232.13 495.63 171.23 479.35 171.23"/>
      <polygon class="cls-157" points="590.59 171.23 543.65 232.13 650.33 284.14 633.37 171.23 590.59 171.23"/>
      <polygon class="cls-117" points="495.63 171.23 543.65 232.13 590.59 171.23 495.63 171.23"/>
      <polygon class="cls-167" points="633.37 171.23 650.33 284.14 784.31 228.77 696.93 171.23 633.37 171.23"/>
      <polygon class="cls-128" points="696.93 171.23 784.31 228.77 794.09 171.23 696.93 171.23"/>
      <path class="cls-112" d="M820.12,173.23l-35.81,55.54,89.2,29.68-53.39-85.23h0Z"/>
      <polygon class="cls-138" points="794.09 171.23 784.31 228.77 820.12 173.23 819.48 171.23 794.09 171.23"/>
      <path class="cls-80" d="M820.12,173.23l194.69,83.16-141.31,2.07-53.39-85.23h0Z"/>
      <path class="cls-160" d="M820.12,173.23l194.69,83.16-75.31-73.76h0l-119.39-9.4Z"/>
      <path class="cls-81" d="M1027.16,194.97l-12.35,61.42,23.87,60.72-11.51-122.14h0Z"/>
      <path class="cls-31" d="M1027.16,194.97l-12.35,61.42-75.31-73.76h0l87.66,12.34Z"/>
      <polygon class="cls-54" points="1175.74 231.94 1027.16 194.97 1027.17 194.97 1038.68 317.11 1175.74 266.63 1175.74 231.94"/>
      <polygon class="cls-37" points="1175.74 182.32 1165.94 171.23 1084.13 171.23 1027.16 194.97 1175.74 231.94 1175.74 182.32"/>
      <polygon class="cls-9" points="69.41 419.39 135.24 315.33 69.41 344.96 69.41 419.39"/>
      <polygon class="cls-111" points="69.41 285.52 69.41 344.96 135.24 315.32 69.41 285.52"/>
      <polygon class="cls-62" points="69.41 430.16 259.66 360.62 135.24 315.32 135.24 315.32 69.41 419.39 69.41 430.16"/>
      <path class="cls-161" d="M135.24,315.32l124.41,45.3-43.03-63.04h0l-81.38,17.74Z"/>
      <path class="cls-153" d="M270.09,249.8l-10.43,110.83,65.9,46.61-55.46-157.44h0Z"/>
      <path class="cls-88" d="M270.09,249.8l-10.43,110.83-43.03-63.04h0l53.47-47.78Z"/>
      <path class="cls-75" d="M270.09,249.8l203.3,179.12-147.84-21.68-55.46-157.44h0Z"/>
      <path class="cls-61" d="M270.09,249.8l203.3,179.12.43-142.36h0l-203.73-36.76Z"/>
      <path class="cls-137" d="M543.65,232.13l-70.26,196.79,102.02-89.8-31.76-106.99h0Z"/>
      <path class="cls-39" d="M543.65,232.13l-70.26,196.79.43-142.36h0l69.83-54.43Z"/>
      <path class="cls-77" d="M543.65,232.13l131.23,139.75-99.47-32.76-31.76-106.99h0Z"/>
      <path class="cls-44" d="M543.65,232.13l131.23,139.75-24.56-87.74h0l-106.67-52.02Z"/>
      <path class="cls-36" d="M784.31,228.77l-109.42,143.11,99.23-14.44,10.19-128.67h0Z"/>
      <path class="cls-155" d="M784.31,228.77l-109.42,143.11-24.56-87.74h0l133.98-55.37Z"/>
      <path class="cls-15" d="M784.31,228.77l92.32,165.62-102.51-36.95,10.19-128.67h0Z"/>
      <path class="cls-30" d="M784.31,228.77l92.32,165.62-3.12-135.94h0l-89.2-29.68Z"/>
      <path class="cls-70" d="M1014.81,256.39l-138.19,138,130.25,19.09,7.94-157.09h0Z"/>
      <path class="cls-140" d="M1014.81,256.39l-138.19,138-3.12-135.94h0l141.31-2.07Z"/>
      <path class="cls-16" d="M1014.81,256.39l11.49,118.86-19.43,38.23,7.94-157.09h0Z"/>
      <path class="cls-53" d="M1014.81,256.39l11.49,118.86,12.38-58.14h0l-23.87-60.72Z"/>
      <polygon class="cls-151" points="1175.74 281.27 1026.3 375.25 1175.74 373.94 1175.74 281.27"/>
      <polygon class="cls-73" points="1175.74 266.63 1038.68 317.11 1026.3 375.25 1175.74 281.27 1175.74 266.63"/>
      <polygon class="cls-119" points="69.41 427.14 69.41 481.08 137.65 460.19 69.41 427.14"/>
      <polygon class="cls-91" points="69.41 427.14 69.41 436.47 137.65 460.19 69.41 427.14"/>
      <path class="cls-47" d="M259.66,360.62l-122.01,99.57,95.41,10.23,26.6-109.8h0Z"/>
      <polygon class="cls-14" points="69.41 430.16 69.41 436.47 137.65 460.19 259.66 360.62 69.41 430.16"/>
      <path class="cls-84" d="M259.66,360.62l104.34,124.83-130.95-15.03,26.6-109.8h0Z"/>
      <path class="cls-42" d="M259.66,360.62l104.34,124.83-38.45-78.22h0l-65.9-46.61Z"/>
      <path class="cls-29" d="M473.39,428.92l-109.4,56.53,93.43,49.73,15.97-106.26h0Z"/>
      <path class="cls-95" d="M473.39,428.92l-109.4,56.53-38.45-78.22h0l147.84,21.69Z"/>
      <path class="cls-51" d="M473.39,428.92l76.19,39.81-92.16,66.45,15.97-106.26h0Z"/>
      <path class="cls-124" d="M473.39,428.92l76.19,39.81,25.83-129.61h0l-102.02,89.8Z"/>
      <path class="cls-20" d="M674.89,371.88l-125.3,96.85,85.35,46.57,39.95-143.41h0Z"/>
      <path class="cls-4" d="M674.89,371.88l-125.3,96.85,25.83-129.61h0l99.47,32.76Z"/>
      <path class="cls-109" d="M674.89,371.88l83.91,82.81-123.86,60.61,39.95-143.41h0Z"/>
      <path class="cls-163" d="M674.89,371.88l83.91,82.81,15.32-97.25h0l-99.23,14.44Z"/>
      <path class="cls-28" d="M876.62,394.39l-117.83,60.3,100.21,8.72,17.62-69.03h0Z"/>
      <path class="cls-11" d="M876.62,394.39l-117.83,60.3,15.32-97.25h0l102.51,36.95Z"/>
      <path class="cls-94" d="M876.62,394.39l41.86,126.42-59.47-57.4,17.62-69.03h0Z"/>
      <path class="cls-114" d="M872.9,394.39l43.05,134.93,90.92-114.56h0l-133.98-20.37Z"/>
      <path class="cls-38" d="M1026.31,375.25l-107.83,145.57,106.41-67.28,1.42-78.29h0Z"/>
      <path class="cls-13" d="M1026.31,375.25l-107.83,145.57,88.4-107.34h0l19.43-38.23Z"/>
      <polygon class="cls-19" points="1175.74 456.01 1026.31 375.25 1026.3 375.25 1024.89 453.53 1175.74 473.25 1175.74 456.01"/>
      <polygon class="cls-69" points="1175.74 373.94 1026.31 375.25 1175.74 456.01 1175.74 373.94"/>
      <polygon class="cls-58" points="69.41 553.37 69.41 625.94 137.65 460.19 137.65 460.19 69.41 553.37"/>
      <polygon class="cls-68" points="69.41 481.08 69.41 553.37 137.65 460.19 69.41 481.08"/>
      <polygon class="cls-55" points="69.41 643.36 265.83 602.98 137.65 460.19 137.65 460.19 69.41 625.94 69.41 643.36"/>
      <path class="cls-41" d="M137.65,460.19l128.18,142.78-32.78-132.55h0l-95.4-10.24Z"/>
      <path class="cls-65" d="M364,485.45l-98.17,117.52,56.65-14.79,41.51-102.73h0Z"/>
      <path class="cls-96" d="M364,485.45l-98.17,117.52-32.78-132.55h0l130.95,15.03Z"/>
      <path class="cls-90" d="M364,485.45l70.06,87.74-111.58,14.99,41.51-102.73h0Z"/>
      <path class="cls-89" d="M364,485.45l70.06,87.74,23.36-38.02h0l-93.43-49.73Z"/>
      <path class="cls-130" d="M549.59,468.72l-115.52,104.47,87.81,52.26,27.72-156.73h0Z"/>
      <path class="cls-144" d="M549.59,468.72l-115.52,104.47,23.36-38.02h0l92.16-66.46Z"/>
      <path class="cls-32" d="M549.59,468.72l148.03,127.63-175.75,29.1,27.72-156.73h0Z"/>
      <path class="cls-132" d="M549.59,468.72l148.03,127.63-62.68-81.06h0l-85.35-46.57Z"/>
      <path class="cls-146" d="M758.8,454.69l-61.18,141.66,48.9,57.57,12.27-199.23h0Z"/>
      <path class="cls-142" d="M758.8,454.69l-61.18,141.66-62.68-81.06h0l123.86-60.61Z"/>
      <path class="cls-154" d="M758.8,454.69l83.45,176.23-95.72,23.01,12.27-199.23h0Z"/>
      <path class="cls-26" d="M758.8,454.69l83.45,176.23,16.76-167.5h0l-100.21-8.72Z"/>
      <path class="cls-103" d="M918.48,520.82l-76.23,110.1,108.02-61.92-31.79-48.18h0Z"/>
      <path class="cls-46" d="M918.48,520.82l-76.23,110.1,16.76-167.5h0l59.47,57.4Z"/>
      <path class="cls-87" d="M918.48,520.82l184.97,85.29-153.18-37.11-31.79-48.18h0Z"/>
      <path class="cls-78" d="M918.48,520.82l184.97,85.29-78.56-152.58h0l-106.41,67.28Z"/>
      <polygon class="cls-86" points="1175.74 473.25 1024.89 453.53 1103.44 606.11 1175.74 525.61 1175.74 473.25"/>
      <polygon class="cls-21" points="69.41 607.22 69.41 712.74 153.13 672.29 69.41 607.22"/>
      <polygon class="cls-83" points="69.41 607.22 69.41 647.3 153.13 672.29 69.41 607.22"/>
      <path class="cls-22" d="M265.83,602.98l-112.7,69.31,13.78-3.98,98.92-65.33h0Z"/>
      <polygon class="cls-72" points="69.41 643.36 69.41 647.3 153.13 672.29 265.83 602.98 69.41 643.36"/>
      <path class="cls-57" d="M265.83,602.98l88.26,125.35-187.18-60.02,98.92-65.33h0Z"/>
      <path class="cls-143" d="M265.83,602.98l88.26,125.35-31.61-140.14h0l-56.65,14.79Z"/>
      <path class="cls-166" d="M434.06,573.2l-79.97,155.13,65.82-41.15,14.15-113.98h0Z"/>
      <path class="cls-24" d="M434.06,573.2l-79.97,155.13-31.61-140.14h0l111.58-14.99Z"/>
      <path class="cls-129" d="M434.06,573.2l129.52,178.19-143.67-64.21,14.15-113.98h0Z"/>
      <path class="cls-152" d="M434.06,573.2l129.52,178.19-41.72-125.93h0l-87.81-52.26Z"/>
      <path class="cls-99" d="M697.62,596.36l-134.03,155.02,47.84-38.37,86.19-116.66h0Z"/>
      <path class="cls-123" d="M697.62,596.36l-134.03,155.02-41.72-125.93h0l175.75-29.1Z"/>
      <path class="cls-135" d="M697.62,596.36l19.46,147-105.66-30.35,86.19-116.66h0Z"/>
      <path class="cls-113" d="M697.62,596.36l19.46,147,29.44-89.43h0l-48.9-57.57Z"/>
      <path class="cls-8" d="M842.24,630.92l-125.16,112.44,192.18-30.19-67.02-82.25h0Z"/>
      <path class="cls-127" d="M842.24,630.92l-125.16,112.44,29.44-89.43h0l95.72-23.01Z"/>
      <path class="cls-67" d="M842.24,630.92l72.28,101.77-5.26-19.52-67.02-82.25h0Z"/>
      <path class="cls-102" d="M842.24,630.92l72.28,101.77,35.75-163.69h0l-108.02,61.92Z"/>
      <path class="cls-158" d="M1103.44,606.11l-188.93,126.58,184.2-61.21,4.73-65.37h0Z"/>
      <path class="cls-133" d="M1103.44,606.11l-188.93,126.58,35.75-163.69h0l153.18,37.11Z"/>
      <polygon class="cls-48" points="153.13 672.29 69.41 731.89 69.41 824.97 105.33 833.25 153.13 672.29 153.13 672.29"/>
      <polygon class="cls-147" points="69.41 712.74 69.41 731.89 153.13 672.29 69.41 712.74"/>
      <path class="cls-164" d="M153.13,672.29l61.08,166.45-108.88-5.5,47.8-160.95h0Z"/>
      <path class="cls-43" d="M153.13,672.29l61.08,166.45-47.29-170.44h0l-13.78,3.98Z"/>
      <path class="cls-150" d="M354.09,728.33l-139.89,110.42,157.68-5.68-17.8-104.74h0Z"/>
      <path class="cls-2" d="M354.09,728.33l-139.89,110.42-47.29-170.44h0l187.18,60.02Z"/>
      <path class="cls-139" d="M354.09,728.33l70.9,56.59-53.11,48.15-17.8-104.74h0Z"/>
      <path class="cls-126" d="M354.09,728.33l70.9,56.59-5.08-97.74h0l-65.82,41.15Z"/>
      <path class="cls-101" d="M563.59,751.38l-138.59,33.53,75.15,64.21,63.44-97.74h0Z"/>
      <path class="cls-49" d="M563.59,751.38l-138.59,33.53-5.08-97.74h0l143.67,64.21Z"/>
      <path class="cls-168" d="M563.59,751.38l67.48,113.53-130.92-15.79,63.44-97.74h0Z"/>
      <path class="cls-104" d="M563.59,751.38l67.48,113.53-19.65-151.9h0l-47.83,38.37Z"/>
      <path class="cls-63" d="M717.08,743.36l-86.01,121.55,139.8-49.34-53.79-72.21h0Z"/>
      <path class="cls-165" d="M717.08,743.36l-86.01,121.55-19.65-151.9h0l105.66,30.35Z"/>
      <path class="cls-141" d="M717.08,743.36l118.75,44.37-64.96,27.83-53.79-72.21h0Z"/>
      <path class="cls-106" d="M717.08,743.36l118.75,44.37,73.43-74.57h0l-192.18,30.19Z"/>
      <path class="cls-98" d="M914.52,732.69l-78.69,55.05,145.34,25.92-66.66-80.97h0Z"/>
      <path class="cls-156" d="M914.52,732.69l-78.69,55.05,73.43-74.57h0l5.26,19.52Z"/>
      <path class="cls-97" d="M914.52,732.69l111.14,79.68-44.48,1.29-66.66-80.97h0Z"/>
      <path class="cls-1" d="M914.52,732.69l111.14,79.68,73.06-140.89h0l-184.2,61.21Z"/>
      <path class="cls-82" d="M1131.71,679.15l-106.06,133.22,147.08,56.95-41.02-190.17h0Z"/>
      <path class="cls-121" d="M1131.71,679.15l-106.06,133.22,73.06-140.89h0l33,7.67Z"/>
      <polygon class="cls-100" points="69.41 908.77 111.9 908.77 105.33 833.25 69.41 824.97 69.41 908.77"/>
      <polygon class="cls-5" points="223.27 908.77 214.21 838.75 214.21 838.75 158.35 908.77 223.27 908.77"/>
      <polygon class="cls-136" points="158.35 908.77 214.21 838.75 105.33 833.25 111.9 908.77 158.35 908.77"/>
      <polygon class="cls-33" points="316.35 908.77 360.02 889.1 214.21 838.75 223.27 908.77 316.35 908.77"/>
      <path class="cls-115" d="M214.21,838.75l145.81,50.35,11.87-56.04h0l-157.68,5.68Z"/>
      <polygon class="cls-148" points="436.94 908.77 425 784.91 424.99 784.91 360.02 889.1 395.64 908.77 436.94 908.77"/>
      <path class="cls-118" d="M424.99,784.91l-64.98,104.19,11.87-56.04h0l53.11-48.15Z"/>
      <polygon class="cls-18" points="525.25 908.77 425 784.91 436.94 908.77 525.25 908.77"/>
      <polygon class="cls-66" points="537.38 908.77 500.15 849.12 424.99 784.91 525.25 908.77 537.38 908.77"/>
      <polygon class="cls-71" points="656.98 908.77 671.55 896.64 631.07 864.91 609.9 908.77 656.98 908.77"/>
      <polygon class="cls-12" points="609.9 908.77 631.07 864.91 500.15 849.12 537.38 908.77 609.9 908.77"/>
      <polygon class="cls-56" points="705.11 908.77 719.34 908.77 631.07 864.91 631.07 864.91 671.55 896.64 705.11 908.77"/>
      <polygon class="cls-85" points="759.59 908.77 770.87 815.57 631.07 864.91 719.34 908.77 759.59 908.77"/>
      <polygon class="cls-116" points="837.3 908.77 908.49 891.99 835.83 787.73 767.89 908.77 837.3 908.77"/>
      <polygon class="cls-79" points="767.89 908.77 835.83 787.73 770.87 815.57 759.59 908.77 767.89 908.77"/>
      <path class="cls-25" d="M835.83,787.73l134.48,116.89-61.81-12.64-72.66-104.25h0Z"/>
      <path class="cls-145" d="M835.83,787.73l134.48,116.89,10.87-90.97h0l-145.34-25.92Z"/>
      <path class="cls-52" d="M1025.65,812.36l-55.35,92.26,88.93-21.8-33.59-70.46h0Z"/>
      <path class="cls-149" d="M1025.65,812.36l-55.35,92.26,10.87-90.97h0l44.48-1.29Z"/>
      <polygon class="cls-134" points="1096.02 908.77 1122.01 908.77 1025.66 812.36 1059.24 882.83 1096.02 908.77"/>
      <polygon class="cls-17" points="1175.74 896.14 1172.73 869.32 1025.65 812.36 1122.01 908.77 1175.74 908.77 1175.74 896.14"/>
      <polygon class="cls-110" points="352.57 908.77 360.02 889.1 360.01 889.1 346.4 908.77 352.57 908.77"/>
      <polygon class="cls-59" points="346.4 908.77 360.01 889.1 316.35 908.77 346.4 908.77"/>
      <polygon class="cls-10" points="362.99 908.77 360.01 889.1 352.57 908.77 362.99 908.77"/>
      <polygon class="cls-40" points="395.64 908.77 360.01 889.1 362.99 908.77 395.64 908.77"/>
      <polygon class="cls-45" points="671.15 908.77 671.55 896.64 656.98 908.77 671.15 908.77"/>
      <polygon class="cls-64" points="705.11 908.77 671.55 896.64 671.15 908.77 705.11 908.77"/>
      <polygon class="cls-3" points="904.39 908.77 908.49 891.99 837.3 908.77 904.39 908.77"/>
      <polygon class="cls-27" points="966.42 908.77 970.31 904.62 908.49 891.99 904.39 908.77 966.42 908.77"/>
      <polygon class="cls-107" points="974.2 908.77 970.31 904.62 970.31 904.62 969.19 908.77 974.2 908.77"/>
      <polygon class="cls-105" points="1060.92 908.77 1059.24 882.83 970.31 904.62 974.2 908.77 1060.92 908.77"/>
      <polygon class="cls-50" points="1096.02 908.77 1059.24 882.83 1060.92 908.77 1096.02 908.77"/>
    </g>
  </g>
</svg>