<?xml version="1.0" encoding="UTF-8"?>
<svg id="Layer_1" data-name="Layer 1" xmlns="http://www.w3.org/2000/svg" xmlns:xlink="http://www.w3.org/1999/xlink" viewBox="0 0 1080 1080">
  <defs>
    <style>
      .cls-1 {
        fill: url(#linear-gradient-132);
      }

      .cls-2 {
        fill: url(#linear-gradient-118);
      }

      .cls-3 {
        fill: url(#linear-gradient-61);
      }

      .cls-4 {
        fill: url(#linear-gradient-15);
      }

      .cls-5 {
        fill: url(#linear-gradient-13);
      }

      .cls-6 {
        fill: url(#linear-gradient-107);
      }

      .cls-7 {
        fill: url(#linear-gradient-28);
      }

      .cls-8 {
        fill: url(#linear-gradient-65);
      }

      .cls-9 {
        fill: url(#linear-gradient-69);
      }

      .cls-10 {
        fill: url(#linear-gradient-53);
      }

      .cls-11 {
        fill: url(#linear-gradient-42);
      }

      .cls-12 {
        fill: url(#linear-gradient-46);
      }

      .cls-13 {
        fill: url(#linear-gradient-70);
      }

      .cls-14 {
        fill: url(#linear-gradient-60);
      }

      .cls-15 {
        fill: url(#linear-gradient-93);
      }

      .cls-16 {
        fill: url(#linear-gradient-95);
      }

      .cls-17 {
        fill: url(#linear-gradient-2);
      }

      .cls-18 {
        fill: url(#linear-gradient-100);
      }

      .cls-19 {
        fill: url(#linear-gradient-87);
      }

      .cls-20 {
        fill: url(#linear-gradient-64);
      }

      .cls-21 {
        fill: url(#linear-gradient-56);
      }

      .cls-22 {
        fill: url(#linear-gradient-43);
      }

      .cls-23 {
        fill: url(#linear-gradient-25);
      }

      .cls-24 {
        fill: url(#linear-gradient-82);
      }

      .cls-25 {
        fill: url(#linear-gradient-10);
      }

      .cls-26 {
        fill: url(#linear-gradient-12);
      }

      .cls-27 {
        fill: url(#linear-gradient-40);
      }

      .cls-28 {
        fill: url(#linear-gradient-27);
      }

      .cls-29 {
        fill: url(#linear-gradient-68);
      }

      .cls-30 {
        fill: url(#linear-gradient-37);
      }

      .cls-31 {
        fill: url(#linear-gradient-75);
      }

      .cls-32 {
        fill: url(#linear-gradient-55);
      }

      .cls-33 {
        fill: url(#linear-gradient-116);
      }

      .cls-34 {
        fill: url(#linear-gradient-39);
      }

      .cls-35 {
        fill: url(#linear-gradient-89);
      }

      .cls-36 {
        fill: url(#linear-gradient-52);
      }

      .cls-37 {
        fill: url(#linear-gradient-113);
      }

      .cls-38 {
        fill: url(#linear-gradient-122);
      }

      .cls-39 {
        fill: url(#linear-gradient-58);
      }

      .cls-40 {
        fill: url(#linear-gradient-47);
      }

      .cls-41 {
        fill: url(#linear-gradient-26);
      }

      .cls-42 {
        fill: url(#linear-gradient-74);
      }

      .cls-43 {
        fill: url(#linear-gradient-97);
      }

      .cls-44 {
        fill: url(#linear-gradient-72);
      }

      .cls-45 {
        fill: none;
      }

      .cls-46 {
        fill: url(#linear-gradient-4);
      }

      .cls-47 {
        fill: url(#linear-gradient-35);
      }

      .cls-48 {
        fill: url(#linear-gradient-30);
      }

      .cls-49 {
        fill: url(#linear-gradient-125);
      }

      .cls-50 {
        fill: url(#linear-gradient-76);
      }

      .cls-51 {
        fill: url(#linear-gradient-109);
      }

      .cls-52 {
        fill: url(#linear-gradient-73);
      }

      .cls-53 {
        fill: url(#linear-gradient-71);
      }

      .cls-54 {
        fill: url(#linear-gradient-44);
      }

      .cls-55 {
        fill: url(#linear-gradient-96);
      }

      .cls-56 {
        fill: url(#linear-gradient-49);
      }

      .cls-57 {
        fill: url(#linear-gradient-3);
      }

      .cls-58 {
        fill: url(#linear-gradient-34);
      }

      .cls-59 {
        fill: url(#linear-gradient-5);
      }

      .cls-60 {
        fill: url(#linear-gradient-38);
      }

      .cls-61 {
        fill: url(#linear-gradient-91);
      }

      .cls-62 {
        fill: url(#linear-gradient-22);
      }

      .cls-63 {
        fill: url(#linear-gradient-24);
      }

      .cls-64 {
        fill: url(#linear-gradient-133);
      }

      .cls-65 {
        fill: url(#linear-gradient-94);
      }

      .cls-66 {
        fill: url(#linear-gradient-54);
      }

      .cls-67 {
        fill: url(#linear-gradient-92);
      }

      .cls-68 {
        fill: url(#linear-gradient-90);
      }

      .cls-69 {
        fill: url(#linear-gradient-33);
      }

      .cls-70 {
        fill: url(#linear-gradient-79);
      }

      .cls-71 {
        fill: url(#linear-gradient-78);
      }

      .cls-72 {
        fill: url(#linear-gradient-51);
      }

      .cls-73 {
        fill: url(#linear-gradient-8);
      }

      .cls-74 {
        fill: url(#linear-gradient-66);
      }

      .cls-75 {
        fill: url(#linear-gradient-57);
      }

      .cls-76 {
        fill: url(#linear-gradient-77);
      }

      .cls-77 {
        fill: url(#linear-gradient-131);
      }

      .cls-78 {
        fill: url(#linear-gradient-129);
      }

      .cls-79 {
        fill: url(#linear-gradient-103);
      }

      .cls-80 {
        fill: url(#linear-gradient-135);
      }

      .cls-81 {
        fill: url(#linear-gradient-121);
      }

      .cls-82 {
        fill: url(#linear-gradient-110);
      }

      .cls-83 {
        fill: url(#linear-gradient-88);
      }

      .cls-84 {
        fill: url(#linear-gradient-124);
      }

      .cls-85 {
        fill: url(#linear-gradient-128);
      }

      .cls-86 {
        fill: url(#linear-gradient-14);
      }

      .cls-87 {
        fill: url(#linear-gradient-62);
      }

      .cls-88 {
        fill: url(#linear-gradient-29);
      }

      .cls-89 {
        fill: url(#linear-gradient-20);
      }

      .cls-90 {
        fill: url(#linear-gradient-106);
      }

      .cls-91 {
        fill: url(#linear-gradient-67);
      }

      .cls-92 {
        fill: url(#linear-gradient-17);
      }

      .cls-93 {
        fill: url(#linear-gradient-50);
      }

      .cls-94 {
        fill: url(#linear-gradient-7);
      }

      .cls-95 {
        fill: url(#linear-gradient-134);
      }

      .cls-96 {
        fill: url(#linear-gradient-9);
      }

      .cls-97 {
        fill: url(#linear-gradient-104);
      }

      .cls-98 {
        fill: url(#linear-gradient-59);
      }

      .cls-99 {
        fill: url(#linear-gradient-11);
      }

      .cls-100 {
        fill: url(#linear-gradient-120);
      }

      .cls-101 {
        fill: url(#linear-gradient-108);
      }

      .cls-102 {
        fill: url(#linear-gradient-19);
      }

      .cls-103 {
        fill: url(#linear-gradient-101);
      }

      .cls-104 {
        fill: url(#linear-gradient-80);
      }

      .cls-105 {
        fill: url(#linear-gradient-6);
      }

      .cls-106 {
        fill: url(#linear-gradient-83);
      }

      .cls-107 {
        fill: url(#linear-gradient-112);
      }

      .cls-108 {
        fill: url(#linear-gradient-105);
      }

      .cls-109 {
        fill: url(#linear-gradient-36);
      }

      .cls-110 {
        fill: url(#linear-gradient-21);
      }

      .cls-111 {
        fill: url(#linear-gradient-119);
      }

      .cls-112 {
        fill: url(#linear-gradient-45);
      }

      .cls-113 {
        fill: url(#linear-gradient-127);
      }

      .cls-114 {
        fill: url(#linear-gradient-85);
      }

      .cls-115 {
        fill: url(#linear-gradient-98);
      }

      .cls-116 {
        fill: url(#linear-gradient-81);
      }

      .cls-117 {
        fill: url(#linear-gradient-84);
      }

      .cls-118 {
        fill: url(#linear-gradient-114);
      }

      .cls-119 {
        fill: url(#linear-gradient-117);
      }

      .cls-120 {
        fill: url(#linear-gradient-48);
      }

      .cls-121 {
        fill: url(#linear-gradient-102);
      }

      .cls-122 {
        fill: url(#linear-gradient-32);
      }

      .cls-123 {
        fill: url(#linear-gradient-86);
      }

      .cls-124 {
        fill: url(#linear-gradient-41);
      }

      .cls-125 {
        fill: url(#linear-gradient-130);
      }

      .cls-126 {
        fill: url(#linear-gradient-16);
      }

      .cls-127 {
        fill: url(#linear-gradient-111);
      }

      .cls-128 {
        fill: url(#linear-gradient);
      }

      .cls-129 {
        fill: url(#linear-gradient-23);
      }

      .cls-130 {
        fill: url(#linear-gradient-31);
      }

      .cls-131 {
        clip-path: url(#clippath);
      }

      .cls-132 {
        fill: url(#linear-gradient-63);
      }

      .cls-133 {
        fill: url(#linear-gradient-115);
      }

      .cls-134 {
        fill: url(#linear-gradient-126);
      }

      .cls-135 {
        fill: url(#linear-gradient-99);
      }

      .cls-136 {
        fill: url(#linear-gradient-18);
      }

      .cls-137 {
        fill: url(#linear-gradient-123);
      }
    </style>
    <clipPath id="clippath">
      <path class="cls-45" d="M555.62,582.33l276.84-7.3c5.46,15.25-7.92,24.9-9.6,35.35-2.97,18.51,2.49,32.91,12.35,48.1,2.06,3.17,6.12,4.19,7.95,6.62,7.33,9.7,4.67,16.58,7.93,26.07,3.02,8.8,14.9,28.01,9.98,36.38-.94,1.61-22.71,15.15-28.62,23.54-11.02,15.64,1.04,33.37,19.55,29.34,16.49-3.6,13.15-30.69,30.83-34.81,18.79-4.37,11.17,12.84,12.86,24.79,1.02,7.25,8.2,8.16,2.9,20.15-.66,1.49-11.72,18.27-12.68,18.87-5.15,3.17-20.63-.12-21.91,1.16-1.3,1.3,1.71,15.68-.39,19.05-1.98,3.18-20.55,3.09-16.34,15.82l29.54,23.98c11.65,4.3,24.02-.07,35.84,3.02,9.47,2.47,14.63,11.67,22.49,16.36,9.16,5.46,19.93,3.11,21.01,15.5,1.68,19.31-15.05,32.76-34.01,26.62-4.9-1.59-8.05-6.9-12.68-9.16-4.5-2.2-9.96-1.98-14.79-4.63-7.79-4.28-17.58-17.27-28.12-20.44-8.99-2.71-26.62,1.16-31.77-2.22-6.64-4.36-2.11-34.7-16.88-35.29-1.26,14.04-7.48,9.84-15.4,12.55-4.16,1.43-8.55,22.7-8.68,27.77-.19,7.65,4.94,14.04.92,22.77-2.73,5.93-34.4,35.68-37.59,20.63-.99-4.67,15.04-15.36,2.17-33.67-7.92-11.26-13.22,4.02-19.28,6.9-5.82,2.76-18.76,2.23-23.57,6.8-3.91,3.72-4.26,14.48-10.9,19.68-7.59,5.95-19.86,7.8-29.24,5.87-6.91-1.43-62.63-29.85-67.39-34.58-11.32-11.25,6.41-11.66,7.29-24.5,2.07-30.35-37.99-15.19-47.52-22.7-6.17-4.87.48-30.09-18.17-40.1-17.6-9.44-27.72,5.08-39.68,3.46-11.06-1.5-17.13-20.86-32.95-8.48-28.33,22.17,45.65,28.64,50.41,33.29,3.25,3.17,3.03,11.96,2.99,16.44-18.56,5.23-30.99-14.63-47.36-14.62-11.47,0-20.61,9.77-29.69,11.64-35.39,7.3-96.83-27.28-132.33-36.56-39.28-10.27-68.49,2.62-106.3,10.4.51-10.64-1.07-21.59.57-32.2,4.32-27.98,24.01-34.99,16.31-75.76-1.15-6.1-8-9.83-7.26-17.01.63-6.1,7.9-7.91,9.35-12.75,2.47-8.23-3.64-17.59-1.47-28.06,2.86-13.77,16.58-31.56,20.65-44.95,1.66-5.47,8.44-48.09,8.12-52.71-.95-13.5-16.18-37.78-20.39-50.22-1.81-5.36-1-11.12-2.98-16.45-3.52-9.48-16.61-12.59-19.41-21.87-4.18-13.81-1.61-40.15-7.77-55.36-3.22-7.94-22.45-17.06-22.45-18.83v-197.91l425.05-11.03c5.87,3.84-3.76,17.68-4.74,24.6-.85,5.96-1.22,20.85-.16,26.44,1.27,6.7,9.98,10.5,13.3,18.27,4.9,11.47,1.86,21.93,4.15,32.28,2.51,11.37,17.52,13.36,14.04,31.97-1.76,9.44-13.22,10.68-15.92,15.92-1.29,2.51-.02,22.4-2.91,30.89-2.62,7.7-9.53,11.83-13.23,18.34-11.25,19.84-21.07,45.87-32.96,66.6-11.17,19.47-19.95,19.15-19.95,48.04v61.92Z"/>
    </clipPath>
    <linearGradient id="linear-gradient" x1="-196.9" y1="6007.31" x2="21.71" y2="5917.27" gradientTransform="translate(0 6084.36) scale(1 -1)" gradientUnits="userSpaceOnUse">
      <stop offset="0" stop-color="#f5c133"/>
      <stop offset="1" stop-color="#e08524"/>
    </linearGradient>
    <linearGradient id="linear-gradient-2" x1="110.38" y1="6002.91" x2="5.99" y2="5917.77" xlink:href="#linear-gradient"/>
    <linearGradient id="linear-gradient-3" x1="620.45" y1="5943.44" x2="776.24" y2="5931.29" xlink:href="#linear-gradient"/>
    <linearGradient id="linear-gradient-4" x1="832.7" y1="5914.83" x2="850.78" y2="6029.63" xlink:href="#linear-gradient"/>
    <linearGradient id="linear-gradient-5" x1="929.81" y1="5976.67" x2="934.83" y2="6080.19" xlink:href="#linear-gradient"/>
    <linearGradient id="linear-gradient-6" x1="-128.65" y1="5888.97" x2="-14.35" y2="5956.86" xlink:href="#linear-gradient"/>
    <linearGradient id="linear-gradient-7" x1="-85.47" y1="5905.57" x2="180.47" y2="5858.05" xlink:href="#linear-gradient"/>
    <linearGradient id="linear-gradient-8" x1="114.88" y1="5997.33" x2="10.54" y2="5912.23" xlink:href="#linear-gradient"/>
    <linearGradient id="linear-gradient-9" x1="81.2" y1="5948.21" x2="220.26" y2="5817.79" xlink:href="#linear-gradient"/>
    <linearGradient id="linear-gradient-10" x1="108.5" y1="5970.28" x2="175.69" y2="5930.1" xlink:href="#linear-gradient"/>
    <linearGradient id="linear-gradient-11" x1="335.41" y1="5781.8" x2="303.89" y2="5989.61" xlink:href="#linear-gradient"/>
    <linearGradient id="linear-gradient-12" x1="328.95" y1="6028.96" x2="220.33" y2="5889.39" xlink:href="#linear-gradient"/>
    <linearGradient id="linear-gradient-13" x1="489.12" y1="5805.11" x2="457.58" y2="6013.03" xlink:href="#linear-gradient"/>
    <linearGradient id="linear-gradient-14" x1="511.5" y1="5874.18" x2="536.05" y2="6017.19" xlink:href="#linear-gradient"/>
    <linearGradient id="linear-gradient-15" x1="586.15" y1="5903.06" x2="702.66" y2="5864.67" xlink:href="#linear-gradient"/>
    <linearGradient id="linear-gradient-16" x1="607.51" y1="5944.13" x2="560.46" y2="5871.86" xlink:href="#linear-gradient"/>
    <linearGradient id="linear-gradient-17" x1="873.12" y1="5883.64" x2="688.74" y2="5880.96" xlink:href="#linear-gradient"/>
    <linearGradient id="linear-gradient-18" x1="839.71" y1="5792.27" x2="741.16" y2="5887.86" xlink:href="#linear-gradient"/>
    <linearGradient id="linear-gradient-19" x1="893.46" y1="5747.21" x2="878.29" y2="5906.58" xlink:href="#linear-gradient"/>
    <linearGradient id="linear-gradient-20" x1="884.43" y1="5867.37" x2="770.02" y2="5883.32" xlink:href="#linear-gradient"/>
    <linearGradient id="linear-gradient-21" x1="998.94" y1="5757.26" x2="983.77" y2="5916.63" xlink:href="#linear-gradient"/>
    <linearGradient id="linear-gradient-22" x1="912.62" y1="5853.04" x2="1065.02" y2="5915.94" xlink:href="#linear-gradient"/>
    <linearGradient id="linear-gradient-23" x1="1161.26" y1="5844.78" x2="1045.77" y2="5974.21" xlink:href="#linear-gradient"/>
    <linearGradient id="linear-gradient-24" x1="181.31" y1="5698" x2="-11.82" y2="5726.06" xlink:href="#linear-gradient"/>
    <linearGradient id="linear-gradient-25" x1="34.43" y1="5602.82" x2="34.99" y2="5788.6" xlink:href="#linear-gradient"/>
    <linearGradient id="linear-gradient-26" x1="223.63" y1="5696.24" x2="181.73" y2="5836.02" xlink:href="#linear-gradient"/>
    <linearGradient id="linear-gradient-27" x1="304.1" y1="5800.93" x2="212.36" y2="5730.12" xlink:href="#linear-gradient"/>
    <linearGradient id="linear-gradient-28" x1="449" y1="5734.02" x2="318.88" y2="5776.46" xlink:href="#linear-gradient"/>
    <linearGradient id="linear-gradient-29" x1="375.08" y1="5661.22" x2="342.78" y2="5775.48" xlink:href="#linear-gradient"/>
    <linearGradient id="linear-gradient-30" x1="418.63" y1="5758.25" x2="548.32" y2="5776.93" xlink:href="#linear-gradient"/>
    <linearGradient id="linear-gradient-31" x1="520.91" y1="5702.44" x2="488.46" y2="5817.24" xlink:href="#linear-gradient"/>
    <linearGradient id="linear-gradient-32" x1="721.01" y1="5724.25" x2="586.74" y2="5772.18" xlink:href="#linear-gradient"/>
    <linearGradient id="linear-gradient-33" x1="608.62" y1="5883.56" x2="729.97" y2="5667.95" xlink:href="#linear-gradient"/>
    <linearGradient id="linear-gradient-34" x1="778.18" y1="5626.93" x2="788.64" y2="5831.91" xlink:href="#linear-gradient"/>
    <linearGradient id="linear-gradient-35" x1="829.46" y1="5872.53" x2="648.26" y2="5693.33" xlink:href="#linear-gradient"/>
    <linearGradient id="linear-gradient-36" x1="858.89" y1="5826.09" x2="874.04" y2="5670.98" xlink:href="#linear-gradient"/>
    <linearGradient id="linear-gradient-37" x1="865.83" y1="5677.42" x2="882.14" y2="5753.3" xlink:href="#linear-gradient"/>
    <linearGradient id="linear-gradient-38" x1="888.4" y1="5732.92" x2="1087.71" y2="5734.65" xlink:href="#linear-gradient"/>
    <linearGradient id="linear-gradient-39" x1="969.45" y1="5655.15" x2="985.72" y2="5730.84" xlink:href="#linear-gradient"/>
    <linearGradient id="linear-gradient-40" x1="32.94" y1="5601.42" x2="-137.95" y2="5620.84" xlink:href="#linear-gradient"/>
    <linearGradient id="linear-gradient-41" x1="2.68" y1="5517.73" x2="-47.83" y2="5619.51" xlink:href="#linear-gradient"/>
    <linearGradient id="linear-gradient-42" x1="55.28" y1="5586.71" x2="177.45" y2="5522.31" xlink:href="#linear-gradient"/>
    <linearGradient id="linear-gradient-43" x1="141.81" y1="5652.47" x2="-1.23" y2="5579.26" xlink:href="#linear-gradient"/>
    <linearGradient id="linear-gradient-44" x1="136.93" y1="5543.47" x2="236.56" y2="5491.93" xlink:href="#linear-gradient"/>
    <linearGradient id="linear-gradient-45" x1="214.05" y1="5561.1" x2="248.07" y2="5730.16" xlink:href="#linear-gradient"/>
    <linearGradient id="linear-gradient-46" x1="318.7" y1="5506.45" x2="371.3" y2="5693.46" xlink:href="#linear-gradient"/>
    <linearGradient id="linear-gradient-47" x1="396.36" y1="5721.26" x2="232.26" y2="5595.66" xlink:href="#linear-gradient"/>
    <linearGradient id="linear-gradient-48" x1="442.57" y1="5471.6" x2="495.17" y2="5658.62" xlink:href="#linear-gradient"/>
    <linearGradient id="linear-gradient-49" x1="466.43" y1="5713.76" x2="576.45" y2="5606.24" xlink:href="#linear-gradient"/>
    <linearGradient id="linear-gradient-50" x1="543.78" y1="5614.37" x2="674.49" y2="5603.1" xlink:href="#linear-gradient"/>
    <linearGradient id="linear-gradient-51" x1="608.63" y1="5557.85" x2="628.82" y2="5684.72" xlink:href="#linear-gradient"/>
    <linearGradient id="linear-gradient-52" x1="715.92" y1="5545.58" x2="739.15" y2="5635.74" xlink:href="#linear-gradient"/>
    <linearGradient id="linear-gradient-53" x1="685.04" y1="5521.2" x2="807.04" y2="5667.91" xlink:href="#linear-gradient"/>
    <linearGradient id="linear-gradient-54" x1="912.83" y1="5654.57" x2="771.25" y2="5465.28" xlink:href="#linear-gradient"/>
    <linearGradient id="linear-gradient-55" x1="743.12" y1="5486.74" x2="859.17" y2="5626.3" xlink:href="#linear-gradient"/>
    <linearGradient id="linear-gradient-56" x1="867.47" y1="5632.37" x2="1118" y2="5498.27" xlink:href="#linear-gradient"/>
    <linearGradient id="linear-gradient-57" x1="889.39" y1="5618.92" x2="1088.69" y2="5620.65" xlink:href="#linear-gradient"/>
    <linearGradient id="linear-gradient-58" x1="-118" y1="5431.63" x2="-43.9" y2="5450.8" xlink:href="#linear-gradient"/>
    <linearGradient id="linear-gradient-59" x1="15.27" y1="5445.85" x2="-155.63" y2="5465.27" xlink:href="#linear-gradient"/>
    <linearGradient id="linear-gradient-60" x1="29.26" y1="5370.61" x2="83.89" y2="5504.48" xlink:href="#linear-gradient"/>
    <linearGradient id="linear-gradient-61" x1="11" y1="5502.7" x2="133.17" y2="5438.3" xlink:href="#linear-gradient"/>
    <linearGradient id="linear-gradient-62" x1="169.26" y1="5356.92" x2="205.77" y2="5561.38" xlink:href="#linear-gradient"/>
    <linearGradient id="linear-gradient-63" x1="139.88" y1="5399.4" x2="170.54" y2="5448.81" xlink:href="#linear-gradient"/>
    <linearGradient id="linear-gradient-64" x1="444.22" y1="5480.26" x2="214.83" y2="5442.65" xlink:href="#linear-gradient"/>
    <linearGradient id="linear-gradient-65" x1="274.93" y1="5559.93" x2="468.89" y2="5394.32" xlink:href="#linear-gradient"/>
    <linearGradient id="linear-gradient-66" x1="489.72" y1="5310.93" x2="505.9" y2="5570.9" xlink:href="#linear-gradient"/>
    <linearGradient id="linear-gradient-67" x1="568.53" y1="5509.6" x2="406.61" y2="5431.13" xlink:href="#linear-gradient"/>
    <linearGradient id="linear-gradient-68" x1="619.96" y1="5459.77" x2="494.98" y2="5430.02" xlink:href="#linear-gradient"/>
    <linearGradient id="linear-gradient-69" x1="590.42" y1="5592.97" x2="700.18" y2="5363.42" xlink:href="#linear-gradient"/>
    <linearGradient id="linear-gradient-70" x1="776.92" y1="5462.44" x2="676.78" y2="5319.22" xlink:href="#linear-gradient"/>
    <linearGradient id="linear-gradient-71" x1="690.69" y1="5334.59" x2="712.78" y2="5553.14" xlink:href="#linear-gradient"/>
    <linearGradient id="linear-gradient-72" x1="847.64" y1="5458.47" x2="805.99" y2="5520.98" xlink:href="#linear-gradient"/>
    <linearGradient id="linear-gradient-73" x1="917.76" y1="5333.85" x2="814.46" y2="5532.54" xlink:href="#linear-gradient"/>
    <linearGradient id="linear-gradient-74" x1="1006.84" y1="5432.07" x2="1183.76" y2="5381.94" xlink:href="#linear-gradient"/>
    <linearGradient id="linear-gradient-75" x1="1062.14" y1="5607.28" x2="911.93" y2="5441.63" xlink:href="#linear-gradient"/>
    <linearGradient id="linear-gradient-76" x1="-178.17" y1="5206.95" x2="-49.42" y2="5291.16" xlink:href="#linear-gradient"/>
    <linearGradient id="linear-gradient-77" x1="-74.69" y1="5395.72" x2="41.23" y2="5232.68" xlink:href="#linear-gradient"/>
    <linearGradient id="linear-gradient-78" x1="139.3" y1="5402.07" x2="34.14" y2="5200.06" xlink:href="#linear-gradient"/>
    <linearGradient id="linear-gradient-79" x1="83.27" y1="5228.01" x2="41.64" y2="5410.79" xlink:href="#linear-gradient"/>
    <linearGradient id="linear-gradient-80" x1="314.3" y1="5247.57" x2="126.13" y2="5330.85" xlink:href="#linear-gradient"/>
    <linearGradient id="linear-gradient-81" x1="244.34" y1="5167.99" x2="189.47" y2="5331.99" xlink:href="#linear-gradient"/>
    <linearGradient id="linear-gradient-82" x1="269.69" y1="5201.06" x2="332.4" y2="5250.87" xlink:href="#linear-gradient"/>
    <linearGradient id="linear-gradient-83" x1="404.84" y1="5432.1" x2="228.97" y2="5230.65" xlink:href="#linear-gradient"/>
    <linearGradient id="linear-gradient-84" x1="400.96" y1="5191.84" x2="514.15" y2="5343.54" xlink:href="#linear-gradient"/>
    <linearGradient id="linear-gradient-85" x1="445.27" y1="5205.44" x2="484.09" y2="5322.2" xlink:href="#linear-gradient"/>
    <linearGradient id="linear-gradient-86" x1="476.21" y1="5251.32" x2="727.04" y2="5290.35" xlink:href="#linear-gradient"/>
    <linearGradient id="linear-gradient-87" x1="628.96" y1="5361.06" x2="464.93" y2="5215.13" xlink:href="#linear-gradient"/>
    <linearGradient id="linear-gradient-88" x1="651.9" y1="5341.09" x2="746.82" y2="5208.72" xlink:href="#linear-gradient"/>
    <linearGradient id="linear-gradient-89" x1="714.11" y1="5385.71" x2="809.04" y2="5253.34" xlink:href="#linear-gradient"/>
    <linearGradient id="linear-gradient-90" x1="730.58" y1="5243.94" x2="971.36" y2="5323.18" xlink:href="#linear-gradient"/>
    <linearGradient id="linear-gradient-91" x1="964.2" y1="5265.36" x2="764.21" y2="5313.35" xlink:href="#linear-gradient"/>
    <linearGradient id="linear-gradient-92" x1="972.45" y1="5364.5" x2="1009.66" y2="5269.32" xlink:href="#linear-gradient"/>
    <linearGradient id="linear-gradient-93" x1="1025.77" y1="5385.34" x2="1062.91" y2="5290.34" xlink:href="#linear-gradient"/>
    <linearGradient id="linear-gradient-94" x1="1205.35" y1="5402.18" x2="1041.8" y2="5258.46" xlink:href="#linear-gradient"/>
    <linearGradient id="linear-gradient-95" x1="1021.76" y1="5290.79" x2="1161.96" y2="5335.18" xlink:href="#linear-gradient"/>
    <linearGradient id="linear-gradient-96" x1="-173.25" y1="5136.33" x2="32.52" y2="5143.67" xlink:href="#linear-gradient"/>
    <linearGradient id="linear-gradient-97" x1="-67.45" y1="5096.59" x2="-129.73" y2="5318.83" xlink:href="#linear-gradient"/>
    <linearGradient id="linear-gradient-98" x1="65.42" y1="5181.14" x2="-4.18" y2="5118.65" xlink:href="#linear-gradient"/>
    <linearGradient id="linear-gradient-99" x1="41.15" y1="5248.91" x2="134.02" y2="5175.51" xlink:href="#linear-gradient"/>
    <linearGradient id="linear-gradient-100" x1="152.58" y1="5194.98" x2="251.05" y2="5111.66" xlink:href="#linear-gradient"/>
    <linearGradient id="linear-gradient-101" x1="195.59" y1="5142.67" x2="188.9" y2="5270.2" xlink:href="#linear-gradient"/>
    <linearGradient id="linear-gradient-102" x1="381.28" y1="5101.33" x2="210.41" y2="5121.74" xlink:href="#linear-gradient"/>
    <linearGradient id="linear-gradient-103" x1="337.62" y1="5114.52" x2="400.77" y2="5164.68" xlink:href="#linear-gradient"/>
    <linearGradient id="linear-gradient-104" x1="482.11" y1="5042.59" x2="411.48" y2="5136.48" xlink:href="#linear-gradient"/>
    <linearGradient id="linear-gradient-105" x1="438.54" y1="5042.02" x2="412.66" y2="5240.2" xlink:href="#linear-gradient"/>
    <linearGradient id="linear-gradient-106" x1="618.21" y1="5186.44" x2="533.6" y2="5150.54" xlink:href="#linear-gradient"/>
    <linearGradient id="linear-gradient-107" x1="491.62" y1="5152.25" x2="742.46" y2="5191.27" xlink:href="#linear-gradient"/>
    <linearGradient id="linear-gradient-108" x1="648.06" y1="5177.66" x2="837.77" y2="5144.15" xlink:href="#linear-gradient"/>
    <linearGradient id="linear-gradient-109" x1="648" y1="5126.62" x2="744.29" y2="5223.45" xlink:href="#linear-gradient"/>
    <linearGradient id="linear-gradient-110" x1="886.53" y1="5156.08" x2="828.49" y2="5154.41" xlink:href="#linear-gradient"/>
    <linearGradient id="linear-gradient-111" x1="809.81" y1="5143.04" x2="905.89" y2="5326.5" xlink:href="#linear-gradient"/>
    <linearGradient id="linear-gradient-112" x1="996.37" y1="5009.52" x2="942.34" y2="5257.57" xlink:href="#linear-gradient"/>
    <linearGradient id="linear-gradient-113" x1="1004.01" y1="5178.27" x2="961.12" y2="5188.14" xlink:href="#linear-gradient"/>
    <linearGradient id="linear-gradient-114" x1="1102.8" y1="5032.62" x2="1048.75" y2="5280.75" xlink:href="#linear-gradient"/>
    <linearGradient id="linear-gradient-115" x1="1170.7" y1="5017.2" x2="1092.32" y2="5188.74" xlink:href="#linear-gradient"/>
    <linearGradient id="linear-gradient-116" x1="-8.5" y1="5064.62" x2="-180.34" y2="4987.94" xlink:href="#linear-gradient"/>
    <linearGradient id="linear-gradient-117" x1="-78.22" y1="5022.82" x2="-62.58" y2="5095.92" xlink:href="#linear-gradient"/>
    <linearGradient id="linear-gradient-118" x1="57.8" y1="5072" x2="161.33" y2="5015.39" xlink:href="#linear-gradient"/>
    <linearGradient id="linear-gradient-119" x1="119.14" y1="5121.31" x2="49.44" y2="5058.73" xlink:href="#linear-gradient"/>
    <linearGradient id="linear-gradient-120" x1="334.03" y1="4991.56" x2="152.15" y2="5045.23" xlink:href="#linear-gradient"/>
    <linearGradient id="linear-gradient-121" x1="288.77" y1="4881.08" x2="186.18" y2="5043.82" xlink:href="#linear-gradient"/>
    <linearGradient id="linear-gradient-122" x1="283.31" y1="4916.86" x2="405.2" y2="5017.32" xlink:href="#linear-gradient"/>
    <linearGradient id="linear-gradient-123" x1="300.21" y1="5069.06" x2="230.99" y2="4927.05" xlink:href="#linear-gradient"/>
    <linearGradient id="linear-gradient-124" x1="433.85" y1="5002.28" x2="380.88" y2="5043.4" xlink:href="#linear-gradient"/>
    <linearGradient id="linear-gradient-125" x1="451.82" y1="4962.22" x2="469.69" y2="5108.38" xlink:href="#linear-gradient"/>
    <linearGradient id="linear-gradient-126" x1="520.36" y1="5026.97" x2="717.7" y2="5073.05" xlink:href="#linear-gradient"/>
    <linearGradient id="linear-gradient-127" x1="662.01" y1="5083.21" x2="576.91" y2="5047.1" xlink:href="#linear-gradient"/>
    <linearGradient id="linear-gradient-128" x1="626.92" y1="5118.56" x2="803.14" y2="4966.88" xlink:href="#linear-gradient"/>
    <linearGradient id="linear-gradient-129" x1="720.31" y1="4993.18" x2="734.65" y2="5112.07" xlink:href="#linear-gradient"/>
    <linearGradient id="linear-gradient-130" x1="879.42" y1="4984.84" x2="835.24" y2="5076.62" xlink:href="#linear-gradient"/>
    <linearGradient id="linear-gradient-131" x1="889.79" y1="5042.95" x2="831.72" y2="5041.27" xlink:href="#linear-gradient"/>
    <linearGradient id="linear-gradient-132" x1="875.96" y1="5089.81" x2="1083.73" y2="4883.93" xlink:href="#linear-gradient"/>
    <linearGradient id="linear-gradient-133" x1="1004.39" y1="4885.03" x2="989.41" y2="5017.42" xlink:href="#linear-gradient"/>
    <linearGradient id="linear-gradient-134" x1="883.9" y1="4842.68" x2="873.21" y2="5006.27" xlink:href="#linear-gradient"/>
    <linearGradient id="linear-gradient-135" x1="965.38" y1="4848.14" x2="954.69" y2="5011.6" xlink:href="#linear-gradient"/>
  </defs>
  <g class="cls-131">
    <g>
      <polygon class="cls-128" points="-64.92 145.67 16.58 179.57 5.15 145.67 -64.92 145.67"/>
      <polygon class="cls-17" points="5.15 145.67 16.58 179.57 57.73 145.67 5.15 145.67"/>
      <polygon class="cls-57" points="624.28 145.67 619.88 148.29 775.66 160.55 777.98 145.67 624.28 145.67"/>
      <polygon class="cls-46" points="777.98 145.67 775.66 160.55 890.05 176.66 867.33 145.67 777.98 145.67"/>
      <polygon class="cls-59" points="919.22 145.67 890.05 176.66 964.39 145.67 919.22 145.67"/>
      <polygon class="cls-105" points="-164.66 145.67 -97.87 248.2 16.58 179.57 -64.92 145.67 -164.66 145.67"/>
      <polygon class="cls-94" points="47.29 145.67 -97.87 248.2 167.98 296.17 132.69 145.67 47.29 145.67"/>
      <polygon class="cls-73" points="47.29 145.67 -97.87 248.2 16.58 179.57 57.72 145.67 47.29 145.67"/>
      <polygon class="cls-96" points="132.69 145.67 167.98 296.17 259.11 225.14 175.2 145.67 132.69 145.67"/>
      <polygon class="cls-25" points="175.2 145.67 259.11 225.14 196.44 145.67 175.2 145.67"/>
      <polygon class="cls-99" points="320.36 145.67 259.11 225.14 398.31 293.02 376.18 145.67 320.36 145.67"/>
      <polygon class="cls-26" points="196.44 145.67 259.11 225.14 320.36 145.67 196.44 145.67"/>
      <polygon class="cls-5" points="376.18 145.67 398.31 293.02 573.14 220.76 459.12 145.67 376.18 145.67"/>
      <polygon class="cls-86" points="459.12 145.67 573.14 220.76 585.9 145.67 459.12 145.67"/>
      <path class="cls-4" d="M619.87,148.29l-46.73,72.48,116.4,38.74-69.67-111.21h0Z"/>
      <polygon class="cls-126" points="585.9 145.67 573.14 220.76 619.87 148.29 619.04 145.67 585.9 145.67"/>
      <path class="cls-92" d="M619.87,148.29l254.06,108.51-184.39,2.7-69.67-111.21h0Z"/>
      <path class="cls-136" d="M619.87,148.29l254.06,108.51-98.27-96.25h0l-155.79-12.27Z"/>
      <path class="cls-102" d="M890.05,176.66l-16.12,80.14,31.14,79.24-15.02-159.38h0Z"/>
      <path class="cls-89" d="M890.05,176.66l-16.12,80.14-98.27-96.25h0l114.39,16.1Z"/>
      <polygon class="cls-110" points="1083.92 224.9 890.05 176.66 890.05 176.66 905.08 336.04 1083.92 270.16 1083.92 224.9"/>
      <polygon class="cls-62" points="1083.92 160.14 1071.14 145.67 964.38 145.67 890.05 176.66 1083.92 224.9 1083.92 160.14"/>
      <polygon class="cls-129" points="1083.92 145.67 1071.14 145.67 1083.92 160.14 1083.92 145.67"/>
      <path class="cls-63" d="M-97.87,248.2l265.3,233.74-192.92-28.3-72.38-205.44h0Z"/>
      <path class="cls-23" d="M-97.87,248.2l265.3,233.74.56-185.77h0l-265.85-47.97Z"/>
      <path class="cls-41" d="M259.11,225.15l-91.68,256.8,133.13-117.18-41.45-139.62h0Z"/>
      <path class="cls-28" d="M259.11,225.15l-91.68,256.8.56-185.77h0l91.13-71.03Z"/>
      <path class="cls-7" d="M259.11,225.15l171.25,182.37-129.8-42.75-41.45-139.62h0Z"/>
      <path class="cls-88" d="M259.11,225.15l171.25,182.37-32.05-114.49h0l-139.2-67.88Z"/>
      <path class="cls-48" d="M573.14,220.76l-142.79,186.75,129.49-18.84,13.3-167.91h0Z"/>
      <path class="cls-130" d="M573.14,220.76l-142.79,186.75-32.05-114.49h0l174.83-72.26Z"/>
      <path class="cls-122" d="M573.14,220.76l120.46,216.12-133.76-48.21,13.3-167.91h0Z"/>
      <path class="cls-69" d="M573.14,220.76l120.46,216.12-4.07-177.39h0l-116.4-38.73Z"/>
      <path class="cls-58" d="M873.93,256.8l-180.32,180.08,169.97,24.91,10.36-204.99h0Z"/>
      <path class="cls-47" d="M873.93,256.8l-180.32,180.08-4.07-177.39h0l184.39-2.7Z"/>
      <path class="cls-109" d="M873.93,256.8l15,155.1-25.35,49.89,10.36-204.99h0Z"/>
      <path class="cls-30" d="M873.93,256.8l15,155.1,16.15-75.87h0l-31.14-79.24Z"/>
      <polygon class="cls-60" points="1083.92 289.27 888.93 411.9 1083.92 410.2 1083.92 289.27"/>
      <polygon class="cls-34" points="1083.92 270.16 905.08 336.04 888.93 411.9 1083.92 289.27 1083.92 270.16"/>
      <path class="cls-27" d="M-111.48,392.82L24.67,555.72l-170.87-19.61,34.71-143.28h0Z"/>
      <path class="cls-124" d="M-111.48,392.82L24.67,555.72l-50.17-102.07h0l-85.99-60.83Z"/>
      <path class="cls-11" d="M167.43,481.94l-142.75,73.77,121.91,64.89,20.84-138.66h0Z"/>
      <path class="cls-22" d="M167.43,481.94l-142.75,73.77-50.17-102.07h0l192.92,28.3Z"/>
      <path class="cls-54" d="M167.43,481.94l99.42,51.94-120.26,86.72,20.84-138.66h0Z"/>
      <path class="cls-112" d="M167.43,481.94l99.42,51.94,33.71-169.13h0l-133.13,117.18Z"/>
      <path class="cls-12" d="M430.36,407.51l-163.51,126.38,111.38,60.77,52.13-187.14h0Z"/>
      <path class="cls-40" d="M430.36,407.51l-163.51,126.38,33.71-169.13h0l129.8,42.75Z"/>
      <path class="cls-120" d="M430.36,407.51l109.5,108.06-161.63,79.09,52.13-187.14h0Z"/>
      <path class="cls-56" d="M430.36,407.51l109.5,108.06,19.99-126.9h0l-129.49,18.84Z"/>
      <path class="cls-93" d="M693.61,436.89l-153.76,78.69,130.77,11.38,22.99-90.07h0Z"/>
      <path class="cls-72" d="M693.61,436.89l-153.76,78.69,19.99-126.9h0l133.76,48.21Z"/>
      <path class="cls-36" d="M693.61,436.89l54.62,164.97-77.61-74.9,22.99-90.07h0Z"/>
      <path class="cls-10" d="M688.75,436.89l56.18,176.08,118.65-149.5h0l-174.83-26.58Z"/>
      <path class="cls-66" d="M888.93,411.91l-140.7,189.95,138.85-87.8,1.85-102.16h0Z"/>
      <path class="cls-32" d="M888.93,411.91l-140.7,189.95,115.35-140.07h0l25.35-49.88Z"/>
      <polygon class="cls-21" points="1083.92 517.3 888.93 411.91 888.93 411.9 887.08 514.06 1083.92 539.8 1083.92 517.3"/>
      <polygon class="cls-75" points="1083.92 410.2 888.93 411.91 1083.92 517.3 1083.92 410.2"/>
      <path class="cls-39" d="M24.68,555.72l-128.1,153.36,73.93-19.3,54.17-134.05h0Z"/>
      <path class="cls-98" d="M24.68,555.72l-128.1,153.36-42.77-172.97h0l170.88,19.61Z"/>
      <path class="cls-14" d="M24.68,555.72l91.43,114.5-145.6,19.56,54.17-134.05h0Z"/>
      <path class="cls-3" d="M24.68,555.72l91.43,114.5,30.48-49.61h0l-121.91-64.89Z"/>
      <path class="cls-87" d="M266.85,533.89l-150.75,136.33,114.58,68.2,36.17-204.52h0Z"/>
      <path class="cls-132" d="M266.85,533.89l-150.75,136.33,30.48-49.61h0l120.26-86.72Z"/>
      <path class="cls-20" d="M266.85,533.89l193.17,166.55-229.34,37.97,36.17-204.52h0Z"/>
      <path class="cls-8" d="M266.85,533.89l193.17,166.55-81.79-105.78h0l-111.38-60.77Z"/>
      <path class="cls-74" d="M539.85,515.57l-79.83,184.86,63.82,75.12,16.02-259.99h0Z"/>
      <path class="cls-91" d="M539.85,515.57l-79.83,184.86-81.79-105.78h0l161.63-79.08Z"/>
      <path class="cls-29" d="M539.85,515.57l108.89,229.96-124.91,30.02,16.02-259.99h0Z"/>
      <path class="cls-9" d="M539.85,515.57l108.89,229.96,21.87-218.58h0l-130.77-11.38Z"/>
      <path class="cls-13" d="M748.23,601.86l-99.48,143.68,140.96-80.8-41.48-62.88h0Z"/>
      <path class="cls-53" d="M748.23,601.86l-99.48,143.68,21.87-218.58h0l77.61,74.9Z"/>
      <path class="cls-44" d="M748.23,601.86l241.37,111.3-199.89-48.43-41.48-62.88h0Z"/>
      <path class="cls-52" d="M748.23,601.86l241.37,111.3-102.51-199.1h0l-138.85,87.8Z"/>
      <polygon class="cls-42" points="1083.92 608.11 989.59 713.16 1083.92 740.15 1083.92 608.11"/>
      <polygon class="cls-31" points="1083.92 539.8 887.08 514.06 989.59 713.16 1083.92 608.11 1083.92 539.8"/>
      <path class="cls-50" d="M-103.43,709.07L11.75,872.64l-244.26-78.31,129.08-85.26h0Z"/>
      <path class="cls-76" d="M-103.43,709.07L11.75,872.64l-41.25-182.87h0l-73.93,19.3Z"/>
      <path class="cls-71" d="M116.1,670.21L11.75,872.64l85.89-53.7,18.46-148.73h0Z"/>
      <path class="cls-70" d="M116.1,670.21L11.75,872.64l-41.25-182.87h0l145.6-19.56Z"/>
      <path class="cls-104" d="M116.1,670.21l169.02,232.52-187.48-83.78,18.46-148.73h0Z"/>
      <path class="cls-116" d="M116.1,670.21l169.02,232.52-54.44-164.32h0l-114.58-68.19Z"/>
      <path class="cls-24" d="M460.02,700.44l-174.9,202.29,62.42-50.07,112.48-152.23h0Z"/>
      <path class="cls-106" d="M460.02,700.44l-174.9,202.29-54.44-164.32h0l229.34-37.97Z"/>
      <path class="cls-117" d="M460.02,700.44l25.4,191.83-137.88-39.6,112.48-152.23h0Z"/>
      <path class="cls-114" d="M460.02,700.44l25.4,191.83,38.42-116.71h0l-63.82-75.12Z"/>
      <path class="cls-123" d="M648.74,745.53l-163.32,146.73,250.78-39.4-87.45-107.33h0Z"/>
      <path class="cls-19" d="M648.74,745.53l-163.32,146.73,38.42-116.71h0l124.91-30.02Z"/>
      <path class="cls-83" d="M648.74,745.53l94.31,132.8-6.86-25.47-87.45-107.33h0Z"/>
      <path class="cls-35" d="M648.74,745.53l94.31,132.8,46.65-213.6h0l-140.96,80.8Z"/>
      <path class="cls-68" d="M989.59,713.16l-246.53,165.18,240.36-79.88,6.17-85.3h0Z"/>
      <path class="cls-61" d="M989.59,713.16l-246.53,165.18,46.65-213.6h0l199.89,48.43Z"/>
      <path class="cls-67" d="M989.59,713.16l36.89,95.31-43.06-10.01,6.17-85.3h0Z"/>
      <polygon class="cls-15" points="1083.92 740.15 989.59 713.16 1026.48 808.47 1083.92 790.1 1083.92 740.15"/>
      <polygon class="cls-65" points="1083.92 757.49 1026.48 808.47 1083.92 820.27 1083.92 757.49"/>
      <polygon class="cls-16" points="1083.92 757.49 1026.48 808.47 1083.92 790.1 1083.92 757.49"/>
      <path class="cls-55" d="M11.75,872.64l-182.54,144.09,205.76-7.42-23.22-136.67h0Z"/>
      <path class="cls-43" d="M11.75,872.64l-182.54,144.09-61.71-222.4h0L11.75,872.64Z"/>
      <path class="cls-115" d="M11.75,872.64l92.52,73.84-69.3,62.83-23.22-136.67h0Z"/>
      <path class="cls-135" d="M11.75,872.64l92.52,73.84-6.63-127.54h0l-85.9,53.7Z"/>
      <path class="cls-18" d="M285.12,902.73l-180.85,43.76,98.07,83.79,82.79-127.54h0Z"/>
      <path class="cls-103" d="M285.12,902.73l-180.85,43.76-6.63-127.54h0l187.48,83.78Z"/>
      <path class="cls-121" d="M285.12,902.73l88.06,148.15-170.84-20.6,82.79-127.54h0Z"/>
      <path class="cls-79" d="M285.12,902.73l88.06,148.15-25.64-198.21h0l-62.42,50.07Z"/>
      <path class="cls-97" d="M485.42,892.26l-112.24,158.61,182.43-64.39-70.19-94.22h0Z"/>
      <path class="cls-108" d="M485.42,892.26l-112.24,158.61-25.64-198.21h0l137.88,39.6Z"/>
      <path class="cls-90" d="M485.42,892.26l154.96,57.9-84.77,36.32-70.19-94.22h0Z"/>
      <path class="cls-6" d="M485.42,892.26l154.96,57.9,95.82-97.3h0l-250.78,39.4Z"/>
      <path class="cls-101" d="M743.06,878.34l-102.68,71.83,189.66,33.83-86.98-105.66h0Z"/>
      <path class="cls-51" d="M743.06,878.34l-102.68,71.83,95.82-97.3h0l6.86,25.47Z"/>
      <path class="cls-82" d="M743.06,878.34l145.02,103.97-58.04,1.69-86.98-105.66h0Z"/>
      <path class="cls-127" d="M743.06,878.34l145.02,103.97,95.34-183.85h0l-240.36,79.88Z"/>
      <path class="cls-107" d="M1026.48,808.47l-138.39,173.84,191.92,74.32-53.53-248.16h0Z"/>
      <path class="cls-37" d="M1026.48,808.47l-138.39,173.84,95.34-183.85h0l43.06,10.01Z"/>
      <polygon class="cls-118" points="1083.92 855.54 1026.48 808.47 1026.48 808.47 1080 1056.62 1083.92 1055.85 1083.92 855.54"/>
      <polygon class="cls-133" points="1083.92 820.27 1026.48 808.47 1083.92 855.54 1083.92 820.27"/>
      <polygon class="cls-33" points="-37.5 1108.11 19.48 1082.44 -170.79 1016.73 -158.96 1108.11 -37.5 1108.11"/>
      <path class="cls-119" d="M-170.79,1016.73l190.27,65.71,15.49-73.12h0l-205.76,7.42Z"/>
      <polygon class="cls-2" points="119.85 1108.11 104.27 946.49 104.27 946.48 19.48 1082.44 65.97 1108.11 119.85 1108.11"/>
      <path class="cls-111" d="M104.27,946.48l-84.79,135.96,15.49-73.12h0l69.3-62.83Z"/>
      <polygon class="cls-100" points="235.1 1108.11 104.27 946.49 119.85 1108.11 235.1 1108.11"/>
      <polygon class="cls-81" points="250.93 1108.11 202.34 1030.27 104.27 946.48 235.1 1108.11 250.93 1108.11"/>
      <polygon class="cls-38" points="406.99 1108.11 426 1092.29 373.18 1050.88 345.55 1108.11 406.99 1108.11"/>
      <polygon class="cls-137" points="345.55 1108.11 373.18 1050.88 202.34 1030.27 250.93 1108.11 345.55 1108.11"/>
      <polygon class="cls-84" points="469.8 1108.11 488.37 1108.11 373.18 1050.88 373.18 1050.88 426 1092.29 469.8 1108.11"/>
      <polygon class="cls-49" points="540.89 1108.11 555.61 986.49 373.18 1050.88 488.37 1108.11 540.89 1108.11"/>
      <polygon class="cls-134" points="642.3 1108.11 735.2 1086.21 640.38 950.17 551.72 1108.11 642.3 1108.11"/>
      <polygon class="cls-113" points="551.72 1108.11 640.38 950.16 555.61 986.49 540.89 1108.11 551.72 1108.11"/>
      <path class="cls-85" d="M640.38,950.16l175.48,152.53-80.66-16.49-94.82-136.04h0Z"/>
      <path class="cls-78" d="M640.38,950.16l175.48,152.53,14.18-118.7h0l-189.66-33.83Z"/>
      <path class="cls-125" d="M888.08,982.31l-72.22,120.39,116.05-28.44-43.83-91.95h0Z"/>
      <path class="cls-77" d="M888.08,982.31l-72.22,120.39,14.18-118.7h0l58.04-1.69Z"/>
      <polygon class="cls-1" points="979.91 1108.11 1013.81 1108.11 888.08 982.31 931.91 1074.25 979.91 1108.11"/>
      <polygon class="cls-64" points="1083.92 1091.62 1080 1056.62 888.08 982.31 1013.81 1108.11 1083.92 1108.11 1083.92 1091.62"/>
      <polygon class="cls-95" points="934.1 1108.11 931.91 1074.25 815.86 1102.7 820.94 1108.11 934.1 1108.11"/>
      <polygon class="cls-80" points="979.91 1108.11 931.91 1074.25 934.1 1108.11 979.91 1108.11"/>
    </g>
  </g>
</svg>