<?xml version="1.0" encoding="UTF-8"?>
<svg id="Layer_1" data-name="Layer 1" xmlns="http://www.w3.org/2000/svg" xmlns:xlink="http://www.w3.org/1999/xlink" viewBox="0 0 1080 1080">
  <defs>
    <style>
      .cls-1 {
        fill: url(#linear-gradient-118);
      }

      .cls-2 {
        fill: url(#linear-gradient-61);
      }

      .cls-3 {
        fill: url(#linear-gradient-15);
      }

      .cls-4 {
        fill: url(#linear-gradient-13);
      }

      .cls-5 {
        fill: url(#linear-gradient-107);
      }

      .cls-6 {
        fill: url(#linear-gradient-28);
      }

      .cls-7 {
        fill: url(#linear-gradient-65);
      }

      .cls-8 {
        fill: url(#linear-gradient-69);
      }

      .cls-9 {
        fill: url(#linear-gradient-53);
      }

      .cls-10 {
        fill: url(#linear-gradient-42);
      }

      .cls-11 {
        fill: url(#linear-gradient-46);
      }

      .cls-12 {
        fill: url(#linear-gradient-70);
      }

      .cls-13 {
        fill: url(#linear-gradient-60);
      }

      .cls-14 {
        fill: url(#linear-gradient-93);
      }

      .cls-15 {
        fill: url(#linear-gradient-95);
      }

      .cls-16 {
        fill: url(#linear-gradient-2);
      }

      .cls-17 {
        fill: url(#linear-gradient-100);
      }

      .cls-18 {
        fill: url(#linear-gradient-87);
      }

      .cls-19 {
        fill: url(#linear-gradient-64);
      }

      .cls-20 {
        fill: url(#linear-gradient-56);
      }

      .cls-21 {
        fill: url(#linear-gradient-43);
      }

      .cls-22 {
        fill: url(#linear-gradient-25);
      }

      .cls-23 {
        fill: url(#linear-gradient-82);
      }

      .cls-24 {
        fill: url(#linear-gradient-10);
      }

      .cls-25 {
        fill: url(#linear-gradient-12);
      }

      .cls-26 {
        fill: url(#linear-gradient-40);
      }

      .cls-27 {
        fill: url(#linear-gradient-27);
      }

      .cls-28 {
        fill: url(#linear-gradient-68);
      }

      .cls-29 {
        fill: url(#linear-gradient-37);
      }

      .cls-30 {
        fill: url(#linear-gradient-75);
      }

      .cls-31 {
        fill: url(#linear-gradient-55);
      }

      .cls-32 {
        fill: url(#linear-gradient-116);
      }

      .cls-33 {
        fill: url(#linear-gradient-39);
      }

      .cls-34 {
        fill: url(#linear-gradient-89);
      }

      .cls-35 {
        fill: url(#linear-gradient-52);
      }

      .cls-36 {
        fill: url(#linear-gradient-113);
      }

      .cls-37 {
        fill: url(#linear-gradient-122);
      }

      .cls-38 {
        fill: url(#linear-gradient-58);
      }

      .cls-39 {
        fill: url(#linear-gradient-47);
      }

      .cls-40 {
        fill: url(#linear-gradient-26);
      }

      .cls-41 {
        fill: url(#linear-gradient-74);
      }

      .cls-42 {
        fill: url(#linear-gradient-97);
      }

      .cls-43 {
        fill: url(#linear-gradient-72);
      }

      .cls-44 {
        fill: none;
      }

      .cls-45 {
        fill: url(#linear-gradient-4);
      }

      .cls-46 {
        fill: url(#linear-gradient-35);
      }

      .cls-47 {
        fill: url(#linear-gradient-30);
      }

      .cls-48 {
        fill: url(#linear-gradient-76);
      }

      .cls-49 {
        fill: url(#linear-gradient-109);
      }

      .cls-50 {
        fill: url(#linear-gradient-73);
      }

      .cls-51 {
        fill: url(#linear-gradient-71);
      }

      .cls-52 {
        fill: url(#linear-gradient-44);
      }

      .cls-53 {
        fill: url(#linear-gradient-96);
      }

      .cls-54 {
        fill: url(#linear-gradient-49);
      }

      .cls-55 {
        fill: url(#linear-gradient-3);
      }

      .cls-56 {
        fill: url(#linear-gradient-34);
      }

      .cls-57 {
        clip-path: url(#clippath-1);
      }

      .cls-58 {
        fill: url(#linear-gradient-5);
      }

      .cls-59 {
        fill: url(#linear-gradient-38);
      }

      .cls-60 {
        fill: url(#linear-gradient-91);
      }

      .cls-61 {
        fill: url(#linear-gradient-22);
      }

      .cls-62 {
        fill: url(#linear-gradient-24);
      }

      .cls-63 {
        fill: url(#linear-gradient-94);
      }

      .cls-64 {
        fill: url(#linear-gradient-54);
      }

      .cls-65 {
        fill: url(#linear-gradient-92);
      }

      .cls-66 {
        fill: url(#linear-gradient-90);
      }

      .cls-67 {
        fill: url(#linear-gradient-33);
      }

      .cls-68 {
        fill: url(#linear-gradient-79);
      }

      .cls-69 {
        fill: url(#linear-gradient-78);
      }

      .cls-70 {
        fill: url(#linear-gradient-51);
      }

      .cls-71 {
        fill: url(#linear-gradient-8);
      }

      .cls-72 {
        fill: url(#linear-gradient-66);
      }

      .cls-73 {
        fill: url(#linear-gradient-57);
      }

      .cls-74 {
        fill: url(#linear-gradient-77);
      }

      .cls-75 {
        fill: url(#linear-gradient-103);
      }

      .cls-76 {
        fill: url(#linear-gradient-121);
      }

      .cls-77 {
        fill: url(#linear-gradient-110);
      }

      .cls-78 {
        fill: url(#linear-gradient-88);
      }

      .cls-79 {
        fill: url(#linear-gradient-14);
      }

      .cls-80 {
        fill: url(#linear-gradient-62);
      }

      .cls-81 {
        fill: url(#linear-gradient-29);
      }

      .cls-82 {
        fill: url(#linear-gradient-20);
      }

      .cls-83 {
        fill: url(#linear-gradient-106);
      }

      .cls-84 {
        fill: url(#linear-gradient-67);
      }

      .cls-85 {
        fill: url(#linear-gradient-17);
      }

      .cls-86 {
        fill: url(#linear-gradient-50);
      }

      .cls-87 {
        fill: url(#linear-gradient-7);
      }

      .cls-88 {
        fill: url(#linear-gradient-9);
      }

      .cls-89 {
        fill: url(#linear-gradient-104);
      }

      .cls-90 {
        fill: url(#linear-gradient-59);
      }

      .cls-91 {
        fill: url(#linear-gradient-11);
      }

      .cls-92 {
        fill: url(#linear-gradient-120);
      }

      .cls-93 {
        fill: url(#linear-gradient-108);
      }

      .cls-94 {
        fill: url(#linear-gradient-19);
      }

      .cls-95 {
        fill: url(#linear-gradient-101);
      }

      .cls-96 {
        fill: url(#linear-gradient-80);
      }

      .cls-97 {
        fill: url(#linear-gradient-6);
      }

      .cls-98 {
        fill: url(#linear-gradient-83);
      }

      .cls-99 {
        fill: url(#linear-gradient-112);
      }

      .cls-100 {
        fill: url(#linear-gradient-105);
      }

      .cls-101 {
        fill: url(#linear-gradient-36);
      }

      .cls-102 {
        fill: url(#linear-gradient-21);
      }

      .cls-103 {
        fill: url(#linear-gradient-119);
      }

      .cls-104 {
        fill: url(#linear-gradient-45);
      }

      .cls-105 {
        fill: url(#linear-gradient-85);
      }

      .cls-106 {
        fill: url(#linear-gradient-98);
      }

      .cls-107 {
        fill: url(#linear-gradient-81);
      }

      .cls-108 {
        fill: url(#linear-gradient-84);
      }

      .cls-109 {
        fill: url(#linear-gradient-114);
      }

      .cls-110 {
        fill: url(#linear-gradient-117);
      }

      .cls-111 {
        fill: url(#linear-gradient-48);
      }

      .cls-112 {
        fill: url(#linear-gradient-102);
      }

      .cls-113 {
        fill: url(#linear-gradient-32);
      }

      .cls-114 {
        fill: url(#linear-gradient-86);
      }

      .cls-115 {
        fill: url(#linear-gradient-41);
      }

      .cls-116 {
        fill: url(#linear-gradient-16);
      }

      .cls-117 {
        fill: url(#linear-gradient-111);
      }

      .cls-118 {
        fill: url(#linear-gradient);
      }

      .cls-119 {
        fill: url(#linear-gradient-23);
      }

      .cls-120 {
        fill: url(#linear-gradient-31);
      }

      .cls-121 {
        clip-path: url(#clippath);
      }

      .cls-122 {
        fill: url(#linear-gradient-63);
      }

      .cls-123 {
        fill: url(#linear-gradient-115);
      }

      .cls-124 {
        fill: url(#linear-gradient-99);
      }

      .cls-125 {
        fill: url(#linear-gradient-18);
      }
    </style>
    <clipPath id="clippath">
      <path class="cls-44" d="M861.97,546.09c-.31-4-.51-6.6,4.19-5.56,8.96,8.8,17.51,14.05,14.2,27.96-4.64,19.48-17.04,10.42-29.44,18.28-10.57,6.7-24.96,37.68-39.16,47.56-8.8,6.12-18.22,5.19-24.05,9.52-5.31,3.95-18.43,36.42-22.22,36.47-9.3-11-17.39-18.02-33.01-13.34-1.47.44-22.57,18.57-23.52,19.78-5.82,7.38-10.66,27.77-21.6,35.78-8.09,5.92-19.5-.41-26.77,4.01-1.27.77-18.61,21.5-19.03,22.93-7.63,26.06,7.75,43.67-23.78,60.14-4,2.09-10.79,1.66-13.25,3.54-4.03,3.08-1.92,10.91-4.12,15.46-6.26,12.97-35.93,11.71-39.32,16.63-4.05,5.89,2.62,24.63-8.22,30.89-6.62-4.44-8.28-22.51-16.75-22.48-2.4,0-34.94,27.78-36.55,31.01-3.9,7.85,14.31,24.22,12.42,31.49-.9,3.47-11.38,13.31-14.2,19.65-5.21,11.68-5.29,26.65-9.27,38.28-3.06,8.94-11.96,19.74-14.06,27.9-4.16,16.16,4.33,35.03-8.31,47.58-7.63-.22-18.52-39.95-22.44-44.64-5.68-6.78-31.62-15.36-34.37-24.37-3.19-10.43,2.16-26.17-1.79-37.37l-108.03-325.87c1.4-22.29,22.57-10.48,29.62-14.99,14.92-9.53-2.91-30.15,18.14-25.47-.62-11.71-4.98-22.26-2.22-34.38,2.52-11.05,18.81-22.94,21.11-32.02,1.63-6.42-.52-13.32.83-18.76,2.41-9.69,8.76-17.17,8.37-28.05-.61-16.96-19.06-52.36-17-67.08,1.45-10.34,18.14-17.13,19.81-33.52,2.56-25.09-17.62-32.4-11.1-58.7l54.41-172.16c9.55-5.84,28.21-16.53,37.72-7.15,8.47,8.36-5.12,17.71-2.46,27.4.65,2.38,13.67,15.53,14.96,15.54,2.54.02,34.49-25.24,40.85-28.64,8.03-4.29,24.19-6.81,30.34-11.62,8.99-7.05,3.48-21.73,21.09-21.02,14.37.58,60.92,33.82,78.51,39.25,26.46,72.55,46.62,147.36,69.93,221,3.76,11.88,3.67,26.17,12.75,37.6,5.75,7.24,12.1,3.01,19.39,5.79,5.7,2.18,13.73,8.71,18.7,9.34,7.76.99,13.15-6.6,20.57,4.61,5.91,8.93-.81,8.81-2.45,14.9-1.39,5.16,11.97,47.07,16.19,49.6,12.21,7.32,40.12-11.4,54.66,1.3,1.66,1.45,12.2,23.88,12.51,26.9,1.38,13.52-16.32,21.74-2.81,29.09Z"/>
    </clipPath>
    <linearGradient id="linear-gradient" x1="414.26" y1="6103.56" x2="636.6" y2="6011.99" gradientTransform="translate(0 6084.36) scale(1 -1)" gradientUnits="userSpaceOnUse">
      <stop offset="0" stop-color="#f5c133"/>
      <stop offset="1" stop-color="#e08524"/>
    </linearGradient>
    <linearGradient id="linear-gradient-2" x1="726.77" y1="6099.09" x2="620.61" y2="6012.49" xlink:href="#linear-gradient"/>
    <linearGradient id="linear-gradient-3" x1="288.56" y1="5897.08" x2="307.3" y2="6097.48" xlink:href="#linear-gradient"/>
    <linearGradient id="linear-gradient-4" x1="214.97" y1="6106.2" x2="245.47" y2="6039.51" xlink:href="#linear-gradient"/>
    <linearGradient id="linear-gradient-5" x1="389.65" y1="5857.48" x2="354.63" y2="6083.15" xlink:href="#linear-gradient"/>
    <linearGradient id="linear-gradient-6" x1="442.63" y1="5985.55" x2="278.35" y2="5933.74" xlink:href="#linear-gradient"/>
    <linearGradient id="linear-gradient-7" x1="483.47" y1="5872.2" x2="448.47" y2="6097.71" xlink:href="#linear-gradient"/>
    <linearGradient id="linear-gradient-8" x1="483.67" y1="5983.21" x2="599.92" y2="6052.25" xlink:href="#linear-gradient"/>
    <linearGradient id="linear-gradient-9" x1="527.59" y1="6000.09" x2="798.05" y2="5951.76" xlink:href="#linear-gradient"/>
    <linearGradient id="linear-gradient-10" x1="731.35" y1="6093.41" x2="625.24" y2="6006.86" xlink:href="#linear-gradient"/>
    <linearGradient id="linear-gradient-11" x1="697.1" y1="6043.46" x2="838.52" y2="5910.82" xlink:href="#linear-gradient"/>
    <linearGradient id="linear-gradient-12" x1="724.86" y1="6065.9" x2="793.19" y2="6025.04" xlink:href="#linear-gradient"/>
    <linearGradient id="linear-gradient-13" x1="955.64" y1="5874.21" x2="923.58" y2="6085.56" xlink:href="#linear-gradient"/>
    <linearGradient id="linear-gradient-14" x1="949.07" y1="6125.58" x2="838.6" y2="5983.64" xlink:href="#linear-gradient"/>
    <linearGradient id="linear-gradient-15" x1="1111.96" y1="5897.92" x2="1079.88" y2="6109.38" xlink:href="#linear-gradient"/>
    <linearGradient id="linear-gradient-16" x1="185.76" y1="5838.66" x2="290.34" y2="5774.7" xlink:href="#linear-gradient"/>
    <linearGradient id="linear-gradient-17" x1="321.5" y1="5875.12" x2="117.09" y2="5783.99" xlink:href="#linear-gradient"/>
    <linearGradient id="linear-gradient-18" x1="307.07" y1="5761.02" x2="471.98" y2="5701.57" xlink:href="#linear-gradient"/>
    <linearGradient id="linear-gradient-19" x1="459.41" y1="5753.65" x2="402.1" y2="5836.78" xlink:href="#linear-gradient"/>
    <linearGradient id="linear-gradient-20" x1="537.54" y1="5835" x2="625.56" y2="5773.35" xlink:href="#linear-gradient"/>
    <linearGradient id="linear-gradient-21" x1="548.44" y1="5891.69" x2="476.85" y2="5828.34" xlink:href="#linear-gradient"/>
    <linearGradient id="linear-gradient-22" x1="798.91" y1="5788.99" x2="602.49" y2="5817.52" xlink:href="#linear-gradient"/>
    <linearGradient id="linear-gradient-23" x1="649.53" y1="5692.19" x2="650.1" y2="5881.13" xlink:href="#linear-gradient"/>
    <linearGradient id="linear-gradient-24" x1="841.95" y1="5787.2" x2="799.34" y2="5929.35" xlink:href="#linear-gradient"/>
    <linearGradient id="linear-gradient-25" x1="923.79" y1="5893.66" x2="830.49" y2="5821.65" xlink:href="#linear-gradient"/>
    <linearGradient id="linear-gradient-26" x1="1071.16" y1="5825.62" x2="938.82" y2="5868.79" xlink:href="#linear-gradient"/>
    <linearGradient id="linear-gradient-27" x1="995.97" y1="5751.58" x2="963.13" y2="5867.78" xlink:href="#linear-gradient"/>
    <linearGradient id="linear-gradient-28" x1="1040.27" y1="5850.26" x2="1172.16" y2="5869.26" xlink:href="#linear-gradient"/>
    <linearGradient id="linear-gradient-29" x1="1144.29" y1="5793.5" x2="1111.29" y2="5910.26" xlink:href="#linear-gradient"/>
    <linearGradient id="linear-gradient-30" x1="292.21" y1="5582.7" x2="295.38" y2="5747.5" xlink:href="#linear-gradient"/>
    <linearGradient id="linear-gradient-31" x1="341.17" y1="5655.94" x2="238.71" y2="5691.21" xlink:href="#linear-gradient"/>
    <linearGradient id="linear-gradient-32" x1="529.78" y1="5746.97" x2="367.23" y2="5615.61" xlink:href="#linear-gradient"/>
    <linearGradient id="linear-gradient-33" x1="367.88" y1="5734.35" x2="265.71" y2="5769.52" xlink:href="#linear-gradient"/>
    <linearGradient id="linear-gradient-34" x1="648.02" y1="5690.76" x2="474.22" y2="5710.51" xlink:href="#linear-gradient"/>
    <linearGradient id="linear-gradient-35" x1="617.25" y1="5605.65" x2="565.87" y2="5709.16" xlink:href="#linear-gradient"/>
    <linearGradient id="linear-gradient-36" x1="670.73" y1="5675.8" x2="794.99" y2="5610.31" xlink:href="#linear-gradient"/>
    <linearGradient id="linear-gradient-37" x1="758.74" y1="5742.68" x2="613.26" y2="5668.23" xlink:href="#linear-gradient"/>
    <linearGradient id="linear-gradient-38" x1="753.78" y1="5631.83" x2="855.1" y2="5579.41" xlink:href="#linear-gradient"/>
    <linearGradient id="linear-gradient-39" x1="832.21" y1="5649.76" x2="866.81" y2="5821.7" xlink:href="#linear-gradient"/>
    <linearGradient id="linear-gradient-40" x1="938.64" y1="5594.17" x2="992.14" y2="5784.37" xlink:href="#linear-gradient"/>
    <linearGradient id="linear-gradient-41" x1="1017.62" y1="5812.65" x2="850.73" y2="5684.91" xlink:href="#linear-gradient"/>
    <linearGradient id="linear-gradient-42" x1="1064.62" y1="5558.74" x2="1118.11" y2="5748.93" xlink:href="#linear-gradient"/>
    <linearGradient id="linear-gradient-43" x1="1088.89" y1="5805.02" x2="1200.78" y2="5695.66" xlink:href="#linear-gradient"/>
    <linearGradient id="linear-gradient-44" x1="303.72" y1="5508.23" x2="326.94" y2="5432.1" xlink:href="#linear-gradient"/>
    <linearGradient id="linear-gradient-45" x1="314.37" y1="5563.93" x2="227.02" y2="5668.72" xlink:href="#linear-gradient"/>
    <linearGradient id="linear-gradient-46" x1="487.47" y1="5568.14" x2="216.3" y2="5512.93" xlink:href="#linear-gradient"/>
    <linearGradient id="linear-gradient-47" x1="330.21" y1="5565.52" x2="456.95" y2="5552.06" xlink:href="#linear-gradient"/>
    <linearGradient id="linear-gradient-48" x1="494.51" y1="5518.09" x2="569.87" y2="5537.58" xlink:href="#linear-gradient"/>
    <linearGradient id="linear-gradient-49" x1="630.04" y1="5532.55" x2="456.24" y2="5552.3" xlink:href="#linear-gradient"/>
    <linearGradient id="linear-gradient-50" x1="644.27" y1="5456.03" x2="699.83" y2="5592.17" xlink:href="#linear-gradient"/>
    <linearGradient id="linear-gradient-51" x1="625.7" y1="5590.36" x2="749.95" y2="5524.87" xlink:href="#linear-gradient"/>
    <linearGradient id="linear-gradient-52" x1="786.66" y1="5442.1" x2="823.79" y2="5650.04" xlink:href="#linear-gradient"/>
    <linearGradient id="linear-gradient-53" x1="756.77" y1="5485.3" x2="787.95" y2="5535.56" xlink:href="#linear-gradient"/>
    <linearGradient id="linear-gradient-54" x1="1066.3" y1="5567.54" x2="833" y2="5529.29" xlink:href="#linear-gradient"/>
    <linearGradient id="linear-gradient-55" x1="894.12" y1="5648.57" x2="1091.39" y2="5480.14" xlink:href="#linear-gradient"/>
    <linearGradient id="linear-gradient-56" x1="1192.72" y1="5597.38" x2="1028.04" y2="5517.58" xlink:href="#linear-gradient"/>
    <linearGradient id="linear-gradient-57" x1="181.34" y1="5436.95" x2="326.32" y2="5325.35" xlink:href="#linear-gradient"/>
    <linearGradient id="linear-gradient-58" x1="269.93" y1="5497.74" x2="293.06" y2="5421.93" xlink:href="#linear-gradient"/>
    <linearGradient id="linear-gradient-59" x1="353.25" y1="5391.54" x2="371.57" y2="5396.78" xlink:href="#linear-gradient"/>
    <linearGradient id="linear-gradient-60" x1="515.34" y1="5431.24" x2="244.17" y2="5376.03" xlink:href="#linear-gradient"/>
    <linearGradient id="linear-gradient-61" x1="433.32" y1="5289.58" x2="564.26" y2="5375.23" xlink:href="#linear-gradient"/>
    <linearGradient id="linear-gradient-62" x1="538.55" y1="5481.56" x2="656.45" y2="5315.75" xlink:href="#linear-gradient"/>
    <linearGradient id="linear-gradient-63" x1="756.19" y1="5488.02" x2="649.23" y2="5282.58" xlink:href="#linear-gradient"/>
    <linearGradient id="linear-gradient-64" x1="699.2" y1="5311" x2="656.86" y2="5496.89" xlink:href="#linear-gradient"/>
    <linearGradient id="linear-gradient-65" x1="934.17" y1="5330.9" x2="742.8" y2="5415.59" xlink:href="#linear-gradient"/>
    <linearGradient id="linear-gradient-66" x1="863.01" y1="5249.95" x2="807.21" y2="5416.75" xlink:href="#linear-gradient"/>
    <linearGradient id="linear-gradient-67" x1="888.79" y1="5283.59" x2="952.57" y2="5334.25" xlink:href="#linear-gradient"/>
    <linearGradient id="linear-gradient-68" x1="1026.25" y1="5518.56" x2="847.38" y2="5313.69" xlink:href="#linear-gradient"/>
    <linearGradient id="linear-gradient-69" x1="1022.3" y1="5274.21" x2="1137.41" y2="5428.49" xlink:href="#linear-gradient"/>
    <linearGradient id="linear-gradient-70" x1="255.99" y1="5167.42" x2="319.96" y2="5380.73" xlink:href="#linear-gradient"/>
    <linearGradient id="linear-gradient-71" x1="221.35" y1="5151.27" x2="251.63" y2="5220.95" xlink:href="#linear-gradient"/>
    <linearGradient id="linear-gradient-72" x1="446.23" y1="5256.04" x2="301.73" y2="5263.27" xlink:href="#linear-gradient"/>
    <linearGradient id="linear-gradient-73" x1="432.22" y1="5145.48" x2="368.88" y2="5371.51" xlink:href="#linear-gradient"/>
    <linearGradient id="linear-gradient-74" x1="438.32" y1="5217.76" x2="647.59" y2="5225.23" xlink:href="#linear-gradient"/>
    <linearGradient id="linear-gradient-75" x1="545.92" y1="5177.34" x2="482.58" y2="5403.37" xlink:href="#linear-gradient"/>
    <linearGradient id="linear-gradient-76" x1="681.05" y1="5263.34" x2="610.26" y2="5199.78" xlink:href="#linear-gradient"/>
    <linearGradient id="linear-gradient-77" x1="656.36" y1="5332.26" x2="750.81" y2="5257.61" xlink:href="#linear-gradient"/>
    <linearGradient id="linear-gradient-78" x1="769.7" y1="5277.4" x2="869.84" y2="5192.67" xlink:href="#linear-gradient"/>
    <linearGradient id="linear-gradient-79" x1="813.44" y1="5224.2" x2="806.63" y2="5353.91" xlink:href="#linear-gradient"/>
    <linearGradient id="linear-gradient-80" x1="1002.29" y1="5182.17" x2="828.51" y2="5202.92" xlink:href="#linear-gradient"/>
    <linearGradient id="linear-gradient-81" x1="957.88" y1="5195.58" x2="1022.1" y2="5246.6" xlink:href="#linear-gradient"/>
    <linearGradient id="linear-gradient-82" x1="1104.83" y1="5122.42" x2="1033" y2="5217.91" xlink:href="#linear-gradient"/>
    <linearGradient id="linear-gradient-83" x1="1060.52" y1="5121.85" x2="1034.19" y2="5323.4" xlink:href="#linear-gradient"/>
    <linearGradient id="linear-gradient-84" x1="283.22" y1="4982.84" x2="268.31" y2="5152.69" xlink:href="#linear-gradient"/>
    <linearGradient id="linear-gradient-85" x1="417.42" y1="4996.84" x2="398.4" y2="5142.34" xlink:href="#linear-gradient"/>
    <linearGradient id="linear-gradient-86" x1="395.44" y1="5184.44" x2="265.14" y2="5022.68" xlink:href="#linear-gradient"/>
    <linearGradient id="linear-gradient-87" x1="605.87" y1="5144.83" x2="431.1" y2="5066.84" xlink:href="#linear-gradient"/>
    <linearGradient id="linear-gradient-88" x1="534.97" y1="5102.32" x2="550.87" y2="5176.66" xlink:href="#linear-gradient"/>
    <linearGradient id="linear-gradient-89" x1="673.3" y1="5152.34" x2="778.59" y2="5094.76" xlink:href="#linear-gradient"/>
    <linearGradient id="linear-gradient-90" x1="735.68" y1="5202.49" x2="664.8" y2="5138.84" xlink:href="#linear-gradient"/>
    <linearGradient id="linear-gradient-91" x1="954.22" y1="5070.53" x2="769.25" y2="5125.11" xlink:href="#linear-gradient"/>
    <linearGradient id="linear-gradient-92" x1="908.19" y1="4958.17" x2="803.86" y2="5123.68" xlink:href="#linear-gradient"/>
    <linearGradient id="linear-gradient-93" x1="902.65" y1="4994.56" x2="1026.61" y2="5096.72" xlink:href="#linear-gradient"/>
    <linearGradient id="linear-gradient-94" x1="919.84" y1="5149.34" x2="849.43" y2="5004.92" xlink:href="#linear-gradient"/>
    <linearGradient id="linear-gradient-95" x1="1055.75" y1="5081.43" x2="1001.88" y2="5123.25" xlink:href="#linear-gradient"/>
    <linearGradient id="linear-gradient-96" x1="1074.03" y1="5040.69" x2="1092.19" y2="5189.33" xlink:href="#linear-gradient"/>
    <linearGradient id="linear-gradient-97" x1="637.13" y1="5079.1" x2="464.62" y2="4832.15" xlink:href="#linear-gradient"/>
    <linearGradient id="linear-gradient-98" x1="637.68" y1="5073.53" x2="462.73" y2="4995.47" xlink:href="#linear-gradient"/>
    <linearGradient id="linear-gradient-99" x1="738.12" y1="5037.16" x2="609.69" y2="5073.59" xlink:href="#linear-gradient"/>
    <linearGradient id="linear-gradient-100" x1="655.45" y1="5084.29" x2="696.45" y2="4816.12" xlink:href="#linear-gradient"/>
    <linearGradient id="linear-gradient-101" x1="927.33" y1="4963.95" x2="1051.61" y2="5066.38" xlink:href="#linear-gradient"/>
    <linearGradient id="linear-gradient-102" x1="1159.12" y1="5023.06" x2="1045.18" y2="5063.83" xlink:href="#linear-gradient"/>
    <clipPath id="clippath-1">
      <path class="cls-44" d="M1966.51,714.37l-20.86-294.4h-659.78v119.01l58.44-31.32,4.2-29.19,25.06,14.59,39.65-48.04,25.05,18.79,33.39,6.26-2.07-27.12,29.25,4.2,25.05-14.66,29.19,22.99,33.45,10.46,17.86,50.55,42.66,16.22-10.4,31.32,108.56,43.85-29.25,39.71-18.86,28.06c4.2-1.94,8.14-3.38,6.64.63-2.38,6.26-16.47,15.66-17.29,25.87-.75,10.15-3.13,29.69,1.63,31.32,4.64,1.5,21.11-5.51,27.38-11.02,6.26-5.45,14.09-7.02,17.98,2.38,3.95,9.4,10.21,27.44,30.57,36.02,20.36,8.58,37.58,13.34,43.09,17.98,5.45,4.76,7.77,7.89,19.54,7.89s6.26,14.85,12.53,14.85,12.52-8.58,10.96-15.66c-1.57-7.08-7.83-25.06-26.62-39.15-18.79-14.09-36.02-34.45-36.83-38.33-.75-3.95,4.76-18.79,4.76-14.16s-1.63,15.66,7.77,21.93c9.39,6.26,24.3,23.55,27.43,23.55s14.09,3.89,12.53-3.94c-1.57-7.83-21.93-39.15-21.93-45.41s-2.07-30.26-3.13-37.59c-1.06-7.33,6.26-29.25,11.46-35.52,3.32-3.94,6.96-11.08,9.52-17.47,1.51-3.76,2.63-7.27,3.01-9.65,1.07-6.26-18.79-11.46-15.66-20.86,3.13-9.4-12.53-21.92-8.33-26.12,4.2-4.2,14.6,2.06,20.86-4.2,6.26-6.26,13.59-33.38,19.85-28.18,6.26,5.26,15.66,1.06,21.93-3.14,6.27-4.13,21.93-15.66,18.79-25.05-3.13-9.4,12.53-29.19,16.73-19.8,4.13,9.4,11.46,18.79-1.06,31.32-12.53,12.53-30.26,25.06-37.59,40.72-7.33,15.66-18.79,27.12-11.46,29.19,7.27,2.13,22.93,3.13,15.66,14.66-7.33,11.46-13.59,2.07-20.92,6.26-4.45,2.57-10.21,10.27-12.21,16.35-1.19,3.76-1,6.83,1.81,7.64,7.27,2.07,25.06-4.2,26.06,1.06,1.06,5.2-14.6,20.86-16.66,23.99-2.13,3.13,8.34,21.92,10.4,28.19,2.13,6.26,11.53,17.73,4.2,28.19-7.33,10.46-20.86,12.53-17.73,22.99,3.13,10.4,3.13,11.46,17.73,20.86,14.6,9.4,13.59,20.86,21.93,20.86s13.59-6.26,13.59-9.4,1,4.2,7.27,11.53c6.26,7.27,13.59,5.2,13.59,17.73s1.06,9.4,7.33,15.66c6.26,6.26,4.13,9.4,3.13,15.66-1.06,6.26,3.13,11.46,3.13,11.46,0,0,6.26,6.26,2.07,10.46-.5.5-.75.75-.82.88.69-.19,9.65-6.7,16.47.19,1.32,1.31,2.51,2.88,3.51,4.57,16.6-2.94,40.59-7.2,61.14-10.39.25-1.38.62-2.95,1.13-4.64,6.26-21.93,33.39-56.38,41.78-63.7,4.32-3.76,7.52-21.05,8.39-40.72h-107.62Z"/>
    </clipPath>
    <linearGradient id="linear-gradient-103" x1="1049.18" y1="5808.02" x2="1063.3" y2="5959.02" xlink:href="#linear-gradient"/>
    <linearGradient id="linear-gradient-104" x1="993.73" y1="5965.59" x2="1016.72" y2="5915.34" xlink:href="#linear-gradient"/>
    <linearGradient id="linear-gradient-105" x1="1165.28" y1="5874.69" x2="1041.49" y2="5835.64" xlink:href="#linear-gradient"/>
    <linearGradient id="linear-gradient-106" x1="971.72" y1="5764" x2="1050.52" y2="5715.81" xlink:href="#linear-gradient"/>
    <linearGradient id="linear-gradient-107" x1="1074" y1="5791.47" x2="919.97" y2="5722.81" xlink:href="#linear-gradient"/>
    <linearGradient id="linear-gradient-108" x1="1063.13" y1="5705.5" x2="1187.39" y2="5660.7" xlink:href="#linear-gradient"/>
    <linearGradient id="linear-gradient-109" x1="1051.94" y1="5571.13" x2="1054.32" y2="5695.31" xlink:href="#linear-gradient"/>
    <linearGradient id="linear-gradient-110" x1="1088.82" y1="5626.32" x2="1011.62" y2="5652.9" xlink:href="#linear-gradient"/>
    <linearGradient id="linear-gradient-111" x1="1108.95" y1="5685.4" x2="1031.97" y2="5711.9" xlink:href="#linear-gradient"/>
    <linearGradient id="linear-gradient-112" x1="1060.6" y1="5515.02" x2="1078.1" y2="5457.66" xlink:href="#linear-gradient"/>
    <linearGradient id="linear-gradient-113" x1="1068.63" y1="5556.99" x2="1002.81" y2="5635.95" xlink:href="#linear-gradient"/>
    <linearGradient id="linear-gradient-114" x1="1199.06" y1="5560.16" x2="994.74" y2="5518.56" xlink:href="#linear-gradient"/>
    <linearGradient id="linear-gradient-115" x1="968.39" y1="5461.31" x2="1077.63" y2="5377.22" xlink:href="#linear-gradient"/>
    <linearGradient id="linear-gradient-116" x1="1035.15" y1="5507.12" x2="1052.57" y2="5449.99" xlink:href="#linear-gradient"/>
    <linearGradient id="linear-gradient-117" x1="1220.06" y1="5457" x2="1015.73" y2="5415.4" xlink:href="#linear-gradient"/>
    <linearGradient id="linear-gradient-118" x1="1024.64" y1="5258.21" x2="1072.84" y2="5418.95" xlink:href="#linear-gradient"/>
    <linearGradient id="linear-gradient-119" x1="998.54" y1="5246.04" x2="1021.35" y2="5298.55" xlink:href="#linear-gradient"/>
    <linearGradient id="linear-gradient-120" x1="1167.98" y1="5324.99" x2="1059.11" y2="5330.44" xlink:href="#linear-gradient"/>
    <linearGradient id="linear-gradient-121" x1="1045.16" y1="5119.14" x2="1033.92" y2="5247.12" xlink:href="#linear-gradient"/>
    <linearGradient id="linear-gradient-122" x1="1129.71" y1="5271.04" x2="1031.53" y2="5149.15" xlink:href="#linear-gradient"/>
  </defs>
  <g class="cls-121">
    <g>
      <polygon class="cls-118" points="548.49 50.59 631.37 85.06 619.75 50.59 548.49 50.59"/>
      <polygon class="cls-16" points="619.75 50.59 631.37 85.06 673.22 50.59 619.75 50.59"/>
      <polygon class="cls-55" points="248.66 51.84 248.66 202.27 336.02 241.83 248.66 51.84"/>
      <polygon class="cls-45" points="248.66 51.84 248.66 52.8 336.02 241.83 248.66 51.84"/>
      <polygon class="cls-58" points="392.32 50.59 336.02 241.83 444.02 218.28 418.25 50.59 392.32 50.59"/>
      <polygon class="cls-97" points="248.66 50.59 248.66 52.8 336.02 241.83 392.32 50.59 248.66 50.59"/>
      <polygon class="cls-87" points="418.25 50.59 444.02 218.28 514.98 154.87 447.05 50.59 418.25 50.59"/>
      <polygon class="cls-71" points="447.05 50.59 514.98 154.87 631.37 85.06 548.5 50.59 447.05 50.59"/>
      <polygon class="cls-88" points="662.61 50.59 514.98 154.87 785.36 203.65 749.46 50.59 662.61 50.59"/>
      <polygon class="cls-24" points="662.61 50.59 514.98 154.87 631.37 85.06 673.22 50.59 662.61 50.59"/>
      <polygon class="cls-91" points="749.46 50.59 785.36 203.65 878.03 131.41 792.7 50.59 749.46 50.59"/>
      <polygon class="cls-25" points="792.7 50.59 878.03 131.41 814.29 50.59 792.7 50.59"/>
      <polygon class="cls-4" points="940.32 50.59 878.03 131.41 1019.6 200.45 997.09 50.59 940.32 50.59"/>
      <polygon class="cls-79" points="814.29 50.59 878.03 131.41 940.32 50.59 814.29 50.59"/>
      <polygon class="cls-3" points="997.09 50.59 1019.6 200.45 1197.41 126.96 1081.44 50.59 997.09 50.59"/>
      <polygon class="cls-116" points="248.66 379.94 336.02 241.83 248.66 281.16 248.66 379.94"/>
      <polygon class="cls-85" points="248.66 202.27 248.66 281.16 336.02 241.83 248.66 202.27"/>
      <polygon class="cls-125" points="248.66 394.22 501.13 301.94 336.02 241.83 336.02 241.83 248.66 379.94 248.66 394.22"/>
      <path class="cls-94" d="M336.02,241.83l165.11,60.12-57.11-83.66h0l-108,23.55Z"/>
      <path class="cls-82" d="M514.98,154.87l-13.85,147.08,87.45,61.86-73.61-208.94h0Z"/>
      <path class="cls-102" d="M514.98,154.87l-13.85,147.08-57.11-83.66h0l70.96-63.41Z"/>
      <path class="cls-61" d="M514.98,154.87l269.81,237.72-196.21-28.78-73.61-208.94h0Z"/>
      <path class="cls-119" d="M514.98,154.87l269.81,237.72.56-188.93h0l-270.38-48.79Z"/>
      <path class="cls-62" d="M878.03,131.42l-93.24,261.17,135.4-119.17-42.15-141.99h0Z"/>
      <path class="cls-22" d="M878.03,131.42l-93.24,261.17.56-188.93h0l92.68-72.24Z"/>
      <path class="cls-40" d="M878.03,131.42l174.16,185.47-132.01-43.48-42.15-141.99h0Z"/>
      <path class="cls-27" d="M878.03,131.42l174.16,185.47-32.59-116.44h0l-141.57-69.03Z"/>
      <path class="cls-6" d="M1197.41,126.96l-145.22,189.93,131.69-19.16,13.52-170.77h0Z"/>
      <path class="cls-81" d="M1197.41,126.96l-145.22,189.93-32.59-116.44h0l177.81-73.49Z"/>
      <polygon class="cls-47" points="248.66 390.23 248.66 461.81 339.21 434.09 248.66 390.23"/>
      <polygon class="cls-120" points="248.66 390.23 248.66 402.6 339.21 434.09 248.66 390.23"/>
      <path class="cls-113" d="M501.13,301.94l-161.92,132.14,126.61,13.58,35.3-145.72h0Z"/>
      <polygon class="cls-67" points="248.66 394.22 248.66 402.6 339.21 434.09 501.13 301.94 248.66 394.22"/>
      <path class="cls-56" d="M501.13,301.94l138.48,165.67-173.78-19.94,35.3-145.72h0Z"/>
      <path class="cls-46" d="M501.13,301.94l138.48,165.67-51.02-103.81h0l-87.45-61.86Z"/>
      <path class="cls-101" d="M784.79,392.58l-145.18,75.03,123.99,65.99,21.19-141.02h0Z"/>
      <path class="cls-29" d="M784.79,392.58l-145.18,75.03-51.02-103.81h0l196.21,28.78Z"/>
      <path class="cls-59" d="M784.79,392.58l101.12,52.83-122.31,88.19,21.19-141.02h0Z"/>
      <path class="cls-33" d="M784.79,392.58l101.12,52.83,34.28-172h0l-135.4,119.18Z"/>
      <path class="cls-26" d="M1052.19,316.88l-166.29,128.53,113.27,61.8,53.02-190.33h0Z"/>
      <path class="cls-115" d="M1052.19,316.88l-166.29,128.53,34.28-172h0l132.01,43.48Z"/>
      <path class="cls-10" d="M1052.19,316.88l111.36,109.9-164.38,80.43,53.02-190.33h0Z"/>
      <path class="cls-21" d="M1052.19,316.88l111.36,109.9,20.33-129.06h0l-131.69,19.16Z"/>
      <polygon class="cls-52" points="248.66 557.74 248.66 654.06 339.21 434.09 339.21 434.08 248.66 557.74"/>
      <polygon class="cls-104" points="248.66 461.81 248.66 557.74 339.21 434.08 248.66 461.81"/>
      <polygon class="cls-11" points="248.66 677.17 509.33 623.58 339.21 434.08 339.21 434.09 248.66 654.06 248.66 677.17"/>
      <path class="cls-39" d="M339.21,434.08l170.12,189.49-43.5-175.91h0l-126.61-13.58Z"/>
      <path class="cls-111" d="M639.61,467.61l-130.28,155.97,75.19-19.63,55.09-136.33h0Z"/>
      <path class="cls-54" d="M639.61,467.61l-130.28,155.97-43.5-175.91h0l173.78,19.94Z"/>
      <path class="cls-86" d="M639.61,467.61l92.98,116.44-148.08,19.89,55.09-136.33h0Z"/>
      <path class="cls-70" d="M639.61,467.61l92.98,116.44,31-50.45h0l-123.99-65.99Z"/>
      <path class="cls-35" d="M885.91,445.41l-153.31,138.65,116.53,69.36,36.78-208h0Z"/>
      <path class="cls-9" d="M885.91,445.41l-153.31,138.65,31-50.45h0l122.31-88.2Z"/>
      <path class="cls-64" d="M885.91,445.41l196.46,169.38-233.24,38.62,36.78-208h0Z"/>
      <path class="cls-31" d="M885.91,445.41l196.46,169.38-83.19-107.58h0l-113.27-61.81Z"/>
      <path class="cls-20" d="M1163.55,426.79l-81.19,188.01-83.19-107.58h0l164.38-80.43Z"/>
      <polygon class="cls-73" points="248.66 629.21 248.66 769.25 359.76 715.57 248.66 629.21"/>
      <polygon class="cls-38" points="248.66 629.21 248.66 682.4 359.76 715.57 248.66 629.21"/>
      <path class="cls-90" d="M509.33,623.58l-149.57,91.99,18.29-5.28,131.28-86.71h0Z"/>
      <polygon class="cls-13" points="248.66 677.17 248.66 682.4 359.76 715.57 509.33 623.58 248.66 677.17"/>
      <path class="cls-2" d="M509.33,623.58l117.14,166.35-248.41-79.65,131.28-86.71h0Z"/>
      <path class="cls-80" d="M509.33,623.58l117.14,166.35-41.95-185.99h0l-75.19,19.63Z"/>
      <path class="cls-122" d="M732.59,584.06l-106.13,205.87,87.36-54.61,18.77-151.27h0Z"/>
      <path class="cls-19" d="M732.59,584.06l-106.13,205.87-41.95-185.99h0l148.08-19.89Z"/>
      <path class="cls-7" d="M732.59,584.06l171.89,236.47-190.67-85.21,18.77-151.27h0Z"/>
      <path class="cls-72" d="M732.59,584.06l171.89,236.47-55.36-167.12h0l-116.53-69.35Z"/>
      <path class="cls-84" d="M1082.36,614.79l-177.88,205.74,63.48-50.92,114.39-154.82h0Z"/>
      <path class="cls-28" d="M1082.36,614.79l-177.88,205.74-55.36-167.12h0l233.24-38.62Z"/>
      <path class="cls-8" d="M1082.36,614.79l25.83,195.09-140.22-40.27,114.39-154.82h0Z"/>
      <polygon class="cls-12" points="359.76 715.57 248.66 794.66 248.66 918.19 296.32 929.17 359.76 715.57 359.76 715.57"/>
      <polygon class="cls-51" points="248.66 769.25 248.66 794.66 359.76 715.57 248.66 769.25"/>
      <path class="cls-43" d="M359.76,715.57l81.06,220.91-144.49-7.3,63.44-213.61h0Z"/>
      <path class="cls-50" d="M359.76,715.57l81.06,220.91-62.76-226.19h0l-18.29,5.28Z"/>
      <path class="cls-41" d="M626.46,789.93l-185.65,146.54,209.26-7.54-23.62-139h0Z"/>
      <path class="cls-30" d="M626.46,789.93l-185.65,146.54-62.76-226.19h0l248.41,79.65Z"/>
      <path class="cls-48" d="M626.46,789.93l94.1,75.1-70.48,63.9-23.62-139h0Z"/>
      <path class="cls-74" d="M626.46,789.93l94.1,75.1-6.74-129.71h0l-87.36,54.61Z"/>
      <path class="cls-69" d="M904.49,820.53l-183.93,44.5,99.73,85.21,84.19-129.71h0Z"/>
      <path class="cls-68" d="M904.49,820.53l-183.93,44.5-6.74-129.71h0l190.67,85.21Z"/>
      <path class="cls-96" d="M904.49,820.53l89.56,150.67-173.75-20.95,84.19-129.71h0Z"/>
      <path class="cls-107" d="M904.49,820.53l89.56,150.67-26.07-201.59h0l-63.48,50.92Z"/>
      <path class="cls-23" d="M1108.19,809.88l-114.15,161.31,185.53-65.49-71.38-95.83h0Z"/>
      <path class="cls-98" d="M1108.19,809.88l-114.15,161.31-26.07-201.59h0l140.22,40.27Z"/>
      <polygon class="cls-108" points="248.66 1029.41 305.04 1029.41 296.32 929.17 248.66 918.19 248.66 1029.41"/>
      <polygon class="cls-105" points="452.85 1029.41 440.82 936.47 440.82 936.47 366.69 1029.41 452.85 1029.41"/>
      <polygon class="cls-114" points="366.69 1029.41 440.82 936.47 296.32 929.17 305.04 1029.41 366.69 1029.41"/>
      <polygon class="cls-18" points="576.38 1029.41 634.32 1003.3 440.82 936.47 452.85 1029.41 576.38 1029.41"/>
      <path class="cls-78" d="M440.82,936.47l193.51,66.83,15.76-74.37h0l-209.26,7.54Z"/>
      <polygon class="cls-34" points="736.41 1029.41 720.56 865.03 720.56 865.03 634.32 1003.3 681.61 1029.41 736.41 1029.41"/>
      <path class="cls-66" d="M720.56,865.03l-86.24,138.27,15.76-74.37h0l70.48-63.9Z"/>
      <polygon class="cls-60" points="853.61 1029.41 720.56 865.03 736.41 1029.41 853.61 1029.41"/>
      <polygon class="cls-65" points="869.71 1029.41 820.29 950.24 720.56 865.03 853.61 1029.41 869.71 1029.41"/>
      <polygon class="cls-14" points="1028.43 1029.41 1047.77 1013.31 994.05 971.2 965.94 1029.41 1028.43 1029.41"/>
      <polygon class="cls-63" points="965.94 1029.41 994.05 971.2 820.29 950.24 869.71 1029.41 965.94 1029.41"/>
      <polygon class="cls-15" points="1092.31 1029.41 1111.2 1029.41 994.05 971.2 994.05 971.2 1047.77 1013.31 1092.31 1029.41"/>
      <polygon class="cls-53" points="1164.6 1029.41 1179.58 905.71 994.05 971.2 1111.2 1029.41 1164.6 1029.41"/>
      <polygon class="cls-42" points="624.45 1029.41 634.32 1003.3 634.32 1003.3 616.26 1029.41 624.45 1029.41"/>
      <polygon class="cls-106" points="616.26 1029.41 634.32 1003.3 576.38 1029.41 616.26 1029.41"/>
      <polygon class="cls-124" points="638.27 1029.41 634.32 1003.3 624.45 1029.41 638.27 1029.41"/>
      <polygon class="cls-17" points="681.61 1029.41 634.32 1003.3 638.27 1029.41 681.61 1029.41"/>
      <polygon class="cls-95" points="1047.24 1029.41 1047.77 1013.31 1028.43 1029.41 1047.24 1029.41"/>
      <polygon class="cls-112" points="1092.31 1029.41 1047.77 1013.31 1047.24 1029.41 1092.31 1029.41"/>
    </g>
  </g>
  <g class="cls-57">
    <g>
      <polygon class="cls-75" points="1019.12 174.28 1019.12 287.63 1084.94 317.44 1019.12 174.28"/>
      <polygon class="cls-89" points="1019.12 174.28 1019.12 175 1084.94 317.44 1019.12 174.28"/>
      <polygon class="cls-100" points="1019.12 173.34 1019.12 175 1084.94 317.44 1127.36 173.34 1019.12 173.34"/>
      <polygon class="cls-83" points="1019.12 421.51 1084.94 317.44 1019.12 347.08 1019.12 421.51"/>
      <polygon class="cls-5" points="1019.12 287.63 1019.12 347.08 1084.95 317.44 1019.12 287.63"/>
      <polygon class="cls-93" points="1019.12 432.27 1209.36 362.74 1084.95 317.44 1084.94 317.44 1019.12 421.51 1019.12 432.27"/>
      <polygon class="cls-49" points="1019.12 429.26 1019.12 483.2 1087.35 462.31 1019.12 429.26"/>
      <polygon class="cls-77" points="1019.12 429.26 1019.12 438.59 1087.35 462.31 1019.12 429.26"/>
      <polygon class="cls-117" points="1019.12 432.27 1019.12 438.59 1087.35 462.31 1209.36 362.74 1019.12 432.27"/>
      <polygon class="cls-99" points="1019.12 555.48 1019.12 628.06 1087.35 462.31 1087.35 462.31 1019.12 555.48"/>
      <polygon class="cls-36" points="1019.12 483.2 1019.12 555.48 1087.35 462.31 1019.12 483.2"/>
      <polygon class="cls-109" points="1019.12 645.47 1215.53 605.09 1087.35 462.31 1087.35 462.31 1019.12 628.06 1019.12 645.47"/>
      <polygon class="cls-123" points="1019.12 609.34 1019.12 714.86 1102.83 674.41 1019.12 609.34"/>
      <polygon class="cls-32" points="1019.12 609.34 1019.12 649.42 1102.83 674.41 1019.12 609.34"/>
      <polygon class="cls-110" points="1019.12 645.47 1019.12 649.42 1102.83 674.41 1215.53 605.09 1019.12 645.47"/>
      <polygon class="cls-1" points="1102.83 674.41 1019.12 734.01 1019.12 827.09 1055.03 835.36 1102.83 674.41 1102.83 674.41"/>
      <polygon class="cls-103" points="1019.12 714.86 1019.12 734.01 1102.83 674.41 1019.12 714.86"/>
      <path class="cls-92" d="M1102.83,674.41l61.08,166.45-108.88-5.5,47.8-160.95h0Z"/>
      <polygon class="cls-76" points="1019.12 910.89 1061.6 910.89 1055.03 835.36 1019.12 827.09 1019.12 910.89"/>
      <polygon class="cls-37" points="1108.05 910.89 1163.91 840.86 1055.03 835.36 1061.6 910.89 1108.05 910.89"/>
    </g>
  </g>
</svg>