<?xml version="1.0" encoding="UTF-8"?>
<svg id="Layer_1" data-name="Layer 1" xmlns="http://www.w3.org/2000/svg" xmlns:xlink="http://www.w3.org/1999/xlink" viewBox="0 0 1080 1080">
  <defs>
    <style>
      .cls-1 {
        fill: url(#linear-gradient-132);
      }

      .cls-2 {
        fill: url(#linear-gradient-118);
      }

      .cls-3 {
        fill: url(#linear-gradient-162);
      }

      .cls-4 {
        fill: url(#linear-gradient-61);
      }

      .cls-5 {
        fill: url(#linear-gradient-136);
      }

      .cls-6 {
        fill: url(#linear-gradient-15);
      }

      .cls-7 {
        fill: url(#linear-gradient-13);
      }

      .cls-8 {
        fill: url(#linear-gradient-107);
      }

      .cls-9 {
        fill: url(#linear-gradient-28);
      }

      .cls-10 {
        fill: url(#linear-gradient-158);
      }

      .cls-11 {
        fill: url(#linear-gradient-65);
      }

      .cls-12 {
        fill: url(#linear-gradient-145);
      }

      .cls-13 {
        fill: url(#linear-gradient-69);
      }

      .cls-14 {
        fill: url(#linear-gradient-53);
      }

      .cls-15 {
        fill: url(#linear-gradient-42);
      }

      .cls-16 {
        fill: url(#linear-gradient-46);
      }

      .cls-17 {
        fill: url(#linear-gradient-155);
      }

      .cls-18 {
        fill: url(#linear-gradient-142);
      }

      .cls-19 {
        fill: url(#linear-gradient-70);
      }

      .cls-20 {
        fill: url(#linear-gradient-60);
      }

      .cls-21 {
        fill: url(#linear-gradient-93);
      }

      .cls-22 {
        fill: url(#linear-gradient-95);
      }

      .cls-23 {
        fill: url(#linear-gradient-2);
      }

      .cls-24 {
        fill: url(#linear-gradient-100);
      }

      .cls-25 {
        fill: url(#linear-gradient-150);
      }

      .cls-26 {
        fill: url(#linear-gradient-87);
      }

      .cls-27 {
        fill: url(#linear-gradient-64);
      }

      .cls-28 {
        fill: url(#linear-gradient-56);
      }

      .cls-29 {
        fill: url(#linear-gradient-43);
      }

      .cls-30 {
        fill: url(#linear-gradient-25);
      }

      .cls-31 {
        fill: url(#linear-gradient-82);
      }

      .cls-32 {
        fill: url(#linear-gradient-138);
      }

      .cls-33 {
        fill: url(#linear-gradient-10);
      }

      .cls-34 {
        fill: url(#linear-gradient-12);
      }

      .cls-35 {
        fill: url(#linear-gradient-40);
      }

      .cls-36 {
        fill: url(#linear-gradient-27);
      }

      .cls-37 {
        fill: url(#linear-gradient-68);
      }

      .cls-38 {
        fill: url(#linear-gradient-37);
      }

      .cls-39 {
        fill: url(#linear-gradient-159);
      }

      .cls-40 {
        fill: url(#linear-gradient-75);
      }

      .cls-41 {
        fill: url(#linear-gradient-55);
      }

      .cls-42 {
        fill: url(#linear-gradient-116);
      }

      .cls-43 {
        fill: url(#linear-gradient-39);
      }

      .cls-44 {
        fill: url(#linear-gradient-160);
      }

      .cls-45 {
        fill: url(#linear-gradient-89);
      }

      .cls-46 {
        fill: url(#linear-gradient-52);
      }

      .cls-47 {
        fill: url(#linear-gradient-113);
      }

      .cls-48 {
        fill: url(#linear-gradient-122);
      }

      .cls-49 {
        fill: url(#linear-gradient-58);
      }

      .cls-50 {
        fill: url(#linear-gradient-152);
      }

      .cls-51 {
        fill: url(#linear-gradient-47);
      }

      .cls-52 {
        fill: url(#linear-gradient-26);
      }

      .cls-53 {
        fill: url(#linear-gradient-74);
      }

      .cls-54 {
        fill: url(#linear-gradient-146);
      }

      .cls-55 {
        fill: url(#linear-gradient-97);
      }

      .cls-56 {
        fill: url(#linear-gradient-72);
      }

      .cls-57 {
        fill: url(#linear-gradient-157);
      }

      .cls-58 {
        fill: none;
      }

      .cls-59 {
        fill: url(#linear-gradient-4);
      }

      .cls-60 {
        fill: url(#linear-gradient-35);
      }

      .cls-61 {
        fill: url(#linear-gradient-30);
      }

      .cls-62 {
        fill: url(#linear-gradient-125);
      }

      .cls-63 {
        fill: url(#linear-gradient-161);
      }

      .cls-64 {
        fill: url(#linear-gradient-76);
      }

      .cls-65 {
        fill: url(#linear-gradient-143);
      }

      .cls-66 {
        fill: url(#linear-gradient-109);
      }

      .cls-67 {
        fill: url(#linear-gradient-73);
      }

      .cls-68 {
        fill: url(#linear-gradient-71);
      }

      .cls-69 {
        fill: url(#linear-gradient-44);
      }

      .cls-70 {
        fill: url(#linear-gradient-144);
      }

      .cls-71 {
        fill: url(#linear-gradient-96);
      }

      .cls-72 {
        fill: url(#linear-gradient-49);
      }

      .cls-73 {
        fill: url(#linear-gradient-3);
      }

      .cls-74 {
        fill: url(#linear-gradient-34);
      }

      .cls-75 {
        fill: url(#linear-gradient-5);
      }

      .cls-76 {
        fill: url(#linear-gradient-38);
      }

      .cls-77 {
        fill: url(#linear-gradient-91);
      }

      .cls-78 {
        fill: url(#linear-gradient-149);
      }

      .cls-79 {
        fill: url(#linear-gradient-22);
      }

      .cls-80 {
        fill: url(#linear-gradient-24);
      }

      .cls-81 {
        fill: url(#linear-gradient-133);
      }

      .cls-82 {
        fill: url(#linear-gradient-94);
      }

      .cls-83 {
        fill: url(#linear-gradient-54);
      }

      .cls-84 {
        fill: url(#linear-gradient-147);
      }

      .cls-85 {
        fill: url(#linear-gradient-92);
      }

      .cls-86 {
        fill: url(#linear-gradient-90);
      }

      .cls-87 {
        fill: url(#linear-gradient-33);
      }

      .cls-88 {
        fill: url(#linear-gradient-79);
      }

      .cls-89 {
        fill: url(#linear-gradient-78);
      }

      .cls-90 {
        fill: url(#linear-gradient-51);
      }

      .cls-91 {
        fill: url(#linear-gradient-8);
      }

      .cls-92 {
        fill: url(#linear-gradient-66);
      }

      .cls-93 {
        fill: url(#linear-gradient-57);
      }

      .cls-94 {
        fill: url(#linear-gradient-77);
      }

      .cls-95 {
        fill: url(#linear-gradient-131);
      }

      .cls-96 {
        fill: url(#linear-gradient-129);
      }

      .cls-97 {
        fill: url(#linear-gradient-103);
      }

      .cls-98 {
        fill: url(#linear-gradient-135);
      }

      .cls-99 {
        fill: url(#linear-gradient-121);
      }

      .cls-100 {
        fill: url(#linear-gradient-110);
      }

      .cls-101 {
        fill: url(#linear-gradient-88);
      }

      .cls-102 {
        fill: url(#linear-gradient-124);
      }

      .cls-103 {
        fill: url(#linear-gradient-128);
      }

      .cls-104 {
        fill: url(#linear-gradient-14);
      }

      .cls-105 {
        fill: url(#linear-gradient-62);
      }

      .cls-106 {
        fill: url(#linear-gradient-156);
      }

      .cls-107 {
        fill: url(#linear-gradient-29);
      }

      .cls-108 {
        fill: url(#linear-gradient-20);
      }

      .cls-109 {
        fill: url(#linear-gradient-106);
      }

      .cls-110 {
        fill: url(#linear-gradient-67);
      }

      .cls-111 {
        fill: url(#linear-gradient-139);
      }

      .cls-112 {
        fill: url(#linear-gradient-148);
      }

      .cls-113 {
        fill: url(#linear-gradient-17);
      }

      .cls-114 {
        fill: url(#linear-gradient-141);
      }

      .cls-115 {
        fill: url(#linear-gradient-50);
      }

      .cls-116 {
        fill: url(#linear-gradient-7);
      }

      .cls-117 {
        fill: url(#linear-gradient-134);
      }

      .cls-118 {
        fill: url(#linear-gradient-9);
      }

      .cls-119 {
        fill: url(#linear-gradient-104);
      }

      .cls-120 {
        fill: url(#linear-gradient-59);
      }

      .cls-121 {
        fill: url(#linear-gradient-11);
      }

      .cls-122 {
        fill: url(#linear-gradient-120);
      }

      .cls-123 {
        fill: url(#linear-gradient-108);
      }

      .cls-124 {
        fill: url(#linear-gradient-19);
      }

      .cls-125 {
        fill: url(#linear-gradient-101);
      }

      .cls-126 {
        fill: url(#linear-gradient-80);
      }

      .cls-127 {
        fill: url(#linear-gradient-6);
      }

      .cls-128 {
        fill: url(#linear-gradient-83);
      }

      .cls-129 {
        fill: url(#linear-gradient-112);
      }

      .cls-130 {
        fill: url(#linear-gradient-154);
      }

      .cls-131 {
        fill: url(#linear-gradient-105);
      }

      .cls-132 {
        fill: url(#linear-gradient-137);
      }

      .cls-133 {
        fill: url(#linear-gradient-36);
      }

      .cls-134 {
        fill: url(#linear-gradient-21);
      }

      .cls-135 {
        fill: url(#linear-gradient-119);
      }

      .cls-136 {
        fill: url(#linear-gradient-45);
      }

      .cls-137 {
        fill: url(#linear-gradient-127);
      }

      .cls-138 {
        fill: url(#linear-gradient-85);
      }

      .cls-139 {
        fill: url(#linear-gradient-98);
      }

      .cls-140 {
        fill: url(#linear-gradient-81);
      }

      .cls-141 {
        fill: url(#linear-gradient-151);
      }

      .cls-142 {
        fill: url(#linear-gradient-84);
      }

      .cls-143 {
        fill: url(#linear-gradient-114);
      }

      .cls-144 {
        fill: url(#linear-gradient-140);
      }

      .cls-145 {
        fill: url(#linear-gradient-153);
      }

      .cls-146 {
        fill: url(#linear-gradient-117);
      }

      .cls-147 {
        fill: url(#linear-gradient-48);
      }

      .cls-148 {
        fill: url(#linear-gradient-102);
      }

      .cls-149 {
        fill: url(#linear-gradient-32);
      }

      .cls-150 {
        fill: url(#linear-gradient-86);
      }

      .cls-151 {
        fill: url(#linear-gradient-41);
      }

      .cls-152 {
        fill: url(#linear-gradient-130);
      }

      .cls-153 {
        fill: url(#linear-gradient-16);
      }

      .cls-154 {
        fill: url(#linear-gradient-111);
      }

      .cls-155 {
        fill: url(#linear-gradient);
      }

      .cls-156 {
        fill: url(#linear-gradient-23);
      }

      .cls-157 {
        fill: url(#linear-gradient-31);
      }

      .cls-158 {
        clip-path: url(#clippath);
      }

      .cls-159 {
        fill: url(#linear-gradient-63);
      }

      .cls-160 {
        fill: url(#linear-gradient-115);
      }

      .cls-161 {
        fill: url(#linear-gradient-126);
      }

      .cls-162 {
        fill: url(#linear-gradient-99);
      }

      .cls-163 {
        fill: url(#linear-gradient-18);
      }

      .cls-164 {
        fill: url(#linear-gradient-123);
      }
    </style>
    <clipPath id="clippath">
      <path class="cls-58" d="M945.36,736.93c-3.59,1.3-54.79,14.68-73.05,17.29-18.59,2.28-61.32,30.33-67.19,30.33-6.2,0,2.28-42.72,2.28-51.2s-9.78-4.89-20.54-1.3c-11.09,3.59-44.03,32.94-64.9,45.33-6.2,3.59-12.06,7.17-17.94,10.11l-6.2-34.57-10.44-36.53-32.29-16.31-16.31-43.05-83.82-1.96v-10.11H212.19l1.63-16.63,40.44-194.38,172.2,3.91,252.76,9.13,18.27-16.63,13.04-27.39,40.12-7.5h23.16c-.65,2.28-1.3,4.57-1.63,6.85-12.39,51.2,14.68,52.51,37.83,50.22,23.15-2.61,2.28,18.27-7.5,28.05-9.78,9.78-31.64,18.26-37.83,20.54-6.19,2.61-28.05,27.07-34.24,48.92-5.87,21.85,28.05,23.16,56.42,31.96,28.05,8.48,16.96,48.6,12.07,51.2-4.89,2.28,3.59,19.57,14.68,26.74,11.09,7.5,23.16,41.42,29.35,50.22,6.2,8.48,35.22,10.76,44.03,10.76s37.83-15.66,48.59-21.85c11.09-6.2,3.91-18.26,1.3-31.64-2.28-13.7-18.26-23.16-25.44-30.66-7.5-7.18-8.81-9.79,0-14.68,8.48-4.89,32.94,30.66,45.01,48.92,12.07,18.27-7.17,64.58-11.09,65.88Z"/>
    </clipPath>
    <linearGradient id="linear-gradient" x1="30.38" y1="3631.7" x2="197.91" y2="3562.7" gradientTransform="translate(0 3804.36) scale(1 -1)" gradientUnits="userSpaceOnUse">
      <stop offset="0" stop-color="#f5c133"/>
      <stop offset="1" stop-color="#e08524"/>
    </linearGradient>
    <linearGradient id="linear-gradient-2" x1="265.86" y1="3628.33" x2="185.86" y2="3563.08" xlink:href="#linear-gradient"/>
    <linearGradient id="linear-gradient-3" x1="656.74" y1="3582.76" x2="776.13" y2="3573.45" xlink:href="#linear-gradient"/>
    <linearGradient id="linear-gradient-4" x1="819.4" y1="3560.83" x2="833.25" y2="3648.8" xlink:href="#linear-gradient"/>
    <linearGradient id="linear-gradient-5" x1="893.82" y1="3608.22" x2="897.66" y2="3687.55" xlink:href="#linear-gradient"/>
    <linearGradient id="linear-gradient-6" x1="11.84" y1="3446.28" x2="-14.55" y2="3616.32" xlink:href="#linear-gradient"/>
    <linearGradient id="linear-gradient-7" x1="51.76" y1="3542.78" x2="-72.03" y2="3503.74" xlink:href="#linear-gradient"/>
    <linearGradient id="linear-gradient-8" x1="82.53" y1="3457.37" x2="56.16" y2="3627.29" xlink:href="#linear-gradient"/>
    <linearGradient id="linear-gradient-9" x1="82.68" y1="3541.02" x2="170.28" y2="3593.04" xlink:href="#linear-gradient"/>
    <linearGradient id="linear-gradient-10" x1="115.77" y1="3553.74" x2="319.57" y2="3517.32" xlink:href="#linear-gradient"/>
    <linearGradient id="linear-gradient-11" x1="269.31" y1="3624.05" x2="189.35" y2="3558.84" xlink:href="#linear-gradient"/>
    <linearGradient id="linear-gradient-12" x1="243.5" y1="3586.41" x2="350.06" y2="3486.47" xlink:href="#linear-gradient"/>
    <linearGradient id="linear-gradient-13" x1="264.42" y1="3603.32" x2="315.91" y2="3572.53" xlink:href="#linear-gradient"/>
    <linearGradient id="linear-gradient-14" x1="438.31" y1="3458.88" x2="414.15" y2="3618.13" xlink:href="#linear-gradient"/>
    <linearGradient id="linear-gradient-15" x1="433.36" y1="3648.29" x2="350.12" y2="3541.34" xlink:href="#linear-gradient"/>
    <linearGradient id="linear-gradient-16" x1="556.1" y1="3476.75" x2="531.93" y2="3636.08" xlink:href="#linear-gradient"/>
    <linearGradient id="linear-gradient-17" x1="573.25" y1="3529.68" x2="592.06" y2="3639.27" xlink:href="#linear-gradient"/>
    <linearGradient id="linear-gradient-18" x1="630.46" y1="3551.81" x2="719.74" y2="3522.39" xlink:href="#linear-gradient"/>
    <linearGradient id="linear-gradient-19" x1="646.83" y1="3583.29" x2="610.77" y2="3527.9" xlink:href="#linear-gradient"/>
    <linearGradient id="linear-gradient-20" x1="850.37" y1="3536.93" x2="709.07" y2="3534.88" xlink:href="#linear-gradient"/>
    <linearGradient id="linear-gradient-21" x1="824.76" y1="3466.91" x2="749.24" y2="3540.16" xlink:href="#linear-gradient"/>
    <linearGradient id="linear-gradient-22" x1="865.96" y1="3432.38" x2="854.33" y2="3554.51" xlink:href="#linear-gradient"/>
    <linearGradient id="linear-gradient-23" x1="859.04" y1="3524.46" x2="771.36" y2="3536.68" xlink:href="#linear-gradient"/>
    <linearGradient id="linear-gradient-24" x1="946.79" y1="3440.08" x2="935.16" y2="3562.21" xlink:href="#linear-gradient"/>
    <linearGradient id="linear-gradient-25" x1="880.64" y1="3513.48" x2="997.43" y2="3561.68" xlink:href="#linear-gradient"/>
    <linearGradient id="linear-gradient-26" x1="1071.18" y1="3507.15" x2="982.68" y2="3606.33" xlink:href="#linear-gradient"/>
    <linearGradient id="linear-gradient-27" x1="-50.39" y1="3373.6" x2="73.87" y2="3328.79" xlink:href="#linear-gradient"/>
    <linearGradient id="linear-gradient-28" x1="64.4" y1="3368.04" x2="21.22" y2="3430.68" xlink:href="#linear-gradient"/>
    <linearGradient id="linear-gradient-29" x1="123.27" y1="3429.34" x2="189.59" y2="3382.88" xlink:href="#linear-gradient"/>
    <linearGradient id="linear-gradient-30" x1="131.48" y1="3472.05" x2="77.54" y2="3424.32" xlink:href="#linear-gradient"/>
    <linearGradient id="linear-gradient-31" x1="320.22" y1="3394.67" x2="172.21" y2="3416.17" xlink:href="#linear-gradient"/>
    <linearGradient id="linear-gradient-32" x1="207.65" y1="3321.73" x2="208.08" y2="3464.09" xlink:href="#linear-gradient"/>
    <linearGradient id="linear-gradient-33" x1="352.65" y1="3393.32" x2="320.54" y2="3500.43" xlink:href="#linear-gradient"/>
    <linearGradient id="linear-gradient-34" x1="414.31" y1="3473.54" x2="344.01" y2="3419.28" xlink:href="#linear-gradient"/>
    <linearGradient id="linear-gradient-35" x1="525.36" y1="3422.27" x2="425.64" y2="3454.8" xlink:href="#linear-gradient"/>
    <linearGradient id="linear-gradient-36" x1="468.7" y1="3366.48" x2="443.96" y2="3454.04" xlink:href="#linear-gradient"/>
    <linearGradient id="linear-gradient-37" x1="502.08" y1="3440.83" x2="601.46" y2="3455.16" xlink:href="#linear-gradient"/>
    <linearGradient id="linear-gradient-38" x1="580.46" y1="3398.07" x2="555.59" y2="3486.04" xlink:href="#linear-gradient"/>
    <linearGradient id="linear-gradient-39" x1="733.81" y1="3414.79" x2="630.91" y2="3451.52" xlink:href="#linear-gradient"/>
    <linearGradient id="linear-gradient-40" x1="647.67" y1="3536.87" x2="740.67" y2="3371.64" xlink:href="#linear-gradient"/>
    <linearGradient id="linear-gradient-41" x1="777.61" y1="3340.2" x2="785.63" y2="3497.29" xlink:href="#linear-gradient"/>
    <linearGradient id="linear-gradient-42" x1="816.91" y1="3528.42" x2="678.05" y2="3391.09" xlink:href="#linear-gradient"/>
    <linearGradient id="linear-gradient-43" x1="839.47" y1="3492.83" x2="851.07" y2="3373.96" xlink:href="#linear-gradient"/>
    <linearGradient id="linear-gradient-44" x1="844.78" y1="3378.9" x2="857.28" y2="3437.05" xlink:href="#linear-gradient"/>
    <linearGradient id="linear-gradient-45" x1="862.08" y1="3421.43" x2="1014.81" y2="3422.75" xlink:href="#linear-gradient"/>
    <linearGradient id="linear-gradient-46" x1="924.19" y1="3361.83" x2="936.66" y2="3419.84" xlink:href="#linear-gradient"/>
    <linearGradient id="linear-gradient-47" x1="117.42" y1="3363.01" x2="-5.06" y2="3264.02" xlink:href="#linear-gradient"/>
    <linearGradient id="linear-gradient-48" x1="-4.57" y1="3353.5" x2="-81.55" y2="3380" xlink:href="#linear-gradient"/>
    <linearGradient id="linear-gradient-49" x1="206.52" y1="3320.65" x2="75.56" y2="3335.53" xlink:href="#linear-gradient"/>
    <linearGradient id="linear-gradient-50" x1="183.33" y1="3256.52" x2="144.62" y2="3334.52" xlink:href="#linear-gradient"/>
    <linearGradient id="linear-gradient-51" x1="223.63" y1="3309.38" x2="317.26" y2="3260.03" xlink:href="#linear-gradient"/>
    <linearGradient id="linear-gradient-52" x1="289.95" y1="3359.77" x2="180.33" y2="3303.67" xlink:href="#linear-gradient"/>
    <linearGradient id="linear-gradient-53" x1="286.21" y1="3276.25" x2="362.56" y2="3236.75" xlink:href="#linear-gradient"/>
    <linearGradient id="linear-gradient-54" x1="345.3" y1="3289.75" x2="371.38" y2="3419.31" xlink:href="#linear-gradient"/>
    <linearGradient id="linear-gradient-55" x1="425.5" y1="3247.87" x2="465.81" y2="3391.19" xlink:href="#linear-gradient"/>
    <linearGradient id="linear-gradient-56" x1="485.02" y1="3412.49" x2="359.26" y2="3316.24" xlink:href="#linear-gradient"/>
    <linearGradient id="linear-gradient-57" x1="520.43" y1="3221.17" x2="560.74" y2="3364.49" xlink:href="#linear-gradient"/>
    <linearGradient id="linear-gradient-58" x1="538.71" y1="3406.75" x2="623.03" y2="3324.35" xlink:href="#linear-gradient"/>
    <linearGradient id="linear-gradient-59" x1="597.99" y1="3330.58" x2="698.15" y2="3321.94" xlink:href="#linear-gradient"/>
    <linearGradient id="linear-gradient-60" x1="647.68" y1="3287.26" x2="663.15" y2="3384.49" xlink:href="#linear-gradient"/>
    <linearGradient id="linear-gradient-61" x1="729.9" y1="3277.86" x2="747.71" y2="3346.95" xlink:href="#linear-gradient"/>
    <linearGradient id="linear-gradient-62" x1="706.24" y1="3259.18" x2="799.73" y2="3371.61" xlink:href="#linear-gradient"/>
    <linearGradient id="linear-gradient-63" x1="880.8" y1="3361.39" x2="772.3" y2="3216.33" xlink:href="#linear-gradient"/>
    <linearGradient id="linear-gradient-64" x1="750.75" y1="3232.78" x2="839.68" y2="3339.72" xlink:href="#linear-gradient"/>
    <linearGradient id="linear-gradient-65" x1="846.04" y1="3344.37" x2="1038.03" y2="3241.61" xlink:href="#linear-gradient"/>
    <linearGradient id="linear-gradient-66" x1="862.84" y1="3334.07" x2="1015.57" y2="3335.39" xlink:href="#linear-gradient"/>
    <linearGradient id="linear-gradient-67" x1="85.54" y1="3228.25" x2="-118.78" y2="3186.66" xlink:href="#linear-gradient"/>
    <linearGradient id="linear-gradient-68" x1="-32.96" y1="3226.29" x2="62.55" y2="3216.14" xlink:href="#linear-gradient"/>
    <linearGradient id="linear-gradient-69" x1="90.85" y1="3190.54" x2="147.63" y2="3205.23" xlink:href="#linear-gradient"/>
    <linearGradient id="linear-gradient-70" x1="192.97" y1="3201.44" x2="62.01" y2="3216.32" xlink:href="#linear-gradient"/>
    <linearGradient id="linear-gradient-71" x1="203.69" y1="3143.78" x2="245.56" y2="3246.37" xlink:href="#linear-gradient"/>
    <linearGradient id="linear-gradient-72" x1="189.7" y1="3245" x2="283.33" y2="3195.65" xlink:href="#linear-gradient"/>
    <linearGradient id="linear-gradient-73" x1="310.98" y1="3133.29" x2="338.96" y2="3289.97" xlink:href="#linear-gradient"/>
    <linearGradient id="linear-gradient-74" x1="288.46" y1="3165.84" x2="311.96" y2="3203.7" xlink:href="#linear-gradient"/>
    <linearGradient id="linear-gradient-75" x1="521.69" y1="3227.81" x2="345.9" y2="3198.98" xlink:href="#linear-gradient"/>
    <linearGradient id="linear-gradient-76" x1="391.96" y1="3288.86" x2="540.6" y2="3161.95" xlink:href="#linear-gradient"/>
    <linearGradient id="linear-gradient-77" x1="556.56" y1="3098.04" x2="568.96" y2="3297.27" xlink:href="#linear-gradient"/>
    <linearGradient id="linear-gradient-78" x1="616.96" y1="3250.29" x2="492.87" y2="3190.16" xlink:href="#linear-gradient"/>
    <linearGradient id="linear-gradient-79" x1="656.36" y1="3212.1" x2="560.59" y2="3189.31" xlink:href="#linear-gradient"/>
    <linearGradient id="linear-gradient-80" x1="633.73" y1="3314.18" x2="717.84" y2="3138.27" xlink:href="#linear-gradient"/>
    <linearGradient id="linear-gradient-81" x1="776.65" y1="3214.15" x2="699.91" y2="3104.4" xlink:href="#linear-gradient"/>
    <linearGradient id="linear-gradient-82" x1="710.57" y1="3116.17" x2="727.49" y2="3283.66" xlink:href="#linear-gradient"/>
    <linearGradient id="linear-gradient-83" x1="830.84" y1="3211.11" x2="798.93" y2="3259.01" xlink:href="#linear-gradient"/>
    <linearGradient id="linear-gradient-84" x1="884.58" y1="3115.61" x2="805.42" y2="3267.87" xlink:href="#linear-gradient"/>
    <linearGradient id="linear-gradient-85" x1="952.84" y1="3190.88" x2="1088.42" y2="3152.46" xlink:href="#linear-gradient"/>
    <linearGradient id="linear-gradient-86" x1="995.22" y1="3325.14" x2="880.11" y2="3198.2" xlink:href="#linear-gradient"/>
    <linearGradient id="linear-gradient-87" x1="-15.59" y1="3095.19" x2="-1.79" y2="3099.13" xlink:href="#linear-gradient"/>
    <linearGradient id="linear-gradient-88" x1="106.54" y1="3125.1" x2="-97.79" y2="3083.5" xlink:href="#linear-gradient"/>
    <linearGradient id="linear-gradient-89" x1="44.74" y1="3018.36" x2="143.4" y2="3082.89" xlink:href="#linear-gradient"/>
    <linearGradient id="linear-gradient-90" x1="124.03" y1="3163.02" x2="212.87" y2="3038.08" xlink:href="#linear-gradient"/>
    <linearGradient id="linear-gradient-91" x1="288.02" y1="3167.89" x2="207.43" y2="3013.08" xlink:href="#linear-gradient"/>
    <linearGradient id="linear-gradient-92" x1="245.08" y1="3034.5" x2="213.18" y2="3174.57" xlink:href="#linear-gradient"/>
    <linearGradient id="linear-gradient-93" x1="422.13" y1="3049.49" x2="277.93" y2="3113.31" xlink:href="#linear-gradient"/>
    <linearGradient id="linear-gradient-94" x1="368.52" y1="2988.5" x2="326.47" y2="3114.18" xlink:href="#linear-gradient"/>
    <linearGradient id="linear-gradient-95" x1="387.94" y1="3013.85" x2="436" y2="3052.02" xlink:href="#linear-gradient"/>
    <linearGradient id="linear-gradient-96" x1="491.51" y1="3190.9" x2="356.74" y2="3036.52" xlink:href="#linear-gradient"/>
    <linearGradient id="linear-gradient-97" x1="488.54" y1="3006.78" x2="575.28" y2="3123.03" xlink:href="#linear-gradient"/>
    <linearGradient id="linear-gradient-98" x1="522.5" y1="3017.2" x2="552.24" y2="3106.68" xlink:href="#linear-gradient"/>
    <linearGradient id="linear-gradient-99" x1="546.2" y1="3052.37" x2="738.43" y2="3082.27" xlink:href="#linear-gradient"/>
    <linearGradient id="linear-gradient-100" x1="663.26" y1="3136.46" x2="537.56" y2="3024.63" xlink:href="#linear-gradient"/>
    <linearGradient id="linear-gradient-101" x1="680.84" y1="3121.15" x2="753.59" y2="3019.72" xlink:href="#linear-gradient"/>
    <linearGradient id="linear-gradient-102" x1="728.52" y1="3155.35" x2="801.26" y2="3053.91" xlink:href="#linear-gradient"/>
    <linearGradient id="linear-gradient-103" x1="741.14" y1="3046.71" x2="925.66" y2="3107.43" xlink:href="#linear-gradient"/>
    <linearGradient id="linear-gradient-104" x1="920.17" y1="3063.12" x2="766.91" y2="3099.9" xlink:href="#linear-gradient"/>
    <linearGradient id="linear-gradient-105" x1="926.49" y1="3139.1" x2="955" y2="3066.15" xlink:href="#linear-gradient"/>
    <linearGradient id="linear-gradient-106" x1="967.35" y1="3155.07" x2="995.81" y2="3082.26" xlink:href="#linear-gradient"/>
    <linearGradient id="linear-gradient-107" x1="1104.97" y1="3167.97" x2="979.63" y2="3057.83" xlink:href="#linear-gradient"/>
    <linearGradient id="linear-gradient-108" x1="964.28" y1="3082.61" x2="1071.72" y2="3116.62" xlink:href="#linear-gradient"/>
    <linearGradient id="linear-gradient-109" x1="54.46" y1="2993.09" x2="-54.41" y2="2998.53" xlink:href="#linear-gradient"/>
    <linearGradient id="linear-gradient-110" x1="43.91" y1="2909.78" x2="-3.81" y2="3080.09" xlink:href="#linear-gradient"/>
    <linearGradient id="linear-gradient-111" x1="48.51" y1="2964.24" x2="206.19" y2="2969.87" xlink:href="#linear-gradient"/>
    <linearGradient id="linear-gradient-112" x1="129.58" y1="2933.78" x2="81.86" y2="3104.1" xlink:href="#linear-gradient"/>
    <linearGradient id="linear-gradient-113" x1="231.4" y1="2998.58" x2="178.07" y2="2950.69" xlink:href="#linear-gradient"/>
    <linearGradient id="linear-gradient-114" x1="212.8" y1="3050.52" x2="283.97" y2="2994.27" xlink:href="#linear-gradient"/>
    <linearGradient id="linear-gradient-115" x1="298.2" y1="3009.18" x2="373.66" y2="2945.34" xlink:href="#linear-gradient"/>
    <linearGradient id="linear-gradient-116" x1="331.16" y1="2969.1" x2="326.03" y2="3066.83" xlink:href="#linear-gradient"/>
    <linearGradient id="linear-gradient-117" x1="473.46" y1="2937.42" x2="342.52" y2="2953.06" xlink:href="#linear-gradient"/>
    <linearGradient id="linear-gradient-118" x1="440" y1="2947.53" x2="488.39" y2="2985.97" xlink:href="#linear-gradient"/>
    <linearGradient id="linear-gradient-119" x1="550.73" y1="2892.4" x2="496.6" y2="2964.35" xlink:href="#linear-gradient"/>
    <linearGradient id="linear-gradient-120" x1="517.34" y1="2891.97" x2="497.5" y2="3043.84" xlink:href="#linear-gradient"/>
    <linearGradient id="linear-gradient-121" x1="655.03" y1="3002.64" x2="590.18" y2="2975.13" xlink:href="#linear-gradient"/>
    <linearGradient id="linear-gradient-122" x1="558.01" y1="2976.44" x2="750.24" y2="3006.34" xlink:href="#linear-gradient"/>
    <linearGradient id="linear-gradient-123" x1="677.9" y1="2995.91" x2="823.28" y2="2970.23" xlink:href="#linear-gradient"/>
    <linearGradient id="linear-gradient-124" x1="677.85" y1="2956.8" x2="751.64" y2="3031" xlink:href="#linear-gradient"/>
    <linearGradient id="linear-gradient-125" x1="860.64" y1="2979.38" x2="816.17" y2="2978.09" xlink:href="#linear-gradient"/>
    <linearGradient id="linear-gradient-126" x1="801.86" y1="2969.39" x2="875.48" y2="3109.98" xlink:href="#linear-gradient"/>
    <linearGradient id="linear-gradient-127" x1="944.82" y1="2867.06" x2="903.42" y2="3057.15" xlink:href="#linear-gradient"/>
    <linearGradient id="linear-gradient-128" x1="950.68" y1="2996.38" x2="917.81" y2="3003.94" xlink:href="#linear-gradient"/>
    <linearGradient id="linear-gradient-129" x1="1026.38" y1="2884.77" x2="984.96" y2="3074.91" xlink:href="#linear-gradient"/>
    <linearGradient id="linear-gradient-130" x1="1078.41" y1="2872.95" x2="1018.35" y2="3004.4" xlink:href="#linear-gradient"/>
    <linearGradient id="linear-gradient-131" x1="32.76" y1="2797.78" x2="18.43" y2="2907.41" xlink:href="#linear-gradient"/>
    <linearGradient id="linear-gradient-132" x1="16.19" y1="2939.13" x2="-81.99" y2="2817.25" xlink:href="#linear-gradient"/>
    <linearGradient id="linear-gradient-133" x1="174.76" y1="2909.28" x2="43.07" y2="2850.52" xlink:href="#linear-gradient"/>
    <linearGradient id="linear-gradient-134" x1="121.33" y1="2877.26" x2="133.32" y2="2933.27" xlink:href="#linear-gradient"/>
    <linearGradient id="linear-gradient-135" x1="225.56" y1="2914.94" x2="304.9" y2="2871.56" xlink:href="#linear-gradient"/>
    <linearGradient id="linear-gradient-136" x1="272.57" y1="2952.73" x2="219.16" y2="2904.78" xlink:href="#linear-gradient"/>
    <linearGradient id="linear-gradient-137" x1="437.25" y1="2853.3" x2="297.87" y2="2894.43" xlink:href="#linear-gradient"/>
    <linearGradient id="linear-gradient-138" x1="402.56" y1="2768.64" x2="323.95" y2="2893.35" xlink:href="#linear-gradient"/>
    <linearGradient id="linear-gradient-139" x1="398.38" y1="2796.06" x2="491.79" y2="2873.04" xlink:href="#linear-gradient"/>
    <linearGradient id="linear-gradient-140" x1="411.33" y1="2912.69" x2="358.28" y2="2803.86" xlink:href="#linear-gradient"/>
    <linearGradient id="linear-gradient-141" x1="513.74" y1="2861.52" x2="473.15" y2="2893.03" xlink:href="#linear-gradient"/>
    <linearGradient id="linear-gradient-142" x1="527.52" y1="2830.82" x2="541.21" y2="2942.82" xlink:href="#linear-gradient"/>
    <linearGradient id="linear-gradient-143" x1="580.04" y1="2880.44" x2="731.27" y2="2915.75" xlink:href="#linear-gradient"/>
    <linearGradient id="linear-gradient-144" x1="688.59" y1="2923.53" x2="623.38" y2="2895.86" xlink:href="#linear-gradient"/>
    <linearGradient id="linear-gradient-145" x1="661.7" y1="2950.63" x2="796.74" y2="2834.39" xlink:href="#linear-gradient"/>
    <linearGradient id="linear-gradient-146" x1="733.27" y1="2854.54" x2="744.26" y2="2945.65" xlink:href="#linear-gradient"/>
    <linearGradient id="linear-gradient-147" x1="855.2" y1="2848.15" x2="821.34" y2="2918.48" xlink:href="#linear-gradient"/>
    <linearGradient id="linear-gradient-148" x1="863.14" y1="2892.68" x2="818.64" y2="2891.4" xlink:href="#linear-gradient"/>
    <linearGradient id="linear-gradient-149" x1="852.54" y1="2928.59" x2="1011.77" y2="2770.82" xlink:href="#linear-gradient"/>
    <linearGradient id="linear-gradient-150" x1="950.96" y1="2771.66" x2="939.49" y2="2873.12" xlink:href="#linear-gradient"/>
    <linearGradient id="linear-gradient-151" x1="1115.77" y1="2964.31" x2="971.89" y2="2832.25" xlink:href="#linear-gradient"/>
    <linearGradient id="linear-gradient-152" x1="198.31" y1="2859.76" x2="68.32" y2="2673.68" xlink:href="#linear-gradient"/>
    <linearGradient id="linear-gradient-153" x1="198.73" y1="2855.57" x2="66.9" y2="2796.74" xlink:href="#linear-gradient"/>
    <linearGradient id="linear-gradient-154" x1="274.41" y1="2828.16" x2="177.64" y2="2855.61" xlink:href="#linear-gradient"/>
    <linearGradient id="linear-gradient-155" x1="212.12" y1="2863.67" x2="243.01" y2="2661.6" xlink:href="#linear-gradient"/>
    <linearGradient id="linear-gradient-156" x1="416.98" y1="2772.99" x2="510.63" y2="2850.18" xlink:href="#linear-gradient"/>
    <linearGradient id="linear-gradient-157" x1="591.64" y1="2817.53" x2="505.79" y2="2848.25" xlink:href="#linear-gradient"/>
    <linearGradient id="linear-gradient-158" x1="595.16" y1="2815.52" x2="746.43" y2="2850.85" xlink:href="#linear-gradient"/>
    <linearGradient id="linear-gradient-159" x1="787.02" y1="2864.12" x2="699.14" y2="2771.12" xlink:href="#linear-gradient"/>
    <linearGradient id="linear-gradient-160" x1="757.78" y1="2657.74" x2="808.83" y2="2845.08" xlink:href="#linear-gradient"/>
    <linearGradient id="linear-gradient-161" x1="858.63" y1="2739.21" x2="850.44" y2="2864.57" xlink:href="#linear-gradient"/>
    <linearGradient id="linear-gradient-162" x1="921.07" y1="2743.39" x2="912.88" y2="2868.65" xlink:href="#linear-gradient"/>
  </defs>
  <g class="cls-158">
    <g>
      <polygon class="cls-155" points="131.52 225.25 193.97 251.22 185.21 225.25 131.52 225.25"/>
      <polygon class="cls-23" points="185.21 225.25 193.97 251.22 225.51 225.25 185.21 225.25"/>
      <polygon class="cls-73" points="659.67 225.25 656.3 227.25 775.69 236.65 777.46 225.25 659.67 225.25"/>
      <polygon class="cls-59" points="777.46 225.25 775.69 236.65 863.35 248.99 845.93 225.25 777.46 225.25"/>
      <polygon class="cls-75" points="885.7 225.25 863.35 248.99 920.31 225.25 885.7 225.25"/>
      <polygon class="cls-127" points="13.84 225.25 -28.58 369.35 52.8 351.6 33.38 225.25 13.84 225.25"/>
      <polygon class="cls-116" points="-94.4 225.25 -94.4 226.91 -28.58 369.35 13.84 225.25 -94.4 225.25"/>
      <polygon class="cls-91" points="33.38 225.25 52.8 351.6 106.27 303.82 55.09 225.25 33.38 225.25"/>
      <polygon class="cls-118" points="55.09 225.25 106.27 303.82 193.97 251.22 131.53 225.25 55.09 225.25"/>
      <polygon class="cls-33" points="217.51 225.25 106.27 303.82 310 340.58 282.96 225.25 217.51 225.25"/>
      <polygon class="cls-121" points="217.51 225.25 106.27 303.82 193.97 251.22 225.51 225.25 217.51 225.25"/>
      <polygon class="cls-34" points="282.96 225.25 310 340.58 379.83 286.15 315.53 225.25 282.96 225.25"/>
      <polygon class="cls-7" points="315.53 225.25 379.83 286.15 331.81 225.25 315.53 225.25"/>
      <polygon class="cls-104" points="426.77 225.25 379.83 286.15 486.51 338.17 469.55 225.25 426.77 225.25"/>
      <polygon class="cls-6" points="331.81 225.25 379.83 286.15 426.77 225.25 331.81 225.25"/>
      <polygon class="cls-153" points="469.55 225.25 486.51 338.17 620.49 282.79 533.11 225.25 469.55 225.25"/>
      <polygon class="cls-113" points="533.11 225.25 620.49 282.79 630.27 225.25 533.11 225.25"/>
      <path class="cls-163" d="M656.3,227.25l-35.81,55.54,89.2,29.68-53.39-85.23h0Z"/>
      <polygon class="cls-124" points="630.27 225.25 620.49 282.79 656.3 227.25 655.66 225.25 630.27 225.25"/>
      <path class="cls-108" d="M656.3,227.25l194.69,83.16-141.31,2.07-53.39-85.23h0Z"/>
      <path class="cls-134" d="M656.3,227.25l194.69,83.16-75.31-73.76h0l-119.39-9.4Z"/>
      <path class="cls-79" d="M863.35,248.99l-12.35,61.42,23.87,60.72-11.51-122.14h0Z"/>
      <path class="cls-156" d="M863.35,248.99l-12.35,61.42-75.31-73.76h0l87.66,12.34Z"/>
      <polygon class="cls-80" points="1011.92 285.96 863.35 248.99 863.35 248.99 874.86 371.13 1011.92 320.65 1011.92 285.96"/>
      <polygon class="cls-30" points="1011.92 236.34 1002.12 225.25 920.31 225.25 863.35 248.99 1011.92 285.96 1011.92 236.34"/>
      <polygon class="cls-52" points="1011.92 225.25 1002.12 225.25 1011.92 236.34 1011.92 225.25"/>
      <polygon class="cls-36" points="-94.4 484.18 95.84 414.65 -28.57 369.35 -28.58 369.35 -94.4 473.41 -94.4 484.18"/>
      <path class="cls-9" d="M-28.57,369.35l124.41,45.3-43.03-63.04h0l-81.38,17.74Z"/>
      <path class="cls-107" d="M106.27,303.82l-10.43,110.83,65.9,46.61-55.46-157.44h0Z"/>
      <path class="cls-61" d="M106.27,303.82l-10.43,110.83-43.03-63.04h0l53.47-47.78Z"/>
      <path class="cls-157" d="M106.27,303.82l203.3,179.12-147.84-21.68-55.46-157.44h0Z"/>
      <path class="cls-149" d="M106.27,303.82l203.3,179.12.43-142.36h0l-203.73-36.76Z"/>
      <path class="cls-87" d="M379.84,286.15l-70.26,196.79,102.02-89.8-31.76-106.99h0Z"/>
      <path class="cls-74" d="M379.84,286.15l-70.26,196.79.43-142.36h0l69.83-54.43Z"/>
      <path class="cls-60" d="M379.84,286.15l131.23,139.75-99.47-32.76-31.76-106.99h0Z"/>
      <path class="cls-133" d="M379.84,286.15l131.23,139.75-24.56-87.74h0l-106.67-52.02Z"/>
      <path class="cls-38" d="M620.49,282.79l-109.42,143.11,99.23-14.44,10.19-128.67h0Z"/>
      <path class="cls-76" d="M620.49,282.79l-109.42,143.11-24.56-87.74h0l133.98-55.37Z"/>
      <path class="cls-43" d="M620.49,282.79l92.32,165.62-102.51-36.95,10.19-128.67h0Z"/>
      <path class="cls-35" d="M620.49,282.79l92.32,165.62-3.12-135.94h0l-89.2-29.68Z"/>
      <path class="cls-151" d="M850.99,310.41l-138.19,138,130.25,19.09,7.94-157.09h0Z"/>
      <path class="cls-15" d="M850.99,310.41l-138.19,138-3.12-135.94h0l141.31-2.07Z"/>
      <path class="cls-29" d="M850.99,310.41l11.49,118.86-19.43,38.23,7.94-157.09h0Z"/>
      <path class="cls-69" d="M850.99,310.41l11.49,118.86,12.38-58.14h0l-23.87-60.72Z"/>
      <polygon class="cls-136" points="1011.92 335.29 862.49 429.27 1011.92 427.96 1011.92 335.29"/>
      <polygon class="cls-16" points="1011.92 320.65 874.86 371.13 862.49 429.27 1011.92 335.29 1011.92 320.65"/>
      <path class="cls-51" d="M95.84,414.64l-122.01,99.57,95.41,10.23,26.6-109.8h0Z"/>
      <polygon class="cls-147" points="-94.4 484.18 -94.4 490.49 -26.17 514.21 95.84 414.64 -94.4 484.18"/>
      <path class="cls-72" d="M95.84,414.64l104.34,124.83-130.95-15.03,26.6-109.8h0Z"/>
      <path class="cls-115" d="M95.84,414.64l104.34,124.83-38.45-78.22h0l-65.9-46.61Z"/>
      <path class="cls-90" d="M309.58,482.94l-109.4,56.53,93.43,49.73,15.97-106.26h0Z"/>
      <path class="cls-46" d="M309.58,482.94l-109.4,56.53-38.45-78.22h0l147.84,21.69Z"/>
      <path class="cls-14" d="M309.58,482.94l76.19,39.81-92.16,66.45,15.97-106.26h0Z"/>
      <path class="cls-83" d="M309.58,482.94l76.19,39.81,25.83-129.61h0l-102.02,89.8Z"/>
      <path class="cls-41" d="M511.07,425.9l-125.3,96.85,85.35,46.57,39.95-143.41h0Z"/>
      <path class="cls-28" d="M511.07,425.9l-125.3,96.85,25.83-129.61h0l99.47,32.76Z"/>
      <path class="cls-93" d="M511.07,425.9l83.91,82.81-123.86,60.61,39.95-143.41h0Z"/>
      <path class="cls-49" d="M511.07,425.9l83.91,82.81,15.32-97.25h0l-99.23,14.44Z"/>
      <path class="cls-120" d="M712.81,448.41l-117.83,60.3,100.21,8.72,17.62-69.03h0Z"/>
      <path class="cls-20" d="M712.81,448.41l-117.83,60.3,15.32-97.25h0l102.51,36.95Z"/>
      <path class="cls-4" d="M712.81,448.41l41.86,126.42-59.47-57.4,17.62-69.03h0Z"/>
      <path class="cls-105" d="M709.08,448.41l43.05,134.93,90.92-114.56h0l-133.98-20.37Z"/>
      <path class="cls-159" d="M862.49,429.27l-107.83,145.57,106.41-67.28,1.42-78.29h0Z"/>
      <path class="cls-27" d="M862.49,429.27l-107.83,145.57,88.4-107.34h0l19.43-38.23Z"/>
      <polygon class="cls-11" points="1011.92 510.04 862.49 429.27 862.49 429.27 861.07 507.56 1011.92 527.28 1011.92 510.04"/>
      <polygon class="cls-92" points="1011.92 427.96 862.49 429.27 1011.92 510.04 1011.92 427.96"/>
      <polygon class="cls-110" points="-94.4 697.38 102.01 657 -26.17 514.21 -26.17 514.21 -94.4 679.97 -94.4 697.38"/>
      <path class="cls-37" d="M-26.17,514.21l128.18,142.78-32.78-132.55h0l-95.4-10.24Z"/>
      <path class="cls-13" d="M200.18,539.48l-98.17,117.52,56.65-14.79,41.51-102.73h0Z"/>
      <path class="cls-19" d="M200.18,539.48l-98.17,117.52-32.78-132.55h0l130.95,15.03Z"/>
      <path class="cls-68" d="M200.18,539.48l70.06,87.74-111.58,14.99,41.51-102.73h0Z"/>
      <path class="cls-56" d="M200.18,539.48l70.06,87.74,23.36-38.02h0l-93.43-49.73Z"/>
      <path class="cls-67" d="M385.77,522.75l-115.52,104.47,87.81,52.26,27.72-156.73h0Z"/>
      <path class="cls-53" d="M385.77,522.75l-115.52,104.47,23.36-38.02h0l92.16-66.46Z"/>
      <path class="cls-40" d="M385.77,522.75l148.03,127.63-175.75,29.1,27.72-156.73h0Z"/>
      <path class="cls-64" d="M385.77,522.75l148.03,127.63-62.68-81.06h0l-85.35-46.57Z"/>
      <path class="cls-94" d="M594.98,508.71l-61.18,141.66,48.9,57.57,12.27-199.23h0Z"/>
      <path class="cls-89" d="M594.98,508.71l-61.18,141.66-62.68-81.06h0l123.86-60.61Z"/>
      <path class="cls-88" d="M594.98,508.71l83.45,176.23-95.72,23.01,12.27-199.23h0Z"/>
      <path class="cls-126" d="M594.98,508.71l83.45,176.23,16.76-167.5h0l-100.21-8.72Z"/>
      <path class="cls-140" d="M754.66,574.84l-76.23,110.1,108.02-61.92-31.79-48.18h0Z"/>
      <path class="cls-31" d="M754.66,574.84l-76.23,110.1,16.76-167.5h0l59.47,57.4Z"/>
      <path class="cls-128" d="M754.66,574.84l184.97,85.29-153.18-37.11-31.79-48.18h0Z"/>
      <path class="cls-142" d="M754.66,574.84l184.97,85.29-78.56-152.58h0l-106.41,67.28Z"/>
      <polygon class="cls-138" points="1011.92 579.63 939.63 660.13 1011.92 680.82 1011.92 579.63"/>
      <polygon class="cls-150" points="1011.92 527.28 861.07 507.56 939.63 660.13 1011.92 579.63 1011.92 527.28"/>
      <path class="cls-26" d="M102.01,657l-112.7,69.31,13.78-3.98,98.92-65.33h0Z"/>
      <polygon class="cls-101" points="-94.4 697.38 -94.4 701.33 -10.69 726.31 102.01 657 -94.4 697.38"/>
      <path class="cls-45" d="M102.01,657l88.26,125.35L3.09,722.33l98.92-65.33h0Z"/>
      <path class="cls-86" d="M102.01,657l88.26,125.35-31.61-140.14h0l-56.65,14.79Z"/>
      <path class="cls-77" d="M270.25,627.22l-79.97,155.13,65.82-41.15,14.15-113.98h0Z"/>
      <path class="cls-85" d="M270.25,627.22l-79.97,155.13-31.61-140.14h0l111.58-14.99Z"/>
      <path class="cls-21" d="M270.25,627.22l129.52,178.19-143.67-64.21,14.15-113.98h0Z"/>
      <path class="cls-82" d="M270.25,627.22l129.52,178.19-41.72-125.93h0l-87.81-52.26Z"/>
      <path class="cls-22" d="M533.8,650.38l-134.03,155.02,47.84-38.37,86.19-116.66h0Z"/>
      <path class="cls-71" d="M533.8,650.38l-134.03,155.02-41.72-125.93h0l175.75-29.1Z"/>
      <path class="cls-55" d="M533.8,650.38l19.46,147-105.66-30.35,86.19-116.66h0Z"/>
      <path class="cls-139" d="M533.8,650.38l19.46,147,29.44-89.43h0l-48.9-57.57Z"/>
      <path class="cls-162" d="M678.42,684.94l-125.16,112.44,192.18-30.19-67.02-82.25h0Z"/>
      <path class="cls-24" d="M678.42,684.94l-125.16,112.44,29.44-89.43h0l95.72-23.01Z"/>
      <path class="cls-125" d="M678.42,684.94l72.28,101.77-5.26-19.52-67.02-82.25h0Z"/>
      <path class="cls-148" d="M678.42,684.94l72.28,101.77,35.75-163.69h0l-108.02,61.92Z"/>
      <path class="cls-97" d="M939.63,660.13l-188.93,126.58,184.2-61.21,4.73-65.37h0Z"/>
      <path class="cls-119" d="M939.63,660.13l-188.93,126.58,35.75-163.69h0l153.18,37.11Z"/>
      <path class="cls-131" d="M939.63,660.13l28.27,73.04-33-7.67,4.73-65.37h0Z"/>
      <polygon class="cls-109" points="1011.92 680.82 939.63 660.13 967.89 733.17 1011.92 719.1 1011.92 680.82"/>
      <polygon class="cls-8" points="1011.92 694.1 967.89 733.17 1011.92 742.22 1011.92 694.1"/>
      <polygon class="cls-123" points="1011.92 694.1 967.89 733.17 1011.92 719.1 1011.92 694.1"/>
      <path class="cls-66" d="M-10.69,726.31l61.08,166.45-108.88-5.5,47.8-160.95h0Z"/>
      <path class="cls-100" d="M-10.69,726.31l61.08,166.45L3.09,722.33h0l-13.78,3.98Z"/>
      <path class="cls-154" d="M190.27,782.35l-139.89,110.42,157.68-5.68-17.8-104.74h0Z"/>
      <path class="cls-129" d="M190.27,782.35l-139.89,110.42L3.09,722.33h0l187.18,60.02Z"/>
      <path class="cls-47" d="M190.27,782.35l70.9,56.59-53.11,48.15-17.8-104.74h0Z"/>
      <path class="cls-143" d="M190.27,782.35l70.9,56.59-5.08-97.74h0l-65.82,41.15Z"/>
      <path class="cls-160" d="M399.77,805.4l-138.59,33.53,75.15,64.21,63.44-97.74h0Z"/>
      <path class="cls-42" d="M399.77,805.4l-138.59,33.53-5.08-97.74h0l143.67,64.21Z"/>
      <path class="cls-146" d="M399.77,805.4l67.48,113.53-130.92-15.79,63.44-97.74h0Z"/>
      <path class="cls-2" d="M399.77,805.4l67.48,113.53-19.65-151.9h0l-47.83,38.37Z"/>
      <path class="cls-135" d="M553.26,797.38l-86.01,121.55,139.8-49.34-53.79-72.21h0Z"/>
      <path class="cls-122" d="M553.26,797.38l-86.01,121.55-19.65-151.9h0l105.66,30.35Z"/>
      <path class="cls-99" d="M553.26,797.38l118.75,44.37-64.96,27.83-53.79-72.21h0Z"/>
      <path class="cls-48" d="M553.26,797.38l118.75,44.37,73.43-74.57h0l-192.18,30.19Z"/>
      <path class="cls-164" d="M750.7,786.71l-78.69,55.05,145.34,25.92-66.66-80.97h0Z"/>
      <path class="cls-102" d="M750.7,786.71l-78.69,55.05,73.43-74.57h0l5.26,19.52Z"/>
      <path class="cls-62" d="M750.7,786.71l111.14,79.68-44.48,1.29-66.66-80.97h0Z"/>
      <path class="cls-161" d="M750.7,786.71l111.14,79.68,73.06-140.89h0l-184.2,61.21Z"/>
      <path class="cls-137" d="M967.89,733.17l-106.06,133.22,147.08,56.95-41.02-190.17h0Z"/>
      <path class="cls-103" d="M967.89,733.17l-106.06,133.22,73.06-140.89h0l33,7.67Z"/>
      <polygon class="cls-96" points="1011.92 769.24 967.89 733.17 967.89 733.17 1008.91 923.34 1011.92 922.74 1011.92 769.24"/>
      <polygon class="cls-152" points="1011.92 742.21 967.89 733.17 1011.92 769.24 1011.92 742.21"/>
      <polygon class="cls-95" points="59.45 962.8 50.39 892.77 50.39 892.77 -5.47 962.8 59.45 962.8"/>
      <polygon class="cls-1" points="-5.47 962.8 50.39 892.77 -58.49 887.27 -51.92 962.8 -5.47 962.8"/>
      <polygon class="cls-81" points="152.53 962.8 196.2 943.12 50.39 892.77 59.45 962.8 152.53 962.8"/>
      <path class="cls-117" d="M50.39,892.77l145.81,50.35,11.87-56.04h0l-157.68,5.68Z"/>
      <polygon class="cls-98" points="273.12 962.8 261.18 838.93 261.18 838.93 196.2 943.12 231.83 962.8 273.12 962.8"/>
      <path class="cls-5" d="M261.18,838.93l-64.98,104.19,11.87-56.04h0l53.11-48.15Z"/>
      <polygon class="cls-132" points="361.43 962.8 261.18 838.94 273.12 962.8 361.43 962.8"/>
      <polygon class="cls-32" points="373.56 962.8 336.33 903.14 261.18 838.93 361.43 962.8 373.56 962.8"/>
      <polygon class="cls-111" points="493.16 962.8 507.73 950.67 467.25 918.93 446.08 962.8 493.16 962.8"/>
      <polygon class="cls-144" points="446.08 962.8 467.25 918.93 336.33 903.14 373.56 962.8 446.08 962.8"/>
      <polygon class="cls-114" points="541.29 962.8 555.52 962.8 467.25 918.93 467.25 918.93 507.73 950.67 541.29 962.8"/>
      <polygon class="cls-18" points="595.77 962.8 607.05 869.59 467.25 918.93 555.52 962.8 595.77 962.8"/>
      <polygon class="cls-65" points="673.48 962.8 744.68 946.01 672.01 841.76 604.07 962.8 673.48 962.8"/>
      <polygon class="cls-70" points="604.07 962.8 672.01 841.75 607.05 869.59 595.77 962.8 604.07 962.8"/>
      <path class="cls-12" d="M672.01,841.75l134.48,116.89-61.81-12.64-72.66-104.25h0Z"/>
      <path class="cls-54" d="M672.01,841.75l134.48,116.89,10.87-90.97h0l-145.34-25.92Z"/>
      <path class="cls-84" d="M861.84,866.38l-55.35,92.26,88.93-21.8-33.59-70.46h0Z"/>
      <path class="cls-112" d="M861.84,866.38l-55.35,92.26,10.87-90.97h0l44.48-1.29Z"/>
      <polygon class="cls-78" points="932.21 962.8 958.19 962.8 861.84 866.39 895.42 936.85 932.21 962.8"/>
      <polygon class="cls-25" points="1011.92 950.16 1008.91 923.34 861.84 866.38 958.19 962.8 1011.92 962.8 1011.92 950.16"/>
      <polygon class="cls-141" points="1011.92 922.74 1008.91 923.34 1011.92 950.16 1011.92 922.74"/>
      <polygon class="cls-50" points="188.75 962.8 196.2 943.12 196.2 943.12 182.59 962.8 188.75 962.8"/>
      <polygon class="cls-145" points="182.59 962.8 196.2 943.12 152.53 962.8 182.59 962.8"/>
      <polygon class="cls-130" points="199.17 962.8 196.2 943.12 188.75 962.8 199.17 962.8"/>
      <polygon class="cls-17" points="231.82 962.8 196.2 943.12 199.17 962.8 231.82 962.8"/>
      <polygon class="cls-106" points="507.34 962.8 507.73 950.67 493.16 962.8 507.34 962.8"/>
      <polygon class="cls-57" points="541.29 962.8 507.73 950.67 507.34 962.8 541.29 962.8"/>
      <polygon class="cls-10" points="740.57 962.8 744.68 946.01 673.49 962.8 740.57 962.8"/>
      <polygon class="cls-39" points="802.61 962.8 806.49 958.64 744.68 946.01 740.57 962.8 802.61 962.8"/>
      <polygon class="cls-44" points="810.38 962.8 806.49 958.64 806.49 958.65 805.37 962.8 810.38 962.8"/>
      <polygon class="cls-63" points="897.1 962.8 895.42 936.85 806.49 958.64 810.38 962.8 897.1 962.8"/>
      <polygon class="cls-3" points="932.21 962.8 895.42 936.85 897.1 962.8 932.21 962.8"/>
    </g>
  </g>
</svg>