<?xml version="1.0" encoding="UTF-8"?>
<svg id="Layer_1" data-name="Layer 1" xmlns="http://www.w3.org/2000/svg" xmlns:xlink="http://www.w3.org/1999/xlink" viewBox="0 0 1080 1080">
  <defs>
    <style>
      .cls-1 {
        fill: url(#linear-gradient-132);
      }

      .cls-2 {
        fill: url(#linear-gradient-118);
      }

      .cls-3 {
        fill: url(#linear-gradient-162);
      }

      .cls-4 {
        fill: url(#linear-gradient-61);
      }

      .cls-5 {
        fill: url(#linear-gradient-136);
      }

      .cls-6 {
        fill: url(#linear-gradient-15);
      }

      .cls-7 {
        fill: url(#linear-gradient-13);
      }

      .cls-8 {
        fill: url(#linear-gradient-107);
      }

      .cls-9 {
        fill: url(#linear-gradient-28);
      }

      .cls-10 {
        fill: url(#linear-gradient-158);
      }

      .cls-11 {
        fill: url(#linear-gradient-65);
      }

      .cls-12 {
        fill: url(#linear-gradient-145);
      }

      .cls-13 {
        fill: url(#linear-gradient-69);
      }

      .cls-14 {
        fill: url(#linear-gradient-53);
      }

      .cls-15 {
        fill: url(#linear-gradient-42);
      }

      .cls-16 {
        fill: url(#linear-gradient-46);
      }

      .cls-17 {
        fill: url(#linear-gradient-155);
      }

      .cls-18 {
        fill: url(#linear-gradient-142);
      }

      .cls-19 {
        fill: url(#linear-gradient-70);
      }

      .cls-20 {
        fill: url(#linear-gradient-60);
      }

      .cls-21 {
        fill: url(#linear-gradient-93);
      }

      .cls-22 {
        fill: url(#linear-gradient-95);
      }

      .cls-23 {
        fill: url(#linear-gradient-2);
      }

      .cls-24 {
        fill: url(#linear-gradient-100);
      }

      .cls-25 {
        fill: url(#linear-gradient-150);
      }

      .cls-26 {
        fill: url(#linear-gradient-87);
      }

      .cls-27 {
        fill: url(#linear-gradient-163);
      }

      .cls-28 {
        fill: url(#linear-gradient-64);
      }

      .cls-29 {
        fill: url(#linear-gradient-56);
      }

      .cls-30 {
        fill: url(#linear-gradient-43);
      }

      .cls-31 {
        fill: url(#linear-gradient-25);
      }

      .cls-32 {
        fill: url(#linear-gradient-82);
      }

      .cls-33 {
        fill: url(#linear-gradient-138);
      }

      .cls-34 {
        fill: url(#linear-gradient-10);
      }

      .cls-35 {
        fill: url(#linear-gradient-12);
      }

      .cls-36 {
        fill: url(#linear-gradient-40);
      }

      .cls-37 {
        fill: url(#linear-gradient-27);
      }

      .cls-38 {
        fill: url(#linear-gradient-68);
      }

      .cls-39 {
        fill: url(#linear-gradient-37);
      }

      .cls-40 {
        fill: url(#linear-gradient-159);
      }

      .cls-41 {
        fill: url(#linear-gradient-75);
      }

      .cls-42 {
        fill: url(#linear-gradient-55);
      }

      .cls-43 {
        fill: url(#linear-gradient-116);
      }

      .cls-44 {
        fill: url(#linear-gradient-39);
      }

      .cls-45 {
        fill: url(#linear-gradient-160);
      }

      .cls-46 {
        fill: url(#linear-gradient-89);
      }

      .cls-47 {
        fill: url(#linear-gradient-52);
      }

      .cls-48 {
        fill: url(#linear-gradient-113);
      }

      .cls-49 {
        fill: url(#linear-gradient-122);
      }

      .cls-50 {
        fill: url(#linear-gradient-58);
      }

      .cls-51 {
        fill: url(#linear-gradient-152);
      }

      .cls-52 {
        fill: url(#linear-gradient-47);
      }

      .cls-53 {
        fill: url(#linear-gradient-26);
      }

      .cls-54 {
        fill: url(#linear-gradient-74);
      }

      .cls-55 {
        fill: url(#linear-gradient-146);
      }

      .cls-56 {
        fill: url(#linear-gradient-97);
      }

      .cls-57 {
        fill: url(#linear-gradient-72);
      }

      .cls-58 {
        fill: url(#linear-gradient-157);
      }

      .cls-59 {
        fill: none;
      }

      .cls-60 {
        fill: url(#linear-gradient-4);
      }

      .cls-61 {
        fill: url(#linear-gradient-35);
      }

      .cls-62 {
        fill: url(#linear-gradient-30);
      }

      .cls-63 {
        fill: url(#linear-gradient-125);
      }

      .cls-64 {
        fill: url(#linear-gradient-161);
      }

      .cls-65 {
        fill: url(#linear-gradient-76);
      }

      .cls-66 {
        fill: url(#linear-gradient-143);
      }

      .cls-67 {
        fill: url(#linear-gradient-109);
      }

      .cls-68 {
        fill: url(#linear-gradient-73);
      }

      .cls-69 {
        fill: url(#linear-gradient-71);
      }

      .cls-70 {
        fill: url(#linear-gradient-44);
      }

      .cls-71 {
        fill: url(#linear-gradient-144);
      }

      .cls-72 {
        fill: url(#linear-gradient-96);
      }

      .cls-73 {
        fill: url(#linear-gradient-49);
      }

      .cls-74 {
        fill: url(#linear-gradient-3);
      }

      .cls-75 {
        fill: url(#linear-gradient-34);
      }

      .cls-76 {
        fill: url(#linear-gradient-5);
      }

      .cls-77 {
        fill: url(#linear-gradient-38);
      }

      .cls-78 {
        fill: url(#linear-gradient-91);
      }

      .cls-79 {
        fill: url(#linear-gradient-149);
      }

      .cls-80 {
        fill: url(#linear-gradient-22);
      }

      .cls-81 {
        fill: url(#linear-gradient-24);
      }

      .cls-82 {
        fill: url(#linear-gradient-133);
      }

      .cls-83 {
        fill: url(#linear-gradient-94);
      }

      .cls-84 {
        fill: url(#linear-gradient-54);
      }

      .cls-85 {
        fill: url(#linear-gradient-147);
      }

      .cls-86 {
        fill: url(#linear-gradient-92);
      }

      .cls-87 {
        fill: url(#linear-gradient-90);
      }

      .cls-88 {
        fill: url(#linear-gradient-33);
      }

      .cls-89 {
        fill: url(#linear-gradient-79);
      }

      .cls-90 {
        fill: url(#linear-gradient-78);
      }

      .cls-91 {
        fill: url(#linear-gradient-51);
      }

      .cls-92 {
        fill: url(#linear-gradient-8);
      }

      .cls-93 {
        fill: url(#linear-gradient-66);
      }

      .cls-94 {
        fill: url(#linear-gradient-57);
      }

      .cls-95 {
        fill: url(#linear-gradient-77);
      }

      .cls-96 {
        fill: url(#linear-gradient-131);
      }

      .cls-97 {
        fill: url(#linear-gradient-129);
      }

      .cls-98 {
        fill: url(#linear-gradient-103);
      }

      .cls-99 {
        fill: url(#linear-gradient-135);
      }

      .cls-100 {
        fill: url(#linear-gradient-121);
      }

      .cls-101 {
        fill: url(#linear-gradient-110);
      }

      .cls-102 {
        fill: url(#linear-gradient-88);
      }

      .cls-103 {
        fill: url(#linear-gradient-124);
      }

      .cls-104 {
        fill: url(#linear-gradient-165);
      }

      .cls-105 {
        fill: url(#linear-gradient-128);
      }

      .cls-106 {
        fill: url(#linear-gradient-164);
      }

      .cls-107 {
        fill: url(#linear-gradient-14);
      }

      .cls-108 {
        fill: url(#linear-gradient-62);
      }

      .cls-109 {
        fill: url(#linear-gradient-156);
      }

      .cls-110 {
        fill: url(#linear-gradient-29);
      }

      .cls-111 {
        fill: url(#linear-gradient-20);
      }

      .cls-112 {
        fill: url(#linear-gradient-106);
      }

      .cls-113 {
        fill: url(#linear-gradient-67);
      }

      .cls-114 {
        fill: url(#linear-gradient-139);
      }

      .cls-115 {
        fill: url(#linear-gradient-148);
      }

      .cls-116 {
        fill: url(#linear-gradient-17);
      }

      .cls-117 {
        fill: url(#linear-gradient-141);
      }

      .cls-118 {
        fill: url(#linear-gradient-50);
      }

      .cls-119 {
        fill: url(#linear-gradient-7);
      }

      .cls-120 {
        fill: url(#linear-gradient-134);
      }

      .cls-121 {
        fill: url(#linear-gradient-9);
      }

      .cls-122 {
        fill: url(#linear-gradient-104);
      }

      .cls-123 {
        fill: url(#linear-gradient-59);
      }

      .cls-124 {
        fill: url(#linear-gradient-11);
      }

      .cls-125 {
        fill: url(#linear-gradient-120);
      }

      .cls-126 {
        fill: url(#linear-gradient-108);
      }

      .cls-127 {
        fill: url(#linear-gradient-19);
      }

      .cls-128 {
        fill: url(#linear-gradient-101);
      }

      .cls-129 {
        fill: url(#linear-gradient-80);
      }

      .cls-130 {
        fill: url(#linear-gradient-6);
      }

      .cls-131 {
        fill: url(#linear-gradient-83);
      }

      .cls-132 {
        fill: url(#linear-gradient-112);
      }

      .cls-133 {
        fill: url(#linear-gradient-154);
      }

      .cls-134 {
        fill: url(#linear-gradient-105);
      }

      .cls-135 {
        fill: url(#linear-gradient-137);
      }

      .cls-136 {
        fill: url(#linear-gradient-36);
      }

      .cls-137 {
        fill: url(#linear-gradient-21);
      }

      .cls-138 {
        fill: url(#linear-gradient-119);
      }

      .cls-139 {
        fill: url(#linear-gradient-45);
      }

      .cls-140 {
        fill: url(#linear-gradient-127);
      }

      .cls-141 {
        fill: url(#linear-gradient-85);
      }

      .cls-142 {
        fill: url(#linear-gradient-98);
      }

      .cls-143 {
        fill: url(#linear-gradient-81);
      }

      .cls-144 {
        fill: url(#linear-gradient-151);
      }

      .cls-145 {
        fill: url(#linear-gradient-84);
      }

      .cls-146 {
        fill: url(#linear-gradient-114);
      }

      .cls-147 {
        fill: url(#linear-gradient-140);
      }

      .cls-148 {
        fill: url(#linear-gradient-153);
      }

      .cls-149 {
        fill: url(#linear-gradient-117);
      }

      .cls-150 {
        fill: url(#linear-gradient-48);
      }

      .cls-151 {
        fill: url(#linear-gradient-102);
      }

      .cls-152 {
        fill: url(#linear-gradient-32);
      }

      .cls-153 {
        fill: url(#linear-gradient-86);
      }

      .cls-154 {
        fill: url(#linear-gradient-41);
      }

      .cls-155 {
        fill: url(#linear-gradient-130);
      }

      .cls-156 {
        fill: url(#linear-gradient-16);
      }

      .cls-157 {
        fill: url(#linear-gradient-111);
      }

      .cls-158 {
        fill: url(#linear-gradient);
      }

      .cls-159 {
        fill: url(#linear-gradient-23);
      }

      .cls-160 {
        fill: url(#linear-gradient-31);
      }

      .cls-161 {
        clip-path: url(#clippath);
      }

      .cls-162 {
        fill: url(#linear-gradient-63);
      }

      .cls-163 {
        fill: url(#linear-gradient-115);
      }

      .cls-164 {
        fill: url(#linear-gradient-126);
      }

      .cls-165 {
        fill: url(#linear-gradient-99);
      }

      .cls-166 {
        fill: url(#linear-gradient-18);
      }

      .cls-167 {
        fill: url(#linear-gradient-123);
      }
    </style>
    <clipPath id="clippath">
      <polygon class="cls-59" points="513.89 162.92 764.42 162.92 764.42 711.12 764.42 795.12 752.63 808.39 736.41 795.12 712.84 803.96 717.26 826.07 714.31 852.6 721.68 898.28 718.08 917.08 262.87 493.52 262.87 162.92 513.89 162.92"/>
    </clipPath>
    <linearGradient id="linear-gradient" x1="126.81" y1="3736.74" x2="314.73" y2="3659.34" gradientTransform="translate(0 3804.36) scale(1 -1)" gradientUnits="userSpaceOnUse">
      <stop offset="0" stop-color="#f5c133"/>
      <stop offset="1" stop-color="#e08524"/>
    </linearGradient>
    <linearGradient id="linear-gradient-2" x1="390.94" y1="3732.95" x2="301.21" y2="3659.76" xlink:href="#linear-gradient"/>
    <linearGradient id="linear-gradient-3" x1="829.4" y1="3681.83" x2="963.31" y2="3671.39" xlink:href="#linear-gradient"/>
    <linearGradient id="linear-gradient-4" x1="1011.85" y1="3657.24" x2="1027.38" y2="3755.92" xlink:href="#linear-gradient"/>
    <linearGradient id="linear-gradient-5" x1="1095.32" y1="3710.39" x2="1099.64" y2="3799.38" xlink:href="#linear-gradient"/>
    <linearGradient id="linear-gradient-6" x1="20.56" y1="3562.21" x2="36.4" y2="3731.59" xlink:href="#linear-gradient"/>
    <linearGradient id="linear-gradient-7" x1="-41.64" y1="3738.96" x2="-15.85" y2="3682.59" xlink:href="#linear-gradient"/>
    <linearGradient id="linear-gradient-8" x1="106.01" y1="3528.75" x2="76.41" y2="3719.48" xlink:href="#linear-gradient"/>
    <linearGradient id="linear-gradient-9" x1="150.79" y1="3636.99" x2="11.93" y2="3593.2" xlink:href="#linear-gradient"/>
    <linearGradient id="linear-gradient-10" x1="185.3" y1="3541.19" x2="155.72" y2="3731.79" xlink:href="#linear-gradient"/>
    <linearGradient id="linear-gradient-11" x1="185.47" y1="3635.01" x2="283.73" y2="3693.37" xlink:href="#linear-gradient"/>
    <linearGradient id="linear-gradient-12" x1="222.6" y1="3649.28" x2="451.19" y2="3608.43" xlink:href="#linear-gradient"/>
    <linearGradient id="linear-gradient-13" x1="394.81" y1="3728.16" x2="305.13" y2="3655" xlink:href="#linear-gradient"/>
    <linearGradient id="linear-gradient-14" x1="365.87" y1="3685.93" x2="485.39" y2="3573.83" xlink:href="#linear-gradient"/>
    <linearGradient id="linear-gradient-15" x1="389.33" y1="3704.9" x2="447.09" y2="3670.36" xlink:href="#linear-gradient"/>
    <linearGradient id="linear-gradient-16" x1="584.38" y1="3542.88" x2="557.28" y2="3721.52" xlink:href="#linear-gradient"/>
    <linearGradient id="linear-gradient-17" x1="578.83" y1="3755.35" x2="485.46" y2="3635.37" xlink:href="#linear-gradient"/>
    <linearGradient id="linear-gradient-18" x1="716.5" y1="3562.93" x2="689.39" y2="3741.65" xlink:href="#linear-gradient"/>
    <linearGradient id="linear-gradient-19" x1="735.75" y1="3622.29" x2="756.84" y2="3745.23" xlink:href="#linear-gradient"/>
    <linearGradient id="linear-gradient-20" x1="799.91" y1="3647.12" x2="900.06" y2="3614.12" xlink:href="#linear-gradient"/>
    <linearGradient id="linear-gradient-21" x1="818.28" y1="3682.43" x2="777.83" y2="3620.3" xlink:href="#linear-gradient"/>
    <linearGradient id="linear-gradient-22" x1="1046.59" y1="3630.43" x2="888.09" y2="3628.13" xlink:href="#linear-gradient"/>
    <linearGradient id="linear-gradient-23" x1="1017.87" y1="3551.89" x2="933.16" y2="3634.05" xlink:href="#linear-gradient"/>
    <linearGradient id="linear-gradient-24" x1="1064.07" y1="3513.16" x2="1051.03" y2="3650.15" xlink:href="#linear-gradient"/>
    <linearGradient id="linear-gradient-25" x1="1056.31" y1="3616.44" x2="957.96" y2="3630.15" xlink:href="#linear-gradient"/>
    <linearGradient id="linear-gradient-26" x1="1154.74" y1="3521.79" x2="1141.7" y2="3658.78" xlink:href="#linear-gradient"/>
    <linearGradient id="linear-gradient-27" x1="1080.54" y1="3604.12" x2="1211.54" y2="3658.19" xlink:href="#linear-gradient"/>
    <linearGradient id="linear-gradient-28" x1="-66.32" y1="3512.84" x2="22.07" y2="3458.78" xlink:href="#linear-gradient"/>
    <linearGradient id="linear-gradient-29" x1="48.4" y1="3543.65" x2="-124.37" y2="3466.63" xlink:href="#linear-gradient"/>
    <linearGradient id="linear-gradient-30" x1="36.21" y1="3447.22" x2="175.59" y2="3396.96" xlink:href="#linear-gradient"/>
    <linearGradient id="linear-gradient-31" x1="164.97" y1="3440.99" x2="116.53" y2="3511.25" xlink:href="#linear-gradient"/>
    <linearGradient id="linear-gradient-32" x1="231" y1="3509.75" x2="305.4" y2="3457.63" xlink:href="#linear-gradient"/>
    <linearGradient id="linear-gradient-33" x1="240.21" y1="3557.66" x2="179.71" y2="3504.11" xlink:href="#linear-gradient"/>
    <linearGradient id="linear-gradient-34" x1="451.92" y1="3470.86" x2="285.9" y2="3494.97" xlink:href="#linear-gradient"/>
    <linearGradient id="linear-gradient-35" x1="325.66" y1="3389.04" x2="326.14" y2="3548.73" xlink:href="#linear-gradient"/>
    <linearGradient id="linear-gradient-36" x1="488.3" y1="3469.34" x2="452.28" y2="3589.49" xlink:href="#linear-gradient"/>
    <linearGradient id="linear-gradient-37" x1="557.47" y1="3559.33" x2="478.61" y2="3498.46" xlink:href="#linear-gradient"/>
    <linearGradient id="linear-gradient-38" x1="682.02" y1="3501.82" x2="570.17" y2="3538.3" xlink:href="#linear-gradient"/>
    <linearGradient id="linear-gradient-39" x1="618.48" y1="3439.24" x2="590.72" y2="3537.45" xlink:href="#linear-gradient"/>
    <linearGradient id="linear-gradient-40" x1="655.91" y1="3522.64" x2="767.39" y2="3538.7" xlink:href="#linear-gradient"/>
    <linearGradient id="linear-gradient-41" x1="743.83" y1="3474.67" x2="715.94" y2="3573.35" xlink:href="#linear-gradient"/>
    <linearGradient id="linear-gradient-42" x1="915.84" y1="3493.42" x2="800.42" y2="3534.62" xlink:href="#linear-gradient"/>
    <linearGradient id="linear-gradient-43" x1="819.22" y1="3630.36" x2="923.54" y2="3445.02" xlink:href="#linear-gradient"/>
    <linearGradient id="linear-gradient-44" x1="964.98" y1="3409.76" x2="973.97" y2="3585.96" xlink:href="#linear-gradient"/>
    <linearGradient id="linear-gradient-45" x1="1009.06" y1="3620.88" x2="853.3" y2="3466.84" xlink:href="#linear-gradient"/>
    <linearGradient id="linear-gradient-46" x1="1034.36" y1="3580.96" x2="1047.38" y2="3447.63" xlink:href="#linear-gradient"/>
    <linearGradient id="linear-gradient-47" x1="1040.32" y1="3453.16" x2="1054.34" y2="3518.39" xlink:href="#linear-gradient"/>
    <linearGradient id="linear-gradient-48" x1="1059.73" y1="3500.87" x2="1231.04" y2="3502.36" xlink:href="#linear-gradient"/>
    <linearGradient id="linear-gradient-49" x1="1129.39" y1="3434.02" x2="1143.38" y2="3499.09" xlink:href="#linear-gradient"/>
    <linearGradient id="linear-gradient-50" x1="23.65" y1="3296.5" x2="26.33" y2="3435.79" xlink:href="#linear-gradient"/>
    <linearGradient id="linear-gradient-51" x1="65.03" y1="3358.41" x2="-21.57" y2="3388.22" xlink:href="#linear-gradient"/>
    <linearGradient id="linear-gradient-52" x1="224.44" y1="3435.34" x2="87.06" y2="3324.31" xlink:href="#linear-gradient"/>
    <linearGradient id="linear-gradient-53" x1="87.6" y1="3424.67" x2="1.25" y2="3454.4" xlink:href="#linear-gradient"/>
    <linearGradient id="linear-gradient-54" x1="324.38" y1="3387.83" x2="177.48" y2="3404.52" xlink:href="#linear-gradient"/>
    <linearGradient id="linear-gradient-55" x1="298.37" y1="3315.9" x2="254.95" y2="3403.39" xlink:href="#linear-gradient"/>
    <linearGradient id="linear-gradient-56" x1="343.58" y1="3375.19" x2="448.6" y2="3319.83" xlink:href="#linear-gradient"/>
    <linearGradient id="linear-gradient-57" x1="417.96" y1="3431.71" x2="295.01" y2="3368.79" xlink:href="#linear-gradient"/>
    <linearGradient id="linear-gradient-58" x1="413.77" y1="3338.03" x2="499.41" y2="3293.72" xlink:href="#linear-gradient"/>
    <linearGradient id="linear-gradient-59" x1="480.06" y1="3353.18" x2="509.3" y2="3498.5" xlink:href="#linear-gradient"/>
    <linearGradient id="linear-gradient-60" x1="570.02" y1="3306.2" x2="615.23" y2="3466.95" xlink:href="#linear-gradient"/>
    <linearGradient id="linear-gradient-61" x1="636.77" y1="3490.85" x2="495.71" y2="3382.89" xlink:href="#linear-gradient"/>
    <linearGradient id="linear-gradient-62" x1="676.49" y1="3276.25" x2="721.71" y2="3437" xlink:href="#linear-gradient"/>
    <linearGradient id="linear-gradient-63" x1="697.01" y1="3484.4" x2="791.58" y2="3391.98" xlink:href="#linear-gradient"/>
    <linearGradient id="linear-gradient-64" x1="763.49" y1="3398.96" x2="875.85" y2="3389.28" xlink:href="#linear-gradient"/>
    <linearGradient id="linear-gradient-65" x1="819.24" y1="3350.38" x2="836.59" y2="3459.43" xlink:href="#linear-gradient"/>
    <linearGradient id="linear-gradient-66" x1="911.46" y1="3339.84" x2="931.43" y2="3417.33" xlink:href="#linear-gradient"/>
    <linearGradient id="linear-gradient-67" x1="884.92" y1="3318.88" x2="989.79" y2="3444.99" xlink:href="#linear-gradient"/>
    <linearGradient id="linear-gradient-68" x1="1080.73" y1="3433.53" x2="959.02" y2="3270.81" xlink:href="#linear-gradient"/>
    <linearGradient id="linear-gradient-69" x1="934.85" y1="3289.26" x2="1034.6" y2="3409.22" xlink:href="#linear-gradient"/>
    <linearGradient id="linear-gradient-70" x1="1041.73" y1="3414.44" x2="1257.09" y2="3299.17" xlink:href="#linear-gradient"/>
    <linearGradient id="linear-gradient-71" x1="1060.58" y1="3402.88" x2="1231.89" y2="3404.37" xlink:href="#linear-gradient"/>
    <linearGradient id="linear-gradient-72" x1="33.37" y1="3233.56" x2="53" y2="3169.21" xlink:href="#linear-gradient"/>
    <linearGradient id="linear-gradient-73" x1="42.38" y1="3280.64" x2="-31.45" y2="3369.2" xlink:href="#linear-gradient"/>
    <linearGradient id="linear-gradient-74" x1="188.69" y1="3284.19" x2="-40.51" y2="3237.53" xlink:href="#linear-gradient"/>
    <linearGradient id="linear-gradient-75" x1="55.77" y1="3281.98" x2="162.89" y2="3270.6" xlink:href="#linear-gradient"/>
    <linearGradient id="linear-gradient-76" x1="194.64" y1="3241.89" x2="258.33" y2="3258.36" xlink:href="#linear-gradient"/>
    <linearGradient id="linear-gradient-77" x1="309.19" y1="3254.11" x2="162.29" y2="3270.8" xlink:href="#linear-gradient"/>
    <linearGradient id="linear-gradient-78" x1="321.21" y1="3189.44" x2="368.17" y2="3304.51" xlink:href="#linear-gradient"/>
    <linearGradient id="linear-gradient-79" x1="305.52" y1="3302.98" x2="410.54" y2="3247.62" xlink:href="#linear-gradient"/>
    <linearGradient id="linear-gradient-80" x1="441.56" y1="3177.67" x2="472.95" y2="3353.42" xlink:href="#linear-gradient"/>
    <linearGradient id="linear-gradient-81" x1="416.3" y1="3214.18" x2="442.66" y2="3256.65" xlink:href="#linear-gradient"/>
    <linearGradient id="linear-gradient-82" x1="677.91" y1="3283.69" x2="480.73" y2="3251.36" xlink:href="#linear-gradient"/>
    <linearGradient id="linear-gradient-83" x1="532.39" y1="3352.17" x2="699.12" y2="3209.81" xlink:href="#linear-gradient"/>
    <linearGradient id="linear-gradient-84" x1="717.03" y1="3138.13" x2="730.93" y2="3361.6" xlink:href="#linear-gradient"/>
    <linearGradient id="linear-gradient-85" x1="784.77" y1="3308.9" x2="645.58" y2="3241.46" xlink:href="#linear-gradient"/>
    <linearGradient id="linear-gradient-86" x1="828.97" y1="3266.07" x2="721.55" y2="3240.5" xlink:href="#linear-gradient"/>
    <linearGradient id="linear-gradient-87" x1="803.58" y1="3380.57" x2="897.93" y2="3183.25" xlink:href="#linear-gradient"/>
    <linearGradient id="linear-gradient-88" x1="963.9" y1="3268.37" x2="877.82" y2="3145.26" xlink:href="#linear-gradient"/>
    <linearGradient id="linear-gradient-89" x1="889.77" y1="3158.47" x2="908.76" y2="3346.34" xlink:href="#linear-gradient"/>
    <linearGradient id="linear-gradient-90" x1="1024.68" y1="3264.96" x2="988.88" y2="3318.69" xlink:href="#linear-gradient"/>
    <linearGradient id="linear-gradient-91" x1="1084.96" y1="3157.84" x2="996.16" y2="3328.63" xlink:href="#linear-gradient"/>
    <linearGradient id="linear-gradient-92" x1="1209.07" y1="3392.87" x2="1079.95" y2="3250.48" xlink:href="#linear-gradient"/>
    <linearGradient id="linear-gradient-93" x1="-70.06" y1="3173.31" x2="52.48" y2="3078.99" xlink:href="#linear-gradient"/>
    <linearGradient id="linear-gradient-94" x1="4.82" y1="3224.69" x2="24.37" y2="3160.61" xlink:href="#linear-gradient"/>
    <linearGradient id="linear-gradient-95" x1="75.24" y1="3134.93" x2="90.73" y2="3139.36" xlink:href="#linear-gradient"/>
    <linearGradient id="linear-gradient-96" x1="212.24" y1="3168.48" x2="-16.96" y2="3121.82" xlink:href="#linear-gradient"/>
    <linearGradient id="linear-gradient-97" x1="142.91" y1="3048.75" x2="253.59" y2="3121.14" xlink:href="#linear-gradient"/>
    <linearGradient id="linear-gradient-98" x1="231.86" y1="3211.02" x2="331.51" y2="3070.87" xlink:href="#linear-gradient"/>
    <linearGradient id="linear-gradient-99" x1="415.81" y1="3216.48" x2="325.41" y2="3042.83" xlink:href="#linear-gradient"/>
    <linearGradient id="linear-gradient-100" x1="367.64" y1="3066.85" x2="331.86" y2="3223.97" xlink:href="#linear-gradient"/>
    <linearGradient id="linear-gradient-101" x1="566.24" y1="3083.67" x2="404.49" y2="3155.25" xlink:href="#linear-gradient"/>
    <linearGradient id="linear-gradient-102" x1="506.1" y1="3015.26" x2="458.93" y2="3156.24" xlink:href="#linear-gradient"/>
    <linearGradient id="linear-gradient-103" x1="527.88" y1="3043.69" x2="581.79" y2="3086.51" xlink:href="#linear-gradient"/>
    <linearGradient id="linear-gradient-104" x1="644.06" y1="3242.29" x2="492.88" y2="3069.13" xlink:href="#linear-gradient"/>
    <linearGradient id="linear-gradient-105" x1="640.73" y1="3035.76" x2="738.02" y2="3166.16" xlink:href="#linear-gradient"/>
    <linearGradient id="linear-gradient-106" x1="678.82" y1="3047.46" x2="712.18" y2="3147.82" xlink:href="#linear-gradient"/>
    <linearGradient id="linear-gradient-107" x1="705.41" y1="3086.9" x2="921.02" y2="3120.44" xlink:href="#linear-gradient"/>
    <linearGradient id="linear-gradient-108" x1="836.71" y1="3181.23" x2="695.71" y2="3055.79" xlink:href="#linear-gradient"/>
    <linearGradient id="linear-gradient-109" x1="856.43" y1="3164.06" x2="938.03" y2="3050.28" xlink:href="#linear-gradient"/>
    <linearGradient id="linear-gradient-110" x1="909.91" y1="3202.41" x2="991.51" y2="3088.63" xlink:href="#linear-gradient"/>
    <linearGradient id="linear-gradient-111" x1="924.06" y1="3080.55" x2="1131.04" y2="3148.66" xlink:href="#linear-gradient"/>
    <linearGradient id="linear-gradient-112" x1="1124.88" y1="3098.97" x2="952.97" y2="3140.21" xlink:href="#linear-gradient"/>
    <linearGradient id="linear-gradient-113" x1="-6.96" y1="2945.5" x2="47.1" y2="3125.79" xlink:href="#linear-gradient"/>
    <linearGradient id="linear-gradient-114" x1="-36.24" y1="2931.85" x2="-10.65" y2="2990.75" xlink:href="#linear-gradient"/>
    <linearGradient id="linear-gradient-115" x1="153.82" y1="3020.41" x2="31.7" y2="3026.51" xlink:href="#linear-gradient"/>
    <linearGradient id="linear-gradient-116" x1="141.99" y1="2926.96" x2="88.46" y2="3118" xlink:href="#linear-gradient"/>
    <linearGradient id="linear-gradient-117" x1="147.14" y1="2988.05" x2="324.02" y2="2994.36" xlink:href="#linear-gradient"/>
    <linearGradient id="linear-gradient-118" x1="238.09" y1="2953.88" x2="184.55" y2="3144.93" xlink:href="#linear-gradient"/>
    <linearGradient id="linear-gradient-119" x1="352.3" y1="3026.57" x2="292.47" y2="2972.85" xlink:href="#linear-gradient"/>
    <linearGradient id="linear-gradient-120" x1="331.43" y1="3084.83" x2="411.26" y2="3021.73" xlink:href="#linear-gradient"/>
    <linearGradient id="linear-gradient-121" x1="427.22" y1="3038.46" x2="511.87" y2="2966.84" xlink:href="#linear-gradient"/>
    <linearGradient id="linear-gradient-122" x1="464.19" y1="2993.49" x2="458.44" y2="3103.12" xlink:href="#linear-gradient"/>
    <linearGradient id="linear-gradient-123" x1="623.81" y1="2957.96" x2="476.93" y2="2975.5" xlink:href="#linear-gradient"/>
    <linearGradient id="linear-gradient-124" x1="586.27" y1="2969.3" x2="640.56" y2="3012.42" xlink:href="#linear-gradient"/>
    <linearGradient id="linear-gradient-125" x1="710.48" y1="2907.47" x2="649.77" y2="2988.18" xlink:href="#linear-gradient"/>
    <linearGradient id="linear-gradient-126" x1="673.03" y1="2906.98" x2="650.78" y2="3077.34" xlink:href="#linear-gradient"/>
    <linearGradient id="linear-gradient-127" x1="827.47" y1="3031.12" x2="754.74" y2="3000.26" xlink:href="#linear-gradient"/>
    <linearGradient id="linear-gradient-128" x1="718.65" y1="3001.73" x2="934.27" y2="3035.28" xlink:href="#linear-gradient"/>
    <linearGradient id="linear-gradient-129" x1="853.13" y1="3023.58" x2="1016.2" y2="2994.77" xlink:href="#linear-gradient"/>
    <linearGradient id="linear-gradient-130" x1="853.08" y1="2979.7" x2="935.85" y2="3062.93" xlink:href="#linear-gradient"/>
    <linearGradient id="linear-gradient-131" x1="1058.11" y1="3005.03" x2="1008.23" y2="3003.59" xlink:href="#linear-gradient"/>
    <linearGradient id="linear-gradient-132" x1="992.17" y1="2993.82" x2="1074.75" y2="3151.52" xlink:href="#linear-gradient"/>
    <linearGradient id="linear-gradient-133" x1="1152.53" y1="2879.04" x2="1106.09" y2="3092.26" xlink:href="#linear-gradient"/>
    <linearGradient id="linear-gradient-134" x1="1159.1" y1="3024.1" x2="1122.24" y2="3032.58" xlink:href="#linear-gradient"/>
    <linearGradient id="linear-gradient-135" x1="16.05" y1="2789.5" x2="3.45" y2="2933.05" xlink:href="#linear-gradient"/>
    <linearGradient id="linear-gradient-136" x1="129.48" y1="2801.32" x2="113.4" y2="2924.3" xlink:href="#linear-gradient"/>
    <linearGradient id="linear-gradient-137" x1="110.9" y1="2959.89" x2=".77" y2="2823.16" xlink:href="#linear-gradient"/>
    <linearGradient id="linear-gradient-138" x1="288.76" y1="2926.4" x2="141.04" y2="2860.49" xlink:href="#linear-gradient"/>
    <linearGradient id="linear-gradient-139" x1="228.83" y1="2890.48" x2="242.27" y2="2953.31" xlink:href="#linear-gradient"/>
    <linearGradient id="linear-gradient-140" x1="345.75" y1="2932.75" x2="434.74" y2="2884.09" xlink:href="#linear-gradient"/>
    <linearGradient id="linear-gradient-141" x1="398.47" y1="2975.14" x2="338.56" y2="2921.35" xlink:href="#linear-gradient"/>
    <linearGradient id="linear-gradient-142" x1="583.19" y1="2863.61" x2="426.85" y2="2909.74" xlink:href="#linear-gradient"/>
    <linearGradient id="linear-gradient-143" x1="544.28" y1="2768.64" x2="456.1" y2="2908.53" xlink:href="#linear-gradient"/>
    <linearGradient id="linear-gradient-144" x1="539.6" y1="2799.4" x2="644.37" y2="2885.75" xlink:href="#linear-gradient"/>
    <linearGradient id="linear-gradient-145" x1="554.12" y1="2930.22" x2="494.62" y2="2808.15" xlink:href="#linear-gradient"/>
    <linearGradient id="linear-gradient-146" x1="668.99" y1="2872.82" x2="623.47" y2="2908.17" xlink:href="#linear-gradient"/>
    <linearGradient id="linear-gradient-147" x1="684.45" y1="2838.39" x2="699.8" y2="2964.02" xlink:href="#linear-gradient"/>
    <linearGradient id="linear-gradient-148" x1="743.36" y1="2894.04" x2="912.99" y2="2933.66" xlink:href="#linear-gradient"/>
    <linearGradient id="linear-gradient-149" x1="865.12" y1="2942.39" x2="791.97" y2="2911.35" xlink:href="#linear-gradient"/>
    <linearGradient id="linear-gradient-150" x1="834.96" y1="2972.78" x2="986.43" y2="2842.39" xlink:href="#linear-gradient"/>
    <linearGradient id="linear-gradient-151" x1="915.24" y1="2865" x2="927.56" y2="2967.2" xlink:href="#linear-gradient"/>
    <linearGradient id="linear-gradient-152" x1="1052" y1="2857.83" x2="1014.03" y2="2936.72" xlink:href="#linear-gradient"/>
    <linearGradient id="linear-gradient-153" x1="1060.92" y1="2907.78" x2="1011" y2="2906.34" xlink:href="#linear-gradient"/>
    <linearGradient id="linear-gradient-154" x1="1049.03" y1="2948.06" x2="1227.63" y2="2771.09" xlink:href="#linear-gradient"/>
    <linearGradient id="linear-gradient-155" x1="1159.42" y1="2772.04" x2="1146.55" y2="2885.84" xlink:href="#linear-gradient"/>
    <linearGradient id="linear-gradient-156" x1="315.18" y1="2870.85" x2="169.37" y2="2662.12" xlink:href="#linear-gradient"/>
    <linearGradient id="linear-gradient-157" x1="315.64" y1="2866.15" x2="167.78" y2="2800.17" xlink:href="#linear-gradient"/>
    <linearGradient id="linear-gradient-158" x1="400.54" y1="2835.4" x2="291.99" y2="2866.2" xlink:href="#linear-gradient"/>
    <linearGradient id="linear-gradient-159" x1="330.67" y1="2875.24" x2="365.31" y2="2648.58" xlink:href="#linear-gradient"/>
    <linearGradient id="linear-gradient-160" x1="560.46" y1="2773.53" x2="665.5" y2="2860.1" xlink:href="#linear-gradient"/>
    <linearGradient id="linear-gradient-161" x1="756.37" y1="2823.48" x2="660.07" y2="2857.95" xlink:href="#linear-gradient"/>
    <linearGradient id="linear-gradient-162" x1="760.32" y1="2821.23" x2="930" y2="2860.85" xlink:href="#linear-gradient"/>
    <linearGradient id="linear-gradient-163" x1="975.53" y1="2875.74" x2="876.95" y2="2771.42" xlink:href="#linear-gradient"/>
    <linearGradient id="linear-gradient-164" x1="942.73" y1="2644.25" x2="999.99" y2="2854.38" xlink:href="#linear-gradient"/>
    <linearGradient id="linear-gradient-165" x1="1055.86" y1="2735.63" x2="1046.66" y2="2876.25" xlink:href="#linear-gradient"/>
  </defs>
  <g class="cls-161">
    <g>
      <polygon class="cls-158" points="240.26 126.61 310.31 155.75 300.49 126.61 240.26 126.61"/>
      <polygon class="cls-23" points="300.49 126.61 310.31 155.75 345.68 126.61 300.49 126.61"/>
      <polygon class="cls-74" points="832.69 126.61 828.9 128.86 962.82 139.4 964.81 126.61 832.69 126.61"/>
      <polygon class="cls-60" points="964.81 126.61 962.82 139.4 1061.14 153.25 1041.61 126.61 964.81 126.61"/>
      <polygon class="cls-76" points="1086.22 126.61 1061.14 153.25 1125.04 126.61 1086.22 126.61"/>
      <polygon class="cls-130" points="-13.16 127.67 -13.16 254.81 60.68 288.25 -13.16 127.67"/>
      <polygon class="cls-119" points="-13.16 127.67 -13.16 128.48 60.68 288.25 -13.16 127.67"/>
      <polygon class="cls-92" points="108.26 126.61 60.68 288.25 151.96 268.35 130.17 126.61 108.26 126.61"/>
      <polygon class="cls-121" points="-13.16 126.61 -13.16 128.48 60.68 288.25 108.26 126.61 -13.16 126.61"/>
      <polygon class="cls-34" points="130.17 126.61 151.96 268.35 211.93 214.75 154.52 126.61 130.17 126.61"/>
      <polygon class="cls-124" points="154.52 126.61 211.93 214.75 310.31 155.75 240.26 126.61 154.52 126.61"/>
      <polygon class="cls-35" points="336.71 126.61 211.93 214.75 440.46 255.98 410.12 126.61 336.71 126.61"/>
      <polygon class="cls-7" points="336.71 126.61 211.93 214.75 310.31 155.75 345.68 126.61 336.71 126.61"/>
      <polygon class="cls-107" points="410.12 126.61 440.46 255.98 518.79 194.93 446.66 126.61 410.12 126.61"/>
      <polygon class="cls-6" points="446.66 126.61 518.79 194.93 464.92 126.61 446.66 126.61"/>
      <polygon class="cls-156" points="571.44 126.61 518.79 194.93 638.45 253.27 619.42 126.61 571.44 126.61"/>
      <polygon class="cls-116" points="464.92 126.61 518.79 194.93 571.44 126.61 464.92 126.61"/>
      <polygon class="cls-166" points="619.42 126.61 638.45 253.27 788.73 191.16 690.72 126.61 619.42 126.61"/>
      <polygon class="cls-127" points="690.72 126.61 788.73 191.16 799.7 126.61 690.72 126.61"/>
      <path class="cls-111" d="M828.9,128.86l-40.17,62.3,100.05,33.3-59.88-95.6h0Z"/>
      <polygon class="cls-137" points="799.7 126.61 788.73 191.16 828.9 128.86 828.19 126.61 799.7 126.61"/>
      <path class="cls-80" d="M828.9,128.86l218.39,93.28-158.5,2.32-59.88-95.6h0Z"/>
      <path class="cls-159" d="M828.9,128.86l218.39,93.28-84.47-82.73h0l-133.92-10.54Z"/>
      <path class="cls-81" d="M1061.14,153.25l-13.85,68.89,26.77,68.11-12.91-137h0Z"/>
      <path class="cls-31" d="M1061.14,153.25l-13.85,68.89-84.47-82.73h0l98.33,13.84Z"/>
      <polygon class="cls-53" points="1227.79 194.71 1061.14 153.25 1061.14 153.25 1074.06 290.25 1227.79 233.62 1227.79 194.71"/>
      <polygon class="cls-37" points="1227.79 139.05 1216.8 126.61 1125.04 126.61 1061.14 153.25 1227.79 194.71 1227.79 139.05"/>
      <polygon class="cls-9" points="-13.16 404.98 60.68 288.25 -13.16 321.49 -13.16 404.98"/>
      <polygon class="cls-110" points="-13.16 254.81 -13.16 321.49 60.68 288.25 -13.16 254.81"/>
      <polygon class="cls-62" points="-13.16 417.05 200.23 339.06 60.68 288.25 60.68 288.25 -13.16 404.98 -13.16 417.05"/>
      <path class="cls-160" d="M60.68,288.25l139.55,50.81-48.27-70.71h0l-91.28,19.9Z"/>
      <path class="cls-152" d="M211.94,214.75l-11.7,124.31,73.92,52.28-62.21-176.59h0Z"/>
      <path class="cls-88" d="M211.94,214.75l-11.7,124.31-48.27-70.71h0l59.97-53.6Z"/>
      <path class="cls-75" d="M211.94,214.75l228.05,200.92-165.83-24.32-62.21-176.59h0Z"/>
      <path class="cls-61" d="M211.94,214.75l228.05,200.92.48-159.68h0l-228.52-41.23Z"/>
      <path class="cls-136" d="M518.79,194.93l-78.81,220.74,114.44-100.73-35.63-120.01h0Z"/>
      <path class="cls-39" d="M518.79,194.93l-78.81,220.74.48-159.68h0l78.33-61.05Z"/>
      <path class="cls-77" d="M518.79,194.93l147.2,156.76-111.57-36.75-35.63-120.01h0Z"/>
      <path class="cls-44" d="M518.79,194.93l147.2,156.76-27.55-98.41h0l-119.66-58.35Z"/>
      <path class="cls-36" d="M788.73,191.16l-122.74,160.53,111.31-16.2,11.43-144.33h0Z"/>
      <path class="cls-154" d="M788.73,191.16l-122.74,160.53-27.55-98.41h0l150.29-62.11Z"/>
      <path class="cls-15" d="M788.73,191.16l103.55,185.77-114.98-41.44,11.43-144.33h0Z"/>
      <path class="cls-30" d="M788.73,191.16l103.55,185.77-3.5-152.48h0l-100.05-33.3Z"/>
      <path class="cls-70" d="M1047.29,222.14l-155,154.8,146.1,21.41,8.9-176.21h0Z"/>
      <path class="cls-139" d="M1047.29,222.14l-155,154.8-3.5-152.48h0l158.5-2.32Z"/>
      <path class="cls-16" d="M1047.29,222.14l12.89,133.33-21.79,42.88,8.9-176.21h0Z"/>
      <path class="cls-52" d="M1047.29,222.14l12.89,133.33,13.88-65.21h0l-26.77-68.11Z"/>
      <polygon class="cls-150" points="1227.79 250.05 1060.18 355.46 1227.79 354 1227.79 250.05"/>
      <polygon class="cls-73" points="1227.79 233.62 1074.06 290.25 1060.18 355.46 1227.79 250.05 1227.79 233.62"/>
      <polygon class="cls-118" points="-13.16 413.68 -13.16 474.18 63.38 450.75 -13.16 413.68"/>
      <polygon class="cls-91" points="-13.16 413.68 -13.16 424.14 63.38 450.75 -13.16 413.68"/>
      <path class="cls-47" d="M200.23,339.06l-136.86,111.69,107.02,11.48,29.84-123.17h0Z"/>
      <polygon class="cls-14" points="-13.16 417.05 -13.16 424.14 63.38 450.75 200.23 339.06 -13.16 417.05"/>
      <path class="cls-84" d="M200.23,339.06l117.04,140.02-146.88-16.86,29.84-123.17h0Z"/>
      <path class="cls-42" d="M200.23,339.06l117.04,140.02-43.13-87.74h0l-73.92-52.28Z"/>
      <path class="cls-29" d="M439.98,415.67l-122.71,63.41,104.8,55.78,17.91-119.19h0Z"/>
      <path class="cls-94" d="M439.98,415.67l-122.71,63.41-43.13-87.74h0l165.83,24.32Z"/>
      <path class="cls-50" d="M439.98,415.67l85.46,44.65-103.38,74.54,17.91-119.19h0Z"/>
      <path class="cls-123" d="M439.98,415.67l85.46,44.65,28.97-145.38h0l-114.44,100.73Z"/>
      <path class="cls-20" d="M665.99,351.69l-140.55,108.63,95.74,52.24,44.81-160.87h0Z"/>
      <path class="cls-4" d="M665.99,351.69l-140.55,108.63,28.97-145.38h0l111.57,36.75Z"/>
      <path class="cls-108" d="M665.99,351.69l94.12,92.89-138.93,67.98,44.81-160.87h0Z"/>
      <path class="cls-162" d="M665.99,351.69l94.12,92.89,17.19-109.08h0l-111.31,16.2Z"/>
      <path class="cls-28" d="M892.28,376.94l-132.17,67.64,112.41,9.79,19.76-77.43h0Z"/>
      <path class="cls-11" d="M892.28,376.94l-132.17,67.64,17.19-109.08h0l114.98,41.44Z"/>
      <path class="cls-93" d="M892.28,376.94l46.95,141.81-66.71-64.38,19.76-77.43h0Z"/>
      <path class="cls-113" d="M888.1,376.94l48.29,151.36,101.99-128.51h0l-150.28-22.85Z"/>
      <path class="cls-38" d="M1060.18,355.46l-120.95,163.28,119.35-75.47,1.59-87.81h0Z"/>
      <path class="cls-13" d="M1060.18,355.46l-120.95,163.28,99.15-120.4h0l21.79-42.88Z"/>
      <polygon class="cls-19" points="1227.79 446.06 1060.18 355.46 1060.18 355.46 1058.59 443.28 1227.79 465.4 1227.79 446.06"/>
      <polygon class="cls-69" points="1227.79 354 1060.18 355.46 1227.79 446.06 1227.79 354"/>
      <polygon class="cls-57" points="-13.16 555.26 -13.16 636.67 63.38 450.75 63.38 450.75 -13.16 555.26"/>
      <polygon class="cls-68" points="-13.16 474.18 -13.16 555.26 63.38 450.75 -13.16 474.18"/>
      <polygon class="cls-54" points="-13.16 656.2 207.16 610.91 63.38 450.75 63.38 450.75 -13.16 636.67 -13.16 656.2"/>
      <path class="cls-41" d="M63.38,450.75l143.78,160.16-36.77-148.68h0l-107.01-11.48Z"/>
      <path class="cls-65" d="M317.27,479.08l-110.11,131.82,63.55-16.59,46.57-115.23h0Z"/>
      <path class="cls-95" d="M317.27,479.08l-110.11,131.82-36.77-148.68h0l146.88,16.86Z"/>
      <path class="cls-90" d="M317.27,479.08l78.59,98.42-125.16,16.81,46.57-115.23h0Z"/>
      <path class="cls-89" d="M317.27,479.08l78.59,98.42,26.2-42.64h0l-104.79-55.78Z"/>
      <path class="cls-129" d="M525.45,460.32l-129.58,117.18,98.49,58.62,31.09-175.8h0Z"/>
      <path class="cls-143" d="M525.45,460.32l-129.58,117.18,26.2-42.64h0l103.38-74.54Z"/>
      <path class="cls-32" d="M525.45,460.32l166.05,143.16-197.13,32.64,31.09-175.8h0Z"/>
      <path class="cls-131" d="M525.45,460.32l166.05,143.16-70.31-90.92h0l-95.74-52.24Z"/>
      <path class="cls-145" d="M760.11,444.58l-68.62,158.9,54.86,64.57,13.77-223.48h0Z"/>
      <path class="cls-141" d="M760.11,444.58l-68.62,158.9-70.31-90.92h0l138.93-67.98Z"/>
      <path class="cls-153" d="M760.11,444.58l93.6,197.67-107.37,25.81,13.77-223.48h0Z"/>
      <path class="cls-26" d="M760.11,444.58l93.6,197.67,18.8-187.89h0l-112.41-9.78Z"/>
      <path class="cls-102" d="M939.23,518.75l-85.51,123.5,121.17-69.46-35.65-54.05h0Z"/>
      <path class="cls-46" d="M939.23,518.75l-85.51,123.5,18.8-187.89h0l66.71,64.39Z"/>
      <path class="cls-87" d="M939.23,518.75l207.48,95.67-171.82-41.63-35.65-54.05h0Z"/>
      <path class="cls-78" d="M939.23,518.75l207.48,95.67-88.12-171.14h0l-119.36,75.47Z"/>
      <polygon class="cls-86" points="1227.79 465.4 1058.59 443.28 1146.71 614.42 1227.79 524.12 1227.79 465.4"/>
      <polygon class="cls-21" points="-13.16 615.67 -13.16 734.03 80.74 688.66 -13.16 615.67"/>
      <polygon class="cls-83" points="-13.16 615.67 -13.16 660.63 80.74 688.66 -13.16 615.67"/>
      <path class="cls-22" d="M207.16,610.91l-126.42,77.75,15.46-4.47,110.96-73.28h0Z"/>
      <polygon class="cls-72" points="-13.16 656.2 -13.16 660.63 80.74 688.66 207.16 610.91 -13.16 656.2"/>
      <path class="cls-56" d="M207.16,610.91l99,140.6-209.96-67.32,110.96-73.28h0Z"/>
      <path class="cls-142" d="M207.16,610.91l99,140.6-35.45-157.2h0l-63.55,16.59Z"/>
      <path class="cls-165" d="M395.87,577.5l-89.7,174.01,73.83-46.16,15.87-127.85h0Z"/>
      <path class="cls-24" d="M395.87,577.5l-89.7,174.01-35.45-157.2h0l125.16-16.81Z"/>
      <path class="cls-128" d="M395.87,577.5l145.29,199.87-161.15-72.02,15.87-127.85h0Z"/>
      <path class="cls-151" d="M395.87,577.5l145.29,199.87-46.79-141.25h0l-98.49-58.62Z"/>
      <path class="cls-98" d="M691.49,603.48l-150.34,173.89,53.66-43.04,96.68-130.85h0Z"/>
      <path class="cls-122" d="M691.49,603.48l-150.34,173.89-46.79-141.25h0l197.14-32.64Z"/>
      <path class="cls-134" d="M691.49,603.48l21.83,164.89-118.52-34.04,96.68-130.85h0Z"/>
      <path class="cls-112" d="M691.49,603.48l21.83,164.89,33.02-100.32h0l-54.86-64.57Z"/>
      <path class="cls-8" d="M853.72,642.25l-140.39,126.13,215.57-33.87-75.17-92.26h0Z"/>
      <path class="cls-126" d="M853.72,642.25l-140.39,126.13,33.02-100.32h0l107.37-25.81Z"/>
      <path class="cls-67" d="M853.72,642.25l81.07,114.16-5.9-21.9-75.17-92.26h0Z"/>
      <path class="cls-101" d="M853.72,642.25l81.07,114.16,40.1-183.61h0l-121.17,69.46Z"/>
      <path class="cls-157" d="M1146.71,614.42l-211.92,141.98,206.61-68.66,5.3-73.32h0Z"/>
      <path class="cls-132" d="M1146.71,614.42l-211.92,141.98,40.1-183.61h0l171.82,41.63Z"/>
      <polygon class="cls-48" points="80.74 688.66 -13.16 755.51 -13.16 859.92 27.13 869.2 80.74 688.66 80.74 688.66"/>
      <polygon class="cls-146" points="-13.16 734.03 -13.16 755.51 80.74 688.66 -13.16 734.03"/>
      <path class="cls-163" d="M80.74,688.66l68.51,186.71-122.13-6.17,53.62-180.54h0Z"/>
      <path class="cls-43" d="M80.74,688.66l68.51,186.71-53.05-191.18h0l-15.46,4.47Z"/>
      <path class="cls-149" d="M306.16,751.51l-156.91,123.86,176.87-6.37-19.96-117.48h0Z"/>
      <path class="cls-2" d="M306.16,751.51l-156.91,123.86-53.05-191.18h0l209.96,67.32Z"/>
      <path class="cls-138" d="M306.16,751.51l79.53,63.47-59.57,54.01-19.96-117.48h0Z"/>
      <path class="cls-125" d="M306.16,751.51l79.53,63.47-5.7-109.63h0l-73.83,46.16Z"/>
      <path class="cls-100" d="M541.15,777.37l-155.46,37.61,84.3,72.02,71.16-109.63h0Z"/>
      <path class="cls-49" d="M541.15,777.37l-155.46,37.61-5.7-109.63h0l161.16,72.02Z"/>
      <path class="cls-167" d="M541.15,777.37l75.69,127.34-146.86-17.71,71.16-109.63h0Z"/>
      <path class="cls-103" d="M541.15,777.37l75.69,127.34-22.04-170.38h0l-53.66,43.04Z"/>
      <path class="cls-63" d="M713.32,768.37l-96.48,136.34,156.81-55.35-60.33-80.99h0Z"/>
      <path class="cls-164" d="M713.32,768.37l-96.48,136.34-22.04-170.38h0l118.52,34.04Z"/>
      <path class="cls-140" d="M713.32,768.37l133.2,49.77-72.87,31.22-60.33-80.99h0Z"/>
      <path class="cls-105" d="M713.32,768.37l133.2,49.77,82.37-83.64h0l-215.57,33.87Z"/>
      <path class="cls-97" d="M934.79,756.4l-88.26,61.75,163.03,29.08-74.77-90.82h0Z"/>
      <path class="cls-155" d="M934.79,756.4l-88.26,61.75,82.37-83.64h0l5.9,21.89Z"/>
      <path class="cls-96" d="M934.79,756.4l124.66,89.37-49.89,1.45-74.77-90.82h0Z"/>
      <path class="cls-1" d="M934.79,756.4l124.66,89.37,81.95-158.03h0l-206.61,68.66Z"/>
      <path class="cls-82" d="M1178.41,696.34l-118.96,149.43,164.97,63.88-46.01-213.31h0Z"/>
      <path class="cls-120" d="M1178.41,696.34l-118.96,149.43,81.95-158.03h0l37.01,8.6Z"/>
      <polygon class="cls-99" points="-13.16 953.92 34.49 953.92 27.13 869.2 -13.16 859.92 -13.16 953.92"/>
      <polygon class="cls-5" points="159.42 953.92 149.25 875.37 149.25 875.37 86.6 953.92 159.42 953.92"/>
      <polygon class="cls-135" points="86.6 953.92 149.25 875.37 27.13 869.2 34.49 953.92 86.6 953.92"/>
      <polygon class="cls-33" points="263.83 953.92 312.81 931.85 149.25 875.37 159.42 953.92 263.83 953.92"/>
      <path class="cls-114" d="M149.25,875.37l163.55,56.48,13.32-62.86h0l-176.87,6.37Z"/>
      <polygon class="cls-147" points="399.09 953.92 385.69 814.98 385.69 814.98 312.81 931.85 352.77 953.92 399.09 953.92"/>
      <path class="cls-117" d="M385.69,814.98l-72.89,116.87,13.32-62.86h0l59.57-54.01Z"/>
      <polygon class="cls-18" points="498.15 953.92 385.69 814.98 399.09 953.92 498.15 953.92"/>
      <polygon class="cls-66" points="511.76 953.92 469.99 887.01 385.69 814.98 498.15 953.92 511.76 953.92"/>
      <polygon class="cls-71" points="645.91 953.92 662.25 940.31 616.85 904.72 593.09 953.92 645.91 953.92"/>
      <polygon class="cls-12" points="593.09 953.92 616.85 904.72 469.99 887.01 511.76 953.92 593.09 953.92"/>
      <polygon class="cls-55" points="699.9 953.92 715.86 953.92 616.85 904.72 616.85 904.72 662.25 940.31 699.9 953.92"/>
      <polygon class="cls-85" points="761 953.92 773.66 849.37 616.85 904.72 715.86 953.92 761 953.92"/>
      <polygon class="cls-115" points="848.18 953.92 928.03 935.09 846.53 818.15 770.32 953.92 848.18 953.92"/>
      <polygon class="cls-79" points="770.32 953.92 846.53 818.15 773.66 849.37 761 953.92 770.32 953.92"/>
      <path class="cls-25" d="M846.53,818.15l150.84,131.12-69.34-14.17-81.51-116.94h0Z"/>
      <path class="cls-144" d="M846.53,818.15l150.84,131.12,12.19-102.04h0l-163.03-29.08Z"/>
      <path class="cls-51" d="M1059.45,845.77l-62.08,103.49,99.76-24.45-37.67-79.04h0Z"/>
      <path class="cls-148" d="M1059.45,845.77l-62.08,103.49,12.19-102.04h0l49.89-1.45Z"/>
      <polygon class="cls-133" points="1138.38 953.92 1167.53 953.92 1059.45 845.78 1097.13 924.81 1138.38 953.92"/>
      <polygon class="cls-17" points="1227.79 939.74 1224.42 909.66 1059.45 845.77 1167.53 953.92 1227.79 953.92 1227.79 939.74"/>
      <polygon class="cls-109" points="304.46 953.92 312.81 931.85 312.8 931.85 297.54 953.92 304.46 953.92"/>
      <polygon class="cls-58" points="297.54 953.92 312.8 931.85 263.83 953.92 297.54 953.92"/>
      <polygon class="cls-10" points="316.14 953.92 312.8 931.85 304.46 953.92 316.14 953.92"/>
      <polygon class="cls-40" points="352.77 953.92 312.8 931.85 316.14 953.92 352.77 953.92"/>
      <polygon class="cls-45" points="661.81 953.92 662.25 940.31 645.91 953.92 661.81 953.92"/>
      <polygon class="cls-64" points="699.9 953.92 662.25 940.31 661.81 953.92 699.9 953.92"/>
      <polygon class="cls-3" points="923.43 953.92 928.03 935.09 848.18 953.92 923.43 953.92"/>
      <polygon class="cls-27" points="993.01 953.92 997.37 949.26 928.03 935.09 923.43 953.92 993.01 953.92"/>
      <polygon class="cls-106" points="1001.73 953.92 997.37 949.26 997.37 949.26 996.11 953.92 1001.73 953.92"/>
      <polygon class="cls-104" points="1099.01 953.92 1097.13 924.81 997.37 949.26 1001.73 953.92 1099.01 953.92"/>
    </g>
  </g>
</svg>