<?xml version="1.0" encoding="UTF-8"?>
<svg id="Layer_1" data-name="Layer 1" xmlns="http://www.w3.org/2000/svg" xmlns:xlink="http://www.w3.org/1999/xlink" viewBox="0 0 1080 1080">
  <defs>
    <style>
      .cls-1 {
        fill: url(#linear-gradient-132);
      }

      .cls-2 {
        fill: url(#linear-gradient-118);
      }

      .cls-3 {
        fill: url(#linear-gradient-61);
      }

      .cls-4 {
        fill: url(#linear-gradient-136);
      }

      .cls-5 {
        fill: url(#linear-gradient-15);
      }

      .cls-6 {
        fill: url(#linear-gradient-13);
      }

      .cls-7 {
        fill: url(#linear-gradient-107);
      }

      .cls-8 {
        fill: url(#linear-gradient-28);
      }

      .cls-9 {
        fill: url(#linear-gradient-65);
      }

      .cls-10 {
        fill: url(#linear-gradient-69);
      }

      .cls-11 {
        fill: url(#linear-gradient-53);
      }

      .cls-12 {
        fill: url(#linear-gradient-42);
      }

      .cls-13 {
        fill: url(#linear-gradient-46);
      }

      .cls-14 {
        fill: url(#linear-gradient-142);
      }

      .cls-15 {
        fill: url(#linear-gradient-70);
      }

      .cls-16 {
        fill: url(#linear-gradient-60);
      }

      .cls-17 {
        fill: url(#linear-gradient-93);
      }

      .cls-18 {
        fill: url(#linear-gradient-95);
      }

      .cls-19 {
        fill: url(#linear-gradient-2);
      }

      .cls-20 {
        fill: url(#linear-gradient-100);
      }

      .cls-21 {
        fill: url(#linear-gradient-87);
      }

      .cls-22 {
        fill: url(#linear-gradient-64);
      }

      .cls-23 {
        fill: url(#linear-gradient-56);
      }

      .cls-24 {
        fill: url(#linear-gradient-43);
      }

      .cls-25 {
        fill: url(#linear-gradient-25);
      }

      .cls-26 {
        fill: url(#linear-gradient-82);
      }

      .cls-27 {
        fill: url(#linear-gradient-138);
      }

      .cls-28 {
        fill: url(#linear-gradient-10);
      }

      .cls-29 {
        fill: url(#linear-gradient-12);
      }

      .cls-30 {
        fill: url(#linear-gradient-40);
      }

      .cls-31 {
        fill: url(#linear-gradient-27);
      }

      .cls-32 {
        fill: url(#linear-gradient-68);
      }

      .cls-33 {
        fill: url(#linear-gradient-37);
      }

      .cls-34 {
        fill: url(#linear-gradient-75);
      }

      .cls-35 {
        fill: url(#linear-gradient-55);
      }

      .cls-36 {
        fill: url(#linear-gradient-116);
      }

      .cls-37 {
        fill: url(#linear-gradient-39);
      }

      .cls-38 {
        fill: url(#linear-gradient-89);
      }

      .cls-39 {
        fill: url(#linear-gradient-52);
      }

      .cls-40 {
        fill: url(#linear-gradient-113);
      }

      .cls-41 {
        fill: url(#linear-gradient-122);
      }

      .cls-42 {
        fill: url(#linear-gradient-58);
      }

      .cls-43 {
        fill: url(#linear-gradient-47);
      }

      .cls-44 {
        fill: url(#linear-gradient-26);
      }

      .cls-45 {
        fill: url(#linear-gradient-74);
      }

      .cls-46 {
        fill: url(#linear-gradient-97);
      }

      .cls-47 {
        fill: url(#linear-gradient-72);
      }

      .cls-48 {
        fill: none;
      }

      .cls-49 {
        fill: url(#linear-gradient-4);
      }

      .cls-50 {
        fill: url(#linear-gradient-35);
      }

      .cls-51 {
        fill: url(#linear-gradient-30);
      }

      .cls-52 {
        fill: url(#linear-gradient-125);
      }

      .cls-53 {
        fill: url(#linear-gradient-76);
      }

      .cls-54 {
        fill: url(#linear-gradient-109);
      }

      .cls-55 {
        fill: url(#linear-gradient-73);
      }

      .cls-56 {
        fill: url(#linear-gradient-71);
      }

      .cls-57 {
        fill: url(#linear-gradient-44);
      }

      .cls-58 {
        fill: url(#linear-gradient-96);
      }

      .cls-59 {
        fill: url(#linear-gradient-49);
      }

      .cls-60 {
        fill: url(#linear-gradient-3);
      }

      .cls-61 {
        fill: url(#linear-gradient-34);
      }

      .cls-62 {
        clip-path: url(#clippath-1);
      }

      .cls-63 {
        fill: url(#linear-gradient-5);
      }

      .cls-64 {
        fill: url(#linear-gradient-38);
      }

      .cls-65 {
        fill: url(#linear-gradient-91);
      }

      .cls-66 {
        fill: url(#linear-gradient-22);
      }

      .cls-67 {
        fill: url(#linear-gradient-24);
      }

      .cls-68 {
        fill: url(#linear-gradient-133);
      }

      .cls-69 {
        fill: url(#linear-gradient-94);
      }

      .cls-70 {
        fill: url(#linear-gradient-54);
      }

      .cls-71 {
        fill: url(#linear-gradient-92);
      }

      .cls-72 {
        fill: url(#linear-gradient-90);
      }

      .cls-73 {
        fill: url(#linear-gradient-33);
      }

      .cls-74 {
        fill: url(#linear-gradient-79);
      }

      .cls-75 {
        fill: url(#linear-gradient-78);
      }

      .cls-76 {
        fill: url(#linear-gradient-51);
      }

      .cls-77 {
        fill: url(#linear-gradient-8);
      }

      .cls-78 {
        fill: url(#linear-gradient-66);
      }

      .cls-79 {
        fill: url(#linear-gradient-57);
      }

      .cls-80 {
        fill: url(#linear-gradient-77);
      }

      .cls-81 {
        fill: url(#linear-gradient-131);
      }

      .cls-82 {
        fill: url(#linear-gradient-129);
      }

      .cls-83 {
        fill: url(#linear-gradient-103);
      }

      .cls-84 {
        fill: url(#linear-gradient-135);
      }

      .cls-85 {
        fill: url(#linear-gradient-121);
      }

      .cls-86 {
        fill: url(#linear-gradient-110);
      }

      .cls-87 {
        fill: url(#linear-gradient-88);
      }

      .cls-88 {
        fill: url(#linear-gradient-124);
      }

      .cls-89 {
        fill: url(#linear-gradient-128);
      }

      .cls-90 {
        fill: url(#linear-gradient-14);
      }

      .cls-91 {
        fill: url(#linear-gradient-62);
      }

      .cls-92 {
        fill: url(#linear-gradient-29);
      }

      .cls-93 {
        fill: url(#linear-gradient-20);
      }

      .cls-94 {
        fill: url(#linear-gradient-106);
      }

      .cls-95 {
        fill: url(#linear-gradient-67);
      }

      .cls-96 {
        fill: url(#linear-gradient-139);
      }

      .cls-97 {
        fill: url(#linear-gradient-17);
      }

      .cls-98 {
        fill: url(#linear-gradient-141);
      }

      .cls-99 {
        fill: url(#linear-gradient-50);
      }

      .cls-100 {
        fill: url(#linear-gradient-7);
      }

      .cls-101 {
        fill: url(#linear-gradient-134);
      }

      .cls-102 {
        fill: url(#linear-gradient-9);
      }

      .cls-103 {
        fill: url(#linear-gradient-104);
      }

      .cls-104 {
        fill: url(#linear-gradient-59);
      }

      .cls-105 {
        fill: url(#linear-gradient-11);
      }

      .cls-106 {
        fill: url(#linear-gradient-120);
      }

      .cls-107 {
        fill: url(#linear-gradient-108);
      }

      .cls-108 {
        fill: url(#linear-gradient-19);
      }

      .cls-109 {
        fill: url(#linear-gradient-101);
      }

      .cls-110 {
        fill: url(#linear-gradient-80);
      }

      .cls-111 {
        fill: url(#linear-gradient-6);
      }

      .cls-112 {
        fill: url(#linear-gradient-83);
      }

      .cls-113 {
        fill: url(#linear-gradient-112);
      }

      .cls-114 {
        fill: url(#linear-gradient-105);
      }

      .cls-115 {
        fill: url(#linear-gradient-137);
      }

      .cls-116 {
        fill: url(#linear-gradient-36);
      }

      .cls-117 {
        fill: url(#linear-gradient-21);
      }

      .cls-118 {
        fill: url(#linear-gradient-119);
      }

      .cls-119 {
        fill: url(#linear-gradient-45);
      }

      .cls-120 {
        fill: url(#linear-gradient-127);
      }

      .cls-121 {
        fill: url(#linear-gradient-85);
      }

      .cls-122 {
        fill: url(#linear-gradient-98);
      }

      .cls-123 {
        fill: url(#linear-gradient-81);
      }

      .cls-124 {
        fill: url(#linear-gradient-84);
      }

      .cls-125 {
        fill: url(#linear-gradient-114);
      }

      .cls-126 {
        fill: url(#linear-gradient-140);
      }

      .cls-127 {
        fill: url(#linear-gradient-117);
      }

      .cls-128 {
        fill: url(#linear-gradient-48);
      }

      .cls-129 {
        fill: url(#linear-gradient-102);
      }

      .cls-130 {
        fill: url(#linear-gradient-32);
      }

      .cls-131 {
        fill: url(#linear-gradient-86);
      }

      .cls-132 {
        fill: url(#linear-gradient-41);
      }

      .cls-133 {
        fill: url(#linear-gradient-130);
      }

      .cls-134 {
        fill: url(#linear-gradient-16);
      }

      .cls-135 {
        fill: url(#linear-gradient-111);
      }

      .cls-136 {
        fill: url(#linear-gradient);
      }

      .cls-137 {
        fill: url(#linear-gradient-23);
      }

      .cls-138 {
        fill: url(#linear-gradient-31);
      }

      .cls-139 {
        clip-path: url(#clippath);
      }

      .cls-140 {
        fill: url(#linear-gradient-63);
      }

      .cls-141 {
        fill: url(#linear-gradient-115);
      }

      .cls-142 {
        fill: url(#linear-gradient-126);
      }

      .cls-143 {
        fill: url(#linear-gradient-99);
      }

      .cls-144 {
        fill: url(#linear-gradient-18);
      }

      .cls-145 {
        fill: url(#linear-gradient-123);
      }
    </style>
    <clipPath id="clippath">
      <polygon class="cls-48" points="-285.96 1403.56 -285.96 2049.03 -914.04 2049.03 -914.04 1240.57 -540.23 1240.57 -540.23 1403.56 -285.96 1403.56"/>
    </clipPath>
    <linearGradient id="linear-gradient" x1="45.01" y1="440.11" x2="64.99" y2="567.03" gradientTransform="translate(0 1524.36) scale(1 -1)" gradientUnits="userSpaceOnUse">
      <stop offset="0" stop-color="#f5c133"/>
      <stop offset="1" stop-color="#e08524"/>
    </linearGradient>
    <linearGradient id="linear-gradient-2" x1="152.37" y1="508.47" x2="157.92" y2="622.92" xlink:href="#linear-gradient"/>
    <linearGradient id="linear-gradient-3" x1="89.69" y1="405.62" x2="-114.16" y2="402.66" xlink:href="#linear-gradient"/>
    <linearGradient id="linear-gradient-4" x1="52.75" y1="304.61" x2="-56.2" y2="410.29" xlink:href="#linear-gradient"/>
    <linearGradient id="linear-gradient-5" x1="102.2" y1="387.64" x2="-24.29" y2="405.27" xlink:href="#linear-gradient"/>
    <linearGradient id="linear-gradient-6" x1="133.36" y1="371.79" x2="301.85" y2="441.34" xlink:href="#linear-gradient"/>
    <linearGradient id="linear-gradient-7" x1="408.25" y1="362.66" x2="280.57" y2="505.76" xlink:href="#linear-gradient"/>
    <clipPath id="clippath-1">
      <path class="cls-48" d="M894.46,495.76c2.69,27.81-3.21,56.24-5.42,83.8-1.56,19.42-.01,45.5-3.96,63.69-3.4,15.62-36.93,58.1-49.39,69.92-2.89,2.75-22.26,17.66-24.53,18.31-6.31,1.81-13.39-3.54-19.27-3.35-7.18.22-14.23,11.94-18.28,17.34-6.64,8.85-24.36,32.41-28.58,40.88-2.64,5.32-3.03,18.72-1.94,24.6,1.13,6.13,9.96,13.63,10.59,19.81,1.38,13.53-7.9,21.3-20.25,23.79-4.24-1.3-4.07-12.76-6.35-16.46-.37-.61-10.18-9.04-10.83-9.32-3.18-1.38-13.52,3.75-15.03,6.36-1.25,2.16-9.24,34.41-9.71,38.37-1.66,13.95,3.47,40.79-3.69,51.51-3.2,4.79-12.51,8.13-13.89,12.82-5.18,17.63,10.29,27.62-19.48,33.95-3.02.64-16.49,2.34-19.25,2.28-8.5-.18-43.6-29.91-55.03-34.01l-7.33-26.69c-26.08-4.37-42.28,23.06-60.67,37.32-4.55.81-8.84-10.97-13.19-13.13-3.22-1.6-23.34-4.69-27.53-4.69-11,.01-20.61,12.99-28.87,14.05-1.54.2-15.32-1.08-17.37-1.46-6.75-1.27-14.2-15.58-20.01-17.39-9.4-2.93-56.84-2.19-59.08-4.15-4.94-10.61-8.92-33.91-15.37-42.49-1.5-1.99-23.11-14.57-25.75-15.27-9.3-2.44-18.56,4.45-27.78,6.17-5.22.98-40.23,3.41-41.7,1.94-.57-16.28-1.83-32.76-3.57-48.96-8.74-81.25-17.75-162.54-26.92-243.75-10.03-88.94-25.22-177.75-30.03-267.32-.23-4.36-.24-8.84.17-13.16l226.62-35.27c13.76,4.13,38.02,25.64,50.53,27.67,8.28,1.34,28.74-4.57,38.73-5.03,4.06-.18,10.19-.74,13.87.34,5.27,1.55,24.05,24.6,29.78,27.2,20.76,9.42,56.7-18.52,76.55-24.88,17.2-5.5,48.77-5.71,63.96-14.39,5.27-3.02,32.97-30.78,39.34-37.22,11.13-11.25,23.45-30.05,35.68-39.11,23.34-17.28,69.83-42.19,96.63-56.51,1.97-1.05,10.89-6.14,11.88-5.02,13.9,98.49,28.34,196.98,46.39,294.78.55,8.46-9.78,8.42-13.8,12.01-17.07,15.25,1.47,32.98,3.12,50.12Z"/>
    </clipPath>
    <linearGradient id="linear-gradient-8" x1="194.07" y1="1506.53" x2="407.46" y2="1418.64" xlink:href="#linear-gradient"/>
    <linearGradient id="linear-gradient-9" x1="494.01" y1="1502.24" x2="392.12" y2="1419.13" xlink:href="#linear-gradient"/>
    <linearGradient id="linear-gradient-10" x1="991.87" y1="1444.19" x2="1143.94" y2="1432.33" xlink:href="#linear-gradient"/>
    <linearGradient id="linear-gradient-11" x1="73.43" y1="1308.36" x2="91.42" y2="1500.69" xlink:href="#linear-gradient"/>
    <linearGradient id="linear-gradient-12" x1="2.8" y1="1509.06" x2="32.08" y2="1445.05" xlink:href="#linear-gradient"/>
    <linearGradient id="linear-gradient-13" x1="170.46" y1="1270.36" x2="136.84" y2="1486.94" xlink:href="#linear-gradient"/>
    <linearGradient id="linear-gradient-14" x1="221.3" y1="1393.27" x2="63.63" y2="1343.54" xlink:href="#linear-gradient"/>
    <linearGradient id="linear-gradient-15" x1="260.5" y1="1284.48" x2="226.91" y2="1500.92" xlink:href="#linear-gradient"/>
    <linearGradient id="linear-gradient-16" x1="260.69" y1="1391.02" x2="372.26" y2="1457.28" xlink:href="#linear-gradient"/>
    <linearGradient id="linear-gradient-17" x1="302.84" y1="1407.22" x2="562.42" y2="1360.84" xlink:href="#linear-gradient"/>
    <linearGradient id="linear-gradient-18" x1="498.4" y1="1496.79" x2="396.56" y2="1413.72" xlink:href="#linear-gradient"/>
    <linearGradient id="linear-gradient-19" x1="465.53" y1="1448.84" x2="601.25" y2="1321.54" xlink:href="#linear-gradient"/>
    <linearGradient id="linear-gradient-20" x1="492.17" y1="1470.39" x2="557.75" y2="1431.16" xlink:href="#linear-gradient"/>
    <linearGradient id="linear-gradient-21" x1="713.66" y1="1286.41" x2="682.89" y2="1489.25" xlink:href="#linear-gradient"/>
    <linearGradient id="linear-gradient-22" x1="707.35" y1="1527.66" x2="601.33" y2="1391.43" xlink:href="#linear-gradient"/>
    <linearGradient id="linear-gradient-23" x1="863.68" y1="1309.17" x2="832.9" y2="1512.11" xlink:href="#linear-gradient"/>
    <linearGradient id="linear-gradient-24" x1="885.53" y1="1376.58" x2="909.49" y2="1516.17" xlink:href="#linear-gradient"/>
    <linearGradient id="linear-gradient-25" x1="958.39" y1="1404.77" x2="1072.12" y2="1367.3" xlink:href="#linear-gradient"/>
    <linearGradient id="linear-gradient-26" x1="979.25" y1="1444.86" x2="933.32" y2="1374.31" xlink:href="#linear-gradient"/>
    <linearGradient id="linear-gradient-27" x1="1238.5" y1="1385.81" x2="1058.53" y2="1383.2" xlink:href="#linear-gradient"/>
    <linearGradient id="linear-gradient-28" x1="1205.89" y1="1296.63" x2="1109.69" y2="1389.93" xlink:href="#linear-gradient"/>
    <linearGradient id="linear-gradient-29" x1="-25.23" y1="1252.29" x2="75.14" y2="1190.91" xlink:href="#linear-gradient"/>
    <linearGradient id="linear-gradient-30" x1="105.04" y1="1287.28" x2="-91.14" y2="1199.82" xlink:href="#linear-gradient"/>
    <linearGradient id="linear-gradient-31" x1="91.2" y1="1177.78" x2="249.47" y2="1120.71" xlink:href="#linear-gradient"/>
    <linearGradient id="linear-gradient-32" x1="237.4" y1="1170.7" x2="182.4" y2="1250.49" xlink:href="#linear-gradient"/>
    <linearGradient id="linear-gradient-33" x1="312.39" y1="1248.78" x2="396.87" y2="1189.61" xlink:href="#linear-gradient"/>
    <linearGradient id="linear-gradient-34" x1="322.85" y1="1303.19" x2="254.14" y2="1242.38" xlink:href="#linear-gradient"/>
    <linearGradient id="linear-gradient-35" x1="563.24" y1="1204.62" x2="374.73" y2="1232" xlink:href="#linear-gradient"/>
    <linearGradient id="linear-gradient-36" x1="419.87" y1="1111.71" x2="420.42" y2="1293.05" xlink:href="#linear-gradient"/>
    <linearGradient id="linear-gradient-37" x1="604.55" y1="1202.9" x2="563.65" y2="1339.33" xlink:href="#linear-gradient"/>
    <linearGradient id="linear-gradient-38" x1="683.09" y1="1305.08" x2="593.55" y2="1235.97" xlink:href="#linear-gradient"/>
    <linearGradient id="linear-gradient-39" x1="824.53" y1="1239.78" x2="697.52" y2="1281.2" xlink:href="#linear-gradient"/>
    <linearGradient id="linear-gradient-40" x1="752.37" y1="1168.72" x2="720.85" y2="1280.24" xlink:href="#linear-gradient"/>
    <linearGradient id="linear-gradient-41" x1="794.88" y1="1263.42" x2="921.47" y2="1281.66" xlink:href="#linear-gradient"/>
    <linearGradient id="linear-gradient-42" x1="894.71" y1="1208.95" x2="863.04" y2="1321" xlink:href="#linear-gradient"/>
    <linearGradient id="linear-gradient-43" x1="1090.03" y1="1230.24" x2="958.98" y2="1277.02" xlink:href="#linear-gradient"/>
    <linearGradient id="linear-gradient-44" x1="980.32" y1="1385.74" x2="1098.78" y2="1175.28" xlink:href="#linear-gradient"/>
    <linearGradient id="linear-gradient-45" x1="1145.83" y1="1135.24" x2="1156.04" y2="1335.33" xlink:href="#linear-gradient"/>
    <linearGradient id="linear-gradient-46" x1="1195.88" y1="1374.97" x2="1019.02" y2="1200.06" xlink:href="#linear-gradient"/>
    <linearGradient id="linear-gradient-47" x1="76.94" y1="1006.63" x2="79.98" y2="1164.8" xlink:href="#linear-gradient"/>
    <linearGradient id="linear-gradient-48" x1="123.92" y1="1076.93" x2="25.59" y2="1110.78" xlink:href="#linear-gradient"/>
    <linearGradient id="linear-gradient-49" x1="304.94" y1="1164.29" x2="148.94" y2="1038.21" xlink:href="#linear-gradient"/>
    <linearGradient id="linear-gradient-50" x1="149.56" y1="1152.18" x2="51.5" y2="1185.93" xlink:href="#linear-gradient"/>
    <linearGradient id="linear-gradient-51" x1="418.42" y1="1110.34" x2="251.61" y2="1129.3" xlink:href="#linear-gradient"/>
    <linearGradient id="linear-gradient-52" x1="388.89" y1="1028.66" x2="339.58" y2="1128" xlink:href="#linear-gradient"/>
    <linearGradient id="linear-gradient-53" x1="440.22" y1="1095.99" x2="559.47" y2="1033.13" xlink:href="#linear-gradient"/>
    <linearGradient id="linear-gradient-54" x1="524.69" y1="1160.17" x2="385.07" y2="1088.72" xlink:href="#linear-gradient"/>
    <linearGradient id="linear-gradient-55" x1="519.92" y1="1053.79" x2="617.17" y2="1003.48" xlink:href="#linear-gradient"/>
    <linearGradient id="linear-gradient-56" x1="595.2" y1="1070.99" x2="628.41" y2="1236.01" xlink:href="#linear-gradient"/>
    <linearGradient id="linear-gradient-57" x1="697.34" y1="1017.64" x2="748.69" y2="1200.18" xlink:href="#linear-gradient"/>
    <linearGradient id="linear-gradient-58" x1="773.15" y1="1227.32" x2="612.97" y2="1104.73" xlink:href="#linear-gradient"/>
    <linearGradient id="linear-gradient-59" x1="818.25" y1="983.64" x2="869.6" y2="1166.18" xlink:href="#linear-gradient"/>
    <linearGradient id="linear-gradient-60" x1="841.54" y1="1220" x2="948.93" y2="1115.05" xlink:href="#linear-gradient"/>
    <linearGradient id="linear-gradient-61" x1="917.04" y1="1122.98" x2="1044.62" y2="1111.98" xlink:href="#linear-gradient"/>
    <linearGradient id="linear-gradient-62" x1="980.34" y1="1067.81" x2="1000.04" y2="1191.65" xlink:href="#linear-gradient"/>
    <linearGradient id="linear-gradient-63" x1="1085.06" y1="1055.84" x2="1107.74" y2="1143.84" xlink:href="#linear-gradient"/>
    <linearGradient id="linear-gradient-64" x1="1054.92" y1="1032.04" x2="1174" y2="1175.24" xlink:href="#linear-gradient"/>
    <linearGradient id="linear-gradient-65" x1="87.98" y1="935.16" x2="110.26" y2="862.1" xlink:href="#linear-gradient"/>
    <linearGradient id="linear-gradient-66" x1="98.21" y1="988.62" x2="14.37" y2="1089.19" xlink:href="#linear-gradient"/>
    <linearGradient id="linear-gradient-67" x1="264.34" y1="992.66" x2="4.08" y2="939.67" xlink:href="#linear-gradient"/>
    <linearGradient id="linear-gradient-68" x1="113.4" y1="990.15" x2="235.05" y2="977.22" xlink:href="#linear-gradient"/>
    <linearGradient id="linear-gradient-69" x1="271.09" y1="944.62" x2="343.42" y2="963.33" xlink:href="#linear-gradient"/>
    <linearGradient id="linear-gradient-70" x1="401.17" y1="958.5" x2="234.36" y2="977.46" xlink:href="#linear-gradient"/>
    <linearGradient id="linear-gradient-71" x1="414.83" y1="885.06" x2="468.15" y2="1015.72" xlink:href="#linear-gradient"/>
    <linearGradient id="linear-gradient-72" x1="397" y1="1013.99" x2="516.25" y2="951.13" xlink:href="#linear-gradient"/>
    <linearGradient id="linear-gradient-73" x1="551.48" y1="871.7" x2="587.12" y2="1071.27" xlink:href="#linear-gradient"/>
    <linearGradient id="linear-gradient-74" x1="522.8" y1="913.16" x2="552.72" y2="961.39" xlink:href="#linear-gradient"/>
    <linearGradient id="linear-gradient-75" x1="819.86" y1="992.09" x2="595.96" y2="955.37" xlink:href="#linear-gradient"/>
    <linearGradient id="linear-gradient-76" x1="654.62" y1="1069.85" x2="843.94" y2="908.2" xlink:href="#linear-gradient"/>
    <linearGradient id="linear-gradient-77" x1="864.28" y1="826.8" x2="880.06" y2="1080.56" xlink:href="#linear-gradient"/>
    <linearGradient id="linear-gradient-78" x1="941.2" y1="1020.72" x2="783.15" y2="944.13" xlink:href="#linear-gradient"/>
    <linearGradient id="linear-gradient-79" x1="991.39" y1="972.09" x2="869.41" y2="943.05" xlink:href="#linear-gradient"/>
    <linearGradient id="linear-gradient-80" x1="962.56" y1="1102.1" x2="1069.7" y2="878.04" xlink:href="#linear-gradient"/>
    <linearGradient id="linear-gradient-81" x1="1144.6" y1="974.69" x2="1046.86" y2="834.9" xlink:href="#linear-gradient"/>
    <linearGradient id="linear-gradient-82" x1="1060.43" y1="849.9" x2="1081.99" y2="1063.23" xlink:href="#linear-gradient"/>
    <linearGradient id="linear-gradient-83" x1="-29.47" y1="866.75" x2="109.67" y2="759.64" xlink:href="#linear-gradient"/>
    <linearGradient id="linear-gradient-84" x1="55.56" y1="925.09" x2="77.75" y2="852.33" xlink:href="#linear-gradient"/>
    <linearGradient id="linear-gradient-85" x1="135.52" y1="823.17" x2="153.1" y2="828.19" xlink:href="#linear-gradient"/>
    <linearGradient id="linear-gradient-86" x1="291.09" y1="861.27" x2="30.83" y2="808.28" xlink:href="#linear-gradient"/>
    <linearGradient id="linear-gradient-87" x1="212.36" y1="725.31" x2="338.03" y2="807.51" xlink:href="#linear-gradient"/>
    <linearGradient id="linear-gradient-88" x1="313.36" y1="909.57" x2="426.51" y2="750.43" xlink:href="#linear-gradient"/>
    <linearGradient id="linear-gradient-89" x1="522.24" y1="915.77" x2="419.59" y2="718.59" xlink:href="#linear-gradient"/>
    <linearGradient id="linear-gradient-90" x1="467.54" y1="745.87" x2="426.91" y2="924.28" xlink:href="#linear-gradient"/>
    <linearGradient id="linear-gradient-91" x1="693.05" y1="764.97" x2="509.38" y2="846.25" xlink:href="#linear-gradient"/>
    <linearGradient id="linear-gradient-92" x1="624.76" y1="687.28" x2="571.21" y2="847.36" xlink:href="#linear-gradient"/>
    <linearGradient id="linear-gradient-93" x1="649.5" y1="719.56" x2="710.71" y2="768.18" xlink:href="#linear-gradient"/>
    <linearGradient id="linear-gradient-94" x1="781.42" y1="945.07" x2="609.76" y2="748.45" xlink:href="#linear-gradient"/>
    <linearGradient id="linear-gradient-95" x1="777.64" y1="710.56" x2="888.12" y2="858.63" xlink:href="#linear-gradient"/>
    <linearGradient id="linear-gradient-96" x1="820.89" y1="723.84" x2="858.77" y2="837.81" xlink:href="#linear-gradient"/>
    <linearGradient id="linear-gradient-97" x1="851.08" y1="768.63" x2="1095.92" y2="806.72" xlink:href="#linear-gradient"/>
    <linearGradient id="linear-gradient-98" x1="1000.18" y1="875.74" x2="840.07" y2="733.3" xlink:href="#linear-gradient"/>
    <linearGradient id="linear-gradient-99" x1="1022.57" y1="856.24" x2="1115.23" y2="727.05" xlink:href="#linear-gradient"/>
    <linearGradient id="linear-gradient-100" x1="1083.3" y1="899.79" x2="1175.95" y2="770.6" xlink:href="#linear-gradient"/>
    <linearGradient id="linear-gradient-101" x1="42.17" y1="608.07" x2="103.57" y2="812.79" xlink:href="#linear-gradient"/>
    <linearGradient id="linear-gradient-102" x1="8.93" y1="592.56" x2="37.99" y2="659.45" xlink:href="#linear-gradient"/>
    <linearGradient id="linear-gradient-103" x1="224.75" y1="693.13" x2="86.07" y2="700.06" xlink:href="#linear-gradient"/>
    <linearGradient id="linear-gradient-104" x1="211.31" y1="587.01" x2="150.52" y2="803.94" xlink:href="#linear-gradient"/>
    <linearGradient id="linear-gradient-105" x1="217.17" y1="656.38" x2="418.01" y2="663.55" xlink:href="#linear-gradient"/>
    <linearGradient id="linear-gradient-106" x1="320.43" y1="617.59" x2="259.64" y2="834.52" xlink:href="#linear-gradient"/>
    <linearGradient id="linear-gradient-107" x1="450.12" y1="700.13" x2="382.18" y2="639.13" xlink:href="#linear-gradient"/>
    <linearGradient id="linear-gradient-108" x1="426.43" y1="766.27" x2="517.08" y2="694.63" xlink:href="#linear-gradient"/>
    <linearGradient id="linear-gradient-109" x1="535.2" y1="713.63" x2="631.31" y2="632.31" xlink:href="#linear-gradient"/>
    <linearGradient id="linear-gradient-110" x1="577.18" y1="662.57" x2="570.65" y2="787.05" xlink:href="#linear-gradient"/>
    <linearGradient id="linear-gradient-111" x1="758.43" y1="622.22" x2="591.65" y2="642.14" xlink:href="#linear-gradient"/>
    <linearGradient id="linear-gradient-112" x1="715.81" y1="635.1" x2="777.45" y2="684.06" xlink:href="#linear-gradient"/>
    <linearGradient id="linear-gradient-113" x1="856.85" y1="564.88" x2="787.9" y2="656.53" xlink:href="#linear-gradient"/>
    <linearGradient id="linear-gradient-114" x1="814.32" y1="564.33" x2="789.05" y2="757.77" xlink:href="#linear-gradient"/>
    <linearGradient id="linear-gradient-115" x1="989.69" y1="705.29" x2="907.1" y2="670.25" xlink:href="#linear-gradient"/>
    <linearGradient id="linear-gradient-116" x1="866.12" y1="671.92" x2="1110.96" y2="710.01" xlink:href="#linear-gradient"/>
    <linearGradient id="linear-gradient-117" x1="1018.82" y1="696.72" x2="1204" y2="664.01" xlink:href="#linear-gradient"/>
    <linearGradient id="linear-gradient-118" x1="1018.76" y1="646.9" x2="1112.75" y2="741.42" xlink:href="#linear-gradient"/>
    <linearGradient id="linear-gradient-119" x1="68.31" y1="430.92" x2="54" y2="593.93" xlink:href="#linear-gradient"/>
    <linearGradient id="linear-gradient-120" x1="197.11" y1="444.35" x2="178.85" y2="584" xlink:href="#linear-gradient"/>
    <linearGradient id="linear-gradient-121" x1="176.01" y1="624.4" x2="50.96" y2="469.15" xlink:href="#linear-gradient"/>
    <linearGradient id="linear-gradient-122" x1="377.97" y1="586.38" x2="210.24" y2="511.54" xlink:href="#linear-gradient"/>
    <linearGradient id="linear-gradient-123" x1="309.92" y1="545.59" x2="325.19" y2="616.93" xlink:href="#linear-gradient"/>
    <linearGradient id="linear-gradient-124" x1="442.68" y1="593.59" x2="543.73" y2="538.33" xlink:href="#linear-gradient"/>
    <linearGradient id="linear-gradient-125" x1="502.55" y1="641.73" x2="434.52" y2="580.64" xlink:href="#linear-gradient"/>
    <linearGradient id="linear-gradient-126" x1="712.3" y1="515.08" x2="534.78" y2="567.46" xlink:href="#linear-gradient"/>
    <linearGradient id="linear-gradient-127" x1="668.12" y1="407.24" x2="567.99" y2="566.09" xlink:href="#linear-gradient"/>
    <linearGradient id="linear-gradient-128" x1="662.8" y1="442.16" x2="781.77" y2="540.22" xlink:href="#linear-gradient"/>
    <linearGradient id="linear-gradient-129" x1="679.3" y1="590.72" x2="611.73" y2="452.11" xlink:href="#linear-gradient"/>
    <linearGradient id="linear-gradient-130" x1="809.74" y1="525.54" x2="758.04" y2="565.68" xlink:href="#linear-gradient"/>
    <linearGradient id="linear-gradient-131" x1="827.28" y1="486.44" x2="844.72" y2="629.1" xlink:href="#linear-gradient"/>
    <linearGradient id="linear-gradient-132" x1="894.18" y1="549.64" x2="1086.8" y2="594.62" xlink:href="#linear-gradient"/>
    <linearGradient id="linear-gradient-133" x1="1032.44" y1="604.53" x2="949.38" y2="569.29" xlink:href="#linear-gradient"/>
    <linearGradient id="linear-gradient-134" x1="998.19" y1="639.04" x2="1170.19" y2="490.99" xlink:href="#linear-gradient"/>
    <linearGradient id="linear-gradient-135" x1="1089.35" y1="516.66" x2="1103.34" y2="632.71" xlink:href="#linear-gradient"/>
    <linearGradient id="linear-gradient-136" x1="407.97" y1="523.3" x2="242.4" y2="286.29" xlink:href="#linear-gradient"/>
    <linearGradient id="linear-gradient-137" x1="408.5" y1="517.96" x2="240.59" y2="443.04" xlink:href="#linear-gradient"/>
    <linearGradient id="linear-gradient-138" x1="504.9" y1="483.05" x2="381.64" y2="518.02" xlink:href="#linear-gradient"/>
    <linearGradient id="linear-gradient-139" x1="425.56" y1="528.29" x2="464.9" y2="270.91" xlink:href="#linear-gradient"/>
    <linearGradient id="linear-gradient-140" x1="686.49" y1="412.79" x2="805.77" y2="511.1" xlink:href="#linear-gradient"/>
    <linearGradient id="linear-gradient-141" x1="908.95" y1="469.52" x2="799.6" y2="508.65" xlink:href="#linear-gradient"/>
    <linearGradient id="linear-gradient-142" x1="913.44" y1="466.96" x2="1106.11" y2="511.95" xlink:href="#linear-gradient"/>
  </defs>
  <g class="cls-139">
    <g>
      <polygon class="cls-136" points="-15.49 1057.88 -18.05 1074.33 108.42 1092.13 83.29 1057.88 -15.49 1057.88"/>
      <polygon class="cls-19" points="140.67 1057.88 108.42 1092.13 190.6 1057.88 140.67 1057.88"/>
      <path class="cls-60" d="M-190.29,1060.76l280.88,119.97-203.86,2.98-77.02-122.95h0Z"/>
      <path class="cls-49" d="M-190.29,1060.76l280.88,119.97-108.64-106.41h0l-172.24-13.56Z"/>
      <path class="cls-63" d="M108.41,1092.13l-17.82,88.6-108.64-106.41h0l126.46,17.8Z"/>
      <polygon class="cls-111" points="322.75 1073.88 308.62 1057.88 190.59 1057.88 108.41 1092.13 322.75 1145.47 322.75 1073.88"/>
      <polygon class="cls-100" points="322.75 1057.88 308.62 1057.88 322.75 1073.88 322.75 1057.88"/>
    </g>
  </g>
  <g class="cls-62">
    <g>
      <polygon class="cls-77" points="322.9 84.82 402.45 117.9 391.29 84.82 322.9 84.82"/>
      <polygon class="cls-102" points="391.29 84.82 402.45 117.9 442.61 84.82 391.29 84.82"/>
      <polygon class="cls-28" points="995.61 84.82 991.31 87.36 1143.37 99.34 1145.64 84.82 995.61 84.82"/>
      <polygon class="cls-105" points="35.14 86.01 35.14 230.39 118.98 268.35 35.14 86.01"/>
      <polygon class="cls-29" points="35.14 86.01 35.14 86.93 118.98 268.35 35.14 86.01"/>
      <polygon class="cls-6" points="173.01 84.82 118.98 268.35 222.64 245.75 197.9 84.82 173.01 84.82"/>
      <polygon class="cls-90" points="35.14 84.82 35.14 86.93 118.98 268.35 173.01 84.82 35.14 84.82"/>
      <polygon class="cls-5" points="197.9 84.82 222.64 245.75 290.74 184.89 225.54 84.82 197.9 84.82"/>
      <polygon class="cls-134" points="225.54 84.82 290.74 184.89 402.45 117.9 322.9 84.82 225.54 84.82"/>
      <polygon class="cls-97" points="432.42 84.82 290.74 184.89 550.23 231.71 515.78 84.82 432.42 84.82"/>
      <polygon class="cls-144" points="432.42 84.82 290.74 184.89 402.45 117.9 442.61 84.82 432.42 84.82"/>
      <polygon class="cls-108" points="515.78 84.82 550.23 231.71 639.18 162.38 557.28 84.82 515.78 84.82"/>
      <polygon class="cls-93" points="557.28 84.82 639.18 162.38 578 84.82 557.28 84.82"/>
      <polygon class="cls-117" points="698.96 84.82 639.18 162.38 775.05 228.64 753.44 84.82 698.96 84.82"/>
      <polygon class="cls-66" points="578 84.82 639.18 162.38 698.96 84.82 578 84.82"/>
      <polygon class="cls-137" points="753.44 84.82 775.05 228.64 945.7 158.11 834.4 84.82 753.44 84.82"/>
      <polygon class="cls-67" points="834.4 84.82 945.7 158.11 958.16 84.82 834.4 84.82"/>
      <path class="cls-25" d="M991.31,87.36l-45.61,70.74,113.61,37.81-68-108.55h0Z"/>
      <polygon class="cls-44" points="958.16 84.82 945.7 158.11 991.31 87.36 990.5 84.82 958.16 84.82"/>
      <path class="cls-31" d="M991.31,87.36l247.98,105.92-179.98,2.63-68-108.55h0Z"/>
      <path class="cls-8" d="M991.31,87.36l247.98,105.92-95.92-93.94h0l-152.06-11.97Z"/>
      <polygon class="cls-92" points="35.14 400.9 118.98 268.35 35.14 306.1 35.14 400.9"/>
      <polygon class="cls-51" points="35.14 230.39 35.14 306.1 118.98 268.35 35.14 230.39"/>
      <polygon class="cls-138" points="35.14 414.61 277.45 326.05 118.98 268.35 118.98 268.35 35.14 400.9 35.14 414.61"/>
      <path class="cls-130" d="M118.98,268.35l158.46,57.7-54.81-80.3h0l-103.65,22.6Z"/>
      <path class="cls-73" d="M290.74,184.89l-13.29,141.16,83.93,59.37-70.64-200.53h0Z"/>
      <path class="cls-61" d="M290.74,184.89l-13.29,141.16-54.81-80.3h0l68.1-60.86Z"/>
      <path class="cls-50" d="M290.74,184.89l258.95,228.15-188.31-27.62-70.64-200.53h0Z"/>
      <path class="cls-116" d="M290.74,184.89l258.95,228.15.54-181.33h0l-259.49-46.82Z"/>
      <path class="cls-33" d="M639.18,162.39l-89.49,250.65,129.95-114.38-40.46-136.28h0Z"/>
      <path class="cls-64" d="M639.18,162.39l-89.49,250.65.54-181.33h0l88.95-69.33Z"/>
      <path class="cls-37" d="M639.18,162.39l167.15,178.01-126.69-41.73-40.46-136.28h0Z"/>
      <path class="cls-30" d="M639.18,162.39l167.15,178.01-31.28-111.75h0l-135.87-66.25Z"/>
      <path class="cls-132" d="M945.7,158.11l-139.37,182.28,126.39-18.39,12.98-163.89h0Z"/>
      <path class="cls-12" d="M945.7,158.11l-139.37,182.28-31.28-111.75h0l170.65-70.53Z"/>
      <path class="cls-24" d="M945.7,158.11l117.58,210.95-130.56-47.06,12.98-163.89h0Z"/>
      <path class="cls-57" d="M945.7,158.11l117.58,210.95-3.97-173.14h0l-113.61-37.81Z"/>
      <path class="cls-119" d="M1239.29,193.28l-176.01,175.78,165.9,24.31,10.11-200.09h0Z"/>
      <path class="cls-13" d="M1239.29,193.28l-176.01,175.78-3.97-173.14h0l179.98-2.63Z"/>
      <polygon class="cls-43" points="35.14 410.78 35.14 479.48 122.05 452.87 35.14 410.78"/>
      <polygon class="cls-128" points="35.14 410.78 35.14 422.66 122.05 452.87 35.14 410.78"/>
      <path class="cls-59" d="M277.45,326.05l-155.4,126.82,121.52,13.03,33.88-139.86h0Z"/>
      <polygon class="cls-99" points="35.14 414.61 35.14 422.66 122.05 452.87 277.45 326.05 35.14 414.61"/>
      <path class="cls-76" d="M277.45,326.05l132.9,159-166.79-19.14,33.88-139.86h0Z"/>
      <path class="cls-39" d="M277.45,326.05l132.9,159-48.97-99.63h0l-83.93-59.37Z"/>
      <path class="cls-11" d="M549.69,413.04l-139.34,72.01,119,63.34,20.34-135.35h0Z"/>
      <path class="cls-70" d="M549.69,413.04l-139.34,72.01-48.97-99.63h0l188.31,27.62Z"/>
      <path class="cls-35" d="M549.69,413.04l97.05,50.7-117.39,84.64,20.34-135.35h0Z"/>
      <path class="cls-23" d="M549.69,413.04l97.05,50.7,32.9-165.08h0l-129.95,114.38Z"/>
      <path class="cls-79" d="M806.33,340.39l-159.6,123.35,108.71,59.32,50.88-182.67h0Z"/>
      <path class="cls-42" d="M806.33,340.39l-159.6,123.35,32.9-165.08h0l126.69,41.73Z"/>
      <path class="cls-104" d="M806.33,340.39l106.88,105.47-157.76,77.19,50.88-182.67h0Z"/>
      <path class="cls-16" d="M806.33,340.39l106.88,105.47,19.52-123.87h0l-126.39,18.39Z"/>
      <path class="cls-3" d="M1063.28,369.06l-150.08,76.8,127.64,11.11,22.44-87.92h0Z"/>
      <path class="cls-91" d="M1063.28,369.06l-150.08,76.8,19.52-123.87h0l130.56,47.06Z"/>
      <path class="cls-140" d="M1063.28,369.06l53.31,161.03-75.75-73.11,22.44-87.92h0Z"/>
      <path class="cls-22" d="M1058.54,369.06l54.84,171.87,115.81-145.92h0l-170.65-25.95Z"/>
      <polygon class="cls-9" points="35.14 571.55 35.14 663.99 122.05 452.87 122.05 452.87 35.14 571.55"/>
      <polygon class="cls-78" points="35.14 479.48 35.14 571.55 122.05 452.87 35.14 479.48"/>
      <polygon class="cls-95" points="35.14 686.17 285.32 634.74 122.05 452.87 122.05 452.87 35.14 663.99 35.14 686.17"/>
      <path class="cls-32" d="M122.05,452.87l163.27,181.86-41.75-168.83h0l-121.52-13.04Z"/>
      <path class="cls-10" d="M410.35,485.05l-125.04,149.69,72.16-18.84,52.88-130.85h0Z"/>
      <path class="cls-15" d="M410.35,485.05l-125.04,149.69-41.75-168.83h0l166.79,19.14Z"/>
      <path class="cls-56" d="M410.35,485.05l89.24,111.76-142.12,19.09,52.88-130.85h0Z"/>
      <path class="cls-47" d="M410.35,485.05l89.24,111.76,29.76-48.42h0l-119-63.34Z"/>
      <path class="cls-55" d="M646.73,463.74l-147.14,133.07,111.84,66.56,35.3-199.63h0Z"/>
      <path class="cls-45" d="M646.73,463.74l-147.14,133.07,29.76-48.42h0l117.39-84.64Z"/>
      <path class="cls-34" d="M646.73,463.74l188.55,162.56-223.85,37.07,35.3-199.63h0Z"/>
      <path class="cls-53" d="M646.73,463.74l188.55,162.56-79.84-103.25h0l-108.71-59.32Z"/>
      <path class="cls-80" d="M913.2,445.87l-77.92,180.44,62.29,73.33,15.63-253.77h0Z"/>
      <path class="cls-75" d="M913.2,445.87l-77.92,180.44-79.84-103.25h0l157.76-77.19Z"/>
      <path class="cls-74" d="M913.2,445.87l106.29,224.46-121.92,29.3,15.63-253.77h0Z"/>
      <path class="cls-110" d="M913.2,445.87l106.29,224.46,21.35-213.35h0l-127.64-11.11Z"/>
      <path class="cls-123" d="M1116.59,530.09l-97.1,140.24,137.59-78.87-40.49-61.37h0Z"/>
      <path class="cls-26" d="M1116.59,530.09l-97.1,140.24,21.35-213.35h0l75.75,73.11Z"/>
      <polygon class="cls-112" points="35.14 640.14 35.14 774.54 141.77 723.02 35.14 640.14"/>
      <polygon class="cls-124" points="35.14 640.14 35.14 691.2 141.77 723.02 35.14 640.14"/>
      <path class="cls-121" d="M285.31,634.74l-143.55,88.29,17.56-5.07,125.99-83.22h0Z"/>
      <polygon class="cls-131" points="35.14 686.17 35.14 691.2 141.77 723.02 285.31 634.74 35.14 686.17"/>
      <path class="cls-21" d="M285.31,634.74l112.42,159.66-238.41-76.44,125.99-83.22h0Z"/>
      <path class="cls-87" d="M285.31,634.74l112.42,159.66-40.26-178.5h0l-72.16,18.84Z"/>
      <path class="cls-38" d="M499.59,596.81l-101.86,197.59,83.84-52.41,18.02-145.18h0Z"/>
      <path class="cls-72" d="M499.59,596.81l-101.86,197.59-40.26-178.5h0l142.12-19.09Z"/>
      <path class="cls-65" d="M499.59,596.81l164.97,226.95-182.99-81.78,18.02-145.18h0Z"/>
      <path class="cls-71" d="M499.59,596.81l164.97,226.95-53.13-160.39h0l-111.84-66.56Z"/>
      <path class="cls-17" d="M835.28,626.31l-170.72,197.46,60.93-48.87,109.79-148.59h0Z"/>
      <path class="cls-69" d="M835.28,626.31l-170.72,197.46-53.13-160.39h0l223.85-37.06Z"/>
      <path class="cls-18" d="M835.28,626.31l24.79,187.24-134.58-38.65,109.79-148.59h0Z"/>
      <path class="cls-58" d="M835.28,626.31l24.79,187.24,37.5-113.91h0l-62.29-73.32Z"/>
      <path class="cls-46" d="M1019.49,670.33l-159.42,143.22,244.78-38.45-85.36-104.76h0Z"/>
      <path class="cls-122" d="M1019.49,670.33l-159.42,143.22,37.5-113.91h0l121.92-29.3Z"/>
      <path class="cls-143" d="M1019.49,670.33l92.06,129.63-6.7-24.86-85.36-104.76h0Z"/>
      <path class="cls-20" d="M1019.49,670.33l92.06,129.63,45.53-208.49h0l-137.59,78.87Z"/>
      <polygon class="cls-109" points="141.77 723.02 35.14 798.94 35.14 917.49 80.88 928.03 141.77 723.02 141.77 723.02"/>
      <polygon class="cls-129" points="35.14 774.54 35.14 798.94 141.77 723.02 35.14 774.54"/>
      <path class="cls-83" d="M141.77,723.02l77.79,212.01-138.68-7,60.88-205.01h0Z"/>
      <path class="cls-103" d="M141.77,723.02l77.79,212.01-60.24-217.08h0l-17.56,5.07Z"/>
      <path class="cls-114" d="M397.73,794.39l-178.17,140.64,200.84-7.24-22.67-133.41h0Z"/>
      <path class="cls-94" d="M397.73,794.39l-178.17,140.64-60.24-217.08h0l238.41,76.44Z"/>
      <path class="cls-7" d="M397.73,794.39l90.31,72.08-67.64,61.33-22.67-133.41h0Z"/>
      <path class="cls-107" d="M397.73,794.39l90.31,72.08-6.47-124.49h0l-83.84,52.41Z"/>
      <path class="cls-54" d="M664.57,823.76l-176.53,42.71,95.72,81.78,80.81-124.49h0Z"/>
      <path class="cls-86" d="M664.57,823.76l-176.53,42.71-6.47-124.49h0l183,81.78Z"/>
      <path class="cls-135" d="M664.57,823.76l85.95,144.6-166.76-20.11,80.81-124.49h0Z"/>
      <path class="cls-113" d="M664.57,823.76l85.95,144.6-25.02-193.47h0l-60.93,48.87Z"/>
      <path class="cls-40" d="M860.07,813.54l-109.55,154.82,178.06-62.85-68.51-91.97h0Z"/>
      <path class="cls-125" d="M860.07,813.54l-109.55,154.82-25.02-193.47h0l134.58,38.65Z"/>
      <path class="cls-141" d="M860.07,813.54l151.25,56.52-82.74,35.45-68.51-91.97h0Z"/>
      <path class="cls-36" d="M860.07,813.54l151.25,56.52,93.53-94.97h0l-244.78,38.45Z"/>
      <path class="cls-127" d="M1111.55,799.95l-100.23,70.11,185.12,33.02-84.9-103.13h0Z"/>
      <path class="cls-2" d="M1111.55,799.95l-100.23,70.11,93.53-94.97h0l6.7,24.86Z"/>
      <polygon class="cls-118" points="35.14 1024.23 89.25 1024.23 80.88 928.03 35.14 917.49 35.14 1024.23"/>
      <polygon class="cls-106" points="231.11 1024.23 219.56 935.04 219.56 935.04 148.41 1024.23 231.11 1024.23"/>
      <polygon class="cls-85" points="148.41 1024.23 219.56 935.04 80.88 928.03 89.25 1024.23 148.41 1024.23"/>
      <polygon class="cls-41" points="349.66 1024.23 405.28 999.17 219.56 935.04 231.11 1024.23 349.66 1024.23"/>
      <path class="cls-145" d="M219.56,935.04l185.72,64.14,15.12-71.37h0l-200.84,7.24Z"/>
      <polygon class="cls-88" points="503.25 1024.23 488.04 866.47 488.04 866.47 405.28 999.17 450.66 1024.23 503.25 1024.23"/>
      <path class="cls-52" d="M488.04,866.47l-82.76,132.7,15.12-71.37h0l67.64-61.33Z"/>
      <polygon class="cls-142" points="615.74 1024.23 488.04 866.47 503.25 1024.23 615.74 1024.23"/>
      <polygon class="cls-120" points="631.19 1024.23 583.76 948.25 488.04 866.47 615.74 1024.23 631.19 1024.23"/>
      <polygon class="cls-89" points="783.52 1024.23 802.08 1008.78 750.52 968.36 723.55 1024.23 783.52 1024.23"/>
      <polygon class="cls-82" points="723.55 1024.23 750.52 968.36 583.76 948.25 631.19 1024.23 723.55 1024.23"/>
      <polygon class="cls-133" points="844.83 1024.23 862.95 1024.23 750.52 968.36 750.52 968.36 802.08 1008.78 844.83 1024.23"/>
      <polygon class="cls-81" points="914.21 1024.23 928.58 905.51 750.52 968.36 862.95 1024.23 914.21 1024.23"/>
      <polygon class="cls-1" points="1013.2 1024.23 1103.88 1002.85 1011.33 870.06 924.79 1024.23 1013.2 1024.23"/>
      <polygon class="cls-68" points="924.79 1024.23 1011.33 870.06 928.58 905.51 914.21 1024.23 924.79 1024.23"/>
      <path class="cls-101" d="M1011.33,870.06l171.28,148.88-78.73-16.09-92.55-132.79h0Z"/>
      <path class="cls-84" d="M1011.33,870.06l171.28,148.88,13.84-115.86h0l-185.12-33.02Z"/>
      <polygon class="cls-4" points="395.8 1024.23 405.28 999.17 405.28 999.17 387.94 1024.23 395.8 1024.23"/>
      <polygon class="cls-115" points="387.94 1024.23 405.28 999.17 349.66 1024.23 387.94 1024.23"/>
      <polygon class="cls-27" points="409.07 1024.23 405.28 999.18 395.8 1024.23 409.07 1024.23"/>
      <polygon class="cls-96" points="450.66 1024.23 405.28 999.17 409.07 1024.23 450.66 1024.23"/>
      <polygon class="cls-126" points="801.58 1024.23 802.08 1008.78 783.52 1024.23 801.58 1024.23"/>
      <polygon class="cls-98" points="844.82 1024.23 802.08 1008.78 801.58 1024.23 844.82 1024.23"/>
      <polygon class="cls-14" points="1098.65 1024.23 1103.88 1002.85 1013.2 1024.23 1098.65 1024.23"/>
    </g>
  </g>
</svg>