<?xml version="1.0" encoding="UTF-8"?>
<svg id="Layer_1" data-name="Layer 1" xmlns="http://www.w3.org/2000/svg" xmlns:xlink="http://www.w3.org/1999/xlink" viewBox="0 0 1080 1080">
  <defs>
    <style>
      .cls-1 {
        fill: url(#linear-gradient-132);
      }

      .cls-2 {
        fill: url(#linear-gradient-118);
      }

      .cls-3 {
        fill: url(#linear-gradient-61);
      }

      .cls-4 {
        fill: url(#linear-gradient-136);
      }

      .cls-5 {
        fill: url(#linear-gradient-15);
      }

      .cls-6 {
        fill: url(#linear-gradient-13);
      }

      .cls-7 {
        fill: url(#linear-gradient-107);
      }

      .cls-8 {
        fill: url(#linear-gradient-28);
      }

      .cls-9 {
        fill: url(#linear-gradient-65);
      }

      .cls-10 {
        fill: url(#linear-gradient-145);
      }

      .cls-11 {
        fill: url(#linear-gradient-69);
      }

      .cls-12 {
        fill: url(#linear-gradient-53);
      }

      .cls-13 {
        fill: url(#linear-gradient-42);
      }

      .cls-14 {
        fill: url(#linear-gradient-46);
      }

      .cls-15 {
        fill: url(#linear-gradient-155);
      }

      .cls-16 {
        fill: url(#linear-gradient-142);
      }

      .cls-17 {
        fill: url(#linear-gradient-70);
      }

      .cls-18 {
        fill: url(#linear-gradient-60);
      }

      .cls-19 {
        fill: url(#linear-gradient-93);
      }

      .cls-20 {
        fill: url(#linear-gradient-95);
      }

      .cls-21 {
        fill: url(#linear-gradient-2);
      }

      .cls-22 {
        fill: url(#linear-gradient-100);
      }

      .cls-23 {
        fill: url(#linear-gradient-150);
      }

      .cls-24 {
        fill: url(#linear-gradient-87);
      }

      .cls-25 {
        fill: url(#linear-gradient-64);
      }

      .cls-26 {
        fill: url(#linear-gradient-56);
      }

      .cls-27 {
        fill: url(#linear-gradient-43);
      }

      .cls-28 {
        fill: url(#linear-gradient-25);
      }

      .cls-29 {
        fill: url(#linear-gradient-82);
      }

      .cls-30 {
        fill: url(#linear-gradient-138);
      }

      .cls-31 {
        fill: url(#linear-gradient-10);
      }

      .cls-32 {
        fill: url(#linear-gradient-12);
      }

      .cls-33 {
        fill: url(#linear-gradient-40);
      }

      .cls-34 {
        fill: url(#linear-gradient-27);
      }

      .cls-35 {
        fill: url(#linear-gradient-68);
      }

      .cls-36 {
        fill: url(#linear-gradient-37);
      }

      .cls-37 {
        fill: url(#linear-gradient-75);
      }

      .cls-38 {
        fill: url(#linear-gradient-55);
      }

      .cls-39 {
        fill: url(#linear-gradient-116);
      }

      .cls-40 {
        fill: url(#linear-gradient-39);
      }

      .cls-41 {
        fill: url(#linear-gradient-89);
      }

      .cls-42 {
        fill: url(#linear-gradient-52);
      }

      .cls-43 {
        fill: url(#linear-gradient-113);
      }

      .cls-44 {
        fill: url(#linear-gradient-122);
      }

      .cls-45 {
        fill: url(#linear-gradient-58);
      }

      .cls-46 {
        fill: url(#linear-gradient-152);
      }

      .cls-47 {
        fill: url(#linear-gradient-47);
      }

      .cls-48 {
        fill: url(#linear-gradient-26);
      }

      .cls-49 {
        fill: url(#linear-gradient-74);
      }

      .cls-50 {
        fill: url(#linear-gradient-146);
      }

      .cls-51 {
        fill: url(#linear-gradient-97);
      }

      .cls-52 {
        fill: url(#linear-gradient-72);
      }

      .cls-53 {
        fill: none;
      }

      .cls-54 {
        fill: url(#linear-gradient-4);
      }

      .cls-55 {
        fill: url(#linear-gradient-35);
      }

      .cls-56 {
        fill: url(#linear-gradient-30);
      }

      .cls-57 {
        fill: url(#linear-gradient-125);
      }

      .cls-58 {
        fill: url(#linear-gradient-76);
      }

      .cls-59 {
        fill: url(#linear-gradient-143);
      }

      .cls-60 {
        fill: url(#linear-gradient-109);
      }

      .cls-61 {
        fill: url(#linear-gradient-73);
      }

      .cls-62 {
        fill: url(#linear-gradient-71);
      }

      .cls-63 {
        fill: url(#linear-gradient-44);
      }

      .cls-64 {
        fill: url(#linear-gradient-144);
      }

      .cls-65 {
        fill: url(#linear-gradient-96);
      }

      .cls-66 {
        fill: url(#linear-gradient-49);
      }

      .cls-67 {
        fill: url(#linear-gradient-3);
      }

      .cls-68 {
        fill: url(#linear-gradient-34);
      }

      .cls-69 {
        clip-path: url(#clippath-1);
      }

      .cls-70 {
        fill: url(#linear-gradient-5);
      }

      .cls-71 {
        fill: url(#linear-gradient-38);
      }

      .cls-72 {
        fill: url(#linear-gradient-91);
      }

      .cls-73 {
        fill: url(#linear-gradient-149);
      }

      .cls-74 {
        fill: url(#linear-gradient-22);
      }

      .cls-75 {
        fill: url(#linear-gradient-24);
      }

      .cls-76 {
        fill: url(#linear-gradient-133);
      }

      .cls-77 {
        fill: url(#linear-gradient-94);
      }

      .cls-78 {
        fill: url(#linear-gradient-54);
      }

      .cls-79 {
        fill: url(#linear-gradient-147);
      }

      .cls-80 {
        fill: url(#linear-gradient-92);
      }

      .cls-81 {
        fill: url(#linear-gradient-90);
      }

      .cls-82 {
        fill: url(#linear-gradient-33);
      }

      .cls-83 {
        fill: url(#linear-gradient-79);
      }

      .cls-84 {
        fill: url(#linear-gradient-78);
      }

      .cls-85 {
        fill: url(#linear-gradient-51);
      }

      .cls-86 {
        fill: url(#linear-gradient-8);
      }

      .cls-87 {
        fill: url(#linear-gradient-66);
      }

      .cls-88 {
        fill: url(#linear-gradient-57);
      }

      .cls-89 {
        fill: url(#linear-gradient-77);
      }

      .cls-90 {
        fill: url(#linear-gradient-131);
      }

      .cls-91 {
        fill: url(#linear-gradient-129);
      }

      .cls-92 {
        fill: url(#linear-gradient-103);
      }

      .cls-93 {
        fill: url(#linear-gradient-135);
      }

      .cls-94 {
        fill: url(#linear-gradient-121);
      }

      .cls-95 {
        fill: url(#linear-gradient-110);
      }

      .cls-96 {
        fill: url(#linear-gradient-88);
      }

      .cls-97 {
        fill: url(#linear-gradient-124);
      }

      .cls-98 {
        fill: url(#linear-gradient-128);
      }

      .cls-99 {
        fill: url(#linear-gradient-14);
      }

      .cls-100 {
        fill: url(#linear-gradient-62);
      }

      .cls-101 {
        fill: url(#linear-gradient-156);
      }

      .cls-102 {
        fill: url(#linear-gradient-29);
      }

      .cls-103 {
        fill: url(#linear-gradient-20);
      }

      .cls-104 {
        fill: url(#linear-gradient-106);
      }

      .cls-105 {
        fill: url(#linear-gradient-67);
      }

      .cls-106 {
        fill: url(#linear-gradient-139);
      }

      .cls-107 {
        fill: url(#linear-gradient-148);
      }

      .cls-108 {
        fill: url(#linear-gradient-17);
      }

      .cls-109 {
        fill: url(#linear-gradient-141);
      }

      .cls-110 {
        fill: url(#linear-gradient-50);
      }

      .cls-111 {
        fill: url(#linear-gradient-7);
      }

      .cls-112 {
        fill: url(#linear-gradient-134);
      }

      .cls-113 {
        fill: url(#linear-gradient-9);
      }

      .cls-114 {
        fill: url(#linear-gradient-104);
      }

      .cls-115 {
        fill: url(#linear-gradient-59);
      }

      .cls-116 {
        fill: url(#linear-gradient-11);
      }

      .cls-117 {
        fill: url(#linear-gradient-120);
      }

      .cls-118 {
        fill: url(#linear-gradient-108);
      }

      .cls-119 {
        fill: url(#linear-gradient-19);
      }

      .cls-120 {
        fill: url(#linear-gradient-101);
      }

      .cls-121 {
        fill: url(#linear-gradient-80);
      }

      .cls-122 {
        fill: url(#linear-gradient-6);
      }

      .cls-123 {
        fill: url(#linear-gradient-83);
      }

      .cls-124 {
        fill: url(#linear-gradient-112);
      }

      .cls-125 {
        fill: url(#linear-gradient-154);
      }

      .cls-126 {
        fill: url(#linear-gradient-105);
      }

      .cls-127 {
        fill: url(#linear-gradient-137);
      }

      .cls-128 {
        fill: url(#linear-gradient-36);
      }

      .cls-129 {
        fill: url(#linear-gradient-21);
      }

      .cls-130 {
        fill: url(#linear-gradient-119);
      }

      .cls-131 {
        fill: url(#linear-gradient-45);
      }

      .cls-132 {
        fill: url(#linear-gradient-127);
      }

      .cls-133 {
        fill: url(#linear-gradient-85);
      }

      .cls-134 {
        fill: url(#linear-gradient-98);
      }

      .cls-135 {
        fill: url(#linear-gradient-81);
      }

      .cls-136 {
        fill: url(#linear-gradient-151);
      }

      .cls-137 {
        fill: url(#linear-gradient-84);
      }

      .cls-138 {
        fill: url(#linear-gradient-114);
      }

      .cls-139 {
        fill: url(#linear-gradient-140);
      }

      .cls-140 {
        fill: url(#linear-gradient-153);
      }

      .cls-141 {
        fill: url(#linear-gradient-117);
      }

      .cls-142 {
        fill: url(#linear-gradient-48);
      }

      .cls-143 {
        fill: url(#linear-gradient-102);
      }

      .cls-144 {
        fill: url(#linear-gradient-32);
      }

      .cls-145 {
        fill: url(#linear-gradient-86);
      }

      .cls-146 {
        fill: url(#linear-gradient-41);
      }

      .cls-147 {
        fill: url(#linear-gradient-130);
      }

      .cls-148 {
        fill: url(#linear-gradient-16);
      }

      .cls-149 {
        fill: url(#linear-gradient-111);
      }

      .cls-150 {
        fill: url(#linear-gradient);
      }

      .cls-151 {
        fill: url(#linear-gradient-23);
      }

      .cls-152 {
        fill: url(#linear-gradient-31);
      }

      .cls-153 {
        clip-path: url(#clippath);
      }

      .cls-154 {
        fill: url(#linear-gradient-63);
      }

      .cls-155 {
        fill: url(#linear-gradient-115);
      }

      .cls-156 {
        fill: url(#linear-gradient-126);
      }

      .cls-157 {
        fill: url(#linear-gradient-99);
      }

      .cls-158 {
        fill: url(#linear-gradient-18);
      }

      .cls-159 {
        fill: url(#linear-gradient-123);
      }
    </style>
    <clipPath id="clippath">
      <path class="cls-53" d="M752.32,364.13h-194.16l3.87-44.17-46.13-24.05s-170.12-14.42-190.3-14.42-63.43,20.18-83.62,23.07c-9.86,1.38-32.06,11.71-52.19,21.97-21.16,10.67-40.08,21.28-40.08,21.28,0,0-14.41,51.9,2.88,54.78,17.3,2.88,57.67,28.83,69.2,46.13,11.53,17.3,37.48,92.27,63.43,95.15,25.95,2.88,43.25,63.43,60.55,77.85,17.3,14.42,40.37,60.55,40.37,60.55l54.78,37.48,17.3,74.97,43.25,43.25,14.42,66.32s11.65-1.96,30.04-1.84c-4.09-8.13-6.22-15.51-3.4-16.9,4.38-2.13,15.92.75,19.49,4.32,1.73,1.73,5.94.92,9.75-.86l-8.13-19.44c-3.57-2.36-6.46-4.38-6.69-5.65-.23-1.38-1.27-7.9-2.08-15.23v-.06c-1.33-12.05-2.19-26.35,1.38-23.64,5.77,4.33,11.53,23.07,20.18,25.2,8.65,2.19,14.42,18.05,22.38,15.92,7.9-2.19,21.57-13.73,15.8-22.38-5.77-8.65-35.29-12.97-30.22-21.62,5.02-8.65,22.32-11.53,27.34-5.02,5.07,6.46,20.93,13.67,33.91,4.27,12.98-9.34,52.59-22.32,54.78-26.64,2.19-4.32,7.96-19.49,27.39-27.39,19.43-7.9,33.16-46.88,48.27-47.57,15.17-.69,15.17,5.77,22.38-2.88,7.21-8.65,26.64-16.61,27.39-23.07.75-6.46,2.13-27.39,5.77-38.93,3.64-11.53,27.39-60.55,64.88-82.87,10.61-6.34,24.62-10.9,39.44-14.25l-183.61-193.65Z"/>
    </clipPath>
    <linearGradient id="linear-gradient" x1="-71.2" y1="1432.46" x2="148.81" y2="1341.84" gradientTransform="translate(0 1524.36) scale(1 -1)" gradientUnits="userSpaceOnUse">
      <stop offset="0" stop-color="#f5c133"/>
      <stop offset="1" stop-color="#e08524"/>
    </linearGradient>
    <linearGradient id="linear-gradient-2" x1="238.04" y1="1428.03" x2="132.99" y2="1342.35" xlink:href="#linear-gradient"/>
    <linearGradient id="linear-gradient-3" x1="751.35" y1="1368.18" x2="908.13" y2="1355.96" xlink:href="#linear-gradient"/>
    <linearGradient id="linear-gradient-4" x1="964.95" y1="1339.39" x2="983.14" y2="1454.92" xlink:href="#linear-gradient"/>
    <linearGradient id="linear-gradient-5" x1="1062.68" y1="1401.62" x2="1067.73" y2="1505.8" xlink:href="#linear-gradient"/>
    <linearGradient id="linear-gradient-6" x1="-2.71" y1="1203.53" x2="-37.34" y2="1426.67" xlink:href="#linear-gradient"/>
    <linearGradient id="linear-gradient-7" x1="-2.51" y1="1313.37" x2="112.52" y2="1381.69" xlink:href="#linear-gradient"/>
    <linearGradient id="linear-gradient-8" x1="40.95" y1="1330.07" x2="308.57" y2="1282.25" xlink:href="#linear-gradient"/>
    <linearGradient id="linear-gradient-9" x1="242.57" y1="1422.42" x2="137.57" y2="1336.77" xlink:href="#linear-gradient"/>
    <linearGradient id="linear-gradient-10" x1="208.68" y1="1372.98" x2="348.61" y2="1241.74" xlink:href="#linear-gradient"/>
    <linearGradient id="linear-gradient-11" x1="236.15" y1="1395.19" x2="303.76" y2="1354.76" xlink:href="#linear-gradient"/>
    <linearGradient id="linear-gradient-12" x1="464.5" y1="1205.51" x2="432.78" y2="1414.64" xlink:href="#linear-gradient"/>
    <linearGradient id="linear-gradient-13" x1="458" y1="1454.25" x2="348.69" y2="1313.79" xlink:href="#linear-gradient"/>
    <linearGradient id="linear-gradient-14" x1="619.18" y1="1228.98" x2="587.44" y2="1438.21" xlink:href="#linear-gradient"/>
    <linearGradient id="linear-gradient-15" x1="641.71" y1="1298.48" x2="666.41" y2="1442.4" xlink:href="#linear-gradient"/>
    <linearGradient id="linear-gradient-16" x1="716.83" y1="1327.55" x2="834.08" y2="1288.91" xlink:href="#linear-gradient"/>
    <linearGradient id="linear-gradient-17" x1="738.33" y1="1368.88" x2="690.98" y2="1296.14" xlink:href="#linear-gradient"/>
    <linearGradient id="linear-gradient-18" x1="1005.62" y1="1308" x2="820.07" y2="1305.31" xlink:href="#linear-gradient"/>
    <linearGradient id="linear-gradient-19" x1="972" y1="1216.05" x2="872.82" y2="1312.25" xlink:href="#linear-gradient"/>
    <linearGradient id="linear-gradient-20" x1="1026.09" y1="1170.71" x2="1010.82" y2="1331.09" xlink:href="#linear-gradient"/>
    <linearGradient id="linear-gradient-21" x1="1017" y1="1291.63" x2="901.87" y2="1307.68" xlink:href="#linear-gradient"/>
    <linearGradient id="linear-gradient-22" x1="1132.24" y1="1180.82" x2="1116.97" y2="1341.2" xlink:href="#linear-gradient"/>
    <linearGradient id="linear-gradient-23" x1="1045.37" y1="1277.2" x2="1198.74" y2="1340.51" xlink:href="#linear-gradient"/>
    <linearGradient id="linear-gradient-24" x1="-177.26" y1="1093.51" x2="-14.08" y2="1034.68" xlink:href="#linear-gradient"/>
    <linearGradient id="linear-gradient-25" x1="-26.52" y1="1086.22" x2="-83.23" y2="1168.48" xlink:href="#linear-gradient"/>
    <linearGradient id="linear-gradient-26" x1="50.79" y1="1166.72" x2="137.89" y2="1105.71" xlink:href="#linear-gradient"/>
    <linearGradient id="linear-gradient-27" x1="61.57" y1="1222.81" x2="-9.27" y2="1160.12" xlink:href="#linear-gradient"/>
    <linearGradient id="linear-gradient-28" x1="309.42" y1="1121.18" x2="115.06" y2="1149.42" xlink:href="#linear-gradient"/>
    <linearGradient id="linear-gradient-29" x1="161.61" y1="1025.4" x2="162.17" y2="1212.36" xlink:href="#linear-gradient"/>
    <linearGradient id="linear-gradient-30" x1="352.01" y1="1119.41" x2="309.85" y2="1260.08" xlink:href="#linear-gradient"/>
    <linearGradient id="linear-gradient-31" x1="432.99" y1="1224.76" x2="340.67" y2="1153.5" xlink:href="#linear-gradient"/>
    <linearGradient id="linear-gradient-32" x1="578.82" y1="1157.43" x2="447.86" y2="1200.15" xlink:href="#linear-gradient"/>
    <linearGradient id="linear-gradient-33" x1="504.42" y1="1084.17" x2="471.92" y2="1199.15" xlink:href="#linear-gradient"/>
    <linearGradient id="linear-gradient-34" x1="548.25" y1="1181.81" x2="678.76" y2="1200.62" xlink:href="#linear-gradient"/>
    <linearGradient id="linear-gradient-35" x1="651.18" y1="1125.65" x2="618.52" y2="1241.18" xlink:href="#linear-gradient"/>
    <linearGradient id="linear-gradient-36" x1="852.55" y1="1147.6" x2="717.43" y2="1195.84" xlink:href="#linear-gradient"/>
    <linearGradient id="linear-gradient-37" x1="739.44" y1="1307.92" x2="861.57" y2="1090.94" xlink:href="#linear-gradient"/>
    <linearGradient id="linear-gradient-38" x1="910.08" y1="1049.66" x2="920.6" y2="1255.95" xlink:href="#linear-gradient"/>
    <linearGradient id="linear-gradient-39" x1="961.68" y1="1296.82" x2="779.34" y2="1116.49" xlink:href="#linear-gradient"/>
    <linearGradient id="linear-gradient-40" x1="991.3" y1="1250.09" x2="1006.54" y2="1093.99" xlink:href="#linear-gradient"/>
    <linearGradient id="linear-gradient-41" x1="998.29" y1="1100.47" x2="1014.7" y2="1176.84" xlink:href="#linear-gradient"/>
    <linearGradient id="linear-gradient-42" x1="1021" y1="1156.33" x2="1221.57" y2="1158.07" xlink:href="#linear-gradient"/>
    <linearGradient id="linear-gradient-43" x1="1102.56" y1="1078.06" x2="1118.94" y2="1154.24" xlink:href="#linear-gradient"/>
    <linearGradient id="linear-gradient-44" x1="43.11" y1="1079.61" x2="-117.73" y2="949.62" xlink:href="#linear-gradient"/>
    <linearGradient id="linear-gradient-45" x1="-117.09" y1="1067.12" x2="-218.19" y2="1101.92" xlink:href="#linear-gradient"/>
    <linearGradient id="linear-gradient-46" x1="160.11" y1="1023.99" x2="-11.87" y2="1043.53" xlink:href="#linear-gradient"/>
    <linearGradient id="linear-gradient-47" x1="129.66" y1="939.77" x2="78.82" y2="1042.19" xlink:href="#linear-gradient"/>
    <linearGradient id="linear-gradient-48" x1="182.59" y1="1009.18" x2="305.54" y2="944.38" xlink:href="#linear-gradient"/>
    <linearGradient id="linear-gradient-49" x1="269.67" y1="1075.36" x2="125.72" y2="1001.69" xlink:href="#linear-gradient"/>
    <linearGradient id="linear-gradient-50" x1="264.76" y1="965.68" x2="365.02" y2="913.8" xlink:href="#linear-gradient"/>
    <linearGradient id="linear-gradient-51" x1="342.37" y1="983.41" x2="376.61" y2="1153.55" xlink:href="#linear-gradient"/>
    <linearGradient id="linear-gradient-52" x1="447.68" y1="928.41" x2="500.62" y2="1116.61" xlink:href="#linear-gradient"/>
    <linearGradient id="linear-gradient-53" x1="525.84" y1="1144.59" x2="360.7" y2="1018.2" xlink:href="#linear-gradient"/>
    <linearGradient id="linear-gradient-54" x1="572.34" y1="893.35" x2="625.28" y2="1081.55" xlink:href="#linear-gradient"/>
    <linearGradient id="linear-gradient-55" x1="596.36" y1="1137.05" x2="707.07" y2="1028.84" xlink:href="#linear-gradient"/>
    <linearGradient id="linear-gradient-56" x1="674.19" y1="1037.02" x2="805.73" y2="1025.68" xlink:href="#linear-gradient"/>
    <linearGradient id="linear-gradient-57" x1="739.45" y1="980.14" x2="759.77" y2="1107.81" xlink:href="#linear-gradient"/>
    <linearGradient id="linear-gradient-58" x1="847.42" y1="967.8" x2="870.8" y2="1058.52" xlink:href="#linear-gradient"/>
    <linearGradient id="linear-gradient-59" x1="816.35" y1="943.26" x2="939.13" y2="1090.9" xlink:href="#linear-gradient"/>
    <linearGradient id="linear-gradient-60" x1="1045.59" y1="1077.48" x2="903.1" y2="886.99" xlink:href="#linear-gradient"/>
    <linearGradient id="linear-gradient-61" x1="874.8" y1="908.59" x2="991.59" y2="1049.02" xlink:href="#linear-gradient"/>
    <linearGradient id="linear-gradient-62" x1="999.94" y1="1055.13" x2="1252.06" y2="920.19" xlink:href="#linear-gradient"/>
    <linearGradient id="linear-gradient-63" x1="1022" y1="1041.6" x2="1222.56" y2="1043.35" xlink:href="#linear-gradient"/>
    <linearGradient id="linear-gradient-64" x1="1.25" y1="902.65" x2="-267.08" y2="848.02" xlink:href="#linear-gradient"/>
    <linearGradient id="linear-gradient-65" x1="-154.37" y1="900.06" x2="-28.95" y2="886.74" xlink:href="#linear-gradient"/>
    <linearGradient id="linear-gradient-66" x1="8.21" y1="853.12" x2="82.78" y2="872.41" xlink:href="#linear-gradient"/>
    <linearGradient id="linear-gradient-67" x1="142.32" y1="867.43" x2="-29.66" y2="886.98" xlink:href="#linear-gradient"/>
    <linearGradient id="linear-gradient-68" x1="156.4" y1="791.72" x2="211.38" y2="926.43" xlink:href="#linear-gradient"/>
    <linearGradient id="linear-gradient-69" x1="138.03" y1="924.64" x2="260.98" y2="859.84" xlink:href="#linear-gradient"/>
    <linearGradient id="linear-gradient-70" x1="297.3" y1="777.94" x2="334.04" y2="983.7" xlink:href="#linear-gradient"/>
    <linearGradient id="linear-gradient-71" x1="267.72" y1="820.68" x2="298.58" y2="870.41" xlink:href="#linear-gradient"/>
    <linearGradient id="linear-gradient-72" x1="574" y1="902.06" x2="343.15" y2="864.21" xlink:href="#linear-gradient"/>
    <linearGradient id="linear-gradient-73" x1="403.63" y1="982.24" x2="598.83" y2="815.57" xlink:href="#linear-gradient"/>
    <linearGradient id="linear-gradient-74" x1="619.79" y1="731.65" x2="636.07" y2="993.28" xlink:href="#linear-gradient"/>
    <linearGradient id="linear-gradient-75" x1="699.1" y1="931.58" x2="536.15" y2="852.62" xlink:href="#linear-gradient"/>
    <linearGradient id="linear-gradient-76" x1="750.85" y1="881.44" x2="625.08" y2="851.5" xlink:href="#linear-gradient"/>
    <linearGradient id="linear-gradient-77" x1="721.13" y1="1015.48" x2="831.59" y2="784.48" xlink:href="#linear-gradient"/>
    <linearGradient id="linear-gradient-78" x1="908.81" y1="884.13" x2="808.04" y2="740" xlink:href="#linear-gradient"/>
    <linearGradient id="linear-gradient-79" x1="822.03" y1="755.46" x2="844.26" y2="975.41" xlink:href="#linear-gradient"/>
    <linearGradient id="linear-gradient-80" x1="979.98" y1="880.13" x2="938.07" y2="943.04" xlink:href="#linear-gradient"/>
    <linearGradient id="linear-gradient-81" x1="1050.55" y1="754.72" x2="946.59" y2="954.67" xlink:href="#linear-gradient"/>
    <linearGradient id="linear-gradient-82" x1="1195.85" y1="1029.88" x2="1044.68" y2="863.18" xlink:href="#linear-gradient"/>
    <linearGradient id="linear-gradient-83" x1="-131.56" y1="727.9" x2="-113.44" y2="733.09" xlink:href="#linear-gradient"/>
    <linearGradient id="linear-gradient-84" x1="28.83" y1="767.19" x2="-239.51" y2="712.56" xlink:href="#linear-gradient"/>
    <linearGradient id="linear-gradient-85" x1="-52.34" y1="627.02" x2="77.23" y2="711.76" xlink:href="#linear-gradient"/>
    <linearGradient id="linear-gradient-86" x1="51.79" y1="816.98" x2="168.45" y2="652.91" xlink:href="#linear-gradient"/>
    <linearGradient id="linear-gradient-87" x1="267.14" y1="823.38" x2="161.31" y2="620.08" xlink:href="#linear-gradient"/>
    <linearGradient id="linear-gradient-88" x1="210.76" y1="648.2" x2="168.86" y2="832.15" xlink:href="#linear-gradient"/>
    <linearGradient id="linear-gradient-89" x1="443.26" y1="667.9" x2="253.89" y2="751.7" xlink:href="#linear-gradient"/>
    <linearGradient id="linear-gradient-90" x1="372.85" y1="587.8" x2="317.63" y2="752.85" xlink:href="#linear-gradient"/>
    <linearGradient id="linear-gradient-91" x1="398.36" y1="621.09" x2="461.47" y2="671.21" xlink:href="#linear-gradient"/>
    <linearGradient id="linear-gradient-92" x1="534.37" y1="853.59" x2="357.38" y2="650.87" xlink:href="#linear-gradient"/>
    <linearGradient id="linear-gradient-93" x1="530.47" y1="611.81" x2="644.37" y2="764.47" xlink:href="#linear-gradient"/>
    <linearGradient id="linear-gradient-94" x1="575.06" y1="625.5" x2="614.12" y2="743" xlink:href="#linear-gradient"/>
    <linearGradient id="linear-gradient-95" x1="606.19" y1="671.67" x2="858.62" y2="710.94" xlink:href="#linear-gradient"/>
    <linearGradient id="linear-gradient-96" x1="759.91" y1="782.11" x2="594.84" y2="635.25" xlink:href="#linear-gradient"/>
    <linearGradient id="linear-gradient-97" x1="783" y1="762" x2="878.53" y2="628.8" xlink:href="#linear-gradient"/>
    <linearGradient id="linear-gradient-98" x1="845.61" y1="806.91" x2="941.14" y2="673.7" xlink:href="#linear-gradient"/>
    <linearGradient id="linear-gradient-99" x1="862.18" y1="664.24" x2="1104.49" y2="743.98" xlink:href="#linear-gradient"/>
    <linearGradient id="linear-gradient-100" x1="1097.28" y1="685.8" x2="896.02" y2="734.09" xlink:href="#linear-gradient"/>
    <linearGradient id="linear-gradient-101" x1="-47.39" y1="555.94" x2="159.69" y2="563.33" xlink:href="#linear-gradient"/>
    <linearGradient id="linear-gradient-102" x1="59.08" y1="515.95" x2="-3.59" y2="739.61" xlink:href="#linear-gradient"/>
    <linearGradient id="linear-gradient-103" x1="192.79" y1="601.05" x2="122.75" y2="538.15" xlink:href="#linear-gradient"/>
    <linearGradient id="linear-gradient-104" x1="168.37" y1="669.25" x2="261.83" y2="595.38" xlink:href="#linear-gradient"/>
    <linearGradient id="linear-gradient-105" x1="280.51" y1="614.97" x2="379.6" y2="531.12" xlink:href="#linear-gradient"/>
    <linearGradient id="linear-gradient-106" x1="323.79" y1="562.32" x2="317.06" y2="690.67" xlink:href="#linear-gradient"/>
    <linearGradient id="linear-gradient-107" x1="510.66" y1="520.73" x2="338.71" y2="541.26" xlink:href="#linear-gradient"/>
    <linearGradient id="linear-gradient-108" x1="466.72" y1="534" x2="530.27" y2="584.48" xlink:href="#linear-gradient"/>
    <linearGradient id="linear-gradient-109" x1="612.13" y1="461.61" x2="541.05" y2="556.09" xlink:href="#linear-gradient"/>
    <linearGradient id="linear-gradient-110" x1="568.29" y1="461.04" x2="542.24" y2="660.48" xlink:href="#linear-gradient"/>
    <linearGradient id="linear-gradient-111" x1="749.1" y1="606.37" x2="663.94" y2="570.24" xlink:href="#linear-gradient"/>
    <linearGradient id="linear-gradient-112" x1="621.7" y1="571.96" x2="874.13" y2="611.24" xlink:href="#linear-gradient"/>
    <linearGradient id="linear-gradient-113" x1="779.13" y1="597.54" x2="970.05" y2="563.81" xlink:href="#linear-gradient"/>
    <linearGradient id="linear-gradient-114" x1="779.07" y1="546.17" x2="875.98" y2="643.62" xlink:href="#linear-gradient"/>
    <linearGradient id="linear-gradient-115" x1="1019.11" y1="575.82" x2="960.71" y2="574.14" xlink:href="#linear-gradient"/>
    <linearGradient id="linear-gradient-116" x1="941.91" y1="562.7" x2="1038.6" y2="747.33" xlink:href="#linear-gradient"/>
    <linearGradient id="linear-gradient-117" x1="1129.66" y1="428.33" x2="1075.28" y2="677.95" xlink:href="#linear-gradient"/>
    <linearGradient id="linear-gradient-118" x1="1137.35" y1="598.15" x2="1094.19" y2="608.08" xlink:href="#linear-gradient"/>
    <linearGradient id="linear-gradient-119" x1="118.4" y1="483.78" x2="-54.53" y2="406.61" xlink:href="#linear-gradient"/>
    <linearGradient id="linear-gradient-120" x1="48.25" y1="441.72" x2="63.99" y2="515.27" xlink:href="#linear-gradient"/>
    <linearGradient id="linear-gradient-121" x1="185.12" y1="491.21" x2="289.31" y2="434.24" xlink:href="#linear-gradient"/>
    <linearGradient id="linear-gradient-122" x1="246.85" y1="540.84" x2="176.71" y2="477.86" xlink:href="#linear-gradient"/>
    <linearGradient id="linear-gradient-123" x1="463.11" y1="410.26" x2="280.08" y2="464.27" xlink:href="#linear-gradient"/>
    <linearGradient id="linear-gradient-124" x1="417.56" y1="299.08" x2="314.32" y2="462.85" xlink:href="#linear-gradient"/>
    <linearGradient id="linear-gradient-125" x1="412.07" y1="335.08" x2="534.73" y2="436.18" xlink:href="#linear-gradient"/>
    <linearGradient id="linear-gradient-126" x1="429.08" y1="488.24" x2="359.41" y2="345.34" xlink:href="#linear-gradient"/>
    <linearGradient id="linear-gradient-127" x1="563.56" y1="421.05" x2="510.26" y2="462.43" xlink:href="#linear-gradient"/>
    <linearGradient id="linear-gradient-128" x1="581.65" y1="380.74" x2="599.63" y2="527.81" xlink:href="#linear-gradient"/>
    <linearGradient id="linear-gradient-129" x1="650.63" y1="445.89" x2="849.22" y2="492.27" xlink:href="#linear-gradient"/>
    <linearGradient id="linear-gradient-130" x1="793.18" y1="502.49" x2="707.53" y2="466.15" xlink:href="#linear-gradient"/>
    <linearGradient id="linear-gradient-131" x1="757.86" y1="538.07" x2="935.2" y2="385.42" xlink:href="#linear-gradient"/>
    <linearGradient id="linear-gradient-132" x1="851.84" y1="411.89" x2="866.27" y2="531.53" xlink:href="#linear-gradient"/>
    <linearGradient id="linear-gradient-133" x1="1011.96" y1="403.49" x2="967.5" y2="495.85" xlink:href="#linear-gradient"/>
    <linearGradient id="linear-gradient-134" x1="1022.4" y1="461.97" x2="963.96" y2="460.29" xlink:href="#linear-gradient"/>
    <linearGradient id="linear-gradient-135" x1="1008.48" y1="509.13" x2="1217.57" y2="301.94" xlink:href="#linear-gradient"/>
    <linearGradient id="linear-gradient-136" x1="1137.72" y1="303.05" x2="1122.65" y2="436.28" xlink:href="#linear-gradient"/>
    <clipPath id="clippath-1">
      <path class="cls-53" d="M-500.23,177.72l-283.26,7.76c.51,78.07,2.22,155.46,3.13,233.69.41,35.18.9,67.36,0,102.85-1.03,40.84,3.28,109.8-3.7,147.34-2.6,13.97-28.64,39.6-32.1,52.63-3.93,14.81,3.38,46-2.75,56.19-4.67,7.77-32.72,15.2-34.49,24.47-1.69,8.88,63.75,92.62,71.42,108.12l10.55,3.74c82.58-27.49,168.66-45.82,251.07-73.55,77.08-25.94,151.94-60.88,228.53-88.4,2.88-3.89,1.29-7.85.84-12.02-7.4-69.08-45.19-152.76-57.46-222.8-7.5-17.76-80.17-109.11-95.22-118.45-7.29-4.52-27.54-8.25-31.07-14.04-15.24-25.03,5.44-59,.12-87.63-3.37-18.15-30.88-30.23-29.65-51.68.28-4.86,4.04-9.76,4.04-11.12v-57.1Z"/>
    </clipPath>
    <linearGradient id="linear-gradient-137" x1="-10.96" y1="1221.6" x2="-23.79" y2="1356.42" xlink:href="#linear-gradient"/>
    <linearGradient id="linear-gradient-138" x1="-83.98" y1="1302.62" x2="44.94" y2="1355.83" xlink:href="#linear-gradient"/>
    <linearGradient id="linear-gradient-139" x1="126.36" y1="1295.63" x2="28.66" y2="1405.13" xlink:href="#linear-gradient"/>
    <linearGradient id="linear-gradient-140" x1="-104.46" y1="1201.01" x2="64.13" y2="1202.48" xlink:href="#linear-gradient"/>
    <linearGradient id="linear-gradient-141" x1="-35.91" y1="1135.22" x2="-22.14" y2="1199.26" xlink:href="#linear-gradient"/>
    <linearGradient id="linear-gradient-142" x1="-122.17" y1="1115.95" x2="89.76" y2="1002.51" xlink:href="#linear-gradient"/>
    <linearGradient id="linear-gradient-143" x1="-103.62" y1="1104.58" x2="64.96" y2="1106.04" xlink:href="#linear-gradient"/>
    <linearGradient id="linear-gradient-144" x1="-4.28" y1="946.51" x2="145.39" y2="904.1" xlink:href="#linear-gradient"/>
    <linearGradient id="linear-gradient-145" x1="42.51" y1="1094.73" x2="-84.56" y2="954.6" xlink:href="#linear-gradient"/>
    <linearGradient id="linear-gradient-146" x1="-33.36" y1="889.35" x2="-1.89" y2="808.83" xlink:href="#linear-gradient"/>
    <linearGradient id="linear-gradient-147" x1="11.74" y1="906.98" x2="43.15" y2="826.61" xlink:href="#linear-gradient"/>
    <linearGradient id="linear-gradient-148" x1="163.66" y1="921.23" x2="25.3" y2="799.65" xlink:href="#linear-gradient"/>
    <linearGradient id="linear-gradient-149" x1="8.35" y1="827" x2="126.95" y2="864.54" xlink:href="#linear-gradient"/>
    <linearGradient id="linear-gradient-150" x1="-13.13" y1="589.06" x2="-58.84" y2="798.89" xlink:href="#linear-gradient"/>
    <linearGradient id="linear-gradient-151" x1="-6.67" y1="731.81" x2="-42.95" y2="740.16" xlink:href="#linear-gradient"/>
    <linearGradient id="linear-gradient-152" x1="76.9" y1="608.6" x2="31.18" y2="818.5" xlink:href="#linear-gradient"/>
    <linearGradient id="linear-gradient-153" x1="134.34" y1="595.55" x2="68.04" y2="740.67" xlink:href="#linear-gradient"/>
    <linearGradient id="linear-gradient-154" x1="-114.99" y1="656.98" x2="60.77" y2="482.82" xlink:href="#linear-gradient"/>
    <linearGradient id="linear-gradient-155" x1="-6.35" y1="483.75" x2="-19.02" y2="595.74" xlink:href="#linear-gradient"/>
    <linearGradient id="linear-gradient-156" x1="175.57" y1="696.41" x2="16.75" y2="550.63" xlink:href="#linear-gradient"/>
  </defs>
  <g class="cls-153">
    <g>
      <polygon class="cls-150" points="61.63 160.96 143.64 195.07 132.14 160.96 61.63 160.96"/>
      <polygon class="cls-21" points="132.14 160.96 143.64 195.07 185.05 160.96 132.14 160.96"/>
      <polygon class="cls-67" points="755.2 160.96 750.77 163.59 907.55 175.94 909.88 160.96 755.2 160.96"/>
      <polygon class="cls-54" points="909.88 160.96 907.55 175.94 1022.66 192.14 999.8 160.96 909.88 160.96"/>
      <polygon class="cls-70" points="1052.02 160.96 1022.66 192.14 1097.47 160.96 1052.02 160.96"/>
      <polygon class="cls-122" points="-67.25 160.96 -41.75 326.89 28.47 264.14 -38.75 160.96 -67.25 160.96"/>
      <polygon class="cls-111" points="-38.75 160.96 28.47 264.14 143.64 195.07 61.63 160.96 -38.75 160.96"/>
      <polygon class="cls-86" points="174.55 160.96 28.47 264.14 296.01 312.42 260.49 160.96 174.55 160.96"/>
      <polygon class="cls-113" points="174.55 160.96 28.47 264.14 143.64 195.07 185.05 160.96 174.55 160.96"/>
      <polygon class="cls-31" points="260.49 160.96 296.01 312.42 387.71 240.94 303.27 160.96 260.49 160.96"/>
      <polygon class="cls-116" points="303.27 160.96 387.71 240.94 324.64 160.96 303.27 160.96"/>
      <polygon class="cls-32" points="449.35 160.96 387.71 240.94 527.8 309.25 505.52 160.96 449.35 160.96"/>
      <polygon class="cls-6" points="324.64 160.96 387.71 240.94 449.35 160.96 324.64 160.96"/>
      <polygon class="cls-99" points="505.52 160.96 527.8 309.25 703.74 236.53 588.99 160.96 505.52 160.96"/>
      <polygon class="cls-5" points="588.99 160.96 703.74 236.53 716.58 160.96 588.99 160.96"/>
      <path class="cls-148" d="M750.77,163.59l-47.03,72.94,117.14,38.98-70.11-111.92h0Z"/>
      <polygon class="cls-108" points="716.58 160.96 703.74 236.53 750.77 163.59 749.93 160.96 716.58 160.96"/>
      <path class="cls-158" d="M750.77,163.59l255.67,109.2-185.56,2.72-70.11-111.92h0Z"/>
      <path class="cls-119" d="M750.77,163.59l255.67,109.2-98.89-96.86h0l-156.78-12.34Z"/>
      <path class="cls-103" d="M1022.66,192.14l-16.22,80.65,31.34,79.74-15.12-160.39h0Z"/>
      <path class="cls-129" d="M1022.66,192.14l-16.22,80.65-98.89-96.86h0l115.11,16.21Z"/>
      <polygon class="cls-74" points="1217.77 240.69 1022.66 192.14 1022.66 192.14 1037.78 352.54 1217.77 286.24 1217.77 240.69"/>
      <polygon class="cls-151" points="1217.77 175.53 1204.9 160.96 1097.47 160.96 1022.66 192.14 1217.77 240.69 1217.77 175.53"/>
      <polygon class="cls-75" points="-235.06 500.99 14.77 409.68 -148.61 350.19 -148.61 350.19 -235.06 486.85 -235.06 500.99"/>
      <path class="cls-28" d="M-148.61,350.19L14.77,409.68l-56.51-82.79h0l-106.87,23.3Z"/>
      <path class="cls-48" d="M28.47,264.14l-13.7,145.54,86.54,61.21L28.47,264.14h0Z"/>
      <path class="cls-34" d="M28.47,264.14l-13.7,145.54-56.51-82.79h0l70.21-62.75Z"/>
      <path class="cls-8" d="M28.47,264.14l266.98,235.22-194.15-28.48L28.47,264.14h0Z"/>
      <path class="cls-102" d="M28.47,264.14l266.98,235.22.56-186.95h0L28.47,264.14Z"/>
      <path class="cls-56" d="M387.71,240.94l-92.27,258.43,133.98-117.92-41.71-140.5h0Z"/>
      <path class="cls-152" d="M387.71,240.94l-92.27,258.43.56-186.95h0l91.71-71.48Z"/>
      <path class="cls-144" d="M387.71,240.94l172.33,183.53-130.62-43.02-41.71-140.5h0Z"/>
      <path class="cls-82" d="M387.71,240.94l172.33,183.53-32.25-115.22h0l-140.08-68.31Z"/>
      <path class="cls-68" d="M703.74,236.53l-143.69,187.94,130.31-18.96,13.38-168.97h0Z"/>
      <path class="cls-55" d="M703.74,236.53l-143.69,187.94-32.25-115.22h0l175.94-72.72Z"/>
      <path class="cls-128" d="M703.74,236.53l121.23,217.49-134.61-48.52,13.38-168.97h0Z"/>
      <path class="cls-36" d="M703.74,236.53l121.23,217.49-4.09-178.51h0l-117.13-38.98Z"/>
      <path class="cls-71" d="M1006.44,272.79l-181.47,181.23,171.05,25.06,10.42-206.29h0Z"/>
      <path class="cls-40" d="M1006.44,272.79l-181.47,181.23-4.09-178.51h0l185.56-2.72Z"/>
      <path class="cls-33" d="M1006.44,272.79l15.09,156.09-25.51,50.2,10.42-206.29h0Z"/>
      <path class="cls-146" d="M1006.44,272.79l15.09,156.09,16.25-76.35h0l-31.34-79.74Z"/>
      <polygon class="cls-13" points="1217.77 305.47 1021.53 428.88 1217.77 427.17 1217.77 305.47"/>
      <polygon class="cls-27" points="1217.77 286.24 1037.78 352.54 1021.53 428.88 1217.77 305.47 1217.77 286.24"/>
      <path class="cls-63" d="M14.77,409.68l-160.22,130.76,125.29,13.44L14.77,409.68h0Z"/>
      <polygon class="cls-131" points="-235.06 500.99 -235.06 509.28 -145.46 540.44 14.77 409.68 -235.06 500.99"/>
      <path class="cls-14" d="M14.77,409.68l137.02,163.93-171.96-19.73L14.77,409.68h0Z"/>
      <path class="cls-47" d="M14.77,409.68l137.02,163.93-50.49-102.72h0l-86.54-61.21Z"/>
      <path class="cls-142" d="M295.45,499.37l-143.66,74.24,122.69,65.3,20.97-139.54h0Z"/>
      <path class="cls-66" d="M295.45,499.37l-143.66,74.24-50.49-102.72h0l194.15,28.48Z"/>
      <path class="cls-110" d="M295.45,499.37l100.05,52.27-121.03,87.27,20.97-139.54h0Z"/>
      <path class="cls-85" d="M295.45,499.37l100.05,52.27,33.92-170.2h0l-133.98,117.93Z"/>
      <path class="cls-42" d="M560.05,424.46l-164.54,127.18,112.08,61.16,52.46-188.33h0Z"/>
      <path class="cls-12" d="M560.05,424.46l-164.54,127.18,33.92-170.2h0l130.62,43.02Z"/>
      <path class="cls-78" d="M560.05,424.46l110.19,108.75-162.65,79.59,52.46-188.33h0Z"/>
      <path class="cls-38" d="M560.05,424.46l110.19,108.75,20.12-127.71h0l-130.31,18.96Z"/>
      <path class="cls-26" d="M824.97,454.02l-154.73,79.19,131.6,11.46,23.14-90.64h0Z"/>
      <path class="cls-88" d="M824.97,454.02l-154.73,79.19,20.12-127.71h0l134.61,48.52Z"/>
      <path class="cls-45" d="M824.97,454.02l54.96,166.02-78.1-75.38,23.14-90.64h0Z"/>
      <path class="cls-115" d="M820.08,454.02l56.54,177.2,119.4-150.45h0l-175.94-26.75Z"/>
      <path class="cls-18" d="M1021.53,428.88l-141.6,191.16,139.73-88.35,1.86-102.81h0Z"/>
      <path class="cls-3" d="M1021.53,428.88l-141.6,191.16,116.08-140.96h0l25.52-50.2Z"/>
      <polygon class="cls-100" points="1217.77 534.95 1021.53 428.88 1021.53 428.88 1019.67 531.69 1217.77 557.59 1217.77 534.95"/>
      <polygon class="cls-154" points="1217.77 427.17 1021.53 428.88 1217.77 534.95 1217.77 427.17"/>
      <polygon class="cls-25" points="-235.06 780.97 22.88 727.94 -145.45 540.43 -145.46 540.44 -235.06 758.1 -235.06 780.97"/>
      <path class="cls-9" d="M-145.45,540.43L22.88,727.94l-43.05-174.06h0l-125.29-13.44Z"/>
      <path class="cls-87" d="M151.79,573.61L22.88,727.94l74.4-19.43,54.52-134.9h0Z"/>
      <path class="cls-105" d="M151.79,573.61L22.88,727.94l-43.05-174.06h0l171.96,19.73Z"/>
      <path class="cls-35" d="M151.79,573.61l92.01,115.22-146.53,19.68,54.52-134.9h0Z"/>
      <path class="cls-11" d="M151.79,573.61l92.01,115.22,30.68-49.92h0l-122.69-65.3Z"/>
      <path class="cls-17" d="M395.5,551.64l-151.7,137.19,115.31,68.63,36.4-205.82h0Z"/>
      <path class="cls-62" d="M395.5,551.64l-151.7,137.19,30.68-49.92h0l121.03-87.27Z"/>
      <path class="cls-52" d="M395.5,551.64l194.4,167.61-230.79,38.21,36.4-205.82h0Z"/>
      <path class="cls-61" d="M395.5,551.64l194.4,167.61-82.31-106.45h0l-112.08-61.16Z"/>
      <path class="cls-49" d="M670.24,533.21l-80.34,186.03,64.22,75.6,16.12-261.64h0Z"/>
      <path class="cls-37" d="M670.24,533.21l-80.34,186.03-82.31-106.45h0l162.65-79.59Z"/>
      <path class="cls-58" d="M670.24,533.21l109.59,231.42-125.7,30.21,16.12-261.64h0Z"/>
      <path class="cls-89" d="M670.24,533.21l109.59,231.42,22.01-219.97h0l-131.6-11.45Z"/>
      <path class="cls-84" d="M879.94,620.05l-100.11,144.59,141.85-81.32-41.74-63.27h0Z"/>
      <path class="cls-83" d="M879.94,620.05l-100.11,144.59,22.01-219.97h0l78.1,75.38Z"/>
      <path class="cls-121" d="M879.94,620.05l242.9,112.01-201.16-48.74-41.74-63.27h0Z"/>
      <path class="cls-135" d="M879.94,620.05l242.9,112.01-103.16-200.36h0l-139.73,88.36Z"/>
      <polygon class="cls-29" points="1217.77 557.59 1019.67 531.69 1122.83 732.05 1217.77 626.34 1217.77 557.59"/>
      <path class="cls-123" d="M22.87,727.94l-148,91.02,18.1-5.23,129.9-85.8h0Z"/>
      <polygon class="cls-137" points="-235.06 780.97 -235.06 786.15 -125.12 818.96 22.87 727.94 -235.06 780.97"/>
      <path class="cls-133" d="M22.87,727.94l115.91,164.61-245.81-78.81,129.9-85.8h0Z"/>
      <path class="cls-145" d="M22.87,727.94l115.91,164.61-41.51-184.03h0l-74.4,19.43Z"/>
      <path class="cls-24" d="M243.8,688.83l-105.02,203.71,86.44-54.04,18.58-149.68h0Z"/>
      <path class="cls-96" d="M243.8,688.83l-105.02,203.71-41.51-184.03h0l146.53-19.68Z"/>
      <path class="cls-41" d="M243.8,688.83l170.09,233.99-188.67-84.32,18.58-149.68h0Z"/>
      <path class="cls-81" d="M243.8,688.83l170.09,233.99-54.78-165.37h0l-115.31-68.63Z"/>
      <path class="cls-72" d="M589.9,719.25l-176.01,203.58,62.82-50.38,113.19-153.2h0Z"/>
      <path class="cls-80" d="M589.9,719.25l-176.01,203.58-54.78-165.37h0l230.79-38.21Z"/>
      <path class="cls-19" d="M589.9,719.25l25.56,193.04-138.75-39.85,113.19-153.2h0Z"/>
      <path class="cls-77" d="M589.9,719.25l25.56,193.04,38.66-117.45h0l-64.22-75.6Z"/>
      <path class="cls-20" d="M779.82,764.63l-164.36,147.66,252.37-39.65-88.01-108.01h0Z"/>
      <path class="cls-65" d="M779.82,764.63l-164.36,147.66,38.66-117.45h0l125.7-30.21Z"/>
      <path class="cls-51" d="M779.82,764.63l94.91,133.65-6.9-25.63-88.01-108.01h0Z"/>
      <path class="cls-134" d="M779.82,764.63l94.91,133.65,46.94-214.96h0l-141.86,81.31Z"/>
      <path class="cls-157" d="M1122.83,732.05l-248.1,166.23,241.89-80.38,6.21-85.84h0Z"/>
      <path class="cls-22" d="M1122.83,732.05l-248.1,166.23,46.94-214.96h0l201.15,48.73Z"/>
      <path class="cls-120" d="M138.78,892.55l-183.7,145,207.07-7.46-23.37-137.54h0Z"/>
      <path class="cls-143" d="M138.78,892.55l-183.7,145-62.11-223.82h0l245.81,78.81Z"/>
      <path class="cls-92" d="M138.78,892.55l93.11,74.31-69.74,63.23-23.37-137.54h0Z"/>
      <path class="cls-114" d="M138.78,892.55l93.11,74.31-6.67-128.35h0l-86.44,54.04Z"/>
      <path class="cls-126" d="M413.89,922.83l-182,44.03,98.69,84.32,83.31-128.35h0Z"/>
      <path class="cls-104" d="M413.89,922.83l-182,44.03-6.67-128.35h0l188.67,84.32Z"/>
      <path class="cls-7" d="M413.89,922.83l88.62,149.09-171.93-20.73,83.31-128.35h0Z"/>
      <path class="cls-118" d="M413.89,922.83l88.62,149.09-25.8-199.47h0l-62.82,50.38Z"/>
      <path class="cls-60" d="M615.46,912.29l-112.95,159.62,183.59-64.8-70.63-94.82h0Z"/>
      <path class="cls-95" d="M615.46,912.29l-112.95,159.62-25.8-199.47h0l138.75,39.85Z"/>
      <path class="cls-149" d="M615.46,912.29l155.94,58.27-85.31,36.55-70.63-94.82h0Z"/>
      <path class="cls-124" d="M615.46,912.29l155.94,58.27,96.43-97.92h0l-252.37,39.65Z"/>
      <path class="cls-43" d="M874.74,898.28l-103.33,72.29,190.87,34.04-87.53-106.33h0Z"/>
      <path class="cls-138" d="M874.74,898.28l-103.33,72.29,96.43-97.92h0l6.9,25.63Z"/>
      <path class="cls-155" d="M874.74,898.28l145.95,104.63-58.41,1.7-87.53-106.33h0Z"/>
      <path class="cls-39" d="M874.74,898.28l145.95,104.63,95.94-185.01h0l-241.89,80.38Z"/>
      <path class="cls-141" d="M1159.96,827.96l-139.27,174.94,193.14,74.79-53.87-249.73h0Z"/>
      <path class="cls-2" d="M1159.96,827.96l-139.27,174.94,95.94-185.01h0l43.33,10.07Z"/>
      <polygon class="cls-130" points="89.22 1129.51 146.56 1103.68 -44.92 1037.55 -33.01 1129.51 89.22 1129.51"/>
      <path class="cls-117" d="M-44.92,1037.55l191.48,66.13,15.59-73.59h0l-207.07,7.46Z"/>
      <polygon class="cls-94" points="247.57 1129.51 231.89 966.86 231.89 966.86 146.56 1103.68 193.35 1129.51 247.57 1129.51"/>
      <path class="cls-44" d="M231.89,966.86l-85.33,136.82,15.59-73.59h0l69.74-63.23Z"/>
      <polygon class="cls-159" points="363.55 1129.51 231.89 966.86 247.57 1129.51 363.55 1129.51"/>
      <polygon class="cls-97" points="379.48 1129.51 330.58 1051.18 231.89 966.86 363.55 1129.51 379.48 1129.51"/>
      <polygon class="cls-57" points="536.53 1129.51 555.67 1113.59 502.51 1071.91 474.7 1129.51 536.53 1129.51"/>
      <polygon class="cls-156" points="474.7 1129.51 502.51 1071.91 330.58 1051.18 379.48 1129.51 474.7 1129.51"/>
      <polygon class="cls-132" points="599.74 1129.51 618.43 1129.51 502.51 1071.91 502.51 1071.91 555.67 1113.59 599.74 1129.51"/>
      <polygon class="cls-98" points="671.28 1129.51 686.09 1007.11 502.51 1071.91 618.43 1129.51 671.28 1129.51"/>
      <polygon class="cls-91" points="773.34 1129.51 866.82 1107.47 771.4 970.56 682.19 1129.51 773.34 1129.51"/>
      <polygon class="cls-147" points="682.19 1129.51 771.4 970.56 686.09 1007.11 671.28 1129.51 682.19 1129.51"/>
      <path class="cls-90" d="M771.4,970.56l176.6,153.5-81.18-16.59-95.42-136.91h0Z"/>
      <path class="cls-1" d="M771.4,970.56l176.6,153.5,14.27-119.46h0l-190.86-34.04Z"/>
      <path class="cls-76" d="M1020.68,1002.91l-72.68,121.16,116.79-28.62-44.11-92.53h0Z"/>
      <path class="cls-112" d="M1020.68,1002.91l-72.68,121.16,14.27-119.46h0l58.41-1.7Z"/>
      <polygon class="cls-93" points="1113.09 1129.51 1147.21 1129.51 1020.68 1002.91 1064.79 1095.44 1113.09 1129.51"/>
      <polygon class="cls-4" points="1217.77 1112.92 1213.82 1077.7 1020.68 1002.91 1147.21 1129.51 1217.77 1129.51 1217.77 1112.92"/>
    </g>
  </g>
  <g class="cls-69">
    <g>
      <polygon class="cls-127" points="60.93 216.3 -103.07 175.49 -103.07 175.49 -90.36 310.32 60.93 254.59 60.93 216.3"/>
      <polygon class="cls-30" points="60.93 161.53 50.12 149.28 -40.19 149.28 -103.07 175.49 60.93 216.3 60.93 161.53"/>
      <polygon class="cls-106" points="60.93 149.28 50.12 149.28 60.93 161.53 60.93 149.28"/>
      <polygon class="cls-139" points="60.93 270.76 -104.02 374.5 60.93 373.05 60.93 270.76"/>
      <polygon class="cls-109" points="60.93 254.59 -90.36 310.32 -104.02 374.5 60.93 270.76 60.93 254.59"/>
      <polygon class="cls-16" points="60.93 463.66 -104.02 374.5 -104.02 374.5 -105.59 460.92 60.93 482.69 60.93 463.66"/>
      <polygon class="cls-59" points="60.93 373.05 -104.02 374.5 60.93 463.66 60.93 373.05"/>
      <polygon class="cls-64" points="60.93 540.48 -18.87 629.34 60.93 652.18 60.93 540.48"/>
      <polygon class="cls-10" points="60.93 482.69 -105.59 460.92 -18.87 629.34 60.93 540.48 60.93 482.69"/>
      <path class="cls-50" d="M-18.87,629.34l31.21,80.63-36.43-8.47,5.22-72.16h0Z"/>
      <polygon class="cls-79" points="60.93 652.18 -18.87 629.34 12.34 709.97 60.93 694.43 60.93 652.18"/>
      <polygon class="cls-107" points="60.93 666.84 12.34 709.97 60.93 719.95 60.93 666.84"/>
      <polygon class="cls-73" points="60.93 666.84 12.34 709.97 60.93 694.43 60.93 666.84"/>
      <path class="cls-23" d="M12.34,709.97l-117.07,147.06,162.35,62.87-45.28-209.92h0Z"/>
      <path class="cls-136" d="M12.34,709.97l-117.07,147.06,80.65-155.52h0l36.42,8.47Z"/>
      <polygon class="cls-46" points="60.93 749.79 12.34 709.97 12.34 709.97 57.62 919.89 60.93 919.23 60.93 749.79"/>
      <polygon class="cls-140" points="60.93 719.95 12.34 709.97 60.93 749.79 60.93 719.95"/>
      <polygon class="cls-125" points="-27.06 963.45 1.62 963.45 -104.73 857.02 -67.66 934.8 -27.06 963.45"/>
      <polygon class="cls-15" points="60.93 949.5 57.62 919.89 -104.74 857.02 1.62 963.45 60.93 963.45 60.93 949.5"/>
      <polygon class="cls-101" points="60.93 919.23 57.62 919.89 60.93 949.5 60.93 919.23"/>
    </g>
  </g>
</svg>