<svg xmlns="http://www.w3.org/2000/svg" id="Layer_2" viewBox="0 0 1138.6 636.7"><defs><style>      .st0, .st1 {        fill-rule: evenodd;      }      .st0, .st2 {        fill: #005587;      }      .st1, .st3 {        fill: #ff3eb5;      }    </style></defs><g id="Layer_1-2"><path class="st2" d="M54.4,487.8h-9.2l-17.9,50.4h-.3l-17.6-50.4H0l24.2,65.2h5.7l24.4-65.2Z"></path><path class="st2" d="M91.4,553h9.1l-23.7-65.2h-5.6l-24,65.2h9.3l17.3-47.8h.3l17.3,47.8h0Z"></path><path class="st2" d="M105.3,553.5c20.2,0,30.9-7,30.9-18.3s-7.6-15.3-13.2-19.8c-4.3-3.4-7.6-5.9-7.6-9.9s3.6-9.4,17.6-9.4v-8.3c-18.9,0-26.5,8.2-26.5,17.6s6.1,13,10.9,16.9c5.2,4.2,9.9,8,9.9,12.8s-6.7,9.6-22,9.6v8.9h0Z"></path><path class="st2" d="M192.9,498l3.4-7.3c-4.4-2.7-10.5-4.4-17-4.4-19.1,0-33.6,15.7-33.6,33.5s14.5,34.6,33.6,34.6,12.9-2,18.1-5.4l-4.2-6.9c-3.9,2.8-8.7,3.8-13.9,3.8-14.2,0-24.8-12-24.8-26s10.5-24.8,24.8-24.8,9.7.8,13.6,3.1h0Z"></path><path class="st2" d="M230.5,554.4c14.8,0,23.6-9.2,23.6-24.9v-41.7h-8.9v41.7c0,10.8-5,17.2-14.8,17.2s-15-6.4-15-17.2v-41.7h-8.8v41.7c0,15.6,9,24.9,23.9,24.9h0Z"></path><path class="st2" d="M277.5,544.6v-56.9h-8.9v65.2h36.4v-8.3h-27.5Z"></path><path class="st2" d="M351.5,553h9.1l-23.7-65.2h-5.6l-24,65.2h9.3l17.3-47.8h.3l17.3,47.8h0Z"></path><path class="st2" d="M404.5,553h11.9l-22.4-22.5c11.2-1.8,17.8-10.7,17.8-21.3s-10.7-21.4-25.3-21.4h-18.8v65.2h8.9v-57h8c12.2,0,18.4,4,18.4,13.3s-7.2,15.4-20,15.3l-2.7,3.7,24.3,24.7h0Z"></path><path class="st2" d="M463.4,554.4c15.2,0,26.4-9,26.4-21s-.7-7.2-3-9.4l-6.9,6.1c.7.6,1.1,2,1.1,3.9,0,7.6-7.3,12.2-17.2,12.2s-16.6-6.7-16.6-12.2,6.8-13.9,13.4-14.9v-6.3c-4.2-3.4-8.2-5.4-8.2-10.2s2.7-8.1,8.9-8.1,5.2,1.1,6.3,4.2l8-3.7c-2.6-5.9-8-8.6-14.4-8.6-10.3,0-17.6,6.8-17.6,16s2.5,9.1,7,12.6c-6.9,3.6-12.2,9.8-12.2,18.6s10.2,20.9,25.2,20.9h0ZM467.8,539.8c5.2,0,9.5-3.4,9.5-9h-8.2c0,.8,0,1.4-1.2,1.4-1.8,0-1.9-1.6-1.9-2.1,0-1,.9-1.9,1.9-2.4l20.1-9.2c3.4-1.8,4.8-4.1,4.8-9.1h-9.6c0,.4.5,1.4-.9,2l-18.3,8.3c-4,2.1-6.8,6.4-6.8,10.6s4.6,9.4,10.4,9.4h0Z"></path><path class="st2" d="M555.2,496.1v-8.3h-35.6v65.2h35.6v-8.3h-26.8v-20.8h24.4v-8.1h-24.4v-19.6h26.8Z"></path><path class="st2" d="M627.5,553v-65.2h-8.4l-22.3,50.6h-.3l-22.4-50.6h-8.5v65.2h8.9v-43.2h.3l18.8,42.6h6.3l18.7-42.6h.3v43.2h8.9,0Z"></path><path class="st2" d="M642.4,553h29.3c12.3,0,18.3-8,18.3-18.3s-2.9-13.2-9.1-16c2.8-3.3,4.4-7.7,4.4-12.6,0-11.4-7.8-18.3-21.4-18.3h-21.5v65.2ZM651.3,516.2v-20.1h12.7c9.1,0,12.5,3.2,12.5,10.3s-3.5,9.9-10.6,9.9h-14.6ZM651.3,544.8v-20.9h14.6c10.1,0,15.3,3.3,15.3,10.9s-4.8,10-12.8,10h-17.1Z"></path><path class="st2" d="M731.7,554.4c19,0,33.5-15.8,33.5-34.6s-14.6-33.5-33.5-33.5-33.6,15.7-33.6,33.5,14.5,34.6,33.6,34.6h0ZM731.7,546.1c-14.2,0-24.8-12.4-24.8-26.3s10.5-24.8,24.8-24.8,24.7,12.1,24.7,24.8-10.6,26.3-24.7,26.3h0Z"></path><path class="st2" d="M786.2,544.6v-56.9h-8.9v65.2h36.3v-8.3h-27.5,0Z"></path><rect class="st2" x="822.2" y="487.8" width="8.8" height="65.2"></rect><path class="st2" d="M838.9,553h50.2v-8.9h-34.3l37.6-56.3h-47.1v8.9h31.2l-37.5,56.3h0Z"></path><path class="st2" d="M936.8,553h9.1l-23.7-65.2h-5.6l-24,65.2h9.3l17.4-47.8h.3l17.3,47.8Z"></path><path class="st2" d="M983.7,487.8h-45.8v8.3h18.5v56.9h8.9v-56.9h18.5v-8.3Z"></path><rect class="st2" x="991.8" y="487.8" width="8.9" height="65.2"></rect><path class="st2" d="M1046.9,554.4c19,0,33.5-15.8,33.5-34.6s-14.6-33.5-33.5-33.5-33.6,15.7-33.6,33.5,14.5,34.6,33.6,34.6h0ZM1046.9,546.1c-14.2,0-24.8-12.4-24.8-26.3s10.5-24.8,24.8-24.8,24.7,12.1,24.7,24.8-10.6,26.3-24.7,26.3h0Z"></path><path class="st2" d="M1138.6,553v-65.2h-8.9v44.1h-.3l-32.1-44.1h-4.7v65.2h8.9v-44.1h.3l32.8,44.1h4,0Z"></path><path class="st3" d="M343.2,635.8c20.2,0,30.9-7,30.9-18.3s-7.6-15.3-13.2-19.8c-4.3-3.4-7.6-5.9-7.6-9.9s3.6-9.4,17.6-9.4v-8.3c-18.8,0-26.5,8.2-26.5,17.6s6.1,13,10.9,16.9c5.2,4.2,9.9,8,9.9,12.8s-6.7,9.6-22,9.6v8.9h0Z"></path><path class="st3" d="M386.5,635.3h8.9v-17.8h8.5c13.8,0,24.9-7.5,24.9-24s-10.7-23.4-26.8-23.4h-15.4s0,65.2,0,65.2ZM395.3,609.2v-30.9h6.6c11.5,0,18,4.7,18,15.2s-6.8,15.8-16,15.8h-8.5Z"></path><path class="st3" d="M474.2,578.4v-8.3h-35.6v65.2h35.6v-8.3h-26.8v-20.8h24.4v-8.1h-24.4v-19.6h26.8Z"></path><path class="st3" d="M528,580.3l3.4-7.3c-4.4-2.7-10.4-4.4-16.9-4.4-19.1,0-33.6,15.7-33.6,33.5s14.5,34.6,33.6,34.6,12.9-2,18-5.5l-4.2-6.9c-3.9,2.8-8.6,3.8-13.9,3.8-14.2,0-24.8-12-24.8-26s10.5-24.8,24.8-24.8,9.7.8,13.6,3.1h0Z"></path><rect class="st3" x="542.8" y="570.1" width="8.9" height="65.2"></rect><path class="st3" d="M604.3,635.3h9.1l-23.7-65.2h-5.6l-24,65.2h9.3l17.3-47.8h.3l17.3,47.8h0Z"></path><path class="st3" d="M629.4,626.9v-56.9h-8.9v65.2h36.4v-8.3h-27.5Z"></path><rect class="st3" x="665.3" y="570.1" width="8.9" height="65.2"></rect><path class="st3" d="M760.2,570.1h-46c-19,0-26.6,8.2-26.6,17.6s6.1,13,10.9,16.9c5.3,4.2,9.9,8,9.9,12.8s-6.7,9.6-22,9.6v8.9c20.2,0,30.8-7,30.8-18.3s-7.6-15.3-13.2-19.8c-4.3-3.4-7.6-5.9-7.6-9.9s3.6-9.4,17.8-9.4h18.7v56.9h8.9v-56.9h18.5v-8.3h0Z"></path><path class="st3" d="M764.6,635.8c20.2,0,30.8-7,30.8-18.3s-7.6-15.3-13.2-19.8c-4.3-3.4-7.6-5.9-7.6-9.9s3.6-9.4,17.6-9.4v-8.3c-18.8,0-26.5,8.2-26.5,17.6s6.1,13,10.9,16.9c5.2,4.2,9.9,8,9.9,12.8s-6.7,9.6-22,9.6v8.9h0Z"></path><path class="st0" d="M601,177c-29-29.4-69.2-47.7-113.6-47.7s-84.7,18.3-113.6,47.7c-7.3-15.9-11.4-33.4-11.4-52,0-69,56-125,125-125s125,56,125,125-4.2,36.2-11.4,52h0Z"></path><path class="st1" d="M599.2,11.4c15.9-7.3,33.4-11.4,52-11.4,69.1,0,125.1,56,125.1,125s-56,125-125.1,125-36.1-4.2-52-11.4c29.4-29,47.7-69.2,47.7-113.6s-18.3-84.7-47.7-113.6h0Z"></path><path class="st0" d="M539.4,175.3c-29.4,29-47.7,69.2-47.7,113.6s18.3,84.7,47.7,113.6c-15.8,7.3-33.4,11.4-52,11.4-69.1,0-125.1-56-125.1-125s56-125,125.1-125,36.1,4.2,52,11.4h0Z"></path><path class="st1" d="M651.2,284.6c-44.4,0-84.7-18.3-113.6-47.7-7.3,15.9-11.4,33.4-11.4,52,0,69,56,125,125,125s125.1-56,125.1-125-4.2-36.1-11.4-52c-29,29.4-69.2,47.7-113.6,47.7h0Z"></path></g></svg>