<svg xmlns="http://www.w3.org/2000/svg" xmlns:xlink="http://www.w3.org/1999/xlink" id="Layer_1" x="0px" y="0px" viewBox="0 0 435.408 124.024" style="enable-background:new 0 0 435.408 124.024;" xml:space="preserve"><style type="text/css">	.st0{fill:#124673;}	.st1{fill:#B02D2D;}</style><g>	<g>		<path class="st0" d="M41.093,20.415c1.256,4.607,4.148,10.835,10.775,16.743c1.652,1.486,3.229,2.847,4.698,4.133    c10.301,8.953,16.514,14.371,17.647,27.502c3.06,6.627,2.877,14.845-0.536,23.814c0.398-0.23,0.796-0.474,1.178-0.719    c0.78-0.505,1.546-1.01,2.28-1.546c0.383-0.26,0.751-0.535,1.103-0.811c11.157-30.074,7.223-50.566,5.708-56.244    c-0.244-0.276-0.474-0.536-0.719-0.797c-4.209-4.33-11.219-4.652-19.361-5.035c-4.331-0.198-8.815-0.397-13.391-1.224    C46.909,25.588,43.756,23.644,41.093,20.415"></path>		<path class="st0" d="M53.919,23.461c3.489,0.444,6.994,0.612,10.102,0.75c7.697,0.367,14.966,0.704,20.079,4.729    c1.561,0.229,4.621,0.627,8.586,0.781c-0.016-0.031-0.031-0.046-0.031-0.077c-2.999-6.198-7.361-11.815-12.656-16.238    c-0.521-0.03-1.057-0.03-1.592-0.03c-3.918,0-7.301,0.504-10.086,1.499C60.638,17.63,56.122,21.273,53.919,23.461"></path>		<path class="st0" d="M86.441,31.205c4.974,5.74,8.616,15.091,10.927,22.575c0.016-0.291,0.031-0.582,0.046-0.873    c0.016-0.29,0.016-0.597,0.03-0.887c0.016-0.429,0.016-0.842,0.016-1.256c0-0.826-0.016-1.652-0.061-2.464v-0.046    c-0.046-0.811-0.107-1.607-0.184-2.403V45.79c-0.076-0.658-0.153-1.315-0.26-1.959c-0.076-0.688-0.184-1.362-0.322-2.035    c-0.076-0.459-0.168-0.918-0.275-1.378c-0.122-0.597-0.26-1.178-0.413-1.759c0-0.031-0.015-0.046-0.015-0.077    c-0.199-0.766-0.414-1.531-0.659-2.28c-0.229-0.781-0.489-1.532-0.765-2.297c0,0-0.014-0.014-0.014-0.03    c-0.261-0.734-0.551-1.454-0.857-2.173c-0.016-0.03-0.032-0.077-0.047-0.107C90.649,31.619,88.185,31.404,86.441,31.205"></path>		<path class="st0" d="M32.661,22.175c2.189,7.637,11.938,16.529,22.253,25.957l0.076,0.061c4.837,4.423,9.826,8.984,14.525,13.805    c0.734,0.765,1.438,1.576,2.066,2.418c-2.035-9.244-7.5-14.004-16.284-21.656l-0.107-0.092c-1.454-1.27-2.985-2.602-4.622-4.056    C40.543,29.675,38.661,20.095,38.324,16.33c-2.311-4.163-3.658-8.754-4.393-11.999c-0.076,0.014-0.138,0.046-0.198,0.061    l-0.154,0.061C31.758,11.968,31.452,17.936,32.661,22.175"></path>		<path class="st0" d="M81.176,87.113c0.475-0.414,0.918-0.842,1.378-1.285c0.443-0.429,0.887-0.874,1.316-1.318    c0.046-0.045,0.092-0.091,0.138-0.136c5.984-6.306,10.238-14.173,12.197-22.621c-0.949-3.857-4.254-16.177-9.443-24.579    C88.338,46.312,89.272,63.667,81.176,87.113"></path>		<path class="st0" d="M37.068,3.442c1.47,6.459,5.081,17.187,13.04,19.361c1.806-2.189,6.841-7.301,17.11-10.989    c2.465-0.872,5.311-1.424,8.51-1.607c-0.505-0.336-1.01-0.659-1.515-0.979c-1.025-0.628-2.067-1.21-3.122-1.761    c-0.537-0.275-1.072-0.55-1.608-0.796c-0.535-0.26-1.071-0.505-1.622-0.734c-0.612-0.26-1.24-0.506-1.851-0.75    c-0.414-0.153-0.827-0.307-1.255-0.459c-1.271-0.444-2.541-0.827-3.842-1.164c-0.505-0.122-0.995-0.244-1.5-0.351    c-0.352-0.077-0.703-0.154-1.041-0.215c-0.337-0.076-0.673-0.138-1.01-0.199c-0.398-0.076-0.811-0.138-1.209-0.199    c-0.413-0.061-0.811-0.122-1.224-0.168c-0.337-0.046-0.674-0.092-0.995-0.122c-1.056-0.108-2.112-0.184-3.183-0.23    c-0.673-0.031-1.347-0.046-2.021-0.046c-0.658,0-1.316,0.015-1.974,0.046c-0.321,0-0.643,0.03-0.964,0.046    c-0.49,0.031-0.979,0.061-1.47,0.108c-0.397,0.03-0.795,0.076-1.193,0.122c-1.102,0.122-2.204,0.291-3.291,0.489    c-0.443,0.092-0.887,0.169-1.332,0.276C38.017,3.214,37.543,3.321,37.068,3.442"></path>		<path class="st1" d="M16.851,87.603c0.551,0.475,1.118,0.949,1.699,1.392c0.03,0.031,0.062,0.062,0.107,0.092    c0.536,0.413,1.071,0.827,1.623,1.224c0.596,0.429,1.193,0.843,1.805,1.24c0.444,0.291,0.903,0.582,1.378,0.873    c0.199,0.106,0.398,0.229,0.596,0.352c0.475,0.275,0.965,0.551,1.454,0.827c0.092,0.045,0.2,0.106,0.291,0.153    c0.597,0.32,1.194,0.627,1.806,0.917c0.092,0.047,0.184,0.092,0.276,0.138c0.597,0.275,1.209,0.551,1.821,0.811    c0.016,0,0.03,0.016,0.061,0.031c0.644,0.26,1.285,0.52,1.944,0.765c0.612,0.23,1.224,0.444,1.836,0.643    c0.781,0.26,1.577,0.505,2.388,0.72c0.597,0.168,1.194,0.305,1.791,0.459c0.428,0.092,0.872,0.198,1.316,0.275    c0.688,0.138,1.377,0.276,2.082,0.368c0.076,0.03,0.168,0.046,0.275,0.046c0.382,0.06,0.75,0.106,1.132,0.152    c0.49,0.077,0.98,0.138,1.469,0.169c0.276,0.03,0.567,0.061,0.857,0.076c0.445,0.046,0.904,0.076,1.363,0.092    c0.413,0.015,0.842,0.031,1.255,0.046c0.412,0.031,0.841,0.031,1.255,0.031c0.413,0,0.841,0,1.254-0.031    c0.414-0.015,0.843-0.031,1.256-0.046c0.413-0.016,0.827-0.03,1.24-0.077c0.412-0.03,0.826-0.076,1.224-0.107    c1.637-0.153,3.26-0.413,4.852-0.75l1.147-0.229c0.398-0.107,0.812-0.199,1.21-0.306c0.382-0.108,0.765-0.214,1.162-0.322    c1.118-0.306,2.219-0.673,3.322-1.071l0.076-0.107c-0.964-4.607-4.79-19.116-15.259-21.549c-1.959,2.203-7.514,7.346-18.993,11.05    c-3.474,1.117-7.652,1.683-12.412,1.683C18.153,87.633,17.509,87.633,16.851,87.603"></path>		<path class="st1" d="M28.85,28.205c1.148,9.474,5.724,16.422,18.351,28.421c12.457,11.815,15.304,21.121,15.962,24.625    c2.235,3.613,3.658,7.56,4.515,10.5c3.137-7.669,5.066-18.045-2.357-25.667c-4.575-4.713-9.52-9.213-14.34-13.636    C41.323,43.648,32.891,35.95,28.85,28.205"></path>		<path class="st1" d="M12.673,64.508c0.229,0.229,0.459,0.475,0.704,0.689c4.714,4.392,12.565,4.714,21.657,5.097    c4.805,0.199,9.764,0.397,14.829,1.224c3.719,0.597,7.04,2.403,9.903,5.341c-1.868-4.53-5.756-11.095-13.897-18.825    c-15.106-14.34-19.422-22.421-19.238-35.996c-0.796-4.056-0.658-9.076,0.413-14.923c-0.52,0.261-1.026,0.521-1.531,0.797    c-0.397,0.229-0.795,0.444-1.178,0.673c-0.444,0.26-0.887,0.521-1.331,0.796c-1.317,0.811-2.586,1.699-3.826,2.648    c-0.491,0.367-0.965,0.75-1.439,1.132c-0.337,0.291-0.658,0.567-0.98,0.842C7.087,41.062,11.142,59.412,12.673,64.508"></path>		<path class="st1" d="M0,50.765c0,0.414,0,0.841,0.03,1.255c0.016,0.413,0.031,0.811,0.046,1.224    c0.016,0.429,0.031,0.857,0.077,1.271c0.031,0.306,0.046,0.612,0.077,0.902c0.015,0.184,0.03,0.368,0.06,0.551    c0.032,0.338,0.077,0.673,0.123,0.995c0.138,1.224,0.352,2.418,0.597,3.627c0.245,1.178,0.536,2.342,0.857,3.505    c0.015,0.03,0.031,0.062,0.031,0.092c0.183,0.627,0.383,1.255,0.581,1.867c2.618,0.092,5.188,0.26,7.667,0.505    C5.724,61.937,2.296,54.958,0.03,49.357v0.153C0.016,49.938,0,50.367,0,50.765"></path>		<path class="st1" d="M9.826,61.08c-1.623-8.081-2.816-23.416,3.918-44.215c-0.367,0.367-0.72,0.751-1.072,1.132    c-0.091,0.108-0.183,0.215-0.29,0.322c-0.352,0.413-0.704,0.811-1.056,1.224c-0.398,0.49-0.796,0.979-1.194,1.486    c-0.337,0.442-0.673,0.902-1.01,1.361C9.091,22.436,9.045,22.497,9,22.559c-0.306,0.428-0.598,0.857-0.888,1.3    c-0.26,0.398-0.521,0.796-0.766,1.195c-0.306,0.473-0.597,0.964-0.872,1.453c-0.153,0.26-0.291,0.506-0.428,0.765    c-1.011,1.822-1.898,3.704-2.648,5.633c-0.123,0.305-0.245,0.612-0.352,0.918c-0.567,1.515-1.056,3.061-1.454,4.622    c-0.152,0.581-0.29,1.178-0.428,1.76c-0.122,0.581-0.245,1.178-0.352,1.775C2.709,47.658,5.77,55.387,9.826,61.08"></path>		<path class="st1" d="M3.153,68.028c0.076,0.2,0.153,0.399,0.245,0.597c0.138,0.398,0.306,0.797,0.474,1.194    c0.123,0.291,0.245,0.566,0.383,0.841c0.168,0.43,0.367,0.843,0.597,1.271c0.122,0.275,0.26,0.551,0.398,0.826    c0.214,0.429,0.429,0.857,0.673,1.286c0.184,0.321,0.352,0.643,0.536,0.965c0.199,0.352,0.397,0.687,0.612,1.025    c0.153,0.26,0.322,0.535,0.49,0.796c0.046,0.061,0.076,0.137,0.122,0.199c0.337,0.505,0.658,1.01,1.01,1.5    c0.46,0.657,0.933,1.3,1.424,1.927c0.459,0.597,0.933,1.194,1.423,1.776c0.046,0.046,0.092,0.091,0.137,0.153    c0.506,0.582,1.026,1.163,1.562,1.729c1.974,0.185,3.887,0.261,5.678,0.261c4.377,0,8.187-0.506,11.31-1.516    c8.494-2.739,13.514-6.366,15.978-8.57c-3.918-0.444-7.836-0.612-11.31-0.75c-8.923-0.383-16.637-0.704-22.192-4.714    c-1.715-0.245-5.096-0.627-9.534-0.796C3.169,68.028,3.153,68.028,3.153,68.028z"></path>	</g>	<polygon class="st0" points="113.675,0.739 120.078,16.886 126.515,0.739 134.008,0.739 122.821,27.263 117.334,27.263    106.182,0.739  "></polygon>	<path class="st0" d="M150.929,22.655h-9.85l-1.584,4.608h-7.351L142.24,0.739h7.528l10.096,26.524h-7.353L150.929,22.655z    M149.099,17.413l-3.096-8.83l-3.095,8.83H149.099z"></path>	<path class="st0" d="M177.452,7.528c-0.751-0.61-1.502-1.06-2.251-1.354c-0.752-0.293-1.478-0.44-2.182-0.44   c-0.89,0-1.618,0.211-2.18,0.633c-0.563,0.422-0.845,0.974-0.845,1.654c0,0.469,0.141,0.856,0.421,1.161   c0.282,0.305,0.652,0.569,1.109,0.792c0.457,0.222,0.973,0.416,1.548,0.579c0.574,0.165,1.143,0.341,1.706,0.528   c2.251,0.752,3.898,1.753,4.943,3.008c1.043,1.254,1.565,2.89,1.565,4.907c0,1.36-0.228,2.592-0.686,3.693   c-0.458,1.103-1.126,2.047-2.005,2.833s-1.959,1.395-3.236,1.829c-1.279,0.434-2.727,0.651-4.345,0.651   c-3.354,0-6.46-0.997-9.322-2.991l2.955-5.558c1.032,0.914,2.051,1.596,3.061,2.04c1.007,0.447,2.005,0.669,2.989,0.669   c1.126,0,1.965-0.258,2.516-0.774c0.55-0.515,0.827-1.102,0.827-1.759c0-0.398-0.071-0.743-0.212-1.037   c-0.14-0.293-0.375-0.563-0.703-0.809c-0.329-0.247-0.757-0.476-1.284-0.686c-0.528-0.212-1.167-0.446-1.918-0.704   c-0.891-0.282-1.764-0.593-2.62-0.932c-0.856-0.34-1.619-0.792-2.287-1.355c-0.668-0.562-1.208-1.272-1.618-2.128   c-0.41-0.855-0.615-1.94-0.615-3.254c0-1.313,0.216-2.503,0.651-3.571c0.433-1.067,1.042-1.98,1.829-2.743   c0.785-0.762,1.747-1.354,2.885-1.777C169.284,0.211,170.557,0,171.963,0c1.314,0,2.687,0.182,4.117,0.545   c1.43,0.363,2.802,0.898,4.115,1.601L177.452,7.528z"></path>	<path class="st0" d="M204.715,9.604c-1.594-1.947-3.564-2.92-5.909-2.92c-1.034,0-1.988,0.189-2.868,0.563   c-0.88,0.375-1.636,0.885-2.269,1.53s-1.132,1.414-1.495,2.304c-0.364,0.892-0.545,1.854-0.545,2.885   c0,1.055,0.181,2.029,0.545,2.92c0.363,0.891,0.868,1.665,1.513,2.322c0.645,0.656,1.402,1.172,2.269,1.547   c0.867,0.376,1.806,0.563,2.814,0.563c2.204,0,4.186-0.938,5.945-2.814v8.161l-0.703,0.246c-1.056,0.375-2.04,0.651-2.955,0.827   c-0.915,0.176-1.818,0.264-2.709,0.264c-1.83,0-3.583-0.346-5.259-1.039c-1.677-0.69-3.154-1.664-4.433-2.919   c-1.277-1.254-2.304-2.743-3.077-4.468c-0.775-1.723-1.162-3.605-1.162-5.645s0.381-3.91,1.144-5.611   c0.762-1.7,1.781-3.166,3.06-4.398c1.279-1.231,2.761-2.192,4.45-2.884C194.761,0.347,196.53,0,198.383,0   c1.055,0,2.093,0.112,3.114,0.334c1.02,0.224,2.092,0.569,3.218,1.039V9.604z"></path>	<path class="st0" d="M215.971,0.739v14.423c0,0.773,0.028,1.565,0.088,2.374c0.058,0.809,0.234,1.542,0.527,2.199   c0.294,0.657,0.757,1.191,1.39,1.601c0.634,0.409,1.524,0.615,2.674,0.615c1.149,0,2.034-0.206,2.656-0.615   c0.621-0.41,1.085-0.944,1.389-1.601c0.305-0.657,0.486-1.39,0.545-2.199s0.088-1.601,0.088-2.374V0.739h6.86v15.373   c0,4.127-0.945,7.141-2.832,9.041c-1.887,1.898-4.791,2.849-8.706,2.849c-3.917,0-6.825-0.951-8.725-2.849   c-1.899-1.9-2.849-4.914-2.849-9.041V0.739H215.971z"></path>	<polygon class="st0" points="244.64,0.739 244.64,21.424 252.906,21.424 252.906,27.263 237.745,27.263 237.745,0.739  "></polygon>	<path class="st0" d="M273.804,22.655h-9.85l-1.583,4.608h-7.352l10.096-26.524h7.527l10.097,26.524h-7.353L273.804,22.655z    M271.974,17.413l-3.095-8.83l-3.097,8.83H271.974z"></path>	<path class="st0" d="M307.82,27.263h-8.584l-6.578-10.201v10.201h-6.895V0.738h10.73c1.477,0,2.766,0.218,3.869,0.651   c1.102,0.434,2.011,1.026,2.726,1.777c0.715,0.75,1.255,1.618,1.619,2.603c0.363,0.984,0.545,2.04,0.545,3.166   c0,2.016-0.487,3.653-1.461,4.907c-0.973,1.255-2.409,2.105-4.309,2.551L307.82,27.263z M292.658,12.593h1.302   c1.36,0,2.403-0.281,3.13-0.844c0.727-0.562,1.091-1.371,1.091-2.427s-0.364-1.864-1.091-2.427s-1.77-0.844-3.13-0.844h-1.302   V12.593z"></path>	<path class="st0" d="M340.323,17.132c1.407-1.337,2.556-2.604,3.448-3.799l3.904,3.764c-0.399,0.539-0.849,1.085-1.353,1.636   c-0.505,0.551-1.086,1.131-1.743,1.741l-0.527,0.493l5.91,6.296h-8.583l-2.322-2.427c-3.167,2.11-6.203,3.166-9.111,3.166   c-1.243,0-2.381-0.188-3.412-0.563c-1.033-0.375-1.923-0.903-2.674-1.584c-0.751-0.679-1.336-1.482-1.759-2.409   c-0.421-0.927-0.633-1.94-0.633-3.043c0-0.984,0.135-1.858,0.405-2.62s0.732-1.495,1.389-2.199c0.493-0.54,1.038-1.003,1.636-1.389   c0.598-0.388,1.331-0.78,2.199-1.18l0.738-0.351l-0.457-0.528c-1.36-1.711-2.04-3.341-2.04-4.889c0-1.031,0.211-1.993,0.634-2.885   c0.421-0.891,1.001-1.658,1.74-2.304c0.739-0.644,1.613-1.149,2.621-1.513C331.341,0.182,332.431,0,333.604,0   c1.196,0,2.299,0.182,3.308,0.545c1.007,0.364,1.882,0.874,2.619,1.53c0.74,0.658,1.314,1.425,1.725,2.304   c0.41,0.881,0.615,1.837,0.615,2.868c0,0.703-0.082,1.343-0.246,1.918c-0.164,0.574-0.44,1.113-0.826,1.617   c-0.388,0.505-0.892,0.985-1.513,1.443c-0.622,0.458-1.39,0.919-2.304,1.389L340.323,17.132z M331.107,16.182   c-1.666,1.032-2.498,2.064-2.498,3.096c0,0.375,0.082,0.72,0.247,1.037c0.163,0.317,0.386,0.586,0.668,0.809   c0.281,0.224,0.604,0.399,0.968,0.529c0.363,0.128,0.756,0.193,1.178,0.193c1.173,0,2.38-0.387,3.623-1.162L331.107,16.182z    M333.956,10.413c1.641-0.985,2.463-2.087,2.463-3.307c0-0.655-0.218-1.225-0.651-1.706c-0.434-0.48-0.991-0.721-1.671-0.721   c-0.633,0-1.161,0.211-1.583,0.634c-0.423,0.421-0.633,0.949-0.633,1.582C331.881,7.739,332.572,8.913,333.956,10.413"></path>	<rect x="108.961" y="36.213" class="st0" width="6.895" height="26.524"></rect>	<polygon class="st0" points="121.413,62.737 121.413,36.213 128.308,36.213 141.043,52.431 141.043,36.213 147.902,36.213    147.902,62.737 141.043,62.737 128.308,46.52 128.308,62.737  "></polygon>	<polygon class="st0" points="163.522,42.052 163.522,62.738 156.627,62.738 156.627,42.052 150.964,42.052 150.964,36.214    169.187,36.214 169.187,42.052  "></polygon>	<polygon class="st0" points="187.337,42.052 179.14,42.052 179.14,46.485 186.88,46.485 186.88,52.325 179.14,52.325    179.14,56.898 187.337,56.898 187.337,62.738 172.245,62.738 172.245,36.214 187.337,36.214  "></polygon>	<path class="st0" d="M214.353,62.738h-8.583l-6.578-10.201v10.201h-6.895V36.214h10.73c1.477,0,2.766,0.217,3.869,0.65   c1.102,0.435,2.011,1.026,2.726,1.777c0.716,0.75,1.255,1.618,1.619,2.603c0.363,0.985,0.544,2.041,0.544,3.167   c0,2.016-0.486,3.652-1.459,4.907c-0.974,1.254-2.41,2.104-4.31,2.55L214.353,62.738z M199.192,48.067h1.302   c1.36,0,2.403-0.281,3.131-0.844c0.726-0.562,1.09-1.371,1.09-2.427c0-1.055-0.364-1.864-1.09-2.427   c-0.728-0.563-1.771-0.844-3.131-0.844h-1.302V48.067z"></path>	<polygon class="st0" points="220.932,36.213 227.335,52.36 233.771,36.213 241.265,36.213 230.078,62.738 224.59,62.738    213.439,36.213  "></polygon>	<polygon class="st0" points="259.134,42.052 250.937,42.052 250.937,46.485 258.677,46.485 258.677,52.325 250.937,52.325    250.937,56.898 259.134,56.898 259.134,62.738 244.042,62.738 244.042,36.214 259.134,36.214  "></polygon>	<polygon class="st0" points="264.094,62.737 264.094,36.213 270.989,36.213 283.724,52.431 283.724,36.213 290.583,36.213    290.583,62.737 283.724,62.737 270.989,46.52 270.989,62.737  "></polygon>	<polygon class="st0" points="306.202,42.052 306.202,62.738 299.307,62.738 299.307,42.052 293.644,42.052 293.644,36.214    311.866,36.214 311.866,42.052  "></polygon>	<rect x="314.925" y="36.213" class="st0" width="6.895" height="26.524"></rect>	<path class="st0" d="M326.182,49.475c0-1.97,0.363-3.805,1.09-5.505c0.728-1.7,1.736-3.183,3.026-4.45   c1.289-1.267,2.832-2.257,4.626-2.973c1.794-0.715,3.77-1.073,5.927-1.073c2.134,0,4.104,0.358,5.911,1.073   c1.805,0.716,3.359,1.706,4.66,2.973c1.302,1.267,2.316,2.75,3.043,4.45s1.09,3.535,1.09,5.505s-0.363,3.806-1.09,5.505   c-0.727,1.702-1.741,3.183-3.043,4.451c-1.301,1.266-2.855,2.256-4.66,2.972c-1.807,0.715-3.777,1.072-5.911,1.072   c-2.157,0-4.133-0.357-5.927-1.072c-1.794-0.716-3.337-1.706-4.626-2.972c-1.29-1.268-2.298-2.749-3.026-4.451   C326.545,53.281,326.182,51.445,326.182,49.475 M333.394,49.475c0,1.056,0.198,2.029,0.597,2.919   c0.4,0.892,0.938,1.666,1.618,2.322c0.68,0.658,1.472,1.168,2.376,1.53c0.902,0.365,1.858,0.546,2.866,0.546   s1.964-0.181,2.868-0.546c0.902-0.362,1.7-0.872,2.392-1.53c0.691-0.656,1.236-1.43,1.634-2.322c0.4-0.89,0.599-1.863,0.599-2.919   c0-1.055-0.199-2.028-0.599-2.92c-0.398-0.891-0.943-1.665-1.634-2.323c-0.692-0.654-1.49-1.165-2.392-1.529   c-0.904-0.364-1.86-0.545-2.868-0.545s-1.964,0.181-2.866,0.545c-0.904,0.364-1.696,0.875-2.376,1.529   c-0.68,0.658-1.218,1.432-1.618,2.323C333.592,47.447,333.394,48.42,333.394,49.475"></path>	<polygon class="st0" points="359.918,62.737 359.918,36.213 366.813,36.213 379.548,52.431 379.548,36.213 386.407,36.213    386.407,62.737 379.548,62.737 366.813,46.52 366.813,62.737  "></polygon>	<path class="st0" d="M408.288,58.129h-9.85l-1.584,4.609h-7.351l10.096-26.524h7.528l10.096,26.524h-7.353L408.288,58.129z    M406.458,52.888l-3.096-8.83l-3.095,8.83H406.458z"></path>	<polygon class="st0" points="427.142,36.213 427.142,56.897 435.408,56.897 435.408,62.738 420.247,62.738 420.247,36.213  "></polygon>	<path class="st0" d="M123.525,78.477c-0.751-0.61-1.502-1.061-2.251-1.354c-0.752-0.292-1.478-0.439-2.182-0.439   c-0.891,0-1.618,0.21-2.18,0.632c-0.563,0.422-0.845,0.974-0.845,1.654c0,0.469,0.141,0.857,0.421,1.161   c0.282,0.304,0.652,0.569,1.109,0.791c0.457,0.223,0.974,0.417,1.548,0.581s1.143,0.34,1.706,0.527   c2.251,0.752,3.898,1.753,4.943,3.008c1.043,1.254,1.565,2.89,1.565,4.907c0,1.361-0.228,2.593-0.686,3.694   c-0.458,1.103-1.126,2.046-2.005,2.832c-0.88,0.786-1.959,1.395-3.236,1.829c-1.279,0.434-2.727,0.651-4.345,0.651   c-3.354,0-6.46-0.996-9.322-2.991l2.955-5.557c1.032,0.914,2.051,1.594,3.061,2.04c1.007,0.445,2.005,0.668,2.989,0.668   c1.126,0,1.965-0.258,2.516-0.774c0.55-0.515,0.827-1.101,0.827-1.759c0-0.397-0.071-0.744-0.212-1.037   c-0.14-0.293-0.375-0.563-0.703-0.809c-0.329-0.247-0.757-0.476-1.284-0.686c-0.528-0.211-1.167-0.445-1.918-0.704   c-0.891-0.282-1.764-0.592-2.62-0.932s-1.619-0.791-2.287-1.355c-0.668-0.562-1.208-1.272-1.618-2.128s-0.615-1.94-0.615-3.254   c0-1.313,0.216-2.503,0.651-3.57c0.433-1.067,1.042-1.981,1.829-2.745c0.785-0.761,1.747-1.354,2.885-1.775   c1.136-0.422,2.409-0.634,3.815-0.634c1.314,0,2.687,0.182,4.117,0.545s2.802,0.898,4.115,1.602L123.525,78.477z"></path>	<path class="st0" d="M138.581,98.211h-6.895V71.688h10.975c2.979,0,5.259,0.774,6.843,2.321c1.582,1.548,2.374,3.728,2.374,6.543   s-0.792,4.995-2.374,6.543c-1.584,1.548-3.864,2.322-6.843,2.322h-4.08V98.211z M138.581,83.859h2.286   c2.533,0,3.799-1.102,3.799-3.307c0-2.204-1.266-3.306-3.799-3.306h-2.286V83.859z"></path>	<polygon class="st0" points="170.628,77.527 162.431,77.527 162.431,81.959 170.171,81.959 170.171,87.799 162.431,87.799    162.431,92.373 170.628,92.373 170.628,98.211 155.536,98.211 155.536,71.688 170.628,71.688  "></polygon>	<path class="st0" d="M194.689,80.553c-1.594-1.947-3.565-2.921-5.909-2.921c-1.033,0-1.988,0.189-2.867,0.564   c-0.88,0.375-1.637,0.885-2.269,1.53c-0.633,0.645-1.132,1.413-1.495,2.304c-0.365,0.892-0.546,1.853-0.546,2.885   c0,1.055,0.181,2.029,0.546,2.919c0.363,0.892,0.867,1.666,1.513,2.322c0.643,0.657,1.4,1.172,2.268,1.547   c0.867,0.376,1.806,0.563,2.815,0.563c2.203,0,4.186-0.938,5.944-2.813v8.161l-0.704,0.246c-1.054,0.375-2.039,0.651-2.953,0.827   c-0.916,0.176-1.818,0.263-2.71,0.263c-1.83,0-3.582-0.346-5.259-1.038c-1.677-0.691-3.154-1.664-4.432-2.919   c-1.278-1.254-2.304-2.744-3.079-4.468c-0.773-1.723-1.161-3.605-1.161-5.646c0-2.04,0.381-3.91,1.144-5.611   c0.762-1.699,1.782-3.166,3.061-4.397c1.278-1.231,2.761-2.192,4.449-2.884c1.689-0.691,3.459-1.038,5.312-1.038   c1.056,0,2.093,0.112,3.114,0.334c1.02,0.224,2.092,0.569,3.218,1.039L194.689,80.553L194.689,80.553z"></path>	<rect x="199.051" y="71.688" class="st0" width="6.895" height="26.524"></rect>	<path class="st0" d="M227.757,93.604h-9.85l-1.583,4.609h-7.352l10.096-26.524h7.528l10.096,26.524h-7.353L227.757,93.604z    M225.927,88.362l-3.095-8.831l-3.097,8.831H225.927z"></path>	<polygon class="st0" points="246.611,71.688 246.611,92.373 254.877,92.373 254.877,98.212 239.716,98.212 239.716,71.688  "></polygon>	<rect x="258.43" y="71.688" class="st0" width="6.895" height="26.524"></rect>	<path class="st0" d="M285.447,78.477c-0.751-0.61-1.502-1.061-2.252-1.354c-0.751-0.292-1.477-0.439-2.181-0.439   c-0.891,0-1.618,0.21-2.18,0.632c-0.563,0.422-0.845,0.974-0.845,1.654c0,0.469,0.14,0.857,0.421,1.161   c0.282,0.304,0.652,0.569,1.109,0.791c0.457,0.223,0.973,0.417,1.548,0.581c0.574,0.164,1.143,0.34,1.706,0.527   c2.251,0.752,3.898,1.753,4.943,3.008c1.043,1.254,1.565,2.89,1.565,4.907c0,1.361-0.229,2.593-0.686,3.694   c-0.458,1.103-1.126,2.046-2.005,2.832c-0.88,0.786-1.959,1.395-3.236,1.829c-1.279,0.434-2.727,0.651-4.345,0.651   c-3.354,0-6.461-0.996-9.322-2.991l2.955-5.557c1.032,0.914,2.051,1.594,3.061,2.04c1.007,0.445,2.005,0.668,2.989,0.668   c1.126,0,1.965-0.258,2.516-0.774c0.55-0.515,0.827-1.101,0.827-1.759c0-0.397-0.071-0.744-0.212-1.037s-0.375-0.563-0.704-0.809   c-0.329-0.247-0.756-0.476-1.283-0.686c-0.528-0.211-1.167-0.445-1.918-0.704c-0.891-0.282-1.764-0.592-2.62-0.932   s-1.619-0.791-2.287-1.355c-0.668-0.562-1.208-1.272-1.619-2.128c-0.409-0.856-0.614-1.94-0.614-3.254   c0-1.313,0.216-2.503,0.65-3.57s1.043-1.981,1.83-2.745c0.785-0.761,1.747-1.354,2.885-1.775c1.136-0.422,2.409-0.634,3.815-0.634   c1.313,0,2.686,0.182,4.117,0.545c1.43,0.363,2.802,0.898,4.115,1.602L285.447,78.477z"></path>	<polygon class="st0" points="303.844,77.527 303.844,98.211 296.949,98.211 296.949,77.527 291.286,77.527 291.286,71.688    309.508,71.688 309.508,77.527  "></polygon>	<path class="st0" d="M327.167,78.477c-0.751-0.61-1.502-1.061-2.251-1.354c-0.751-0.292-1.478-0.439-2.182-0.439   c-0.89,0-1.618,0.21-2.18,0.632c-0.563,0.422-0.845,0.974-0.845,1.654c0,0.469,0.141,0.857,0.422,1.161   c0.282,0.304,0.651,0.569,1.108,0.791c0.458,0.223,0.974,0.417,1.548,0.581c0.575,0.164,1.143,0.34,1.706,0.527   c2.252,0.752,3.898,1.753,4.943,3.008c1.043,1.254,1.565,2.89,1.565,4.907c0,1.361-0.228,2.593-0.685,3.694   c-0.459,1.103-1.127,2.046-2.006,2.832s-1.958,1.395-3.236,1.829c-1.279,0.434-2.727,0.651-4.345,0.651   c-3.354,0-6.46-0.996-9.322-2.991l2.956-5.557c1.031,0.914,2.05,1.594,3.06,2.04c1.007,0.445,2.005,0.668,2.99,0.668   c1.126,0,1.964-0.258,2.515-0.774c0.55-0.515,0.827-1.101,0.827-1.759c0-0.397-0.071-0.744-0.211-1.037   c-0.141-0.293-0.376-0.563-0.704-0.809c-0.329-0.247-0.757-0.476-1.284-0.686c-0.527-0.211-1.167-0.445-1.917-0.704   c-0.892-0.282-1.765-0.592-2.621-0.932s-1.619-0.791-2.286-1.355c-0.669-0.562-1.209-1.272-1.619-2.128   c-0.41-0.856-0.615-1.94-0.615-3.254c0-1.313,0.216-2.503,0.651-3.57c0.433-1.067,1.043-1.981,1.829-2.745   c0.785-0.761,1.747-1.354,2.885-1.775c1.137-0.422,2.409-0.634,3.816-0.634c1.313,0,2.686,0.182,4.116,0.545   s2.802,0.898,4.116,1.602L327.167,78.477z"></path>	<path class="st0" d="M215.135,106.506l-3.678,2.342H1.836C0.82,108.848,0,108.326,0,107.68c0-0.647,0.82-1.174,1.836-1.174H215.135   z"></path>	<path class="st1" d="M435.303,107.679c0,0.647-0.819,1.168-1.835,1.168h-213.3l3.678-2.342h209.622   C434.484,106.505,435.303,107.033,435.303,107.679"></path>	<path class="st1" d="M4.901,115.301h1.996l4.218,8.578H8.851l-0.9-1.911H3.79l-0.9,1.911H0.682L4.901,115.301z M7.178,120.313   l-1.308-2.762l-1.307,2.762H7.178z"></path>	<path class="st1" d="M16.854,115.361h3.838c3.094,0,5.23,1.838,5.23,4.235v0.025c0,2.395-2.136,4.257-5.23,4.257h-3.838V115.361z    M20.692,122.187c1.771,0,2.966-1.034,2.966-2.543v-0.023c0-1.51-1.195-2.568-2.966-2.568h-1.673v5.134H20.692z"></path>	<rect x="27.949" y="115.361" class="st1" width="2.165" height="8.517"></rect>	<polygon class="st1" points="31.732,115.361 34.122,115.361 36.694,121.36 39.267,115.361 41.601,115.361 37.622,123.939    35.71,123.939  "></polygon>	<rect x="43.22" y="115.361" class="st1" width="2.165" height="8.517"></rect>	<path class="st1" d="M47.171,122.637l1.28-1.325c0.885,0.632,1.813,1.034,2.938,1.034c0.885,0,1.42-0.304,1.42-0.804v-0.025   c0-0.474-0.337-0.717-1.982-1.082c-1.983-0.439-3.262-0.913-3.262-2.604v-0.024c0-1.545,1.434-2.567,3.444-2.567   c1.434,0,2.658,0.389,3.655,1.083l-1.124,1.411c-0.872-0.523-1.73-0.838-2.56-0.838c-0.829,0-1.265,0.326-1.265,0.741v0.024   c0,0.56,0.423,0.742,2.124,1.119c1.996,0.451,3.12,1.071,3.12,2.556v0.024c0,1.691-1.49,2.64-3.613,2.64   C49.856,124,48.351,123.55,47.171,122.637"></path>	<rect x="56.943" y="115.361" class="st1" width="2.165" height="8.517"></rect>	<path class="st1" d="M61.134,119.644v-0.024c0-2.421,2.208-4.405,5.245-4.405c3.036,0,5.215,1.959,5.215,4.38v0.025   c0,2.421-2.207,4.404-5.244,4.404C63.314,124.024,61.134,122.065,61.134,119.644 M69.331,119.644v-0.024   c0-1.46-1.237-2.676-2.981-2.676c-1.743,0-2.952,1.191-2.952,2.651v0.025c0,1.46,1.237,2.676,2.981,2.676   C68.122,122.296,69.331,121.104,69.331,119.644"></path>	<polygon class="st1" points="73.522,115.361 75.519,115.361 80.13,120.605 80.13,115.361 82.267,115.361 82.267,123.878    80.425,123.878 75.659,118.464 75.659,123.878 73.522,123.878  "></polygon>	<path class="st1" d="M88.413,119.644v-0.024c0-2.421,2.208-4.405,5.244-4.405c3.038,0,5.216,1.959,5.216,4.38v0.025   c0,2.421-2.207,4.404-5.244,4.404C90.593,124.024,88.413,122.065,88.413,119.644 M96.61,119.644v-0.024   c0-1.46-1.238-2.676-2.981-2.676s-2.951,1.191-2.951,2.651v0.025c0,1.46,1.236,2.676,2.979,2.676   C95.401,122.296,96.61,121.104,96.61,119.644"></path>	<polygon class="st1" points="100.802,115.361 108.295,115.361 108.295,117.064 102.967,117.064 102.967,118.877 107.663,118.877    107.663,120.581 102.967,120.581 102.967,123.878 100.802,123.878  "></polygon>	<path class="st1" d="M114.244,115.361h4.499c1.251,0,2.221,0.304,2.867,0.865c0.549,0.474,0.844,1.143,0.844,1.946v0.025   c0,1.374-0.858,2.238-2.109,2.639l2.405,3.042h-2.531l-2.109-2.726h-1.701v2.726h-2.165V115.361z M118.602,119.498   c1.054,0,1.659-0.487,1.659-1.205v-0.024c0-0.802-0.646-1.217-1.7-1.217h-2.152v2.446   C116.409,119.498,118.602,119.498,118.602,119.498z"></path>	<path class="st1" d="M127.785,115.301h1.997l4.217,8.578h-2.262l-0.901-1.911h-4.161l-0.899,1.911h-2.208L127.785,115.301z    M130.063,120.313l-1.308-2.762l-1.307,2.762H130.063z"></path>	<path class="st1" d="M135.519,115.361h3.838c3.094,0,5.23,1.838,5.23,4.235v0.025c0,2.395-2.136,4.257-5.23,4.257h-3.838V115.361z    M139.357,122.187c1.772,0,2.967-1.034,2.967-2.543v-0.023c0-1.51-1.195-2.568-2.967-2.568h-1.672v5.134H139.357z"></path>	<rect x="146.614" y="115.361" class="st1" width="2.165" height="8.517"></rect>	<path class="st1" d="M150.804,119.644v-0.024c0-2.421,2.207-4.405,5.244-4.405s5.216,1.959,5.216,4.38v0.025   c0,2.421-2.207,4.404-5.243,4.404C152.984,124.024,150.804,122.065,150.804,119.644 M159.001,119.644v-0.024   c0-1.46-1.238-2.676-2.98-2.676c-1.744,0-2.953,1.191-2.953,2.651v0.025c0,1.46,1.237,2.676,2.98,2.676   C157.792,122.296,159.001,121.104,159.001,119.644"></path>	<polygon class="st1" points="163.193,115.361 165.358,115.361 165.358,122.175 170.265,122.175 170.265,123.878 163.193,123.878     "></polygon>	<path class="st1" d="M170.899,119.644v-0.024c0-2.421,2.207-4.405,5.244-4.405c3.036,0,5.216,1.959,5.216,4.38v0.025   c0,2.421-2.208,4.404-5.244,4.404C173.078,124.024,170.899,122.065,170.899,119.644 M179.095,119.644v-0.024   c0-1.46-1.237-2.676-2.98-2.676c-1.744,0-2.953,1.191-2.953,2.651v0.025c0,1.46,1.237,2.676,2.981,2.676   C177.886,122.296,179.095,121.104,179.095,119.644"></path>	<path class="st1" d="M182.851,119.644v-0.024c0-2.421,2.18-4.405,5.159-4.405c1.772,0,2.84,0.413,3.867,1.168l-1.364,1.424   c-0.759-0.547-1.434-0.863-2.573-0.863c-1.574,0-2.826,1.204-2.826,2.651v0.025c0,1.557,1.237,2.701,2.981,2.701   c0.788,0,1.49-0.171,2.039-0.511v-1.217h-2.18v-1.617h4.274v3.697c-1.012,0.742-2.404,1.351-4.203,1.351   C184.96,124.024,182.851,122.163,182.851,119.644"></path>	<polygon class="st1" points="196.659,120.52 192.878,115.361 195.408,115.361 197.756,118.78 200.146,115.361 202.606,115.361    198.824,120.484 198.824,123.878 196.659,123.878  "></polygon>	<path class="st1" d="M211.55,115.301h1.997l4.217,8.578h-2.263l-0.9-1.911h-4.161l-0.9,1.911h-2.208L211.55,115.301z    M213.828,120.313l-1.308-2.762l-1.307,2.762H213.828z"></path>	<path class="st1" d="M218.469,122.637l1.279-1.325c0.886,0.632,1.814,1.034,2.939,1.034c0.885,0,1.42-0.304,1.42-0.804v-0.025   c0-0.474-0.337-0.717-1.983-1.082c-1.982-0.439-3.261-0.913-3.261-2.604v-0.024c0-1.545,1.434-2.567,3.444-2.567   c1.434,0,2.657,0.389,3.655,1.083l-1.124,1.411c-0.872-0.523-1.73-0.838-2.559-0.838c-0.829,0-1.265,0.326-1.265,0.741v0.024   c0,0.56,0.422,0.742,2.123,1.119c1.996,0.451,3.12,1.071,3.12,2.556v0.024c0,1.691-1.49,2.64-3.613,2.64   C221.154,124,219.65,123.55,218.469,122.637"></path>	<path class="st1" d="M227.328,122.637l1.28-1.325c0.885,0.632,1.814,1.034,2.938,1.034c0.885,0,1.42-0.304,1.42-0.804v-0.025   c0-0.474-0.337-0.717-1.982-1.082c-1.982-0.439-3.262-0.913-3.262-2.604v-0.024c0-1.545,1.434-2.567,3.444-2.567   c1.434,0,2.658,0.389,3.655,1.083l-1.124,1.411c-0.872-0.523-1.73-0.838-2.559-0.838c-0.83,0-1.265,0.326-1.265,0.741v0.024   c0,0.56,0.422,0.742,2.123,1.119c1.996,0.451,3.12,1.071,3.12,2.556v0.024c0,1.691-1.49,2.64-3.612,2.64   C230.013,124,228.509,123.55,227.328,122.637"></path>	<path class="st1" d="M236.566,119.644v-0.024c0-2.421,2.208-4.405,5.245-4.405c3.036,0,5.215,1.959,5.215,4.38v0.025   c0,2.421-2.207,4.404-5.244,4.404C238.746,124.024,236.566,122.065,236.566,119.644 M244.763,119.644v-0.024   c0-1.46-1.237-2.676-2.981-2.676c-1.743,0-2.952,1.191-2.952,2.651v0.025c0,1.46,1.237,2.676,2.981,2.676   C243.554,122.296,244.763,121.104,244.763,119.644"></path>	<path class="st1" d="M248.519,119.644v-0.024c0-2.421,2.109-4.405,5.132-4.405c1.855,0,2.965,0.535,3.88,1.314l-1.378,1.375   c-0.76-0.596-1.532-0.96-2.516-0.96c-1.659,0-2.855,1.191-2.855,2.651v0.025c0,1.46,1.167,2.676,2.855,2.676   c1.124,0,1.813-0.39,2.586-0.998l1.378,1.205c-1.012,0.937-2.137,1.521-4.035,1.521C250.67,124.024,248.519,122.09,248.519,119.644   "></path>	<rect x="259.43" y="115.361" class="st1" width="2.165" height="8.517"></rect>	<path class="st1" d="M267.431,115.301h1.997l4.217,8.578h-2.263l-0.9-1.911h-4.161l-0.9,1.911h-2.207L267.431,115.301z    M269.709,120.313l-1.308-2.762l-1.307,2.762H269.709z"></path>	<polygon class="st1" points="276.192,117.089 273.198,117.089 273.198,115.361 281.351,115.361 281.351,117.089 278.357,117.089    278.357,123.879 276.192,123.879  "></polygon>	<polygon class="st1" points="283.013,115.361 290.435,115.361 290.435,117.028 285.163,117.028 285.163,118.756 289.803,118.756    289.803,120.423 285.163,120.423 285.163,122.211 290.505,122.211 290.505,123.878 283.013,123.878  "></polygon>	<path class="st1" d="M291.759,122.637l1.28-1.325c0.885,0.632,1.814,1.034,2.938,1.034c0.885,0,1.42-0.304,1.42-0.804v-0.025   c0-0.474-0.337-0.717-1.982-1.082c-1.982-0.439-3.262-0.913-3.262-2.604v-0.024c0-1.545,1.434-2.567,3.444-2.567   c1.434,0,2.658,0.389,3.655,1.083l-1.124,1.411c-0.872-0.523-1.73-0.838-2.559-0.838c-0.83,0-1.265,0.326-1.265,0.741v0.024   c0,0.56,0.422,0.742,2.123,1.119c1.996,0.451,3.12,1.071,3.12,2.556v0.024c0,1.691-1.49,2.64-3.612,2.64   C294.444,124,292.94,123.55,291.759,122.637"></path>	<path class="st1" d="M305.215,119.644v-0.024c0-2.421,2.207-4.405,5.245-4.405c3.036,0,5.215,1.959,5.215,4.38v0.025   c0,2.421-2.207,4.404-5.244,4.404C307.395,124.024,305.215,122.065,305.215,119.644 M313.412,119.644v-0.024   c0-1.46-1.237-2.676-2.981-2.676c-1.743,0-2.951,1.191-2.951,2.651v0.025c0,1.46,1.236,2.676,2.98,2.676   C312.203,122.296,313.412,121.104,313.412,119.644"></path>	<polygon class="st1" points="317.603,115.361 325.097,115.361 325.097,117.064 319.769,117.064 319.769,118.877 324.463,118.877    324.463,120.581 319.769,120.581 319.769,123.878 317.603,123.878  "></polygon>	<polygon class="st1" points="331.046,115.361 333.043,115.361 337.654,120.605 337.654,115.361 339.791,115.361 339.791,123.878    337.949,123.878 333.183,118.464 333.183,123.878 331.046,123.878  "></polygon>	<path class="st1" d="M341.72,119.644v-0.024c0-2.421,2.206-4.405,5.244-4.405c3.036,0,5.215,1.959,5.215,4.38v0.025   c0,2.421-2.207,4.404-5.244,4.404S341.72,122.065,341.72,119.644 M349.915,119.644v-0.024c0-1.46-1.236-2.676-2.98-2.676   c-1.743,0-2.952,1.191-2.952,2.651v0.025c0,1.46,1.238,2.676,2.981,2.676C348.706,122.296,349.915,121.104,349.915,119.644"></path>	<path class="st1" d="M354.108,115.361h4.498c1.251,0,2.221,0.304,2.869,0.865c0.548,0.474,0.842,1.143,0.842,1.946v0.025   c0,1.374-0.856,2.238-2.109,2.639l2.406,3.042h-2.531l-2.108-2.726h-1.702v2.726h-2.165L354.108,115.361L354.108,115.361z    M358.466,119.498c1.055,0,1.659-0.487,1.659-1.205v-0.024c0-0.802-0.647-1.217-1.701-1.217h-2.151v2.446   C356.273,119.498,358.466,119.498,358.466,119.498z"></path>	<polygon class="st1" points="366.565,117.089 363.572,117.089 363.572,115.361 371.724,115.361 371.724,117.089 368.731,117.089    368.731,123.879 366.565,123.879  "></polygon>	<polygon class="st1" points="373.386,115.361 375.552,115.361 375.552,118.731 379.543,118.731 379.543,115.361 381.709,115.361    381.709,123.878 379.543,123.878 379.543,120.46 375.552,120.46 375.552,123.878 373.386,123.878  "></polygon>	<polygon class="st1" points="390.582,117.089 387.588,117.089 387.588,115.361 395.741,115.361 395.741,117.089 392.748,117.089    392.748,123.879 390.582,123.879  "></polygon>	<polygon class="st1" points="397.403,115.361 404.826,115.361 404.826,117.028 399.553,117.028 399.553,118.756 404.192,118.756    404.192,120.423 399.553,120.423 399.553,122.211 404.897,122.211 404.897,123.878 397.403,123.878  "></polygon>	<polygon class="st1" points="409.51,119.547 406.22,115.361 408.75,115.361 410.802,118.123 412.898,115.361 415.358,115.361    412.069,119.522 415.499,123.879 412.968,123.879 410.761,120.958 408.54,123.879 406.08,123.879  "></polygon>	<path class="st1" d="M420.211,115.301h1.995l4.218,8.578h-2.263l-0.9-1.911h-4.16l-0.901,1.911h-2.207L420.211,115.301z    M422.487,120.313l-1.306-2.762l-1.308,2.762H422.487z"></path>	<path class="st1" d="M427.13,122.637l1.28-1.325c0.884,0.632,1.813,1.034,2.936,1.034c0.886,0,1.422-0.304,1.422-0.804v-0.025   c0-0.474-0.338-0.717-1.983-1.082c-1.982-0.439-3.262-0.913-3.262-2.604v-0.024c0-1.545,1.433-2.567,3.445-2.567   c1.433,0,2.656,0.389,3.654,1.083l-1.123,1.411c-0.874-0.523-1.73-0.838-2.56-0.838c-0.828,0-1.265,0.326-1.265,0.741v0.024   c0,0.56,0.421,0.742,2.124,1.119c1.995,0.451,3.12,1.071,3.12,2.556v0.024c0,1.691-1.49,2.64-3.614,2.64   C429.814,124,428.31,123.55,427.13,122.637"></path></g></svg>