<svg xmlns="http://www.w3.org/2000/svg" id="knee_pain_360_logomark_v2" viewBox="0 0 1413 1394">
  <defs>
    <style>
      .knee-painv2-cls-1 {
        fill: #2c4e17;
        stroke-width: 40px;
      }

      .knee-painv2-cls-1, .knee-painv2-cls-2 {
        stroke: #fff;
        stroke-miterlimit: 10;
      }

      .knee-painv2-cls-3 {
        fill: none;
      }

      .knee-painv2-cls-2 {
        fill: #fff;
        stroke-width: 1.32px;
      }
    </style>
  </defs>
  <circle class="knee-painv2-cls-1" cx="706.5" cy="697" r="634.86"/>
  <circle class="knee-painv2-cls-3" cx="706.5" cy="697" r="668.99"/>
  <path class="knee-painv2-cls-2" d="M1151.26,599.82v194.34c0,10.56-1.73,20.71-4.92,30.2-3.35,9.97-8.33,19.18-14.61,27.34-17.27,22.46-44.41,36.95-74.93,36.95h-76.23c-2.76,0-5.01-2.25-5.01-5.02v-54.26c0-2.76,2.24-5.01,5.01-5.01h83.1c6.67,0,13.17-2.63,17.63-7.6.29-.32.57-.65.84-.98,3.24-3.98,4.83-9.03,4.83-14.15v-196.77c0-13.6-6.77-26.52-18.4-33.59-.12-.08-.24-.15-.37-.22-4.58-2.73-9.86-4.1-15.2-4.1h-94.08c-1.82,0-3.63.06-5.45.24-2.8.29-7.48.08-10.51.08-3.85,0-6.1.1-9.85-.32-8.3-.91-16.33-2.81-23.91-5.57-26.66-9.72-48.18-30.12-59.37-56.03-4.68-10.79-7.55-22.54-8.26-34.88-.12-1.98-.19-3.99-.19-6s.07-4.02.19-6v-110.07c0-13.31-8.42-25.39-21.12-29.37-.11-.03-.21-.07-.32-.09-.66-.2-1.34-.29-2.04-.29h-190.87c-26.45,0-47.88,21.44-47.88,47.88v263.88c-.02.89,0,1.17,0,1.72-.01.51-.04,1.02,0,1.56.85,13.64,12.18,24.44,26.02,24.44h201.84c9.75,1.26,19.11,3.73,27.94,7.27,42.65,17.04,72.8,58.74,72.8,107.47,0,4-.21,7.94-.61,11.83v263.21h-.04c.03.81.04,1.63.04,2.46,0,45.6-34.15,83.21-78.25,88.66-2.15.26-4.31.45-6.47.56-1.53.08-3.06.12-4.6.12s-3.07-.04-4.59-.12h-200.78c-4.92.59-9.99.72-15.15.36-43.81-2.96-77-41.42-73.78-85.21.01-.17.02-.32.03-.48h-.23v-130.68c0-16.17-13.1-29.26-29.26-29.26h-129.76c-12.84,0-25.12-2.35-36.44-6.65-16.02-6.07-30.13-16.04-41.16-28.75-15.67-18.03-25.16-41.57-25.16-67.34v-212.31c.29-9.35,2.04-18.34,5-26.75,11.8-33.47,43.06-57.77,80.18-59.32v-.1h87.78c2.8,0,5.07,2.27,5.07,5.07v56.26c0,2.07-1.26,3.85-3.03,4.64-.62.28-1.31.43-2.04.43h-83.97c-12.52,0-22.66,10.14-22.66,22.65v219.66c0,.9.11,1.81.36,2.68.04.13.09.28.13.41,4.93,16.14,20.28,26.86,37.17,26.86h135.2c2.32,0,4.64.09,6.9.28,44.47,3.52,79.45,40.72,79.45,86.09,0,1.84-.04,3.66-.17,5.47h.17v130.68c0,11.9,9.66,21.56,21.58,21.56h205.83c12.33,0,23.42-8.18,26.4-20.15.63-2.52.96-5.13.96-7.75v-279.51c-3.07-22.13-21.24-39.43-43.75-41.2h-183.78c-43.41,0-80.39-27.56-94.38-66.14-.36-.97-.69-1.95-1.01-2.93-3.25-9.86-5-20.38-5-31.32v-254.57c0-19.04,4.47-37.04,12.45-53,10.12-20.33,25.9-37.34,45.27-49,14.81-8.91,31.73-14.69,49.82-16.41h187.03c17.09,0,33.18,4.26,47.26,11.79,6.76,3.59,13.03,7.93,18.74,12.93,21.15,18.41,34.52,45.55,34.52,75.8v108.74c0,6.02,1.27,12,3.99,17.38.25.5.52.99.78,1.49,8.09,14.64,23.85,23.38,40.57,23.38h102.25c26.68,0,50.8,11.08,67.98,28.88,9.11,9.44,16.29,20.77,20.84,33.34,3.67,10.07,5.65,20.92,5.65,32.24Z"/>
</svg>